/* XPM */
static char *result[] = {
/* columns rows colors chars-per-pixel */
"64 64 214 2 ",
"   c #181816",
".  c #1A1916",
"X  c #161B1D",
"o  c #1B1B19",
"O  c #221C17",
"+  c #231D19",
"@  c #2B1F18",
"#  c #2A2317",
"$  c #24211B",
"%  c #2B231C",
"&  c #332117",
"*  c #33221A",
"=  c #3A261C",
"-  c #3C281E",
";  c #161E24",
":  c #1A1E21",
">  c #1C2125",
",  c #14212C",
"<  c #1A222A",
"1  c #0E2233",
"2  c #0F2539",
"3  c #112433",
"4  c #1A2937",
"5  c #11263B",
"6  c #13293E",
"7  c #242627",
"8  c #2B2521",
"9  c #2D2A23",
"0  c #2D2D29",
"q  c #322D23",
"w  c #382C23",
"e  c #2E302F",
"r  c #353229",
"t  c #3B352A",
"y  c #3F392C",
"u  c #23313D",
"i  c #3B3A36",
"p  c #42271C",
"a  c #42291D",
"s  c #462D21",
"d  c #493627",
"f  c #413A2C",
"g  c #543324",
"h  c #563B29",
"j  c #4C3B33",
"k  c #474237",
"l  c #564A38",
"z  c #5C513C",
"x  c #794C35",
"c  c #63553D",
"v  c #69573D",
"b  c #7B563D",
"n  c #132C43",
"m  c #192E44",
"M  c #173149",
"N  c #1A334D",
"B  c #193652",
"V  c #1B3B5A",
"C  c #283849",
"Z  c #283A52",
"A  c #35434D",
"S  c #26425D",
"D  c #354651",
"F  c #1D4262",
"G  c #1E456A",
"H  c #244565",
"J  c #254A6A",
"K  c #2A4B6B",
"L  c #33536B",
"P  c #274E74",
"I  c #294D73",
"U  c #285079",
"Y  c #2A537D",
"T  c #365976",
"R  c #494947",
"E  c #4F504D",
"W  c #685A42",
"Q  c #715E42",
"!  c #6F6247",
"~  c #776648",
"^  c #7F7050",
"/  c #475868",
"(  c #405D74",
")  c #456479",
"_  c #707B6F",
"`  c #63737B",
"'  c #767B77",
"]  c #A05E3D",
"[  c #856948",
"{  c #9C6C4B",
"}  c #8D724D",
"|  c #90754F",
" . c #877554",
".. c #8D7652",
"X. c #947B54",
"o. c #967E58",
"O. c #A86A4A",
"+. c #B56C48",
"@. c #B8714E",
"#. c #A06D56",
"$. c #AC7055",
"%. c #BE7352",
"&. c #B67A58",
"*. c #837F7A",
"=. c #C1744F",
"-. c #C47D56",
";. c #95815B",
":. c #9B835C",
">. c #AA8D5E",
",. c #B48758",
"<. c #9F8962",
"1. c #89827C",
"2. c #BC8B65",
"3. c #AC966A",
"4. c #B59C6D",
"5. c #B8996A",
"6. c #BDA474",
"7. c #C7865D",
"8. c #CA845D",
"9. c #CB8B63",
"0. c #D28E65",
"q. c #C89867",
"w. c #C49C6C",
"e. c #D89768",
"r. c #CE9570",
"t. c #C5A06B",
"y. c #D8A96D",
"u. c #C6AA77",
"i. c #DAA772",
"p. c #DBAB74",
"a. c #CDB17B",
"s. c #D3B57E",
"d. c #DBB57A",
"f. c #E2A26E",
"g. c #F1B66C",
"h. c #E5AB78",
"j. c #EDB57D",
"k. c #E7B87A",
"l. c #EFBC7C",
"z. c #F1BC75",
"x. c #F1B678",
"c. c #F1BD7C",
"v. c #EFC27D",
"b. c #F3C077",
"n. c #F1C17D",
"m. c #2B5681",
"M. c #597284",
"N. c #6C7983",
"B. c #727C84",
"V. c #76858C",
"C. c #788A91",
"Z. c #87888A",
"A. c #968C87",
"S. c #9B918F",
"D. c #8D9195",
"F. c #8C9398",
"G. c #989997",
"H. c #A1918A",
"J. c #BF9C88",
"K. c #A59B91",
"L. c #A29E9A",
"P. c #AAA39C",
"I. c #8E99A4",
"U. c #A9A9A7",
"Y. c #B1ACA7",
"T. c #B3AEA9",
"R. c #B6B1AA",
"E. c #B9B5AE",
"W. c #AEB1B4",
"Q. c #B6B6B0",
"!. c #BAB5B1",
"~. c #BABAB1",
"^. c #D2AC88",
"/. c #D2B780",
"(. c #D5B981",
"). c #DABC83",
"_. c #EAB981",
"`. c #F0B880",
"'. c #CCBCA8",
"]. c #C2BDB6",
"[. c #C4BFB9",
"{. c #DEC086",
"}. c #EDC484",
"|. c #E4C68A",
" X c #EACA8C",
".X c #F2C582",
"XX c #F3C886",
"oX c #F4CD8C",
"OX c #F5D08F",
"+X c #EECE90",
"@X c #F4CF90",
"#X c #F6D593",
"$X c #C6C1AD",
"%X c #C8C1AE",
"&X c #C6C0BA",
"*X c #CBC6BA",
"=X c #CAC3BC",
"-X c #D3CCBD",
";X c #D9D3BD",
":X c #E0C0A3",
">X c #D2CDC1",
",X c #D6D0C1",
"<X c #DCD5C4",
"1X c #DFD8C6",
"2X c #E1DAC6",
"3X c #E3DCCA",
"4X c #E7E0CB",
"5X c #EBE3CD",
"6X c #F1E7CD",
"7X c #F3EACF",
"8X c #F0E7D1",
"9X c #F5ECD2",
"0X c #FAEFD3",
"qX c #FAF0D4",
/* pixels */
"#X#X#X#X#X#X#X#X#X#X#X#X#X#X#X#X#X#X#X#X#X#X#X#X#X#X#X#X#X#X#X#X#X#X#X#X#X#X#X#X#X#X#X#X#X#X#X#X#X#X#X#X#X#X#X#X#X#X#X#X#X#X#X#X",
"#X#X#X#X#X#X#X#X#X#X#X#X#X#X#X#X#X#X#X#X#X#X X X X X X X X X X X X X X X X X X X X X X X#X#X#X#X#X#X#X#X#X#X#X#X#X#X#X#X#X#X#X#X",
"#X#X#X#X#X#X#X#X#X#X#X#X#X#X#X#X#X#X#X#X#X{.z y y y y i f f f f y y y f f f i y y y f c  X#X#X#X#X#X#X#X#X#X#X#X#X#X#X#X#X#X#X#X",
"#X#X#X#X#X#X#X#X#X#X#X#X#X#X6X#X#X#X|.s./.6.i 0 0 0 0 0 q 0 0 0 0 0 e 0 0 0 0 0 0 0 9 k a.{.#X#X#X#X#X#X#X@XoX#X#X#X#X#X#X#X#X#X",
"#X#X#X#X#X#X#X#X#X#X#X#X#X#X#X#XoX#X! q q t Z.G.$X$X$X$X$X$X$X$X%X$X$X%X$X$X$X$X%XR.Z._ i ! #X#X#X#X#X#X#X#XoX#XoXOXOXOX#X#X#X#X",
"#X#X#X#X#X#X#X#X#X#X#X#X#X#X#X#Xs./.E q e k P.=X7X9X0X0XqX0X0XqXqX0X0X0XqXqXqXqXqX5XU.Z.i W u.|.#X#X#X#X#X#XoXoX@XOXOXoX#X#X#X#X",
"#X#X#X#X#X#X#X#X#X#X#X#X#X#X#X#Xz y G.P.%X-X5X8XqX0X0X0X0X0X0X0X0X0X0XqX0XqXqXqXqX9X5X<XR.*.q :.#X#X#X#XoXoXXXXXoX@X#X#X#X#X#X#X",
"#X#X#X#X#X#X#X#X#X#X#X#X#X#Xv.d.z i ].-X9XqX0XqXqXqX0X0X0X0X0X0X0X0XqX0X0XqXqXqXqX9X9X3X*X1.o ;.#X#X#X#X#X#XOX#X@X@X#X#X#X#X#X#X",
"#X#X#X#X#X#XOX#X#X#X#X#X#X#Xv 9 P.T.8X0X0X0X0XqX0X0X0X0X0X0X0X0X0X0XqXqX0X0X0X0XqX8X>X[.&X1.X ;.#X#X#X#X#X#X#XOXOX#X#X#X#X#X#X#X",
"#X#X#X#XOXoXn.OXOX#XOXOX|.s.W r !.>X8XqXqX0X0X0X0X0X0X0X0X0X0X0X0X0XqXqX0X0X5X4X5X3X[.[.&X1.o ;.#X#X#X#X#X#X#X#X#XOXOXOXOXOX#X#X",
"#X#X#X#XOXn.n.XXz.XXXX.X~ o L.[.8X0X0X0XqX0X0X0X0X0X0X0X0X0X9X0X0X0XqXqX0X0X>X[.[.[.[.[.~._ o X.XX XXXoXOX#X#X#X#XOXOXOXOXOXOX#X",
"#X#XOXoX.X.Xn.b.b.v.v.n.~ X L.[.1X3X0X0XqXqX0X0X0X0X0X0X0X0X0X0X0X0X8X3X<X1X~.[.[.[.[.[.~._ o | n.n.n.z.c.n.oXoX#XOXOXOXOXOXOX#X",
"#X#X#X#Xn.z.z.z.z.n.z.b.~ . L.&X[.[.8X0X0X0X0X0X0X0X0X0X0X0X9X0X0X0X3X>X~.[.[.[.[.[.[.[.~.' o X.n.n.z.g.g.g.z.z.XXoXXXOXOXOX#X#X",
"#X#X#XOXoX.Xn.b.n.n..X.X~ . L.].[.[.3X3X2X2X2X2X2X2X2X2X2X2X<X<X<X,X>X&X[.[.[.[.[.[.~.[.~._   X.n.n.n.c.z.z.g.g.n..Xc.oX#X#X#X#X",
"#X#X#XOXXX XXXXX.XoX XOX~   P.~.[.[.[.[.].[.[.[.[.[.].].[.[.[.[.&X[.[.&X[.[.[.[.[.[.[.[.Q._ X | v.l.c.v.z.z.z.z..X.Xn.OXoXoX#X#X",
"#X#X#X#XOX#XOXOXOXOXOX#X^   P.].[.[.[.[.[.[.[.[.[.[.[.[.[.[.[.[.[.[.&X[.[.[.[.[.[.[.[.W.V.D o z ....| | X.d.n..XXXoXoXoXoXoXOXoX",
"#X#X#X#X#X#X#X#X#X#X#X#X .o K.].[.[.[.[.[.[.[.[.[.[.[.[.[.[.[.[.[.[.[.[.[.[.[.~.!.E.W.F.S M > > : : : o 0 6.v.}.XXoX.XXXoXoXOXoX",
"#X#X#X#X#X#X#X#X#X#X#X#X^ o V.U.].[.[.[.[.[.[.[.[.[.[.[.[.[.[.[.[.[.].[.[.[.[.!.M.) T T U P I K J J H Z u k c v.XXoXoXOX#XoX#X#X",
"#X#X#X#X#X#X#X#X#X#X#X#X^ o ' G.Q.!.!.].[.[.[.[.[.[.[.[.[.[.[.!.E.!.W.!.!.Q.U.U.L F G G Y m.Y m.m.m.Y V m X 9 k.XX X#XOXoX#XOXoX",
"#X#X#X#X#X#X#X#X#X#X#X#X^ o ' F.F.F.G.I.].[.[.[.[.[.[.].[.[.E.C.V.V.C.V.V.B.H H F F U Y Y m.Y Y m.m.m.S m ; q |.#XOXOX#X#X#X#X#X",
"#X#X#X#X#X#X#X#X#X#X#X#X^ . ' D.Z.Z.Z.Z.U.T.T.T.Y.Y.T.Y.T.Y.G.N.N.` ` ` ` ` B B B V J U Y T Y Y m.m.Y S m 0 y |.#X#X#X#X#X#X#X#X",
"#X#X#X#X#X#X#X#X#X#X#X#X#XOXl o X   X X . . . . o o o o . o o o X     o o   . .       o & O . . . .   . 9 u.XX#X#X#X#X#X#X#X#X#X",
"#X#X#X#X#X#X#X#X#X#X#X#X#XOXz o o o O O o O o O o o o @ # % + o . . # * 8 = & & * % o O p & . + # $ $ % t a.oXOX#XoX#X#X#X#X#X#X",
"#X#X#X#X#X#X#X#X#XOX#X#X#XOXz . - - g g g g g g g + X w.c.j.2.8   X b -.-.9.-.9.9.{ 8 s +.x . ;.oXoXoXoXXXoXoXOXoXoX#X#X#X#X#X#X",
"#X#X#X#X#X#XOXoXOXoXoXoXOXoXz o - - g g g g g g g @ o t.`.h.9.w O   b 9.9.0.0.8.8.#.% s +.x . :.oXoX@XOXXX@X@XoX#X#X#X#X#X#X#X#X",
"#X#X#X#X#X#XOXoXoXoXXXoXoXXXc o = - g g g g g g g = - r.`.0.$.g w . ..j.j.c.j.j.0.&.% d +.x . ;.oXoX@XOX@X@X@XOX#XoX#X#X#X#X#X#X",
"#X#X#X#X#XOXOXOXXXoXoXoXoXoX5...w % s s g g g a p - - w.`.-.&.] [ Q 9.j.j.j.c.j.i.2.w d 7.,.~ ^ ..s.OXOX@XOXOX#X#X#X#X#X#X#X#X#X",
"#X#X#X#X#X#XoX#XoXXXoXoXOXOXoXOXr . * - g g g - = - - w.`.-.0._.j.j.j.j.c.j.j.j.`.w.9 j p.l.j.c + 6.#XOX#X#X#X#X#X#X#X#X#X#X#X#X",
"#X#X#X#X#X#X#X#XoXoXOXOX#XOX#XOXf   = = = p - - - - = j x h.h.`.j.j.j.`.`.`.j.j.j.h.5.w.j.`.c.W $ 6.#X#X#X#X#X#X#X#X#X#X#X#X#X#X",
"#X#X#X#X#X#X#X#XOXOX#X#X#X#X#X#Xf   * - = - = = - = = w j _.`.`.j.j.`.j.j.j.j.`.j._.`.j.`.j.`.v $ 6.#X#XOXOX#XOX#X#X#X#X#X#X#X#X",
"#X#X#X#X#X#X#X#X#X#X#X#X#X#X#X#X|.).q O * = * = = o.-.r.2.r.0.0.e.j.`.`.j.`.j.j.j.`.`.h.9.{ d ;.{.+X#X#XoXOXOXOX#XOX#X#X#X#X#X#X",
"#X#X#X#X#X#X#X#X#X#X#X#X#X#X#X#X#X@Xt o = = = = * $.%.%.%.=.=.%.-.h.`.c.j.j.`.j._.`.`.i.-.x o  .#X#X#XoXoXoX@XOXOXOX#X#X#X#X#X#X",
"#X#X#X#X#X#X#X#X#X#X#X#X#XoX#X#XOXXX3.:.% o o R *.S.H.H.H.@.@.@.=.0.f.`.`.`.`.`.j.h.e.&.l [ 6. X#X#XOXOXoXoXoXoXOXOXOXOX#X#X#X#X",
"#X#X#X#X#X#X#XOXXX#XXXoXoXXXOXoXXXXXXXd.t + o E Z.F.F.D.S.O.$.@.$.%.r.f.i.i.i.i.y.y.%.] 7 Q }.OXOX#XOXOXOXOXOXOXOXOX#X#X#X#X#X#X",
"#X#X#X#X#X#XoXn.XXXXn.oXXX.XOXXXv.XXl.k.q.} + C K K L K K Z / A.Z.Z.R O . O   O . O . d 2.y.z.l.OXOX#X#XOX#X#XOXOXOXOX#X#X#X#X#X",
"#X#X#X#X#X#XoXn.c.c.n.n.n.}.v.b.b.b.v.g.y.:.0 A L T ( ) ( L ( B.N.B.A + o ; o   q d f Q k.v.z.z.n.n.v.}.OXOX#XOXoX#X#X#X#X#X#X#X",
"#X#X#X#XoXn.b.b.g.g.z.z.b.v.b.b.b.z.z.y.f R ` D.!.-X3X5X3XZ.N.F V F n 2 5 n ; 8 5.).k._.}.v.l.z.b.b.b..X#XXX#XoXOX#XOX#X#X#X#X#X",
"#X#X#X#XoXXX.Xb.n.z.n.z.v.XXn.n.v.z.z.y.9 i V.U.-X3X0X0X9X~.U.N.M.F n 2 n M ; 8 a.oXoX}.v.z.b.z.XXXX.Xb.OXOXoXOXoXOX#X#X#X#X#X#X",
"#X#X#X#XOXOXOX.XoX.X.X.Xv.XXXXv.v.n.v.y.q R L.*X7X0X0X0X0X7X5X[.I.G n 1 M V 4 q a.oXXX.X.Xc.v..XXXb.XXn.n.XXoXoXOXoX#X#X#X#X#X#X",
"#X#X#X#XOX#XOXOXOX@XOXoXoXoXoXXXoXOXOXs.q R L.-X0X0X0X0X9X5X3X-XW.M./ / S B m u  .>.k.v..XXXoXoXoXXXoXXXOXOXOX#XOXOX#X#X#X#X#X#X",
"#X#X#X#X@XOXOX#XOX#XOXOXOXOXOXoXOXOXoX).q R U.-X0X0X0X0X0X].*X7X8X5X=XQ.N.6 F K 7 f d.b.XXXXOX#XOXoXOX#XOX#X#X#X#X#X#X#X#X#X#X#X",
"#X#XOX@XoXOXoXOXOXoXOXOXOXOXoXoXOXOXOX{.q R U.'.'.:X:X:X'.L.E.7X0X0X-X[.B.6 F I > y d.OXOX+XOX#X#X#X#X#X#X#X#X#X#X#X#X#X#X#X#X#X",
"#X#X#X#XoX@XoX#XoXoXOXOXXXOXoXoXOXoXoXd.0 E U.J.%.%.=.=.=.1.J.6XqX0X,X=XB.6 G I > y s.OX#X#X#X#X#X#X#X#X#X#X#X#X#X#X#X#X#X#X#X#X",
"#X#X#X#XoXoXoXoXoXOXv.XXoXXXoXXXOXoXoXd.0 j &.r.f.f.f.e.e.1.K.5X0X0X,X[.B.5 G I > y ).OX#X#X#X#X#X#X#X#X#X#XoX#X#X#X#X#X#X#X#X#X",
"#X#XOXOX@X@XoX#XOXOXXXXXOXv.OXv.oX+X#Xv.0 g ] e.x.j.j.`.h.A.P.6X0X0X<X[.B.4 F J X f (.#X#X#X#X#X#X#X#X#XOXoXoX#XOXOX#X#X#X#X#X#X",
"#X#X#XOXOX#X@XoXOXXXoXOXOXv.oX+X+X+X#Xd.9 d +.e.j.j.j.j.j.A.P.7X0X0X6X5XW.B.A , o f {.#X#X#X#X#X#X#X#X#X#X#XoXOXOX@XOXOX#X#X#X#X",
"#X#X#X#X#X#X#X#XOXOXOXoXOXv.oXoXOX#X#Xd.= g +.e.j.j.`.`.k.A.P.5X9XqXqX0X&XG.R . 9 l {.#X#X#X#X#X#X#X#X#XoXoXOXoXXXOXOXOXXXoX#XOX",
"#X#X#X#X#X#X#X#XOXOX#XOX#X#XOXOXOX#X#Xd.q g +.e.h.j.j.`._.u.^.;X<X7XqX0X&XG.R $ 4.{.+X#X#X#X#X#X#X#X#X#X#XoX#XoXOXOXOXoXoXOXOXOX",
"#X#X#X#X#X#X#X#X#X#X#XOX#XOX#XOXoX#Xs.u.9 d ] 0.f.j.j.j.j.h.p.T.E.;X;X;XU.Z.i 9 /.#X#X#X#X#X#X#X#X#X#X#X#X#X#X@X@X@XoX#XXXoXOXoX",
"#X#X#X#X#X#X#X#X#XOXOX#X#X#XOXOXoXoXk r 3 3 e Q -.f.j.j.j.8.#.D D A D D C C 7 9 s.#X#X#XXX#X#X#X#X#X#X#X#X#X#X#X#X#X#XOX#XOXOXOX",
"#X#X#X#X#X#X#X#XOXOX@X@XOX#XOXOXoXXX% X 4 6 5 l +.0.h.p.f.@.[ m 6 2 n n n 6 < 0 4.d. X.Xv.XXXXoXoX#X#X#X#X#X#X#X#X#X#X#X#X#X#X#X",
"#X#X#X#X#X#X#XOX@XOXOX@XOXOXOXOXoX X9 X M N N N Z u u u u Z Z N N N F U U U P I 0 d d.n.z..Xv.XXoX.XoX#X#X#X#X#X#X#X#X#X#X#X#X#X",
"#X#X#X#X#X#X#X#XOXOXOX#XOX#XOXOX X_.7 X N B N B N 2 3 3 1 N B N N B G Y m.Y U I < t y.v.l.n.l.n..Xn..X.X.XOXXXXX#X#X#X#X#X#X#X#X",
"#X#X#X#X#X#X#X#X#XOX#X#XOX#XOXOXr   3 3 1 6 M B N 2 1 ;   o X 1 2 M H m.Y Y U P < t y.l.v.z.v.l.c.c.v.l..X}.v.XXXXoXOX#X#X#X#X#X",
"#X#X#X#X#X#X#X#XOX#X#X#X#X#X#X#Xt o : ; : 4 m M M 1 ; k c c l , 5 n V I U U U P 4 0 ;.>.>.t.v.v.n.c.v.n.}.v.v.v..Xl.XX#X#X#X#X#X",
"#X#X#X#X#X#X#X#X#X#X#X#X#X#X#X#Xt o * & & 8 3 5 6 : o t..Xn.t.% : 1 6 M G U U J 4 , . . o W k.z.n.v.v.v.n.n.l.n.n..XOXXX#X#X#X#X",
"#X#X#X#X#X#X#X#X+XOXOXOXOX#XOX#Xt . * & & * 8 : > ! ..d.XXn.d.[ c > 3 5 B V Z C 9 * * * * h [ 5.l.l.l.c.}.v..X.XXX.XOXOXOX#X#X#X",
"#X#X#X#X#X#X#X#XOXoXOXoXOXOXOX#Xy o @ * & * & O   4.}.XX.X.Xc..Xw.q ; 3 2 n * & p p p a a % o X.}.XX.X}..X.X.X}..X.XXXn.OX#X#X#X",
"#X#X#X#X#X#X#XOXOXOX XOXOXOX#XOX<. .# + & & & @ + Q X. XOX X#XXXd.X.k , > 7 * * & p = & * + . o.OXOXoXoXXX X#XOXoXOXoX#X#X#X#X#X",
"#X#X#X#X#X#X#X#XOXoXOXXXOXOXOX#X#X X$ o @ & * & * O o ).#X#X#X#X#X#X! o @ & * * & & & # o . o ;.OXOX@XoXoX#X#X#X#XOXOXOX#X#X#X#X",
"#X#X#X#X#X#X#X#X#XOXOX#XOXOXOX#X#X#X4.<.% O O O O . . |.#X#X#X#X#X#Xa.3.l O O O $ $ O k 3.4.4.{.OXOXOXOX#X#X#X#X#X#X#X#X#X#X#X#X",
"#X#X#X#X#X#X#X#X#X#X#X#XOXOX#X#X#X#X#X(.9   . o . .   |.#X#X#X#X#X#X#X#X!   . . o o . l |.#X#X#XOX#XOX#X#X#X#X#X#X#X#X#X#X#X#X#X",
"#X#X#X#X#X#X#X#X#X#X#X#X#X#X#X#X#X#X#X#X/.s././././.s.#X#X#X#X#X#X#X#X#X(.u.u.u.6.6.6.s.#X#X#X#X#X#X#X#X#X#X#X#X#X#X#X#X#X#X#X#X",
"#X#X#X#X#X#X#X#X#X#X#X#X#X#X#X#X#X#X#X#X#X#X#X#X#X#X#X#X#X#X#X#X#X#X#X#X#X#X#X#X#X#X#X#X#X#X#X#X#X#X#X#X#X#X#X#X#X#X#X#X#X#X#X#X"
};
