/* XPM */
static char *result[] = {
/* columns rows colors chars-per-pixel */
"64 64 207 2 ",
"   c #1D1D1B",
".  c #201F1D",
"X  c #1F201D",
"o  c #22211E",
"O  c #2C231E",
"+  c #32261F",
"@  c #1D1F22",
"#  c #1D2123",
"$  c #1D242C",
"%  c #1A2532",
"&  c #1E2835",
"*  c #1D2A3B",
"=  c #252321",
"-  c #2A2621",
";  c #29292A",
":  c #312621",
">  c #352923",
",  c #3A2B24",
"<  c #3E2F28",
"1  c #363229",
"2  c #393329",
"3  c #3A342A",
"4  c #212936",
"5  c #282E3C",
"6  c #26303D",
"7  c #2F303A",
"8  c #3A3936",
"9  c #31313C",
"0  c #412F26",
"q  c #443127",
"w  c #4D3226",
"e  c #443329",
"r  c #4B362B",
"t  c #453A2D",
"y  c #573B2B",
"u  c #53392C",
"i  c #433C30",
"p  c #533D33",
"a  c #633D2D",
"s  c #43423F",
"d  c #594837",
"f  c #5C513E",
"g  c #674636",
"h  c #794C39",
"j  c #60533C",
"k  c #7D503D",
"l  c #212F43",
"z  c #243244",
"x  c #293344",
"c  c #26354C",
"v  c #28394F",
"b  c #313544",
"n  c #273750",
"m  c #293951",
"M  c #413D43",
"N  c #384553",
"B  c #334A69",
"V  c #344E70",
"C  c #42484A",
"Z  c #574848",
"A  c #5E5440",
"S  c #575657",
"D  c #5C5A55",
"F  c #615741",
"G  c #645943",
"H  c #695948",
"J  c #765944",
"K  c #615F5B",
"L  c #735F58",
"P  c #6F6147",
"I  c #746448",
"U  c #78664A",
"Y  c #7A6B4D",
"T  c #64625B",
"R  c #796B55",
"E  c #7F7052",
"W  c #5D6268",
"Q  c #676968",
"!  c #75716B",
"~  c #646C76",
"^  c #666D77",
"/  c #6E7677",
"(  c #7A7775",
")  c #87553F",
"_  c #8D553C",
"`  c #8E553C",
"'  c #825742",
"]  c #8C5B42",
"[  c #925C43",
"{  c #9C5F42",
"}  c #85654C",
"|  c #836D4C",
" . c #9B6448",
".. c #8D734F",
"X. c #896D53",
"o. c #837253",
"O. c #8B7956",
"+. c #967456",
"@. c #947D5B",
"#. c #A36446",
"$. c #A66849",
"%. c #AA6B4C",
"&. c #B0714F",
"*. c #A87A54",
"=. c #B77B58",
"-. c #8E746B",
";. c #817F79",
":. c #937C73",
">. c #A77A63",
",. c #99835B",
"<. c #9A845C",
"1. c #A18459",
"2. c #BE815E",
"3. c #B8925E",
"4. c #998661",
"5. c #9C8862",
"6. c #87857E",
"7. c #A48B62",
"8. c #A98B67",
"9. c #BC8463",
"0. c #AD9669",
"q. c #B5996A",
"w. c #B29378",
"e. c #BCA474",
"r. c #C58762",
"t. c #C48B65",
"y. c #C8946B",
"u. c #C69C74",
"i. c #D29C72",
"p. c #CAA46D",
"a. c #C1A877",
"s. c #C4AB78",
"d. c #C5AB78",
"f. c #D6A877",
"g. c #DEAD7E",
"h. c #CCB17D",
"j. c #D3B57E",
"k. c #DFB678",
"l. c #F1B66C",
"z. c #E9BB78",
"x. c #EEBE7B",
"c. c #F2B670",
"v. c #F1BC74",
"b. c #F1BE7B",
"n. c #EFC27C",
"m. c #F3C077",
"M. c #F1C17C",
"N. c #777C84",
"B. c #797D85",
"V. c #7A868D",
"C. c #898685",
"Z. c #8C8A87",
"A. c #928D89",
"S. c #969388",
"D. c #8C9397",
"F. c #939494",
"G. c #969797",
"H. c #999997",
"J. c #9A9A99",
"K. c #A5A29C",
"L. c #BCA598",
"P. c #A8A8A4",
"I. c #ACADAC",
"U. c #B1ADA9",
"Y. c #B5B2A7",
"T. c #B5B1AC",
"R. c #B6B5B1",
"E. c #BAB7B2",
"W. c #BDB9B4",
"Q. c #D1AE8E",
"!. c #D7B882",
"~. c #E0AF80",
"^. c #E2B282",
"/. c #E3BD81",
"(. c #C8B7A8",
"). c #C2BDB7",
"_. c #C3BEB9",
"`. c #EDC484",
"'. c #E8C688",
"]. c #EBCA8C",
"[. c #F2C582",
"{. c #F3C986",
"}. c #F4CD8C",
"|. c #F5D08F",
" X c #EFCF90",
".X c #F4CF90",
"XX c #F6D493",
"oX c #C5C1BA",
"OX c #C9C5B9",
"+X c #CAC6BB",
"@X c #D9CBB5",
"#X c #CECAC2",
"$X c #D3CFC3",
"%X c #DAD5C6",
"&X c #E3DCC7",
"*X c #E3DECB",
"=X c #E6E1CC",
"-X c #ECE5CE",
";X c #EEE8CF",
":X c #E7E2D1",
">X c #EAE4D1",
",X c #EEE8D1",
"<X c #F5EED5",
"1X c #F5EFD8",
"2X c #F7F0D6",
"3X c #F8F1D7",
"4X c #F9F1D9",
/* pixels */
"XXXXXXXXXXXXXXXXXXXXXXXXXXXXXXXXXXXXXXXXXXXXXXXXXXXXXXXXXXXXXX|.XXXXXXXXXXXXXXXX|.XXXXXXXXXXXXXXXXXXXXXXXXXXXXXXXXXXXXXXXXXXXXXX",
"XXXXXXXXXXXXXXXXXXXXXXXXXXXXXXXXXXXXXXXXXXXXj.a.h.s.s.e.a.a.a.a.a.a.a.a.e.e.e.e.e.e.e. XXXXXXXXXXXXXXXXXXXXXXXXXXXXXXXXXXXXXXXXX",
"XXXXXXXXXXXXXXXXXXXXXXXXXXXXXXXXXXXXXXXXXXXXo.X     X X X     X   X       o         1 h.XXXXXXXXXXXXXXXXXXXXXXXXXXXXXXXXXXXXXXXX",
"XXXXXXXXXXXXXX|.XXXX|.XXXXXXXXXXXXXX].5.5.5.! D D T T T T T T T T T T T T T T T T D D ,.5.5.h.XXXXXXXXXXXXXXXXXXXXXXXXXXXXXXXXXX",
"XXXXXXXXXXXX|.}.|.|.}..XXXXXXXXXXXXX!.- . . ! E.=X-X;X-X-X-X-X-X-X-X-X-X-X-X-X-X-XoXU.s o o ,.].XXXXXXXXXXXXXXXXXXXXXXXXXXXXXXXX",
"XXXXXXXX}.|.XX}.}.|.}..XXXXXXXXXXX| R D T Q K.$X<X2X3X3X3X2X3X3X3X2X2X2X2X2X3X3X2X%X+X6.T D T E e.XXXXXXXXXXXXXXXXXXXX;XXXXXXXXX",
"XXXXXXXX|.}.|.}.}.{.}.}.XXXXXXXX}.= 8 U.+X;X<X<X2X2X3X3X3X3X3X3X2X2X3X3X3X2X3X3X2X1X<X<X%XoXC.= I |.XXXXXXXXXXXXXXXXXXXXXXXXXXXX",
"XXXXXXXXXXXX|.|.|.|.XXXXXXXXXX@.U ! ;.%X*X3X3X3X2X2X3X3X3X3X3X2X3X3X3X2X2X2X2X3X2X2X2X2X<X%XY.! ! @.d.XXXXXXXXXXXXXXXXXXXXXXXXXX",
"XXXXXXXXXXXXXXXXXXXXXXXXXXXX.X1   E.+X<X1X2X3X3X3X3X3X3X3X3X3X3X3X3X2X3X2X2X2X2X3X3X2X2X3X3X=X_.A.o O.XXXXXXXX|.XXXXXXXXXXXXXXXX",
"XXXXXX|.}.}.|.XXXXXXXXXXXXXX X1   E.+X<X2X2X4X2X2X3X2X2X2X3X3X1X2X3X2X3X3X2X3X3X2X3X2X3X3X3X>XoXZ.o o.|.|.XX|.}.XXM.}.XXXXXXXXXX",
"XX|.|.|.|.|.|.XXXXXX.XXX}.{.'.1   E.#X<X2X4X2X2X2X2X2X2X2X2X3X3X3X3X2X2X3X3X2X3X3X3X3X3X4X3X>XW.Z.o | {.M.{.{.m.|.M.M.|.XXXXXXXX",
"XX|.}.|.|.|.XXXX{.}.M.b.b.b.x.1   W._.<X2X2X2X4X2X3X2X2X3X3X2X3X2X2X2X2X2X3X3X3X2X2X2X3X1X1X>X_.Z.o | M.M.M.M.m.m.m.M.}.|.XXXXXX",
"XXXXXX|.}.{.{.[.v.v.l.l.v.v.z.>   E.#X>X1X3X3X4X2X2X2X2X2X2X3X2X3X3X2X2X2X2X2X3X3X2X2X3X2X<X*XoXZ.o | M.m.v.M.v.m.m.m.m.|.XXXXXX",
"XXXXXXXX}.n.[.[.v.l.v.v.b.m.x.1   E.W.#X%X2X3X4X3X3X3X2X3X3X3X2X2X2X2X2X2X2X2X3X3X2X3X2X,X+XoXoXZ.o | }.{.n.M.M.m.m.M.|.|.XXXXXX",
"XXXX|.].}.{.{.[.v.v.c.b.x.M.x.1   R._._.%X<X4X1X1X3X3X2X3X3X3X1X3X3X3X3X2X3X3X3X3X3X4X4X>XoXoX).Z.o E |.|.|.}.{.{.{.M.|.|.XXXXXX",
"}.}.}.}.}.{.}.{.`.x.M.M.[.`.`.1   E._._.oXoXoXoX>X3X2X2X3X3X2X2X2X3X2X3X2X2X3X3X2X+XoXoXoX_.W._.Z.o E XXXX|.|.|.|.|.|.XXXXXXXXXX",
"}.}.|.}.{.[.}.{.[.].[.{.[.{.].1   E._._._._.)._.:X1X1X<X<X<X1X2X1X3X1X1X1X1X1X1X1XOX_.).oXW.oXW.Z.o E XXXXXXXXXXXXXXXXXXXXXXXXXX",
"|.XX|.|.|.}.}.}.{.{.}.{.}.}.}.1   E._._._._.)._._.oX_.oX_.oX_._._._._._.).oX_.oX_._.)._.oX).W.oXZ.o o.XXXXXXXXXXXXXXXXXXXXXXXXXX",
"|.|.XX|.XX}.}.{.{.}.{.{.}.}.].3   P.T._._._._._._._._._._._._.).).)._._.).)._._._._._._.).).W.T.6.o E XXXXXXXXXXXXXXXXXXXXXXXXXX",
"XXXXXX|.XXXXXX}.}.}.}.}.}.{.].2   V.D.W._._._._._._.oX_._._._._._._._._._.)._._._._._._.oXW.U.D.Q o E XXXXXXXXXXXXXXXXXXXXXXXXXX",
"XXXXXXXXXXXXXX|.XXXX}..XXX}.}.P A Q / I.I.I.R._._._._._._._.oX_._._._._._._._._._.).W.I.P.I.F.^ Q G 0.XXXXXXXXXXXXXXXXXXXXXXXXXX",
"XXXXXXXXXXXXXXXX.X}.XXXXXXXXXX].].; 7 C.D.V.P._._.W._._.)._._._._._._._._.oXoX_._.).R.V.V.V.W = F ].].XXXXXXXXXXXXXXXXXXXXXXXXXX",
"XXXXXXXXXXXX}.].}..X.XXX}.|.'.H f g g C C C S S T T T K D T T K K K K K T D K K T D D N C N b > i I 0.XXXXXXXXXXXXXXXXXXXXXXXXXX",
"XXXXXXXXXXXX}.}.XX}.{.{.}.}.`.1 X  .[ =   . . @ o   # @ @ = X X   o o o   o X X X o o o X o O q , o U XXXXXX|.XXXXXXXXXXXXXXXXXX",
"XXXXXXXXXXXXXXXX{.}.|.{.}.XX`.>   y.9.r q , < u r u r r w r r r r r r r r r r r r u t > > - e +.J o U |.}.}.}.}.XXXXXXXXXXXXXXXX",
"XXXXXXXXXXXXXXXXXX|.|.|..X}.].1   f.y.a w , e u u r u u u u r u u u u u u u u u u u w < , , p y.@.o U }.}.}.}.}.XXXXXXXXXXXXXXXX",
"XXXXXXXXXXXXXXXXXXXXXX|.}..X].1   ~.u.a w , e u u u u u u u u u u u u u u u u u u u u , , , d g.8.. U |.{.|.}.{.}.}.XXXXXXXXXXXX",
"XXXXXXXXXXXXXXXXXX|.XXXXXXXX X<   ~.i.a w , e y u u u u y w u u u u u u u u u u y u w , , , d g.8.o U |.{.}.}.{.}.}.}.XXXXXXXXXX",
"XXXXXXXXXXXXXXXXXXXXXXXXXXXXXXa.0.d j ` [ ] g e 2 0 r u u u u u u y u u u u u q w 0 0 0 , , t d I 0.d.XXXX|.}.|.XXXXXXXXXXXXXXXX",
"XXXXXXXXXXXXXXXX|.XX|.|.XXXXXXXXXXo +  .%.%.g , , , w u u u u u u w u y u y u , + , , , , , > = f XXXXXXXXXXXX|.XXXXXXXXXXXXXXXX",
"XXXXXXXXXXXXXXXX|.|.|.{.|.XXXXXXXXe.8.t g #.[ ) w , 0 < < < , < < < < , < < 0 , , , , , : . 3 q.j.XXXXXXXXXXXXXXXXXXXXXXXXXXXXXX",
"XXXXXXXXXXXXXXXX}.}.}.|.XXXXXXXXXXXX!.= r #.$.#.w , , , , , , , , , , > , , , > , , + , , . i ].XXXXXXXXXXXXXXXXXXXXXXXXXXXXXXXX",
"XXXXXXXXXX}.|.|.}.}.}.}.|.|.XXXXXXXX'.o.} ' { #.h y , , , : , > > , , , , , , , > a a > < o.1.XXXXXX|.XXXXXXXXXXXXXXXXXXXXXXXXXX",
"XXXXXXXXXXXXXX}.|.|.}.|.|.|.XX|.XX{.].v.,.= g { { ` 0 , , , , , > , , , , : , : : ) _ : d k.{.}.}.|.{.}.}.}.XX{.XXXXXXXXXXXXXXXX",
"XXXXXXXXXX|.|.XX|.XXXXXXXX|.|.}.n.n.l.l.*.o e g Z Z 9 9 7 7 7 7 7 7 9 9 7 9 7 7 7 p p . d f.{.M.[.}.`.{.}.M.[.}.M.}.XXXXXXXXXXXX",
"XXXXXXXXXX|.XX}.|.XX|.XX{.M.[.M.v.l.k...f o . . x c c v m c v m v m m v m m m c m ; . . 1 I 3.m.n.[.{.b.m.M.v.m.[.}.}.XXXXXXXXXX",
"XXXXXXXXXX|.XX}.}.XX{.|.[.m.M.m.v...| Z K ! 6.A.B.B.B.B.B.B.B.N.B.B.B.B.B.B.B.~ ~ S.S.;.! D R +.3.x.M.b.c.v.c.c.v.v.[.|.XXXXXXXX",
"XXXXXXXX}.XX|.}.|.}.|.}.m.M.{.{.n.o 1 ! A.).%X3X+XoX_._.)._._._._.)._.)._._._.H.H.<X,XoXI.F.Q . J m.[.M.m.M.m.m.b.[.[.XXXXXXXXXX",
"XXXXXXXXXX}.|.|.|.{.{.[.M.[.n.{.M.= 8 %X&X;X<X3X;X;X;X<X;X;X;X;X;X;X-X;X;X;X;X*X&X3X3X,X>X>XC.. U {.`.{.[.M.{.{.{.|.XXXXXXXXXXXX",
"XXXXXXXXXX|.|.|.XX|.|.}.}.}.{.}.|.= 8 ;X3X2X2X3X3X2X2X2X1X3X3X2X3X3X2X2X3X2X3X3X2X2X3X1X3X1XA.@ U }.}.{.|.}.|.|.|.|.XXXXXXXXXXXX",
"XXXXXXXXXXXXXXXXXXXXXX|.}.XX].1   oX+X2X2X2X@X_.,X4X1X2X2X2X2X2X3X<X3X<X2X2X3X3X3XS.J.-X<X<X&X_.C.. 5.}.XX.X|.XXXXXXXX}.|.XXXXXX",
"XXXXXXXXXXXXXXXXXXXXXXXXXXXX X1   W.OX<X2X;X%X).,X3X3X1X2X2X2X2X3X3X3X3X2X2X3X3X<XH.K.-X4X1X%XU.( = 5.}.}.|.|.|.XX{.|.}.}.XXXXXX",
"XXXXXXXXXXXXXXXXXXXXXXXXXXXX X1   W.oX<X&X).I.H.=X1X2X2X3X2X2X2X2X2X3X3X2X2X2X2X1XH.J.>X1X1XI.B x = 1.}.}.}.}.}.|.|.|.|.|.XXXXXX",
"XXXXXXXXXXXXXXXXXX.XXXXX Xh.q.d q L.Y.@X(.T.P.H.-X2X2X2X3X2X3X2X2X<X2X<X2X2X<X2X1XH.J.%X&X&XU.S M = <.|.{.[.{.}.{.|.}.}.}.|.XXXX",
"XXXXXXXXXXXXXXXXXX{.}.XX].A . [ $.t.2.%.>.F.G.G.-X1X1X3X2X2X2X2X2X2X2X<X2X2X2X2X3XH.F.K.T.).L.%.h = <.{.}.{.}.XX}.}..X.X|.|.XXXX",
"XX|.|.XXXXXXXXXX}.XXXXXX'.A @ =.r.i.i.=.>.6.A.G.>X1X3X1X2X2X2X2X2X2X2X2X2X2X2X2X1XH.A.:.w.Q.Q.u.} = <.}.}.}.}.}.|.|.XXXXXX|.XXXX",
"|.|.}.{.}.|.XX}.}.}.}.}.'.A . u.~.~.~.r.=.{ :.F.*X4X2X2X2X2X3X3X3X2X2X2X<X2X2X3X<XH.C.k ' f.~.~.@.o <.}.}..X}..XXXXXXXXXXXXXXXXX",
"|.|.|.}.}.|.|.|.}.|.XXXX'.Z @ u.^.^.~.r.=.` :.G.&X<X<X2X2X2X3X3X2X<X<X2X2X2X2X;X-XF.C.) ] ~.~.~.@.O <.|.}.XXXXXXXXXXXXXXXXXXXXXX",
"|.|.}.}.|.|.}..X.XXXXXXX].f   u.^.^.g.t.=.` -.F._.#X<X<X1X1X1X3X2X<X3X1X1X3X1XoX).D.C.) [ f.^.^.@.= 4.XXXXXXXXXXXXXXXXXXXXXXXXXX",
"|.|.|.|.XXXXXX|.XXXXXXXX].f   e.^.f.i.2.=.&.-.^ P.T.+X+X+X+XOXoXOXOXOXOXOXOXOXU.U.Q K k ` t.y.i...= <.XXXXXX].|.XXXXXXXXXXXXXXXX",
"XXXXXXXXXXXXXXXXXXXXXXXX].j . u.g.9.2.&.2.y.L x C.F.F.F.G.F.F.D.F.F.F.F.F.F.F.F.F.7 9 h _ %.*.2.} - 4.}.}.}.|.|.XXXXXXXXXXXXXXXX",
"XXXXXXXXXXXXXXXXXXXXXX|.].7.} R X.$.%.#.&.=.H l W ~ ^ ^ ~ ~ ~ ~ ~ ~ ~ ~ ~ ~ ~ ~ ~ z 7 ) ` #. .J J @.d.}.}.XX}.}.}.XXXXXXXXXXXXXX",
"XXXXXXXXXXXXXXXX}.{.XX[.[.[.z.3 . _ `  .{ #.d 4 n n n c n n n n c m n n c m m m c z x ) _ { k = A .XXX|.XX}.}.|.XXXXXXXXXXXXXXXX",
"XXXXXXXXXXXXXX{.{.x.[.[.b.[.b.q.q.3.&.w w 0 7 4 n c c c * * * * & & * l m m n c c z z > , 0 k 0.s.XXXXXXXXXX|.XXXXXXXXXXXXXXXXXX",
"XXXXXXXXXX{.m.[.n.x.n.`.x.[.b.M.n.`.p.o     $ 4 c c c c * % % % % % % * c m c c c c z @   X Y ].XXXXXXXXXXXXXXXXXXXXXXXXXXXXXXXX",
"XXXXXXXX[.}.[.m.M.x.M.M.n.n.x.M.m.M.`.f.... $ 4 l c c c * % @ @ @ # % l B V V c c & %   d j.XXXXXXXXXXXXXXXX}.XXXXXXXXXXXXXXXXXX",
"XXXXXX|.|.}.{.{.[./.M.M.x.x.x.b.x.b.m.n.1.o $ 4 c c c c * % X o = # % l V V V c c % $ = f k.XXXXXXXXXX}.|.XX}.XXXXXXXXXXXXXXXXXX",
"XXXXXXXXM.{.[.[.[.[.].[.[.[.[.`.].[.`.[.1.o O : l z z c * % X 3 p.q.% z V V V c z % 8 p.z.{.XXXXXX}.|.|.}.|.}..XXXXXXXXXXXXXXXXX",
"XXXXXX|.XX}.XX.X}.{.}.{.}.}.XX}.}.{.].{.7.= - + 5 5 6 6 & & X i {.j.$ l N B B 6 x ; 8 k.'.{.XXXXXXXX|.}.}.}.XXXXXXXXXXXXXXXXXXXX",
"XXXXXXXX|.XXXXXXXX|..X.X.X.X.X}.|.|.|.}.7.= O : + O : : + + o 8 XXj.  = > : : O + o 8 '.].XXXXXXXX}.}.|.}.}.XXXXXXXXXXXXXXXXXXXX",
"XXXXXXXXXXXXXXXXXXXXXXXXXX}.|.XXXXXXXX|.e.P 8 O O - O O o - d O.XX!.  = - . + + - . i '.XXXXXXXXXX|.|.|.XXXXXXXXXXXXXXXXXXXXXXXX",
"XXXXXXXXXXXXXXXXXXXXXXXXXX|.XXXXXXXXXXXX X'.U =   . . . # ; d. XXX!.    . . . . .   8 {.XXXXXXXXXXXXXXXXXXXXXXXXXXXXXXXXXXXXXXXX",
"XXXXXXXXXXXXXXXXXXXXXXXXXXXXXXXXXXXXXXXXXXXX0.H F F G G G P '.XXXX'.G F F F F F F G o.XXXXXXXXXXXXXXXXXXXXXXXXXXXXXXXXXXXXXXXXXX",
"XXXXXXXXXXXXXXXXXXXXXXXXXXXXXXXXXXXXXXXXXXXXXX XXX XXX.XXX XXXXXXXXX XXX X.X.X.X.XXXXXXXXXXXXXXXXXXXXXXXXXXXXXXXXXXXXXXXXXXXXXXX"
};
