/* XPM */
static char *result[] = {
/* columns rows colors chars-per-pixel */
"64 64 217 2 ",
"   c #181816",
".  c #1A1916",
"X  c #161B1D",
"o  c #1B1B19",
"O  c #221C17",
"+  c #231D19",
"@  c #2B1F18",
"#  c #2A2317",
"$  c #24211B",
"%  c #2B231C",
"&  c #332117",
"*  c #33221A",
"=  c #3A261C",
"-  c #3C281E",
";  c #161E24",
":  c #1A1E21",
">  c #1C2125",
",  c #14212C",
"<  c #1A222A",
"1  c #0E2233",
"2  c #0F2539",
"3  c #112433",
"4  c #1A2937",
"5  c #11263B",
"6  c #13293E",
"7  c #242627",
"8  c #2B2521",
"9  c #2D2A23",
"0  c #2D2D29",
"q  c #322D23",
"w  c #382C23",
"e  c #2E302F",
"r  c #353229",
"t  c #3B352A",
"y  c #3F392C",
"u  c #23313D",
"i  c #3B3A36",
"p  c #42271C",
"a  c #42291D",
"s  c #462D21",
"d  c #493627",
"f  c #413A2C",
"g  c #543324",
"h  c #563B29",
"j  c #4C3B33",
"k  c #5B422D",
"l  c #474237",
"z  c #564A38",
"x  c #5C513C",
"c  c #634738",
"v  c #794C35",
"b  c #63553D",
"n  c #69573D",
"m  c #7B563D",
"M  c #132C43",
"N  c #192E44",
"B  c #173149",
"V  c #1A334D",
"C  c #193652",
"Z  c #1B3B5A",
"A  c #283849",
"S  c #283A52",
"D  c #1E405C",
"F  c #35434D",
"G  c #26425D",
"H  c #354651",
"J  c #1D4262",
"K  c #1E456A",
"L  c #244565",
"P  c #254A6A",
"I  c #2A4B6B",
"U  c #33536B",
"Y  c #274E74",
"T  c #294D73",
"R  c #285079",
"E  c #2A537D",
"W  c #365976",
"Q  c #494947",
"!  c #4F504D",
"~  c #685A42",
"^  c #715E42",
"/  c #6F6247",
"(  c #776648",
")  c #7F7050",
"_  c #475868",
"`  c #405D74",
"'  c #456479",
"]  c #707B6F",
"[  c #63737B",
"{  c #767B77",
"}  c #A05E3D",
"|  c #856948",
" . c #9C6C4B",
".. c #8D724D",
"X. c #877554",
"o. c #8D7652",
"O. c #947B54",
"+. c #967E58",
"@. c #A86A4A",
"#. c #B56C48",
"$. c #B8714E",
"%. c #A06D56",
"&. c #AC7055",
"*. c #BE7352",
"=. c #B67A58",
"-. c #837F7A",
";. c #C1744F",
":. c #C47D56",
">. c #95815B",
",. c #9B835C",
"<. c #AA8D5E",
"1. c #B48758",
"2. c #9F8962",
"3. c #89827C",
"4. c #BC8B65",
"5. c #AC966A",
"6. c #B59C6D",
"7. c #B8996A",
"8. c #BDA474",
"9. c #C7865D",
"0. c #CA845D",
"q. c #CB8B63",
"w. c #D28E65",
"e. c #C89867",
"r. c #C49C6C",
"t. c #D89768",
"y. c #CE9570",
"u. c #C5A06B",
"i. c #D8A96D",
"p. c #C6AA77",
"a. c #DAA772",
"s. c #DBAB74",
"d. c #CDB17B",
"f. c #D3B57E",
"g. c #DBB57A",
"h. c #E2A26E",
"j. c #F1B66C",
"k. c #E5AB78",
"l. c #EDB57D",
"z. c #E7B87A",
"x. c #EFBC7C",
"c. c #F1BC75",
"v. c #F1B678",
"b. c #F1BD7C",
"n. c #EFC27D",
"m. c #F3C077",
"M. c #F1C17D",
"N. c #2B5681",
"B. c #597284",
"V. c #6C7983",
"C. c #727C84",
"Z. c #76858C",
"A. c #788A91",
"S. c #87888A",
"D. c #968C87",
"F. c #9B918F",
"G. c #8D9195",
"H. c #8C9398",
"J. c #989997",
"K. c #A1918A",
"L. c #BF9C88",
"P. c #A59B91",
"I. c #A29E9A",
"U. c #AAA39C",
"Y. c #8E99A4",
"T. c #A9A9A7",
"R. c #B1ACA7",
"E. c #B3AEA9",
"W. c #B6B1AA",
"Q. c #B9B5AE",
"!. c #AEB1B4",
"~. c #B6B6B0",
"^. c #BAB5B1",
"/. c #BABAB1",
"(. c #D2AC88",
"). c #D2B780",
"_. c #D5B981",
"`. c #DABC83",
"'. c #EAB981",
"]. c #F0B880",
"[. c #CCBCA8",
"{. c #C2BDB6",
"}. c #C4BFB9",
"|. c #DEC086",
" X c #E6C486",
".X c #EDC484",
"XX c #E4C68A",
"oX c #EACA8C",
"OX c #F2C582",
"+X c #F3C886",
"@X c #F4CD8C",
"#X c #F5D08F",
"$X c #EECE90",
"%X c #F4CF90",
"&X c #F6D593",
"*X c #C6C1AD",
"=X c #C8C1AE",
"-X c #C6C0BA",
";X c #CBC6BA",
":X c #CAC3BC",
">X c #D3CCBD",
",X c #D9D3BD",
"<X c #E0C0A3",
"1X c #D2CDC1",
"2X c #D6D0C1",
"3X c #DCD5C4",
"4X c #DFD8C6",
"5X c #E1DAC6",
"6X c #E3DCCA",
"7X c #E7E0CB",
"8X c #EBE3CD",
"9X c #F1E7CD",
"0X c #F3EACF",
"qX c #F0E7D1",
"wX c #F5ECD2",
"eX c #FAEFD3",
"rX c #FAF0D4",
/* pixels */
"&X&X&X&X&X&X&X&X&X&X&X&X&X&X&X&X&X&X&X&X&X&X&X&X&X&X&X&X&X&X&X&X&X&X&X&X&X&X&X&X&X&X&X&X&X&X&X&X&X&X&X&X&X&X&X&X&X&X&X&X&X&X&X&X",
"&X&X&X&X&X&X&X&X&X&X&X&X&X&X&X&X&X&X&X&X$XoXoXXXoXXXoXoXoXoXoXoXoXoXoXoXoXoXoXoXXX$X&X&X&X&X&X&X&X&X&X&X&X&X&X&X&X&X&X&X&X&X&X&X",
"&X&X&X&X&X&X&X&X&X&X&X&X&X&X&X&X&X&X&XoX~ y y y y y y f f f f f y y f y y y y y f x |.&X&X&X&X&X&X&X&X&X&X&X&X&X&X&X&X&X&X&X&X&X",
"&X&X&X&X&X&X&X#X&X&X#X&X&X&X&X&X&X&XXXd.l 7 0 0 0 0 0 e 0 0 0 0 0 0 0 0 0 0 e 0 0 i 8.f.|.|.&X&X&X&X&X&X&X&X&X&X&X&X&X&X&X&X&X&X",
"&X&X&X&X&X&X#X@X#X#X@X#X&X&X&X&X&X&X/ f ] S.W.*X=X=X=X*X=X*X=X=X*X*X[.=X=X*X*X/.F.3.y 0 - / &X@X&X&X&X&X&X&X&X&X&X&X&X&X&X&X&X&X",
"&X&X&X&X@X@X#X@X@X@X#X#X&X&X&X&XXXp.! l S.T.8XrXrXrXrXeXrXeXeXeXeXrXrXrXrXrXrXwX;XU.l e 0 ! d.g.&X&X&X&X&X&X&X&X&X&X&X&X&X&X&X9X",
"&X&X&X&X%X@X&X@X@X+X#X#X&X&X&X&X,.r -.W.,X0XwXrXrXrXrXrXrXeXeXeXeXeXeXeXeXeXeXrX0X7X>X*XU.J.t b &X&X&X&X&X&X&X&X&X&X&X&X&X&X&X&X",
"&X&X&X&X&X&X#X#X#X#X&X&X&X&X&X&X+.o 3.:X6XwXrXrXrXrXrXrXeXrXeXeXeXeXeXeXeXeXeXeXrXrXrXrX>X{.i Q d.g.&X&X&X&X&X&X&X&X&X&X&X&X&X&X",
"&X&X&X&X#X&X&X&X#X&X&X&X&X&X&X&X>.. 3.-X-X1XqXrXrXrXrXrXeXrXrXeXeXeXrXrXeXeXeXeXrXrXrXeXwXqXW.U.8 n &X&X&X&X&X&X&X&X&X&X&X&X&X&X",
"&X&X&X#X#X#X#X&X&X&X&X&X&X&X&X&X>.. -.-X}.-X4X7X7X8XrXwXrXrXeXrXeXeXeXeXeXeXeXeXeXeXrXrXeXwX1X~.e ~ f. X#X#X#X@X&XM.M.&X&X&X&X&X",
"&X#XoX#X#X#X#X&X&X&X&X&X@X@X@X+XO.. ] /.}.}.}.-X-X1XrXrXrXrXrXrXeXeXeXeXeXeXeXeXeXeXrXrXeXeXrXqX-XU.o ( M.+X+Xc.#XM.M.#X&X&X&X&X",
"&X#X#X#X#X#X#X&X+X@X].M.c.M.m.b.>.o ] /.}.}.}.}.}./.3X3X4XqXrXrXeXeXeXeXeXeXrXeXeXrXrXrXeXeX6X5X-XI.. ( M.M.M.m.m.m.M.#X&X&X&X&X",
"&X&X&X#X#X+X+X+Xc.c.j.j.c.c.b.b.O.. ] /.}.}.}.-X}.}.}.}.-X6XrXwXeXeXeXeXeXeXeXeXeXeXeXeXeXqX}.}.-XI.  ( m.m.n.c.m.m.m.m.&X#X&X&X",
"&X&X&X&X@Xn.OXn.c.j.c.c.c.m.M.M.O.o ] /.}.}.}.}.}.}.}.}.-X1X3X3X3X3X3X5X4X3X5X3X5X5X5X6X6X5X}.}.{.I.. ( OXn.M.M.m.M.M.#X&X&X&X&X",
"&X&X#X@X@XOXOXOXc.c.j.c.x.b.b.n.... ] !.}.}.}.}.}.}.}.}.}.}.}.}.}.}.}.-X}.}.-X-X{.}.}.}.}.}.}.}.-XI.. ( #X#X@X+X+X+X+X+X#X&X&X&X",
"@X@X@X@X@X@X@X+X.Xx.z.+.o.o.o.o.z   _ V.!.}.}.}.}.}.}.}.}.}.}.}.}.}.}.}.}.}.}.}.}.}.}.}.}.}.}.}.{.I.  ) #X#X#X#X#X#X#X&X&X&X&X&X",
"@X@X#X@X+XOX@X+XOX.Xu.9 X > : : : > B G H.W.^.^./.-X-X}.}.-X}.}.}.}.}.}.}.}.}.}.}.}.}.}.-X-X}.-X{.P.. ) &X&X&X&X&X&X&X&X&X&X&X&X",
"&X#X#X#X#X@X+X@X Xb l u V L I P I T Y R W W ` B.^.{.-X}.}.{.}.}.}.}.}.}.}.}.}.}.{.}.}.}.}.}.-X{.T.Z.. ) &X&X&X&X&X&X&X&X&X&X&X&X",
"#X#X&X#X&X#X#XoXz.9 : N D E N.N.N.N.N.N.K K J U T.T.W.W.~.^.~.~.{.{.{.{.}.}.}.}.}.{.}.}.^././.^.J.{ . ) &X&X&X&X&X&X&X&X&X&X&X&X",
"&X&X&X#X#X#X#X#X Xq : N G E N.N.N.E N.E N.R J J L J Z.Z.Z.Z.A.Z.A.E.}.}.}.}.}.}.}.}.}.}.Y.J.H.H.H.{ . ) &X&X&X&X&X&X&X&X&X&X&X&X",
"&X&X&X&X&X&X&X&X Xy 0 N G E N.W E E E E R P Z C Z C [ [ [ [ [ V.V.I.R.R.R.E.R.R.E.E.E.R.S.S.A.S.G.{   ) &X&X&X&X&X&X&X&X&X&X&X&X",
"&X&X&X&X&X&X&X&X&X@Xp.8 . . . o .   @ & .     X   o     o       . .     o   o X o     o . . . . o z @X&X&X&X&X&X&X&X&X&X&X&X&X&X",
"&X&X&X&X&X&X@X#X#X#Xd.r $ $ $ $ $ . & a + O @ 8 * * * & % % o . . + % @ @ o X O o + o O O . . O o x &X#X&X&X&X&X&X&X&X&X&X&X&X&X",
"&X&X&X&X&X&X@X@X#X@X+X@X@X#X@X@X,.. v #.s % %.:.q.:.q.0.:.m   . % r.].v.r.: $ g g g g g g g - w o x &X&X&X&X&X&X&X&X&X&X&X&X&X&X",
"&X&X&X&X&X&X&X&X@X@X@X@X#X@X@X@X,.. v @.s 9 %.9.w.w.0.w.q.m . O w 4.k.l.y.+ % g g g g g g g - = . x @X#X@X@X@X@X&X&X&X&X&X&X&X&X",
"&X&X&X&X&X&X&X&X#X#X#X#X@X#X@XoX,.. v #.s 8 =.t.z.l.l.x.l.... - h $.0.l.u.- = g g g g g g g - = O b +X@X#X+X@X@X#X&X&X&X&X&X&X&X",
"&X&X&X&X&X&X&X&X&X#X#X#X#X@Xf.X.| ( =.9.h 9 4.h.l.l.x.l.l.4.( |  .1.0.l.e.= = s a g g g s s % w O.7.@X@X+X@X@X@X@X@X#X&X&X&X&X&X",
"&X&X&X&X&X&X&X&X&X&X&X&X&X&X8.$ n x.x.s.j 8 7.l.v.l.].l.l.].].k.l.w.:.l.r.= = = - g g g - = . r @X@X#X#X@X@X+X@X@X@X#X&X&X&X&X&X",
"&X&X&X&X&X&X&X&X&X&X&X&X&X&X8.$ n x.].l.r.7.s.].].l.v.].].].l.l.].k.(.~ h p = = - a a - = = o y %X&X@X&X%X%X@X@X&X&X&X&X&X&X&X&X",
"&X&X&X&X&X&X&X#X@X&X#X#X&X&X8.> ~ x.l.].].l.'.].].l.l.l.].].l.'.].].].j w w = w = = = = = * o f &X&X&X&X&X&X&X&X&X&X&X&X&X&X&X&X",
"&X&X&X&X&X&X&X#X@X@X&X@X#X&X@X'.+.d  .w.k.].].l.l.l.].l.].l.l.t.:.t.y.:.4.q.%.w = = = * o q `.XX&X&X&X&X&X&X&X&X&X&X&X&X&X&X&X&X",
"&X&X&X&X&X&X&X&X&X@X@X@X&X&X&X&XX.o m ;.a.].].l.].].l.l.x.].k.:.;.;.*.*.*.;.@.= * = = = . t $X&X&X&X&X&X&X&X&X&X&X&X&X&X&X&X&X&X",
"&X&X&X&X#X#X#X#X@X@X@X#X#X#X&X&XXXp.| c 4.t.k.l.l.l.l.l.].a.w.*.*.*.#.F.F.K.F.-.! o o # ,.6.+X&X&X#X#X&X&X&X&X&X&X&X&X&X&X&X&X&X",
"&X&X&X&X&X&X#X#X#X#X#X#X#X&X#X#X#XoX( % } $.t.a.a.a.s.a.a.w.*.$.&.#.#.F.G.G.G.S.!   $ r g.+XOX+X$X#X+X@X@X@X#X@X@X&X&X&X&X&X&X&X",
"&X&X&X&X&X#X#X&X#X#X&X&X#X#X@X@Xn.c.i.1.t   . O O O . O O Q S.S.D._ G L I I L I u # | e.z.m.OXn.OX#XOX+X@XM.+X@XOX@X&X&X&X&X&X&X",
"&X&X&X&X&X&X&X+X#X&X#X#X@XM.+XOXc.c.M.z.n d f r . o : : : F V.V.V._ I B.' ` ` T F q ,.i.c.n.c.n.M..X+Xn.b.m.c.m.OX+X%X&X&X&X&X&X",
"&X&X&X&X&X#X&X@X#X#X@X#XOXm.m.m.c.n.n.n.'.z.`.7.8 ; M 5 2 M J J Z C.S.6X8X6X1X{.H.[ l l i.c.m.m.c.m.M.c.c.c.j.j.c.c.OX@X&X&X&X&X",
"&X&X&X&X&X#X#X@X#X@X#X@Xm.M.@XM.m.c.c.n..X@X@Xd.9 > B M 2 M K ' C.T.^.wXeXeX6X}.T.A.F 9 i.m.m.n.x.M.OXOXc.M.m.m.c.OX+X&X&X&X&X&X",
"&X&X&X&X&X#X#X#X@X@X+XM.M.M.n.OXM..Xn..X.X+X@Xd.q < J B 2 M Y Y.}.7XeXeXeXeXeX9X;XJ.Q q i.n.n.n.n.OXOX+XOXM.+X@X+X#X&X&X&X&X&X&X",
"&X&X&X&X#X#X#X#X#X#X#X#X@X@X@X#X@X@XOXOXx.z.<.o.u N Z Z ! _ B.!.1X6X6XwXeXeXeXeX,XI.Q q g.@X#Xn.@X@X@X+X#X@X#X#X@X&X&X&X&X&X&X&X",
"&X&X&X&X&X&X&X&X&X&X&X#X#X#X&X#X&X@XOX+X+Xs.f 7 Y D 6 [ ^.;X8X0XqX:X{.wXeXeXeX0X>XT.Q 8 g.&X&X&X@X#X#X#X&X#X#X#X&X&X#X@X&X&X&X&X",
"&X&X&X&X&X&X&X&X&X&X&X&X&X&X&X&X&X&X@X+X@Xg.y > T K 6 Z.{.>XeXeXwXQ.U.[.<X<X<X<X[.T.Q q f.#X#X&X@X@X#X@X@X#X#X#X@X@X#X#X@X&X&X&X",
"&X&X&X&X&X&X&X&X&X&X&X&X&X&X&X&X&X&X&X%X#Xg.y > T L 6 C.-X2XeXeXeXP.-.;.;.:.*.:.L.!.! 9 g.#X@X&X@X@X#X@X@X@X@X@X@X#X#X#X#X&X&X&X",
"&X&X&X&X&X&X&X&X&X#X&X&X&X&X&X&X&X&X&X&X&Xf.y > I K 6 V.-X3XeXeX9XP.3.t.t.h.t.h.y.=.j 9 g.@X@X#X+X+X+X@X+X+X@X@X@X@X@X#X@X@X&X&X",
"&X&X&X&X&X&X&X&X#X@X#X&X&X&X&X&X&X&X&X&X&X_.y > I L N C.}.3XeXeX9XP.D.k.'.l.l.l.t.} d q g.#X@Xn.+X@XOX+X@X@X@X@X@X@X#X#X#X#X&X&X",
"&X#X#X&X&X&X&X&X$X#X#X#X&X&X&X&X&X&X&X&X&X|.y X < A C.W.8X9XeXeX0XU.D.'.l.l.l.l.t.#.g q g.#X&X$X%X@XOX@X@X@X@X@X#X#X&X&X&X#X&X&X",
"#X#X@XOX#X#X#X@X@X#X&X&X&X&X&X&X&X&X&X&X&X|.x % o Q J.{.eXeXeXeX9XU.K.'.l.].l.k.t.#.g q g.&X&X&X@X@X@X@X@X%X@X%X&X&X&X&X&X&X&X&X",
"#X#X#X@X@X#X#X#X#X#X&X&X&X&X&X&X&X&X&X&X&X$X|.6.$ Q J.{.eXeX0X5X,X(.y.].l.l.l.l.t.#.g = XX&X&X&X#X@X#X@X%X%X&X&X&X&X&X&X&X&X&X&X",
"#X#X#X@X&X#X#X#X#X&X&X&X&X&X&X&X&X&X&X&X&X&X&Xf.9 l S.T.,X,X,XQ.E.g.k.l.v.l.l.k.0.@.f 9 p.f.&X@X&X#X#X&X#X#X&X&X&X&X&X&X&X&X&X&X",
"#X#X#X#X#X&X#X&X&X&X&X&X&X&X&X&X&X&X%X+X&X&X&Xf.9 > A S H S F H F %.:.l.x.l.h.;.v e 4 3 r j oX@X@X&X&X&X&X$X#X#X&X&X&X&X&X&X&X&X",
"&X&X#X&X&X&X&X&X&X&X&X&X&X&X&X@X@X+X@XM.OXoXg.6.0 < 5 6 M M 2 M N } $.s.s.s.e.#.z 5 5 4 X % +X#X#X#X&X#X#X#X#X#X&X&X&X&X&X&X&X&X",
"&X&X&X&X&X&X&X&X&X&X&X#X@X.XOX@X+Xn.OXc.M.g.j 7 Y Y Y R R K V V C S S u u u u S V V C B X 9 oX@X#X#X#X@X@X#X#X#X#X#X&X&X&X&X&X&X",
"&X&X&X&X&X&X&X#X@X+X#XOXOXOXx.OXn.x.M.x.x.i.y : Y R R N.E L V V C V B 2 3 1 2 V V V C V X 9 '.oX#X#X&X&X#X&X#X#X&X&X&X&X&X&X&X&X",
"&X&X&X&X&X&X@X@XoXn.OXOXn.n.n.M.n.n.c.x.x.a.f 7 Y E E E N.L B 5 1 X     X 2 2 V C V 5 3 2 3   r &X#X&X#X#X&X$X&X&X&X&X&X&X&X&X&X",
"&X&X&X&X&X+XM.OXM.x.M..Xn.n.b.n.n.n.u.<.<.>.e < Y E R R Y Z M 3 , z b b l , 3 B B M 4 > ; :   t &X&X&X&X&X&X&X#X&X&X&X&X&X&X&X&X",
"&X&X&X&XOX#XM.M.M.c.n.M.n.n.x.M.z.z.^ . .   3 4 P Y R K B M 3 ; 9 r.b.OXr.O : 5 3 2 8 & & & . t &X&X&X&X&X&X#X&X&X&X&X&X&X&X&X&X",
"&X&X&X#X#X@XOX+XOXOXM.OXx.x.c.x.7.| k & & & 8 0 A A J C 6 3 < x | g.OX@Xg.o.~ > > 7 % & & & . y &X&X&X@X#X&X@X@X&X&X&X&X&X&X&X&X",
"&X&X&X&XM.@XOX.XOX.XoXOXn.OXoXOXO.. % p a a a p & 8 M 2 1 > q u.M.M.M.OX+X+X7.  O & & & & & o f &X@X#X#X@X#X@X&X&X&X&X&X&X&X&X&X",
"&X&X&X#X&X@X&X@X+XoX+X+X@X@X#X#X>.. $ # = = = & & * 7 > > l +.f.@X@XoX#XoXo./ # @ & & & + % X.2.&X#X&X@X@X@X&X&X&X&X&X&X&X&X&X&X",
"&X&X&X&X#X#X&X&X&X%X&X@X#X@X#X#X>.. .   @ & & & & & & # o / &X&X#X#X#X&X|.. o & & & & & . + oX&X&X#X@X@X@X@X&X&X&X&X&X&X&X&X&X&X",
"&X&X&X&X&X&X&X&X&X&X&X&X#X@X#X&X|.6.6.5.j O O O + + O k 6.).&X&X&X&X&X&XXX  . O O O O % 2.8.&X&X&X#X#X#X&X&X&X&X&X&X&X&X&X&X&X&X",
"&X&X&X&X&X&X&X&X&X&X&X&X&X&X&X&X&X&X&XXXz   .         / &X&X&X&X&X&X&X&XXX  . . o     8 _.&X&X&X&X&X&X#X&X&X&X&X&X&X&X&X&X&X&X&X",
"&X&X&X&X&X&X&X&X&X&X&X&X&X&X&X&X&X&X&X&Xf.8.8.p.8.p.p.`.&X&X&X&X&X&X&X&X&X_.f._.).).)._.$X&X&X&X&X&X&X&X&X&X&X&X&X&X&X&X&X&X&X&X",
"&X&X&X&X&X&X&X&X&X&X&X&X&X&X&X&X&X&X&X&X&X&X&X&X&X&X&X&X&X&X&X&X&X&X&X&X&X&X&X&X&X&X&X&X&X&X&X&X&X&X&X&X&X&X&X&X&X&X&X&X&X&X&X&X"
};
