/* XPM */
static char *result[] = {
/* columns rows colors chars-per-pixel */
"64 64 224 2 ",
"   c #1A1917",
".  c #171919",
"X  c #1D1C19",
"o  c #221D19",
"O  c #23211D",
"+  c #2C241E",
"@  c #32251E",
"#  c #3D261D",
"$  c #0F1F2B",
"%  c #171E24",
"&  c #111F2B",
"*  c #14212C",
"=  c #18242E",
"-  c #152432",
";  c #14293D",
":  c #1A2A38",
">  c #2A2720",
",  c #292824",
"<  c #342B24",
"1  c #3C2C27",
"2  c #3A352B",
"3  c #272F35",
"4  c #3A3838",
"5  c #482B1E",
"6  c #442E27",
"7  c #47362B",
"8  c #54392B",
"9  c #473E32",
"0  c #573F34",
"q  c #663A29",
"w  c #494232",
"e  c #49423A",
"r  c #514437",
"t  c #5A4835",
"y  c #534B3C",
"u  c #5F533C",
"i  c #694835",
"p  c #724A36",
"a  c #6A563E",
"s  c #172E44",
"d  c #193149",
"f  c #1C334C",
"g  c #1A3855",
"h  c #1D3D5C",
"j  c #223548",
"k  c #243A52",
"l  c #173F60",
"z  c #364551",
"x  c #174164",
"c  c #194263",
"v  c #1B476B",
"b  c #1D4A6C",
"n  c #1F4B76",
"m  c #224566",
"M  c #234B6E",
"N  c #24506F",
"B  c #2B536F",
"V  c #375066",
"C  c #254D75",
"Z  c #265270",
"A  c #2A5471",
"S  c #2E5973",
"D  c #26517B",
"F  c #29537D",
"G  c #345D76",
"H  c #3A6477",
"J  c #4A4847",
"K  c #56585B",
"L  c #5D5B5A",
"P  c #695C45",
"I  c #745B44",
"U  c #615D59",
"Y  c #7E5E54",
"T  c #6D624E",
"R  c #786548",
"E  c #7D6A52",
"W  c #455869",
"Q  c #425E76",
"!  c #426B7A",
"~  c #4B6C7E",
"^  c #5D6872",
"/  c #47707D",
"(  c #4B737E",
")  c #6C6A68",
"_  c #6E7075",
"`  c #787672",
"'  c #797A7A",
"]  c #81543D",
"[  c #875A43",
"{  c #925C43",
"}  c #83664D",
"|  c #97654C",
" . c #8C734E",
".. c #846853",
"X. c #966F51",
"o. c #8D7956",
"O. c #917C57",
"+. c #A96A4B",
"@. c #B2704F",
"#. c #AA7658",
"$. c #B47353",
"%. c #BA7857",
"&. c #B37858",
"*. c #8A7B74",
"=. c #CC7C4B",
"-. c #C27956",
";. c #C37D59",
":. c #9A855D",
">. c #B18B5D",
",. c #99896F",
"<. c #87837D",
"1. c #AA8562",
"2. c #A18C63",
"3. c #B59969",
"4. c #B99C6C",
"5. c #B08D70",
"6. c #B89C74",
"7. c #BCA06F",
"8. c #BCA272",
"9. c #C4825B",
"0. c #CA835C",
"q. c #D48757",
"w. c #C58762",
"e. c #CA8662",
"r. c #CD8A63",
"t. c #D08D65",
"y. c #D08F68",
"u. c #CB946B",
"i. c #D69367",
"p. c #DC9A6C",
"a. c #C49378",
"s. c #D79C71",
"d. c #C8A26A",
"f. c #D6AA6B",
"g. c #C6AA76",
"h. c #D5A176",
"j. c #D9A976",
"k. c #D6B37A",
"l. c #F1B66C",
"z. c #E4A776",
"x. c #E5AB7C",
"c. c #E9AE7C",
"v. c #ECB37E",
"b. c #E6BB79",
"n. c #EEBE7B",
"m. c #F2B670",
"M. c #F2BB74",
"N. c #F1BE7B",
"B. c #EFC27C",
"V. c #F3C077",
"C. c #F1C17C",
"Z. c #275281",
"A. c #295584",
"S. c #315B81",
"D. c #376188",
"F. c #396289",
"G. c #4B6B88",
"H. c #557C81",
"J. c #5C7A87",
"K. c #647785",
"L. c #777E83",
"P. c #697E90",
"I. c #5D8384",
"U. c #628887",
"Y. c #688989",
"T. c #6D928A",
"R. c #769A8E",
"E. c #788D90",
"W. c #7DA090",
"Q. c #878786",
"!. c #919190",
"~. c #949698",
"^. c #9C9C9C",
"/. c #A8968A",
"(. c #87A995",
"). c #8AAC96",
"_. c #98A798",
"`. c #92B397",
"'. c #9EBB9E",
"]. c #A0BD9F",
"[. c #8A9BA6",
"{. c #909BA1",
"}. c #9DA7A6",
"|. c #A8A7A3",
" X c #B1AFA8",
".X c #A9B7A7",
"XX c #B5B4AA",
"oX c #BBB7AD",
"OX c #BBB9B4",
"+X c #D5B981",
"@X c #D9BC84",
"#X c #E8AF80",
"$X c #EDB381",
"%X c #E1BC80",
"&X c #F1B781",
"*X c #C3BDB5",
"=X c #C5BFB8",
"-X c #DDC086",
";X c #E7C587",
":X c #EBCB8D",
">X c #F2C582",
",X c #F3C986",
"<X c #F4CD8C",
"1X c #F5D08F",
"2X c #EDCD90",
"3X c #F4CF90",
"4X c #F6D593",
"5X c #CAC3B0",
"6X c #C6C1B9",
"7X c #C9C4BA",
"8X c #D1CAB7",
"9X c #D2CCBD",
"0X c #CBCCC2",
"qX c #DAD4C4",
"wX c #DCD6C5",
"eX c #E3DAC3",
"rX c #E3DDC9",
"tX c #E7E1CA",
"yX c #ECE4CD",
"uX c #EBE9CE",
"iX c #F0E7CF",
"pX c #F4ECD2",
"aX c #F9EFD4",
"sX c #FBF1D5",
/* pixels */
"4X4X4X4X4X4X4X4X4X4X4X4X4X4X4X4X4X4X4X4X4X4X4X4X4X4X4X4X4X4X4X4X4X4X2X4X4X2X4X4X4X4X4X4X4X4X4X4X4X4X4X4X4X4X4X4X4X4X4X4X4X4X4X4X",
"4X4X4X4X4X4X4X4X4X4X4X4X4X4X4X4X4X4X4X4X4X4X@X-X@X@X@X-X+X-X-X+X+X-X-X-X-X-X-X-X-X-X4X4X4X4X4X4X4X4X4X4X4X4X4X4X4X4X4X4X4X4X4X4X",
"4X4X4X4X4X4X4X4X4X4X4X4X4X4X4X4X4X4X4X4X4X+XJ w w w w w w w w w w e w w w w 9 w w R 2X4X4X4X4X4X4X4X4X4X4X4X4X4X4X4X4X4X4X4X4X4X",
"4X4X4X4X4X4X4X4X4X4X1X4X4X4X4X4X4X4X4X:X:Xg.+ X X X X X O X X O X X O X X % X X O y -X:X:X2X4X4X4X4X4X4X4X4X4X4X4X4X4X4X4X4X4X4X",
"4X4X4X4X4X4X<X<X<X4X<X1X4X4X4X4X4X4XE 2 2 w Q.^.5X5X5X5X5X5X8X5X5X5X5X5X5X5X5X5X X<.2 < < 2.4X<X4X4X4X4X4X4X4X4X4X4X4X4X4X4X4X4X",
"4X4X4X4X<X<X<X4X<X<X<X1X4X4X4X4X+X8.P 4 9 J  X9XsXsXsXsXsXsXsXsXsXsXsXsXsXsXsXaX9X|.J e 4 ..7.@X4X4X4X4X4X4X4X4XiX4X4X4X4X4X4X4X",
"4X4X4X4X3X<X4X<X<X<X<X<X4X4X4X3XI , <.oX9XrXpXpXsXsXsXsXsXsXsXsXsXsXaXsXsXsXsXsXpXuXeX9XoX) < 3.4X4X4X4X4X4X4X4X4X4X4X4X4X4X4X4X",
"4X4X4X4X4X4X<X<X<X<X4X1X4X4X-X6.P y _.9XtXuXuXuXuXuXuXuXuXuXuXuXuXuXuXuXuXuXuXuXuXuXuXrX9X<.J O.8.;X4X4X4X4X4X4X4X4X4X4X4X4X4X4X",
"4X4X4X4X1X4X4X4X4X4X4X4X4X4X:.> _ *X.X'.'.'.'.].].].].].'.'.'.'.].'.'.'.'.'.'.'.'.'.'.'.`.XX6XU < d.4X4X4X4X4X1X4X4X4X4X4X4X4X4X",
"4X4X4X1X1X<X1X4X4X4X4X4X4X4XO.. ' =X~.H.R.`.R.I.(.).I.I.).R.I.I.I.T.R.I.R.I.W.R.I.R.I.I.I..X6XL O 4.1X4X1X4X1X<X4XC.<X4X4X4X4X4X",
"4X1X1X1X1X1X1X4X4X4X4X4X<X<XO.X ` =XJ.v J.'.I.N W.W.S b W.Y.b A b ( I.v U.S H I.A I.b N / .X=XU O >.C.,XC.,X,XV.1XV.V.4X4X4X4X4X",
"4X1X<X1X1X1X4X4X,X<XN.N.M.C. .X ' 6XJ.v H H.H N R.I.S N ( I.A Y.H H.I.b I.A b S A I.b I.`..X*XU O 3.C.C.C.>XC.V.V.V.,XC.1X4X4X4X",
"4X4X4X1X1X,X,X,XM.M.l.l.M.M. .X ` =XK.v v v v Z R.S H H b H.Z H A I.U.b I.S v v Z U.N H U.].=XL O 3.V.V.V.V.C.M.V.V.V.V.1X4X4X4X",
"4X4X4X4X<XC.>XC.l.l.M.M.M.C. .X ` =XJ.C Z v S Z R.S N b b H.b b N R.Y.b I.S H N Z U.N N F..X6XU O u.,X,X>XC.C.C.V.C.C.<X1X4X4X4X",
"4X4X<X<X<X>X>X>Xn.M.M.N.C.C. .X ` =XJ.A H v / Z R.A S S b ( Z I.S I.I.b U.S U.H Z U.N H )..X=XL O 8.4X1X1X1X1X,X,XC.,X<X1X4X4X4X",
"<X<X<X<X<X,X<X:X>XB.C.C.C.>Xo.X ` 0XJ.S I.I.I.Z T.H U.U.v H Z R.H H.I.b I.S T.I.Z U.N A ( '.=XL O 8.4X4X1X1X1X1X1X4X4X1X4X4X4X4X",
",X4X1X<X,X,X,X<X,X,X>X>X>X,Xo.X ` 7XY.! ).`.T.! W.G.T.T.G H.F.R.G.I.T.H T.G.R.Y.! T.H G H |.=XL O 8.4X4X4X4X4X4X4X4X4X4X4X4X4X4X",
"1X4X1X1X<X:X<X,X>X<X,X<X<X<XO.X ` =X.X`.`.).).).`.).).).(.).).).).).).).).).).).(.).(.).`..X=XU O 8.4X4X4X4X4X4X4X4X4X4X4X4X4X4X",
"<X4X1X<X4X<X1X,X,X,X<X,X<X<XO.X ` *X.X).G A G F.F.F.F.F.D.D.D.F.D.F.F.D.D.D.F.F.D.G N ( `..X=XL X 7.4X4X4X4X4X4X4X4X4X4X4X4X4X4X",
"4X4X4X4X4X1X1X4X<X<X<X<X<X,XO.. K L.P.( A C Z.A.A.A.A.A.A.A.A.A.A.A.A.A.A.A.A.A.A.Z.n G I.K.*.k O 8.4X4X4X4X4X4X4X4X4X4X4X4X4X4X",
"4X4X4X4X4X4X4X4X4X4X<X3X4X3XO.. = : h M Z.Z.Z.Z.Z.Z.Z.Z.Z.Z.Z.Z.A.A.A.Z.Z.Z.Z.Z.Z.Z.Z.C m f : % O 8.1X4X4X4X4X4X4X4X4X4X4X4X4X4X",
"4X4X4X4X4X4X4X4X3X<X4X4X4X2XO.X . . g c c c c c c x c x c c c c c c c x c c c c c c c x l s . X = 3.:X1X4X4X4X4X4X4X4X4X4X4X4X4X",
"4X4X4X4X4X4X<X<X<X1X3X3X3.y I { 8 o : : : = = = * = = = = = = = - - = - = = = & = = = = = O > i | t r 8.4X4X4X4X4X4X4X4X4X4X4X4X",
"4X4X4X4X4X4X<X,X1X<X<X,X:.o p ;.p < o o o o < < < + . o < > > > + @ + +     + < < > > o   o @ { ;.7 O 3.4X4X4X4X4X4X4X4X4X4X4X4X",
"4X4X4X4X4X4X4X4X<X<X<X<X:.O } j.I @ o @ | &.&.&.%.[ % i %.&.&.&.&.&.&.&.< + | &.&.&.&.I o o 1 #.j.r O 2.1X<X<X<X4X4X4X4X4X4X4X4X",
"4X4X4X4X4X4X4X4X<X1X1X<X:.O } x.| 6 o @ &.w.e.e.r.| o i r.e.e.e.r.r.w.w.1 @ $.e.e.e.e.| o # 8 &.x.r O 3.1X,X<X<X1X4X4X4X4X4X4X4X",
"4X4X4X4X4X4X4X4X4X4X1X3X2.o } #Xw.$.i 8 ;.y.y.y.y.X.o p i.y.y.y.r.y.y.r.6 > &.y.y.i.y.#.6 ] @.p.j.r O 3.,X<X,X<X<X<X1X4X4X4X4X4X",
"4X4X4X4X4X4X4X4X4X4X4X3X2.O E #Xi.-.@.%.z.c.c.c.#X1.X I v.c.c.c.v.x.v.z.7 2 u.x.c.c.c.s.@.%.-.i.x.r < 3.,X<X<X,X<X<X1X4X4X4X4X4X",
"4X4X4X4X4X4X4X4X4X4X4X4X@X6.E R +.;.-.;.c.$X&Xv.&X1.> R &X$Xv.v.$X$X$X#X9 2 h.#X$X$X$Xp.-.-.-.[ t 2.g.;X1X1X1X1X4X4X4X4X4X4X4X4X",
"4X4X4X4X4X4X4X4X3X4X<X4X4X4Xo.> [ %.;.;.x.$X$X&X$Xx.u.h.$Xv.$X$X$X$X$X$Xs.u.#X$X$X$X$Xs.-.$.$.i < g.4X4X4X4X1X4X4X4X4X4X4X4X4X4X",
"4X4X4X4X4X4X4X1X<X3X<X<X1X4Xk.2.I q +.0.x.$X$X$X$X$X&X&Xv.v.v.$X$X$X$X#X$X$X$X$X$X$X$Xp.-.] w  .6.:X4X4X4X4X4X4X4X4X4X4X4X4X4X4X",
"4X4X4X4X4X4X4X4X3X<X<X3X1X4X4X:XR X [ w.z.$Xv.&X$X$X$Xv.v.$X$X$X$X$X$X$X$X$X$X$X$X#X$Xp.@.i O ,.4X4X4X4X4X4X4X4X4X4X4X4X4X4X4X4X",
"4X4X4X4X1X1X1X1X<X,X1X1X1X1X4X4X@Xg.I 8 $.e.z.#X$X$X$X$X$Xp.r.t.r.y.z.$X$X#X$X$X#Xz.;.| # ..k.;X4X4X<X4X4X4X4X4X4X4X4X4X4X4X4X4X",
"4X4X4X4X4X4X1X1X1X1X1X1X1X4X1X4X4X,XP o { +.s.z.z.x.$X$X$Xp.;.;.0.e.j.$X$X#Xx.x.z.r.+.I o O.,X,X<X<X<X<X<X<X<X<X1X4X4X4X4X4X4X4X",
"4X4X4X4X4X1X1X4X1X1X1X4X1X1X1X,Xk.d.t   < 1 +.-.-.e.#X$X$Xx.z.z.z.x.v.$X#X#Xe.;.| I # + . I j.b.,X3X>X,X<X>X,X,X>X<X4X4X4X4X4X4X",
"4X4X4X4X4X4X1X1X1X4X4X4X,XB.C.V.R + o     o { +.$.%.s.s.s.s.s.s.h.h.h.h.s.s.;.#.[ 0 o o   o + :.N.>X>XN.V.V.M.N.>X,X<X4X4X4X4X4X",
"4X4X4X4X4X2X4X,X1X4X,X1X>XV.>.t T !.Q.Q.L.' z W ' ) q q q q q q q q q q q i *.L.V W L.' ' ' Q.U a f.>Xm.M.M.l.m.M.M.>X1X4X4X4X4X",
"4X4X4X4X1X4X1X1X1X<X1X1XC.C.O.X ) *X5X*X|.~.V M ^ ) ....} 0 6 6 6 6 i Y Y Y _ K.m G ~.^.oX X*XL + d.>X>XM.C.V.N.N.>X,X1X4X4X4X4X",
"4X4X4X4X1X1X1X1X1X<X,X>XC.,X .. <.pXpXyXOX|.B h h Q *X*X*XK % & % % ' OXOX XQ m v Q ~.|.yXaXiX) > g.>X,X,X>X,X,X,X1X4X4X4X4X4X4X",
"4X4X4X4X4X1X1X1X1X1X1X,Xk.g...e /.sXsXiXOX|.L.K.G.K.[.~.{.V $ s s - ^ {.{.~.K.G.P.Q.~. XiXaXaXQ.y :.4.b.<X<X<X4X1X1X4X4X4X4X4X4X",
"4X4X4X4X4X4X4X4X4X4X4X3X2.> K OXwXsXsXiX=X*XrXyX6X}.Z.v v d - l g $ g v b S |.OXyXwX^. XiXaXaXOXE.4 < 4.<X4X<X4X4X4X4X<X4X4X4X4X",
"4X4X4X4X4X4X4X4X4X4X4X2X2.O K =X9XwXeXeX=X=XiXiXwX6XE.P.K.m d h g d V J.P.E.0XqXpXrX^.|.qXqXqXOXQ.4 > 4.1X4X<X<X1X<X1X<X<X4X4X4X",
"4X4X4X4X4X4X4X4X4X4X4X4X2.X L =X6X6X6X=X=X=XiXsXsXaXsXrX7XG.c d d v E.OXrXsXaXaXsXrX^.^.=XOX*X*X~.4 + 4.<X<X<X<X<X<X1X1X<X4X4X4X",
"4X4X4X4X4X4X4X4X4X<X4X3X2.O t a.a.a.a./.^.|.rXsXsXsXsXOXP.S.M d g C G.P.qXsXaXsXsXrX^./.;./.;./.5.6 @ 4.<X,X<X<X<X<X<X<X<X<X4X4X",
"4X4X4X4X4X4X4X4X4X<X<X4X2.o t 0.0.0.-.%./.~.eXaXsXsXaXW.A.A.D d g A.A.A.0XaXaXsXsXrX~.,.@.$.;.t.w.8 , 3.<X,X<X1X1X<X1X1X1X<X4X4X",
"4X1X1X4X4X4X4X4X<X3X4X4X2.o a c.c.v.t.w.!.!.rXaXsXaXaX[.A.A.Z d g A.A.A.0XsXaXsXsXrX~./.$.t.c.c.x.9 > 4.<X<X<X<X1X1X4X4X4X4X4X4X",
"4X1X<X,X<X1X1X<X<X<X<X<X2.> I v.&X&Xi.9.!.~.rXsXsXsXpX[.A.m h g m Z.A.A.0XsXsXsXsXrX^./.-.p.$X$Xv.r > 4.<X3X3X1X4X4X4X4X4X4X4X4X",
"1X<X1X<X<X1X1X1X<X4X3X4X2.o a v.&X&Xi.%./.~.yXsXaXaXaX[.A.h z  X^.m C Z.0XaXaXaXsXrX^./.;.p.$X$Xx.e + 6.3X3X4X1X4X4X4X4X4X4X4X4X",
"1X1X<X<X4X<X3X<X4X4X4X4X2.O P v.l.p.p.t.<.' 9XpXsXsXaX}.G.Q ^ tX9XW ~ G.qXaXaXaXiX0XQ.,.q.p.z.v.c.r , 8.1X1X4X4X4X4X4X4X4X4X4X4X",
"1X1X1X1X4X4X4X1X4X4X4X4X2.X a v.p.q.z.j.J 3 XX9XsXsXsXyXtX9XtXaXpXqXqXqXpXaXaXaXqX|.W _ j.p.q.f.c.r O 6.4X1X2X1X4X4X4X4X4X4X4X4X",
"4X4X4X4X4X4X4X4X4X4X4X4X8.P I 1.9.q.p.i.y : Q.^.XXXXXXXXXXXXXXXXXXXXXXXXXXoXOXXX^.<.z U j.p.q.w.3.P P g.1X1X1X1X4X4X4X4X4X4X4X4X",
"4X4X4X4X4X4X4X4X4X4X4X<X:X%X .O ] =.=.@.2 & j k k j j j j j j d s 3 j : j k k k k f - 9 =.q.q.[ < 3.:X2X<X1X1X1X1X1X4X4X4X4X4X4X",
"4X4X4X4X4X4X4X1X,X:X4X>X>X>Xu.:.a p i t , & m M M m m g d d : = = % = ; k M m m m k - 3 i i i } ..k.4X4X1X1X2X1X4X4X4X4X4X4X4X4X",
"4X4X4X4X4X4X<X,X,Xn.>X>XN.C.b.b.I .     . & M A.A.A.A.C f s - X     & ; m F Z.Z.Z.C $ % .     2.4X4X4X4X4X4X1X4X4X4X4X4X4X4X4X4X",
"4X4X4X4X4X,XC.,XB.n.B.>Xn.B.V.B.>.R R I , $ Z Z.F A.F A c d 3 I i X - ; M F F F F C $ 3 R R E g.4X4X4X4X4X4X4X1X4X4X4X4X4X4X4X4X",
"4X4X4X4X,X,X>XV.C.n.B.B.B.B.n.B.n.n.%Xk.9 $ C F F F F F Z.g k z.3.O & ; M D D D D c & r k.,X2X4X4X4X4X4X4X4X1X4X4X4X4X4X4X4X4X4X",
"4X4X4X<X4X<X,X,X>X&XB.>Xn.n.n.n.B.n.B.j.w * g h h c k h g s z f.>.O * - g h h h k g $ y b.,X4X4X4X4X4X<X1X4X<X1X4X4X4X4X4X4X4X4X",
"4X4X4X4XC.,X>X>X>X,X,X>XB.>X,X>X,X>Xk.d.9 * f f j f f d : ; e k.3.O * = s f f f f d & y j.%X4X4X4X1X1X<X<X1X<X<X4X4X4X4X4X4X4X4X",
"4X4X4X1X4X,X4X<X<X:X<X<X<X<X4X:X<X,X .w # @ 1 7 6 4 1 < O X 2 k.4.O X + < 1 6 1 2 1 # 1 9 :.4X4X1X4X1X<X1X<X4X4X4X4X4X4X4X4X4X4X",
"4X4X4X4X4X4X4X4X4X<X<X<X<X3X3X<X1X2Xu   + # 5 5 5 6 5 # @ X 2 -X7.O O + 5 5 5 6 5 5 5 @   O.1X4X4X1X1X<X<X<X4X4X4X4X4X4X4X4X4X4X",
"4X4X4X4X4X4X4X4X4X4X4X4X4X<X4X1X4X4Xu .     o   o o o     . 2 ;X8.O       o X X . X X   . :.4X4X1X4X1X1X4X4X4X4X4X4X4X4X4X4X4X4X",
"4X4X4X4X4X4X4X4X4X4X4X4X4X1X4X4X4X4XE w w w w w 8 9 9 9 w w P :Xg.t w e 9 w w 9 w w w w w 3.4X4X4X4X4X1X4X4X4X4X4X4X4X4X4X4X4X4X",
"4X4X4X4X4X4X4X4X4X4X4X4X4X4X4X4X4X4X;X@X@X@X@X@X@X@X@X@X-X@X-X4X4X-X@X@X@X@X@X@X+X-X-X+X-X:X4X4X4X4X4X4X4X4X4X4X4X4X4X4X4X4X4X4X",
"4X4X4X4X4X4X4X4X4X4X4X4X4X4X4X4X4X4X4X4X4X4X4X4X4X4X4X4X4X4X4X4X4X4X4X4X4X4X4X4X4X4X4X4X4X4X4X4X4X4X4X4X4X4X4X4X4X4X4X4X4X4X4X4X"
};
