/* XPM */
static char *result[] = {
/* columns rows colors chars-per-pixel */
"64 64 256 2 ",
"   c #040302",
".  c #0B0401",
"X  c #0B0A09",
"o  c #130401",
"O  c #180B05",
"+  c #1F1A08",
"@  c #181616",
"#  c #310C04",
"$  c #281307",
"%  c #391609",
"&  c #291A13",
"*  c #381A15",
"=  c #2D2319",
"-  c #3A2318",
";  c #352924",
":  c #35332F",
">  c #4B1906",
",  c #561B08",
"<  c #481D1A",
"1  c #571B18",
"2  c #661D0A",
"3  c #741C07",
"4  c #661B19",
"5  c #731A17",
"6  c #482509",
"7  c #582609",
"8  c #57380B",
"9  c #472915",
"0  c #562816",
"q  c #463015",
"w  c #58361A",
"e  c #682809",
"r  c #75270C",
"t  c #69370B",
"y  c #76360C",
"u  c #692815",
"i  c #792715",
"p  c #673616",
"a  c #763817",
"s  c #5C1D22",
"d  c #492927",
"f  c #592826",
"g  c #4A3726",
"h  c #5A3926",
"j  c #593A38",
"k  c #672825",
"l  c #772826",
"z  c #663627",
"x  c #7A3326",
"c  c #643B3A",
"v  c #773E30",
"b  c #3D413D",
"n  c #594217",
"m  c #67451A",
"M  c #754F13",
"N  c #764619",
"B  c #5C4329",
"V  c #504639",
"C  c #6A4728",
"Z  c #7A4929",
"A  c #765527",
"S  c #664935",
"D  c #734A35",
"F  c #695337",
"G  c #755738",
"H  c #7F6327",
"J  c #55504A",
"K  c #6D4F4A",
"L  c #765744",
"P  c #78634B",
"I  c #776859",
"U  c #766E69",
"Y  c #841F17",
"T  c #842717",
"R  c #843415",
"E  c #852A26",
"W  c #8C2A24",
"Q  c #89302A",
"!  c #88461C",
"~  c #8F5212",
"^  c #895815",
"/  c #926717",
"(  c #A3781C",
")  c #874A25",
"_  c #964C2A",
"`  c #875429",
"'  c #965629",
"]  c #854A30",
"[  c #875836",
"{  c #955A35",
"}  c #A45D32",
"|  c #916B2A",
" . c #86653C",
".. c #9A6539",
"X. c #A66B2A",
"o. c #A56837",
"O. c #AB6B3B",
"+. c #AC7430",
"@. c #AA743B",
"#. c #B4723B",
"$. c #835B43",
"%. c #895854",
"&. c #886747",
"*. c #996A46",
"=. c #987849",
"-. c #8A6C51",
";. c #877557",
":. c #967856",
">. c #A66D45",
",. c #AB7344",
"<. c #A87649",
"1. c #AC744B",
"2. c #B37544",
"3. c #B47948",
"4. c #A47959",
"5. c #B37952",
"6. c #8E6F68",
"7. c #977965",
"8. c #977574",
"9. c #A8786A",
"0. c #C47B4B",
"q. c #A98319",
"w. c #A98526",
"e. c #AB8934",
"r. c #B88E33",
"t. c #C29539",
"y. c #D0AA38",
"u. c #EDCA3C",
"i. c #F2CE39",
"p. c #F5D134",
"a. c #F8D437",
"s. c #F5D23C",
"d. c #F9D43B",
"f. c #988350",
"g. c #99855A",
"h. c #A78847",
"j. c #B98F49",
"k. c #A88858",
"l. c #B58859",
"z. c #AB9458",
"x. c #B7965A",
"c. c #BAA558",
"v. c #998867",
"b. c #8D8277",
"n. c #998C77",
"m. c #A88967",
"M. c #B38B65",
"N. c #A99669",
"B. c #B79867",
"V. c #AB8A77",
"C. c #A89679",
"Z. c #B69979",
"A. c #AFA062",
"S. c #BAA46D",
"D. c #B8A176",
"F. c #C88A48",
"G. c #D09F49",
"H. c #C58857",
"J. c #C79A57",
"K. c #D99B55",
"L. c #CAA846",
"P. c #D0AB4C",
"I. c #DBB848",
"U. c #C5A855",
"Y. c #CDB459",
"T. c #D6B955",
"R. c #E4AD5A",
"E. c #C69866",
"W. c #CD956B",
"Q. c #C99B71",
"!. c #E39F62",
"~. c #C6A76A",
"^. c #D7A768",
"/. c #D4B967",
"(. c #DABB6B",
"). c #C8A776",
"_. c #D5AA76",
"`. c #CBB378",
"'. c #D7B776",
"]. c #DCBD7C",
"[. c #E5A867",
"{. c #E6BD69",
"}. c #F1B36D",
"|. c #E7AB75",
" X c #E6B479",
".X c #EEBE7B",
"XX c #F1BB74",
"oX c #F1BE7B",
"OX c #E9C747",
"+X c #F2CE48",
"@X c #F7D347",
"#X c #E9C957",
"$X c #F1CE52",
"%X c #F6D555",
"&X c #FDE054",
"*X c #DDC274",
"=X c #E3C568",
"-X c #F7D866",
";X c #E5C27B",
":X c #F3C077",
">X c #F1C17C",
",X c #98908D",
"<X c #A88C87",
"1X c #A79685",
"2X c #B09690",
"3X c #B0A48D",
"4X c #B9A798",
"5X c #AEAAA8",
"6X c #BABAB6",
"7X c #C7AA85",
"8X c #CDAA8B",
"9X c #CAB385",
"0X c #D9BA87",
"qX c #CBB996",
"wX c #D6BD93",
"eX c #EDB786",
"rX c #E4B884",
"tX c #C7AEA8",
"yX c #C9B9B0",
"uX c #DDC689",
"iX c #CFC19D",
"pX c #D9C597",
"aX c #E8C488",
"sX c #F2C582",
"dX c #F2C986",
"fX c #F2C58A",
"gX c #F4CD8C",
"hX c #F5D08F",
"jX c #E4C993",
"kX c #F8C594",
"lX c #F4CF90",
"zX c #E0D29C",
"xX c #F6D594",
"cX c #CEC7B3",
"vX c #D7CAB7",
"bX c #EBD4AB",
"nX c #ECE3BA",
"mX c #C7C8C7",
"MX c #D9D3C7",
"NX c #D9D3D0",
"BX c #E7D5CA",
"VX c #E7DBD6",
"CX c #F6E6C9",
"ZX c #E7E3DA",
"AX c #F6E9D7",
"SX c #F4EFD5",
"DX c #EAEBEA",
"FX c #F6EAE5",
"GX c #F8F4E9",
"HX c #FCFAEC",
"JX c #FAEEF5",
"KX c #F6F7F6",
"LX c #FCF5F3",
"PX c #FCFBF4",
"IX c #FDF6FA",
"UX c #FCFBFA",
/* pixels */
"xXxXxXxXxXxXxXxXxXxXxXxXxXxXxXxXxXxXxXxXxXxXxXxXxXxXxXxXxXxXxXxXxXxXxXxXxXxXxXxXxXxXxXxXxXxXxXxXxXxXxXxXxXxXxXxXxXxXxXxXxXxXxXxX",
"xXxXxXxXxXxXxXxXxXxXxXxXxXbXxXxXxXxXxXxXxXxXxXxXxXxXxXxXxXxXxXxXxXxXxXxXxXxXxXxXxXxXxXxXxXxXxXxXxXxXxXxXxXxXxXxXxXxXxXxXxXxXxXxX",
"xXxXxXxXxXxXxXxXxXxXxXxXxXxXxXxXxXxXxXxXxXxXxXxXxXxXxXxXxXxXxXxX).xXxXxXxXxXxXxXxXxXxXxXxXxXxXxXxXxXxXxXxXxXxXxXxXxXxXxXxXxXxXxX",
"xXxXxXxXxXxXxXxXxXxXxXxXxXxXxXxXxXxXxXxXxXxXxXxXxXxXxXxXxXxXxXk.- A.xXxXxXxXxXxXxXxXxXxXxXxXxXxXxXxXxXxXxXhXhXhXxXxXxXxXxXxXxXxX",
"xXxXxXxXxXxXxXxXxXxXxXxXxXxXxXxXgXxXxXhXxXxXxXxXxXxXxXhXxXxX:.S C G z.gXxXhXgXhXhXhXhXhXjXwXxXxXxXxXxXxXxXhXgXhXgXhXhXhXxXxXxXxX",
"xXxXxXxXxXxXxXxXxXxXxXxXxXxXxXxXgXxXgXg.0XgXgXxXxXxXhXdXhXl.A E.| E.G ~.xXgXdXgXhXgXhXaXU ;.xXxXxXxXxXxXgXxXgXgXhXhXgXlXxXxXxXxX",
"xXxXxXxXxXxXxXxXxXxXxXxXxXxXxXxXgXgXk.= ).gXgXgXhXgXwX2X:.w x.Y.~ [.<.F n.wXgXgXdXgXhX0XJ $ k.lXxXxXxXxXgXgXdXdXlXgXxXhXxXxXxXxX",
"xXxXxXxXxXxXxXxXxXxXxXxXxXxXxXxXgX3Xg & ).hXgXeX%.C 9 d * ] [.K.~ [.W.D < f z P aXhXhX0XJ g B Q.xXxXxXxXxXxXhXxXhXhXxXxXxXxXxXxX",
"xXxXxXxXxXxXxXxXxXxXxXxXxXxXhXgXxX-.B S F 8.9 % 6 k k k 5 0.R.R.~ }.[.2.e k k 6 6 6 ;.0XK D h -.pXxXxXxXxXxXhXxXxXhXxXhXxXxXxXxX",
"xXxXxXxXxXdXoXxXhXxXhXhXxXhXdX>Xl.S S &.0 # z p a r E 5 R K.}.#.8 ^.|.F.r 5 a y 7 7 > $ G $.G c ~.xXxXxXxXxXxXxXxXhXhXhXhXxXxXxX",
"xXxXxXxXgX>X>XdX:XdXdXdXsX>XXX>X:.S Z *.N u 7 >.|._ Y 5 o.[.t.X.t O.[.!._ 5 Y 3.W.e z 1 9.) *.C B.dXdXgXhXxXxXxXxXhXhXhXhXgXhXxX",
"xXxXxXgXsXsX:X>X:X>X>X>X>XoXXX_.F &.[ ' 3., , ,.W._ 3 3 0.K.F.#.M !.F.R.o.2 r E.^.a 2 Z W.N 1.Z k..X>X:X>X>XhXdXhXxXhXhXhXhXhXxX",
"xXxXxXhX:XXXXXXXXXsXXX.X>X>X X .9 -.o.N ^.v , e a t u r F.K.t.+.~ [.R.R.2.e e N N e 5 W.>.x 3.[ C _.}.}.}.}.:XXXsXgXdXgXhXxXxXxX",
"xXxXxXxXgXsX>X:XoX:XsXdXdXdX'.G f >.1.p 1.W.0 6 [ h...A P.G.K.0.y K.R.R.j.M *.[ 7 > 5.8Xa ` 3.` S _.>X.X).XX}.XX>XsX>XlXxXxXxXxX",
"xXxXxXgXdXgXdXdXdXdXlXgXgXhXgX).D *.5.) a 8Xm.p =.uXz.` U.L.t.( M r.t.y.j.H B.<.t >.rX*.p @.2.) k..X>XCX8X}.XXXXsXsXdXgXgXhXxXxX",
"xXxXxXxXhXxXgXgXqX1XaXxXxXxXxX0XK { 2.2.y *.0Xj.N &.&.M w.q.r.L.t.t.r.r.w.8 C M j.rXH.0 { #.3.N E.CXCXUXMX7X_.D.dXgXdXgXgXgXgXdX",
"xXxXxXxXxXxXxXxXn.: J aXxXxXxX0XK Z 3.2.' 7 E._.E.` N r.I.u.+X+X@X+X+XOXT.h.M c. X_.u y 2.2.>.h B.bXLXIXFX`.J P gXgXdXdXgXhXhXgX",
"xXxXxXxXxXxXxXxXI : ; n.xXxXxX0XK q o.O.' ) 7 ^.z.f.~.=X+X@Xi.@Xp.p.s.u.#X=XS.| l.t r o.o.2.Z 9 B.xXxXUXjXK & g Z.gXgXhXhXhXhXhX",
"xXxXxXxXxXxXxXqX6.n F h 6.gXhX0XK =  .@.O.,.7 % f.C.z.A.T.#X%X%X%X-X&X-XY.z.f.A.F # [ #.#.>.0 g ).gXdXdXL S V V 3XhXhXhXhXhXhXhX",
"xXxXxXxXxXxXxXxX3XF F -.F S ].aX9XL n =.,...A m g.; : A.uXY.c.M n / c.c.=Xf.+ V <XG Z O.,.C g S.lXaX'.h G [ S =.gXhXhXhXxXxXxXxX",
"xXxXxXxXxXxXxXxXwXK >.a <.:.S -.3X:.9 C >.*.m N.F X b b.3XbXvX: X J SXiXC.v.: X I D.H o.A q k._.~.&.C 5.%.G P *.jXlXxXxXxXxXxXxX",
"xXxXxXxXxXxXxXjXjX$.[ 1.N &.M.k.[ L B 6 Z | e.`.M b b.3XZXHXUX6XU mXHXGXvXC.;.g ;./.e.N 6 C  .[ G 4.E.[ ] 9.D =.7XpXxXxXxXxXxXxX",
"xXxXxXxXxXxXxXM.6.D Z <.<.N ) l._.).E.5.y m *XY.c.A.3XMXKXHXKXKXmXUXKXPXHXiXS.A.c.T.=Xm *.l.H.W.^.5.` y <.>.w c B.lXxXxXxXxXxXxX",
"xXxXxXxXxXxXaXL 9 e > >.5.{ ` ! ' H.|. Xj./ %X#X#X*X9XSXPXPXPXDX6XUXUXKXHXvXY.#X#X$X#XX.^. X|.F.{ N o.' 5.{ > 9 L 0XxXxXxXxXxXxX",
"xXxXxXxXxXxXQ.h 0 u > a 5.>.} } a ! ~ #.+.q.%X@X%X#XB.MXDXHXHXGX6XKXUXKXZXiXc.#X@Xs.$Xe.j.+.~ _ _ _ 3.{ 5.7 7 0 f Q.xXxXxXxXxXxX",
"xXxXxXxXxXxXz.> Z J.{ > { 5.>.o.' } _ ~ M q.%Xp.i.I.`.MXmXmXcXcX,XmXcX6XcXzXY.$Xs.s.%Xq.y ~ _ #.o.O.#.1.v , ` a < l.xXxXxXxXxXxX",
"xXxXxXxXxXxX5.> { eX2., > ] 5.#.o.O.} O.( / %Xs.s.$X`.BXPXKXSXDXKXDXDXGXGXzXY.%Xu.s.+X( +.@.' 2.#.#.H.N % { eX5., %.eXxXxXxXxXxX",
"xXxXxXxXxX0XK 1 y r r r l.> ) l.,.O.X.X.X.( -X+Xp.p.I.zXSXPXUXUXUXUXHXHXCX`.T.+X@Xs.$X/ X.o.X.#.2.2.y , 8 N F._ , K 0XxXxXxXxXxX",
"xXxXxXxXxXwXc k T T T a kX_.8 w ..1.,.O.@.M I.@Xp.a.+XY.pXSXGXHXHXGXSXnX`.I.@Xs.s.@XI.~ @.2.<.3.' w N rX] 7 r T u k _.xXxXxXxXxX",
"xXxXxXxXxX_.f l W W 5 _ rX].(. .w p [ ..3.^ w.-X+Xp.s.$XY.Y.uXnXnXnXuXU.I.@Xs.a.+X%Xw.| <.*.[ m p =.].aX{ 2 W W l 1 ).xXxXxXxXxX",
"xXxXxXxXxX).< k l l 2 *.fX(.(. XD.G % # q n 8 L.$Xa.a.s.@XI.P.P.T.Y.T.OX@Xd.a.s.%XY.8 B w % # G `.aX(.;X4.4 l E l s ).xXxXxXxXxX",
"xXxXxXxXxX9XI 8.6.9.$.*.jX(.=X(.uXv.&   .   O m I.%Xa.p.p.d.@Xd.@X@X@Xd.a.a.p.@XT.8 .     . O g.0X(./.].5.$.9.6.8.K 8XxXxXxXxXxX",
"xXxXxXxXxXpXtXFXFXAXtXm.jX(.{.=X;X:.$   . . o G e.y.@Xs.p.a.p.d.a.a.p.p.p.+X@Xy.e.q o .   . O -.*X(.*X;XM.yXCXAXFXtXaXxXxXxXxXxX",
"xXxXxXxXxXqX6.1X<X1X7.7.jXh.r.r.`.=.O . o o F _.G.w.y.u.@X@X@X%X@Xa.i.@X%XOXy.w.U.x.q o o . o ;.B.h.h.*X5.6.Z.<X2XU 9XxXxXxXxXxX",
"xXxXxXxXxX).d k i x 7 <.~.@.~.h.B.v.& o # &.^. X|.J.^ ^ r.I.#X=X-X-X$XI.r.^ ` U._. XQ.w o o O L =.`.k.l.5.u x k j - Z.xXxXxXxXxX",
"xXxXxXxXxX).s 5 W T 3 1.<.S.].J.g.I $ h B.0X|.H.' t N | / ^ / ^ M H / / / | N N ..H.|.|.&.* O F D.9X).,.>.3 Q E k f ).xXxXxXxXxX",
"xXxXxXxXgX_.c 5 W W T ) 9X .6 O # * P m.<.' y e ' ,.X.o.@.l.m 9 m.* o.j.2.X.@.O.R r a { g.f.B $ $ O 6 ).' 3 3 i u z _.xXxXxXxXxX",
"xXxXxXxXgX].L 4 T R y e 9X9X=.q 6 F G C ` ^ } 2.#.,.,.@.>.p S FXKX4X0 Z <.5.,.O.2.3.' ' m A F B & F 9X9Xy r } _ , S '.xXxXxXxXxX",
"xXxXxXxXhXhXk.7 ' rX3.6 x.uXpX). .p A *.k.1.>.@.O.*...C h n.DXUXIXKXcXP B A *.>.@.<.*.l.*.[ C n f.uXuXl.e !  Xl., k.xXxXxXxXxXxX",
"xXxXxXxXxXxXM.6 R H.X.e ` rX'.rX0XB. .q % h w w w B L <XMXGXUXmX5XKXPXDXyX6.D w w S h q - -  .~.;X*XaX..2 i } _ 7 M.xXxXxXxXxXxX",
"xXxXhXxXgXxX).z 4 T T r e _.;X(.~.S.9XP O o   o V 5XGXIXUXUXmXb @ ,XKXKXKXKXNXU @ X     + G S.~.'.aX_.e E W T 2 h ).xXxXxXxXxXxX",
"xXxXxXgXgXxXaX&.1 E W E , ..0Xc.h.e.k.~.g .   J mXUXIXUXUX6X: X   @ b.DXKXKXUXDX,X@   . ; :.k.f.k.0X>.5 l E E s P eXxXxXxXxXxXxX",
"xXxXxXxXlXlXgXm.k l l E 9.m.B.z.c.;Xk.D.C.O I NXUXPXKXKX5X: X       @ U ZXKXUXKXKX5X@ & :.h.`.`.h.B.<X8X%.5 f d m.xXxXxXxXxXxXxX",
"xXxXxXgXgXgXdXaXK d %.tXAXBX;.k.k.~.=.`.N.,XZXKXUXHXKX5X;             @ U ZXUXUXUXJXmXI D.g.S.B.:.G vXFXBX2Xc G jXxXxXxXxXxXxXxX",
"xXxXgXgXxXgXgXgXn.,XBXJXBX;.h :.N.f.A.g.3XDXUXUXKXHX5X=                 X U ZXKXUXIXLXMXv.N.g.k.:.h h 2XJXJX6XV.hXhXxXxXxXxXxXxX",
"xXxXxXxXxXxXxXgXgXV.NX8.s < 0 w D.9Xv.cXGXUXKXIXDX,X. X                     J ZXIXUXKXUXVXC.D.3Xm z f < c tX3XgXhXhXhXhXxXxXxXxX",
"xXxXxXxXxXxXxXxXlX3X; < j <X8.F B v.MXHXUXUXKXFX4XI g O O . X       X X X O ; I ZXKXUXUXHXFX4XF f %.V.8.d ; C.gXdXhXhXgXdXhXhXhX",
"xXxXxXxXxXxXxXxXlXkX6.d BXJXIXAXMXGXUXUXUXHXDX3X;.z.g.&.L g = & & & & d C G =.v.g.vXHXUXUXUXHXSXVXJXJXJX6.-.hXlXgXxXhXgXgXkXhXhX",
"xXxXxXxXxXxXxXxXxXxXxX7.AXLXUXUXUXUXUXUXIXCXC.N.z.z.S.k.9XuX).B.B.Z.).8Xz.B.~.h.D.v.vXIXUXUXIXUXIXIXLXIXyXhXhXhXhXhXhXhXgXhXhXhX",
"xXxXxXxXxXxXxXxXhXgXxXxXxXAXUXUXUXUXUXUXVXV.V.pXf.c.'.h.x.].;X;X;X*XuX'.h.c.'.=.).pX;.tXIXUXUXUXIXUXUXSXxXxXxXxXhXxXxXxXhXhXhXhX",
"xXxXxXxXxXxXxXxXhXhXlXhXlXiXDXUXUXUXIXIX3Xh m._.Q.h.h.z.'./.=XT.T./.(.].~.h.k.j.).4.D K FXIXUXUXUXUXCXxXxXxXxXxXxXxXxXxXxXxXhXxX",
"xXxXxXxXxXxXxXgXgXhXhXgXlXqX5XmXUXUXUXLX<Xf a ] >.h.E.0X X.X;X*X=X*X;XaXrX~.h.o.] l l S BXPXUXIXDX6XdXhXlXxXxXxXxXxXxXxXxXxXxXxX",
"xXxXxXxXxXxXxXxXhXlXgXxXxXxX9X,XVXPXPXKX<Xk E E i N Z ..2.l.E.x.A.A.H.1.o.] p y T Y Q K AXLXIXIX6X7X>XdXsXgXdXgXhXhXxXxXxXxXxXxX",
"xXxXxXxXxXxXxXxXxXgXxXxXgXxXxXiXmXGXHXLX<Xk Q Y r y y r r r 7 m.pXD u i r r T Y T W W c VXLXUXnX1X].sX.XsXdX;XdXdXhXhXxXxXxXxXxX",
"xXxXxXxXxXxXxXxXxXxXxXxXxXxXxXwX3XCXIXJX<Xl Q W !  XW.T T Q f tXFX8.i E R H.eX' T T Q c BXIXUXbXsX.XsX>XaX>X>X>XdX>XdXhXxXxXxXxX",
"xXxXxXxXxXxXxXxXxXgXxXxXxXxXxXxXwXqXvX5Xj > 4 T y H.2.i E l 1 tXJX6.4 E i O.W.R E 4 < d ,XqXsXoXoX.X>X.X>X.X.X>X:XsXhXdXxXxXxXxX",
"xXxXxXxXxXxXxXxXhXgXxXgXgXxXxXxXxXxXqXaX>X<XD < 6 6 7 l l Q k yXFX6.k x u 7 , < 0 S 1XsXoX>X.X.XoX.X;X>X.X;XsXsXdXdXgXhXhXxXxXxX",
"xXxXxXxXxXxXxXxXlXgXxXdXgXxXgXxXxXxXdXsXsX:X.X.Xm.G C z f k * 2XNX%.1 k z C G 7.aX;XdXsX>XsXdXfXsXdX>XeXsXdXdXsX>XdXdX>XxXxXxXxX",
"xXxXxXxXxXxXxXhXlXgXgXxXgXxXxXhXxXgXdXaXsXgXdXgXdXdXgX0X<Xm.:.V.4Xm.7.2X0XhXgXgXgXgXgXgXgXgXaXdXgXhXgXgXgXgXgXhXgXgXgXxXhXxXxXxX",
"xXxXxXxXxXxXxXhXgXxXgXdXgXgXgXxXxXxXgXgXgXlXgXjXlXlXlXxXhXhXxXxXkXlXhXxXxXxXhXhXxXhXhXgXgXgXgXxXgXxXlXgXlXlXxXxXxXxXhXhXxXxXxXxX",
"xXxXxXxXxXxXxXxXxXhXhXxXhXhXxXhXxXxXxXlXxXgXxXxXxXxXxXxXxXxXxXxXxXxXxXxXxXxXxXxXxXxXhXxXhXhXxXxXxXgXhXhXxXxXxXxXxXxXxXxXxXxXxXxX",
"xXxXxXxXxXxXxXxXxXxXxXxXhXxXxXxXxXxXxXxXxXxXxXxXxXxXxXxXxXxXxXxXxXxXxXxXxXxXxXxXxXxXxXxXxXxXxXxXxXxXhXxXxXxXxXxXxXxXxXxXxXxXxXxX",
"xXxXxXxXxXxXxXxXxXxXxXxXxXxXxXxXxXxXxXxXxXxXxXxXxXxXxXxXxXxXxXxXxXxXxXxXxXxXxXxXxXxXxXxXxXxXxXxXxXxXxXxXxXxXxXxXxXxXxXxXxXxXxXxX",
"xXxXxXxXxXxXxXxXxXxXxXxXxXxXxXxXxXxXxXxXxXxXxXxXxXxXxXxXxXxXxXxXxXxXxXxXxXxXxXxXxXxXxXxXxXxXxXxXxXxXxXxXxXxXxXxXxXxXxXxXxXxXxXxX"
};
