/* XPM */
static char *_3f5e2dc7e3a4920b202eb7c1941c5c4[] = {
/* columns rows colors chars-per-pixel */
"64 71 256 2 ",
"   c None",
".  c #020201",
"X  c #0B0200",
"o  c #080808",
"O  c #130300",
"+  c #1C0300",
"@  c #1B0B00",
"#  c #150B06",
"$  c #131314",
"%  c #2C0301",
"&  c #230903",
"*  c #380701",
"=  c #291605",
"-  c #3B1C02",
";  c #361401",
":  c #321417",
">  c #3A2309",
",  c #3C2618",
"<  c #2A261D",
"1  c #352C2B",
"2  c #1A2126",
"3  c #440C01",
"4  c #490901",
"5  c #560704",
"6  c #441B01",
"7  c #471802",
"8  c #521D00",
"9  c #591703",
"0  c #461919",
"q  c #5A1B19",
"w  c #530E17",
"e  c #671C04",
"r  c #751B05",
"t  c #651A19",
"y  c #721B14",
"u  c #4A2606",
"i  c #592803",
"p  c #5A3509",
"a  c #4A2A16",
"s  c #582818",
"d  c #4B361C",
"f  c #583619",
"g  c #4D3306",
"h  c #682805",
"j  c #762707",
"k  c #683507",
"l  c #783405",
"z  c #692818",
"x  c #782516",
"c  c #663817",
"v  c #763616",
"b  c #531E26",
"n  c #582726",
"m  c #4D3627",
"M  c #573927",
"N  c #4F2F2F",
"B  c #652625",
"V  c #7A2729",
"C  c #683B26",
"Z  c #753436",
"A  c #70372F",
"S  c #6E1E25",
"D  c #56470D",
"F  c #694519",
"G  c #784818",
"H  c #744F09",
"J  c #5B473B",
"K  c #564934",
"L  c #664929",
"P  c #7B4928",
"I  c #795327",
"U  c #684836",
"Y  c #764C34",
"T  c #7C5836",
"R  c #6A5637",
"E  c #7B6738",
"W  c #7C662C",
"Q  c #776117",
"!  c #533E46",
"~  c #52504F",
"^  c #785947",
"/  c #6D554F",
"(  c #776546",
")  c #7A6556",
"_  c #716D52",
"`  c #705C61",
"'  c #7B7574",
"]  c #736969",
"[  c #5F6560",
"{  c #841D16",
"}  c #872617",
"|  c #873211",
" . c #892927",
".. c #932B25",
"X. c #893529",
"o. c #893736",
"O. c #8F302E",
"+. c #884A09",
"@. c #87481A",
"#. c #875A16",
"$. c #8A530D",
"%. c #946E0F",
"&. c #A3761B",
"*. c #8A4D27",
"=. c #86552A",
"-. c #975828",
";. c #875836",
":. c #965937",
">. c #944C2A",
",. c #A55A2F",
"<. c #876828",
"1. c #99652C",
"2. c #896938",
"3. c #966737",
"4. c #967839",
"5. c #8F742F",
"6. c #A46628",
"7. c #A86939",
"8. c #B36E3C",
"9. c #AB7738",
"0. c #B57539",
"q. c #AD772A",
"w. c #875949",
"e. c #886948",
"r. c #977844",
"t. c #867757",
"y. c #987A57",
"u. c #8F694C",
"i. c #A86B45",
"p. c #A97647",
"a. c #B37544",
"s. c #B77949",
"d. c #A87956",
"f. c #B57A55",
"g. c #B36F40",
"h. c #846967",
"j. c #887769",
"k. c #947272",
"l. c #A97671",
"z. c #875C66",
"x. c #C3794C",
"c. c #7B817D",
"v. c #AD8917",
"b. c #9C8230",
"n. c #B18E32",
"m. c #D0AA39",
"M. c #C58138",
"N. c #EDC938",
"B. c #F5CD37",
"V. c #F4D23C",
"C. c #FBD43C",
"Z. c #F7D435",
"A. c #F3CF30",
"S. c #978457",
"D. c #90864D",
"F. c #B9834B",
"G. c #B29948",
"H. c #A98458",
"J. c #BA8559",
"K. c #A9935A",
"L. c #B79559",
"P. c #A9914C",
"I. c #B6A653",
"U. c #948974",
"Y. c #A78967",
"T. c #B88865",
"R. c #A89569",
"E. c #BC9767",
"W. c #B7977B",
"Q. c #AC9476",
"!. c #B7A578",
"~. c #B3A570",
"^. c #C5885A",
"/. c #D29250",
"(. c #C4A948",
"). c #D1B252",
"_. c #E7A959",
"`. c #E7B954",
"'. c #CA956A",
"]. c #C5A867",
"[. c #D4A569",
"{. c #D7B968",
"}. c #C8A975",
"|. c #DBAA77",
" X c #DAB978",
".X c #CBB569",
"XX c #E7A967",
"oX c #E7BA69",
"OX c #E6AB72",
"+X c #E6B679",
"@X c #F4B270",
"#X c #F4CE49",
"$X c #F9D648",
"%X c #EACA5A",
"&X c #FAD857",
"*X c #EDCB4C",
"=X c #FEE154",
"-X c #DBC277",
";X c #D5C36B",
":X c #E7C668",
">X c #FBD965",
",X c #E3C377",
"<X c #F2D874",
"1X c #FEE372",
"2X c #D2C05A",
"3X c #787D80",
"4X c #947C82",
"5X c #898987",
"6X c #97908E",
"7X c #A98887",
"8X c #A9988E",
"9X c #B6AA91",
"0X c #BAB9A9",
"qX c #B0AFAD",
"wX c #9AA180",
"eX c #CAB687",
"rX c #D8B886",
"tX c #CFB08F",
"yX c #E7B887",
"uX c #F9BB87",
"iX c #EAB090",
"pX c #D0B6AE",
"aX c #DBC388",
"sX c #D6C496",
"dX c #E7C887",
"fX c #F9C68D",
"gX c #E8C896",
"hX c #FCC998",
"jX c #EAD398",
"kX c #F1D791",
"lX c #D4C7B2",
"zX c #E7CCA7",
"xX c #F1D3A8",
"cX c #ECE4A9",
"vX c #D1BEC6",
"bX c #BCC1C5",
"nX c #D0CFCD",
"mX c #E6C8C6",
"MX c #E6D8CB",
"NX c #F4D6D0",
"BX c #FBF9DB",
"VX c #F5EBD0",
"CX c #FFE9E9",
"ZX c #FEF4ED",
"AX c #FEFCED",
"SX c #F8F7E6",
"DX c #FFEFF7",
"FX c #F4F4F4",
"GX c #FDF4F4",
"HX c #FDFCF4",
"JX c #FEF6FB",
"KX c #FDFDFC",
"LX c #F5F9F9",
"PX c #EAEDEC",
"IX c #DAE4EE",
"UX c #B8C0B3",
/* pixels */
"                                                                                                                                ",
"                                                                                                                                ",
"                                                                                                                                ",
"                                                                =                                                               ",
"                                                              @ d =                                                             ",
"                                                            = Y.2.E.>                       5X                                  ",
"                                    2                     f r.[.$.+XT R                   [ .                                   ",
"                                  < o               6Xk.M u +X).+.@X|.u / 6X              ] O @                                 ",
"                                ` = :         / a % : 0 % s.oX/.+.XXOXd.% 0 % 0 /         ~ J m M                               ",
"                                = ^ U J k.: % 7 B A Z t h OX_._.$.@XXXOXi z A z - ; ; )   J ^ Y > 8X                            ",
"                              m ^ C y.; * C c v h x O.5 >.@X@Xq.i [.XX@X@.5 X.v k i i 6 + U u.Y w.M                             ",
"                              = d.c d.p c i :.uX,.r ..5 /.XXM.6.k -.XX@Xx.5 ..r ^.^.h A 3 l.:.P T.-                             ",
"                            j.m E.i s.7.4 9 f.hXx.r r r @X/./.0.H [.0._.XX9 r | hXhXv h 4 iXv *.'.6                             ",
"                            & U T.@.H uX4 h h *.h j 4 | @X_.q.6.+.+X_./.@Xh 9 j -.G l 4 f.iX7 p.f.c )                           ",
"                          = + u.f.3.8 |.f.* c 7 p 3.p -.oXq././.l /._._.@X#.i c 6 c 3 v iX:.i s.a.P =                           ",
"                            d ;.f.f.i i.iXY % E.rXxXp 4.oX`._.q.k /.oX`.:X<.I xXE.* i iXiX8 -.9.F.k U.      6X                  ",
"                            ^ Y f.s.>.8 tXrXG k rXgXg G.).n.&.&.H &.&.v.).b.F rXk H |.yX;.8 F.9.s.i       KX                    ",
"            5X3X            h.s s.8.s.h ;.yX XG 6 H.> %.%.v.m.`.%X).m.n.b.H % i #.+XyX^.3 i.7.0.f.6   KXFXKXIX6X  [             ",
"            ~ . ~           h.; J.0.s.-.* J.+XyXp.6 n.).$X$X&XV.$X$X$X$X&X:X4.Q oX+X|.9 h a.s.s.;.,     KXJXZX  [ o             ",
"            < 1 , 4X        U.+ ;.0.7.-.*.7 [.E.2.}.,X%X$XC.N.$XA.A.C.N.*X:X X].Q L.i e 8.-.a.p.u ,       KX  ) : # [           ",
"          6X_ > ^ m h.      U.@ f H.7.7.p.i ; E 9Xy.].G.%X#X&X&X&X1X&X>X%XG.K.S.~.L * ;.8.8.s.;.+ J         ^ M ) = '           ",
"            j.L L y.L m       U.= I J.7.:.=.g !.J O E gX,X(.I.Q D %.n.{..XdXD . _ 8XU P 7.a.d.% K         a Y u.U d             ",
"            8Xa T.u E.y.> / pX  ( & d.p.r.p R.t.X . U.U.R.zXlXX X X VXsXS.!._ . . U.Q.G p.p.u d       R - T.l.f Y.-             ",
"              7 p.p.i H.tXu.d a U + ; d.3.<.aXD . [ 5X6XAXAXKX5X1 qXAXAXVXj.wXK . ( aX5.1.p & u.e.f > e.yXp.z l.e.f   4X        ",
"          k.CXs :.s.p.i =.yXgXE.y.H.k 8 H ].].I.D.R.U.HXHXHXLXKXnXLXKXGXHXVXS.~.D.I.(.:X6 u 2.I 3.'.yXyX=.8 p.J.C U 7X          ",
"          & s 7 v p.p.3.k k F.yXyXyXuXH k 1X%X(.;X!.lXHXAXHXKXPXqXKXKXLXKXAXeX;X2X).%X<X#.|.+XyXfX+XJ.k @.-.p.f.8 a &           ",
"        k.* Y h * f.f.:.7.6.9 +.^.OXOXXX&.&X#X&X<XP.BXHXKXHXAXSXUXKXKXKXSXSXeXG.>X&X#X&X&.[.XX@Xx.@.9 *.s.-.J.:.3 C ; h.        ",
"        M u i v 4 9 T.i.-.s.@.| l h 6.&.v.&XV.#X>Xb.9XnXPXHXAXBX0XFXKXLXVXlX~.(.&XB.V.&Xn.9.q.l l ,.7.,.s.:.f.8 7 c s b         ",
"        ; i s.fX:.* *.f.i.g.-.-.x.@.$.i v.&XN.B.*X(.MXnXbXqX0X0X6XbXqXqX0XMXjX(.&XV.V.=Xv.i +.+.8.x.-.g.8.f.A * 7.@.z *         ",
"        * i ^.hX,.8 3 P f.a.7.7.8.-.s.&.%.=XV.C.&X).sXZXHXKXSXPXLXFXFXHXAXBX.X).&XN.V.&X&.q.^.-.6.x.8.8.^.G % P hXfXz 3 7X      ",
"      k.* v j | h h T.7 v ^.p.7.0.6.6.q.%.>X#XA.A.$XG.BXBXHXKXKXKXKXAXSXAXzXG.&XN.$XV.&X%.6.0.-.8.0.a.a.k 8 p k /.7.x 4 h.      ",
"      / q X.} } j v hXrXu 7 3.J.a.a.7.9.H `.$XZ.Z.C.%XP.VXSXAXHXHXAXBXBXzXP.&XV.V.V.$X*X+.9.a.a.s.F.-.7 k yX=.i e j } q A       ",
"      N B  . .} x >.yX-XdX<.; 6 ;.i.f.^.$.n.>X#XA.Z.#X%XG. XcXBXBXVXcX.Xn.>XN.C.C.V.&Xn.#.F.f.f.T g 6 r.dXdX:.e .... .S 0       ",
"      0 B V  .O.e i.fX{.{.dXeX^ ; ; u F <.H :X*XV.Z.C.#X>X(.G.G.I.I.I.).#XV.C.Z.B.*X<XH 2.T f % ; ( aXaX{.dXd.z V O.O.V 0       ",
"      : N n q q 7 d.dX{.:X{. XxXK O X X X @ Q 1X#XC.A.A.A.=X$X$X&X&X&X$XC.Z.C.Z.$X1XQ X X X O O > xX X,X{. XT.3 z q q n :       ",
"      5XNXmXmXNXW.y.jX{.oXoX,XrXd . o . . O & q.>XB.C.Z.A.A.A.Z.C.C.B.Z.Z.C.A.B.&Xb.@ # . . X X = eX X{.{.,XT.W.VXzXNXNX'       ",
"      8XGXZXGXZXpXY.aX-XoX:X{.jXa O . O O O H.n.%.&X$XZ.Z.Z.B.C.C.A.A.Z.A.N.&X&X&.n.F O O . . X + eXdX{.-XdXH.pXBXZXZXGXqX      ",
"      ~ ) ^ ^ u.U y.jX<.%.%.].rX> O X O O y.yXOXn.%.m.$X$X&X#X&X#X#XV.$X&X>Xm.%.n. X XL O + O O @ eX4.<.<. XT.C u.^ ) ] 1       ",
"      : q x y x 4 J.E.9.dXL.5.zXM O O - E.|.+X+X+X1.6 %.n.).:X<X<X1X%X`.n.%.i 3.+X|.+XyX=.+ O X , y.r.jXL.p.^.9 x t B n &       ",
"      n t ....} e f.p.]. X XE 9X, + ^ rXyXOX^.-.h k 1.1.$.H #.H D Q #.+.$.6.3.k k 1.^.OXhXT.m X = t.tXeX}.p.i.r ..O.V B m       ",
"      / w ....} x *.tX2.g + ; & m y.W.3.-.l h @.a.7.6.9.9.L.f a Q.& 3.F.F.9.1.p.7.l j v >.d.Y.( > @ = & g }.:.r r r X.9 U       ",
"      k.4 X.r | h k rXeXS.u + L ( L c *.@.,.a.8.a.i.9.F.i.6 M CXHXpX; c p.J.f.7.7.a.x.>.>.c F R R d O R eXrXv e >.,.x 3 ^       ",
"        * k x.hX1.- E.aXgXrXe.6 c 2.E.'.f.a.a.a.f.J.3.u - U.ZXKXJXHXMXR - f i.J.s.a.s.p.'.d.d.2.g > R.jXaXE.h h uXhXG %         ",
"        - i a.hX1.i 4.dX}.rXgX}.I - u p T I I I u - a k.NXHXJXLXPXLXKXHXlX) 6 7 F I e.T L M ; - 2. XdX XdXp.e e 0.^.k ;         ",
"        M 8 j | j j k |.+X,X XdXxXsX@ O O X @ O J MXGXJXKXLXKX[ 2 IXKXFXLXHXCX9XO O X X X X + !.jXdX X XyXk x ..r e 9 M         ",
"        Q.* X.{ ..} z T.dX,XP.5.<.eXS.X X . . [ GXKXKXKXKXLX~ . . $ nXKXPXLXKXFXnX$ o . . X ^ Q.W b. XdXT.e O. ...X.* k.        ",
"          % V  .O.V 9 c rX].<..XL.3.gXd X . ' KXKXHXGXKXKX~ . o o . # pXKXGXJXKXLXPX2 . X > S.4.aXD.r.gXP z t  .V Z %           ",
"          ) w Z w Z tXtXY.K.P.kXfX2.eXtX@ 6XKXLXHXHXJXLX1 . o . . . . X qXKXHXLXKXKXFX1 X tX2..XjXrXr.H.pXSXl.q B : /           ",
"            & N 7XCXGXSX( R.2.}.P.2.zXt.0XHXKXHXAXHXFX1 . . . . . o . . o 8XHXKXKXLXJXKXh.Q.!.E rX2.y.L MXZXCXNXh.&             ",
"            [ pXGXGXmX) a T rXE K.eX( pXHXKXJXKXAXSX< . . . . . . . . o . . 6XLXLXKXJXJXZXU.S.~.E !.e.a a 7XCXGXGX]             ",
"              ] CXz.b 0 s 6 t.xX~._ VXHXKXFXJXGXnXX . $ . . o . . o . . o o . ' KXJXKXFXKXAX9Xt.zXY.7 A n 0 N pX6X              ",
"              5X+ b N l.k.U > ( U.AXHXLXKXFXKXlX) K @ X X X o . . . . # X X O 1 j.HXGXKXHXSXHXMXt.- n w.l.z.N + '               ",
"                ! : mXDXGXCXlXVXAXKXKXKXAXHX0X_ R.K.e.^ m @ X O O O O X > R L S.R.t.VXAXKXKXKXGXAXMXMXGXDXDX` N                 ",
"                  ! JXDXJXKXKXHXKXFXKXGXSX9Xt.!.5.~.S.R.xXeXW.Y.y.Y.R.tXsX2.}.K.r.!.t.BXHXKXKXGXKXHXKXJXCXJXqX                  ",
"                      KXKXKXKXKXKXKXJXHXtXe.cX2.I.kX XI  XdXdX-XdXdXdXdXK.4.kXdX4.}.eX) CXKXJXKXLXLXFXKXKXKX                    ",
"                        KXLXKXKXKXKXJX9XL zXgXK.5. XP.4.,X{.{.:X{.{.{. X X<.I.].<.rXxXy.N GXJXKXKXKXKXFXKX                      ",
"                      qXnXKXKXKXKXGXJXk.7 P T.iXL.5.r.rX+X{.:X).2X;X{. XdX].4.r.[.'.z s b mXHXKXKXKXLXKX                        ",
"                        5X' FXLXLXKXGXk.B z e v p.].hXyX+XfX,X-X<X-XdXfXyXyX|.p.@.9 V o.0 lXHXSXKXFXnX5X                        ",
"                          5XqXKXHXSXJXk.t  .O.x h 7 k *.i.p.L.K.S.K.f.:.>.v 8 9 j } { O.n NXHXKXKXKX6X                          ",
"                            qXFXSXHXGXl.t O.{ r l @.e j e e 3 Y.zXY 9 x j e | | { } .. .b mXZXKXKX  5X                          ",
"                            c.  HXKXJXk.S  ...j OXhX>.r X.o.n pXZX7Xt  .} | hXuX| } } o.0 mXJXKXKX                              ",
"                              6X  nX8X: * t X.h F.uXj x  .V w pXDXl.w  .x j [.[.j X.t * : ] qX                                  ",
"                                  qX    4Xn % ; u 8 v X. .o.B pXGXl.B o.X.z i 6 * * N 4X                                        ",
"                                              j.d - * * w t % pXGXk.* q 3 * ; d h.                                              ",
"                                                      7X` / N h.6X` ! h.7X                                                      ",
"                                                                                                                                ",
"                                                                                                                                ",
"                                                                                                                                ",
"                                                                                                                                ",
"                                                                                                                                ",
"                                                                                                                                "
};
