/* XPM */
static char *result[] = {
/* columns rows colors chars-per-pixel */
"64 64 168 2 ",
"   c #883E23",
".  c #8D4123",
"X  c #934523",
"o  c #984723",
"O  c #964824",
"+  c #9C4A24",
"@  c #964A28",
"#  c #9E522D",
"$  c #A34F23",
"%  c #A55025",
"&  c #A85127",
"*  c #A4532A",
"=  c #AA542A",
"-  c #A6592F",
";  c #AF582F",
":  c #A55A33",
">  c #AA5C33",
",  c #B35631",
"<  c #B25D35",
"1  c #BA5937",
"2  c #B55F38",
"3  c #BF5B3B",
"4  c #AB6237",
"5  c #AC653B",
"6  c #AD683D",
"7  c #B26036",
"8  c #B6623A",
"9  c #BA643D",
"0  c #B1693E",
"q  c #C2433D",
"w  c #C35D3E",
"e  c #BD6741",
"r  c #B16C41",
"t  c #BD6841",
"y  c #B5754B",
"u  c #BA794C",
"i  c #B67655",
"p  c #BA7E54",
"a  c #C64741",
"s  c #C74A43",
"d  c #CA4D45",
"f  c #C55C40",
"g  c #CB5F45",
"h  c #CD534A",
"j  c #D2554B",
"k  c #D45B4C",
"l  c #CA5650",
"z  c #D75D52",
"x  c #DB5D52",
"c  c #CB6247",
"v  c #C16B45",
"b  c #C46E49",
"n  c #D6654E",
"m  c #C6714C",
"M  c #C9734E",
"N  c #D46255",
"B  c #DC6454",
"V  c #DE6955",
"C  c #D6675F",
"Z  c #CC7652",
"A  c #CE7855",
"S  c #D07B57",
"D  c #D17B58",
"F  c #E06A57",
"G  c #E3675A",
"H  c #E46B5B",
"J  c #E96E5E",
"K  c #DB7964",
"L  c #EA6F60",
"P  c #EA7263",
"I  c #E97769",
"U  c #E27E6B",
"Y  c #EA7C6F",
"T  c #BF8153",
"R  c #C48C5E",
"E  c #C48364",
"W  c #C69162",
"Q  c #CA9462",
"!  c #CC9967",
"~  c #CD9C6A",
"^  c #D39C64",
"/  c #D5936D",
"(  c #E9836D",
")  c #E59069",
"_  c #EA8073",
"`  c #E68F75",
"'  c #EC8578",
"]  c #E59476",
"[  c #E89470",
"{  c #E79E75",
"}  c #EB9B76",
"|  c #CFA06F",
" . c #DBA76C",
".. c #D4A470",
"X. c #DBAB74",
"o. c #D8AF7A",
"O. c #DDB37C",
"+. c #EFB269",
"@. c #F1B46D",
"#. c #F2B86C",
"$. c #E1AB70",
"%. c #E7A07E",
"&. c #E4A87D",
"*. c #E4B376",
"=. c #EDB471",
"-. c #EFBA73",
";. c #E5B979",
":. c #EFBE7A",
">. c #F1B671",
",. c #F1BB74",
"<. c #F1BE7B",
"1. c #EFC27D",
"2. c #F3C077",
"3. c #F1C17C",
"4. c #DC8C86",
"5. c #E18B83",
"6. c #E6938A",
"7. c #EC9B92",
"8. c #DFB881",
"9. c #D5B29F",
"0. c #EBAD84",
"q. c #EBB587",
"w. c #E4BD83",
"e. c #EEBF82",
"r. c #E4A39E",
"t. c #EFA49C",
"y. c #D6B4A0",
"u. c #EAA7A0",
"i. c #E7B5B1",
"p. c #EFC583",
"a. c #EFC885",
"s. c #E6C288",
"d. c #EDC689",
"f. c #EFCA8B",
"g. c #F2C582",
"h. c #F2C886",
"j. c #F1C58D",
"k. c #F4CD8C",
"l. c #F5D08F",
"z. c #F4CF90",
"x. c #F6D593",
"c. c #F3D49B",
"v. c #EFD1A6",
"b. c #F1D4A2",
"n. c #F2D9A4",
"m. c #F2DBAC",
"M. c #ECC2B9",
"N. c #E1CDB9",
"B. c #EFD5B1",
"V. c #F2DDB2",
"C. c #F2DEBC",
"Z. c #F3E2BD",
"A. c #F3D1CD",
"S. c #F2D8D6",
"D. c #F2E4C4",
"F. c #F2E6CB",
"G. c #F3EAD4",
"H. c #F4EEDC",
"J. c #F6E5E3",
"K. c #F9E7E5",
"L. c #F3E9E3",
"P. c #F6F1E4",
"I. c #F8F2E4",
"U. c #F7F5EA",
"Y. c #F9F5EC",
"T. c #FAF1F0",
"R. c #FAF8F5",
"E. c #FFFFFE",
/* pixels */
"x.x.x.x.x.x.x.x.x.x.n.x.x.x.x.x.x.x.x.x.x.x.x.x.x.c.x.x.x.x.x.x.x.x.x.x.x.x.x.x.x.x.x.x.x.x.x.x.x.x.x.x.x.x.x.x.x.x.x.x.x.x.x.x.",
"x.x.x.x.x.x.x.x.x.x.x.x.x.x.x.x.x.x.x.x.x.x.x.x.x.x.x.x.x.x.x.x.x.x.x.x.x.x.x.x.x.x.x.x.x.x.c.x.x.x.x.x.x.x.x.x.x.x.x.x.x.x.x.x.",
"x.x.x.x.x.x.n.x.x.x.x.x.x.x.x.x.x.x.x.x.x.x.x.x.x.x.x.x.x.x.x.x.x.x.c.x.x.x.x.x.x.x.x.x.x.x.x.x.x.x.x.x.x.x.x.x.x.x.x.x.x.x.x.x.",
"x.x.x.x.x.x.x.x.x.x.x.x.x.x.x.x.x.x.x.x.x.c.x.x.x.x.x.x.x.x.x.x.x.x.x.x.x.x.x.x.x.x.x.x.x.x.x.x.x.x.x.c.x.l.l.x.x.x.x.x.x.x.x.x.",
"x.x.x.x.x.x.x.x.x.x.x.x.x.x.x.x.k.l.l.l.x.x.x.l.x.x.x.l.x.l.l.l.l.l.l.l.x.l.l.l.x.k.k.l.x.x.x.x.x.x.x.x.x.k.l.l.k.l.l.l.x.x.x.x.",
"x.x.x.x.x.x.x.x.x.x.x.x.x.x.x.x.l.l.l.l.l.l.l.l.l.x.l.k.l.l.h.l.k.k.k.k.x.l.h.k.x.k.z.k.k.z.k.x.x.x.x.x.l.l.k.k.k.x.k.k.x.x.x.x.",
"x.x.x.x.x.x.x.x.x.x.x.x.x.x.x.x.k.l.k.k.l.l.k.k.l.l.k.h.k.h.k.k.g.g.k.k.k.l.k.k.k.k.l.k.k.k.x.k.x.n.x.x.l.l.h.h.k.l.x.x.x.x.x.x.",
"x.x.c.x.x.c.x.x.x.x.x.x.x.x.l.x.l.h.l.l.k.l.k.l.l.k.k.k.h.h.h.k.h.h.k.k.k.k.l.k.k.k.l.k.x.k.k.k.x.x.x.x.l.x.l.l.l.l.x.x.x.x.x.x.",
"x.x.x.x.x.x.l.x.x.x.x.x.x.x.l.k.l.l.l.l.l.l.l.l.l.k.z.z.k.k.k.k.l.l.k.k.x.l.l.l.l.l.x.l.z.k.x.x.x.x.x.x.x.x.x.x.x.x.x.x.x.x.x.x.",
"x.x.x.x.l.k.3.l.x.x.x.x.x.l.3.3.h.g.l.l.l.l.l.l.x.k.x.z.k.k.k.k.k.h.g.k.k.k.l.k.f.l.z.k.k.k.z.z.l.x.x.l.x.x.x.x.x.x.k.l.k.x.x.x.",
"x.x.x.x.l.3.3.h.2.h.h.3.h.3.2.3.<.,.2.k.h.l.l.x.x.l.x.z.g.k.k.p.g.g.3.<.3.g.g.3.g.g.p.3.h.k.g.g.a.l.h.l.z.x.x.x.x.l.l.l.l.k.l.x.",
"x.x.x.k.g.g.<.3.2.3.3.3.3.3.2.3.3.,.3.k.g.g.x.l.h.3.g.g.,.g.g.,.,.,.@.>.-.+.-.#.,.,.>.,.3.,.,.3.1.b.S.G.C.d.k.k.l.l.l.l.l.k.x.x.",
"x.x.x.l.<.,.,.,.,.g.,.2.3.3.3.3.3.3.g.h.h.3.l.h.3.h.,.,.@.,.,.,.#.>.-.-.3.#.+.#.+.-.>.,.,.3.:.j.C.R.E.E.E.H.j.,.h.h.h.k.l.x.l.x.",
"x.x.x.x.l.g.3.2.2.2.g.h.h.k.h.h.h.h.k.l.k.g.l.3.2.2.,.,.#.,.@.#.>.>.=. .^ ^ ^  .*.:.3.<.g.g.g.v.Y.E.E.E.E.E.D.-.3.g.3.k.x.x.x.x.",
"x.x.x.l.k.h.h.h.h.k.l.k.l.x.l.x.x.l.l.h.k.3.g.3.3.,.>.2.#.,.,.;.^ u 0 > ; 7 7 0 0 R  .g.p.g.g.V.E.E.E.E.E.E.I.g.h.3.3.x.k.l.x.x.",
"x.x.x.l.l.l.l.l.l.l.l.l.x.x.x.x.x.x.x.h.h.k.g.g.h.3.g.,.-.*.W 5 > 2 v m A A A v < & - p *.a.a.Z.R.E.E.E.E.E.I.k.h.k.h.k.k.k.l.k.",
"x.x.x.x.x.x.x.x.x.x.x.x.x.x.x.x.x.x.x.l.l.l.k.k.l.h.h.:.! 6 % 8 M S A Z b 9 < 2 v Z Z > r X.k.m.R.E.E.E.E.E.U.b.k.h.g.k.k.l.k.k.",
"x.x.x.x.x.x.x.x.x.x.x.x.x.x.x.x.x.l.l.l.l.l.x.x.l.l.f.! > * e A S m 9 9 2 & 9 A A D Z ; $ > o.m.U.E.E.E.E.E.E.I.m.k.f.l.l.l.x.l.",
"x.x.x.x.x.x.x.x.x.x.x.x.x.x.x.x.l.l.l.l.k.x.l.l.x.l.| * & t S S t & = A A ; v A Z m ; $ $ $ 5 N.E.E.E.E.E.E.E.E.U.v.l.l.l.l.l.l.",
"x.x.x.x.x.x.x.x.x.x.x.x.x.x.l.l.l.k.k.k.k.k.k.l.x.O.> % 9 A A 9 % $ & e t & $ ; = & $ $ $ $ $ E L.E.E.E.E.E.E.E.E.D.l.x.x.x.x.x.",
"x.x.x.x.x.c.x.x.x.x.x.x.x.l.l.z.k.g.h.f.k.l.l.l.s.y % 7 M Z < % % $ $ % $ $ $ $ $ $ $ $ $ $ $ : 9.R.E.E.E.E.E.E.E.G.x.x.x.x.x.x.",
"x.x.x.x.x.x.x.x.x.x.x.x.l.l.l.k.k.k.k.x.l.l.x.k.W = < Z S 8 % $ $ $ $ $ $ $ $ $ $ $ $ $ $ % $ $ i L.E.E.E.E.E.E.E.D.x.x.x.x.x.x.",
"x.n.x.x.x.x.x.x.x.x.x.x.x.l.l.l.x.l.z.x.z.x.x.~ - < S S t & $ $ $ $ $ $ $ $ $ $ $ $ $ $ $ $ $ $ * y.G.H.E.E.E.E.U.c.x.x.x.x.x.x.",
"x.x.x.x.x.x.x.x.x.x.l.x.x.x.k.x.k.x.z.x.z.w.W > 7 M Z 9 & $ $ $ $ $ $ $ $ $ $ $ $ $ $ $ $ $ $ $ $ y z.z.C.P.Y.H.m.k.x.x.x.x.x.x.",
"x.x.x.x.x.x.x.h.l.l.k.l.l.k.l.k.k.x.k.8.Q r > v M b < & $ $ $ $ $ $ $ $ $ $ $ $ $ $ $ $ $ $ $ $ $ - O.k.k.c.b.x.x.x.x.x.x.x.x.x.",
"x.x.x.x.x.x.l.k.l.h.3.k.l.h.l.k.f.w.R 5 7 b A m 7 = $ $ $ $ $ $ $ $ $ $ $ $ $ $ $ $ $ $ $ $ $ $ $ % W z.l.l.l.l.x.k.x.x.x.x.x.x.",
"x.x.x.x.x.l.l.h.h.k.l.k.k.k.k.k.X.6 % t A M < % $ $ % $ $ $ $ $ $ $ $ % $ $ $ $ $ $ $ $ $ $ $ $ $ $ y k.l.l.l.x.x.x.x.x.x.x.x.x.",
"x.x.x.x.x.l.k.l.k.h.k.k.l.k.d.! 4 & v Z 9 = $ $ $ $ $ $ $ $ $ $ $ $ $ $ $ $ $ $ $ $ $ $ $ $ $ $ $ $ 5 d.x.x.x.x.x.x.x.x.x.x.x.x.",
"x.x.x.x.x.x.x.l.l.l.l.l.l.l.! - $ 8 v < % % $ $ $ $ $ $ $ $ $ $ $ $ $ $ $ $ $ $ $ $ $ $ $ $ $ $ $ $ : w.x.x.x.x.x.x.x.x.x.x.c.x.",
"x.x.x.x.x.x.x.x.l.l.x.x.x.w.v % % = % $ $ % $ $ $ $ $ $ $ $ $ % $ $ $ $ $ $ $ $ $ $ $ $ $ $ $ $ $ $ - 8.l.l.x.l.x.x.x.x.x.x.x.x.",
"x.x.x.x.x.x.x.x.x.x.x.x.l.} L V w & % % $ $ $ $ $ $ $ $ $ $ $ $ $ $ $ $ $ $ $ $ $ $ $ $ $ $ $ $ $ X * O.k.l.l.l.l.l.x.x.x.x.x.x.",
"x.x.x.n.x.x.x.x.x.x.x.x.j.( L L J V 3 = $ $ $ $ $ $ $ $ $ $ $ $ $ $ $ $ $ $ $ $ $ $ $ $ $ $ $ $ O   : w.l.k.k.l.l.l.x.x.x.x.x.x.",
"x.x.x.x.x.x.x.x.x.x.x.z.q.I L L L L J n , $ $ $ $ $ $ $ $ $ $ $ $ $ $ $ $ $ $ $ $ $ $ $ $ $ $ o .   6 a.k.k.h.k.x.k.l.x.x.x.x.x.",
"x.x.x.x.x.x.x.l.k.x.k.k.} P L L L L J L F , $ $ $ $ $ $ $ $ $ $ $ $ $ $ $ $ $ $ $ $ $ $ + o X .   . T k.x.k.l.l.k.x.x.x.x.x.x.x.",
"x.x.x.x.x.x.k.3.g.g.g.k.} P L L L L L L J F , % $ $ $ $ $ $ $ $ $ $ $ $ $ $ $ $ + + o           . @ o.l.x.k.x.x.x.x.l.x.x.x.x.x.",
"x.c.x.x.x.l.k.g.<.,.3.,.[ H L L L L L L L J F , $ $ $ $ $ $ $ $ $ $ $ $ $ + o X X               X y 1.a.x.k.x.x.k.x.l.x.x.x.x.x.",
"x.x.x.x.k.3.,.,.>.>.,.>.) z H L L L L L L L L B = $ $ $ $ $ $ $ $ $ $ + X .             . . . X 5 X.2.g.x.h.x.k.k.x.k.x.x.x.x.x.",
"x.x.x.x.l.h.h.,.2.2.3.<.{ h k P L L L L L L L L c & +   o $ $ $ $ $ o X                   . O 5 $.g.3.2.k.l.h.x.h.k.x.x.x.x.x.x.",
"x.x.x.x.l.l.l.g.k.g.g.g.q.N q x L Y ' _ P L L L G 1 $     X $ $ + X                 . X @ - u X.h.3.3.3.3.h.k.k.x.k.x.x.x.x.x.x.",
"x.x.c.x.x.l.l.l.l.k.l.l.p.K a s 5.A.K.S.u.I L J x g & X       + X               X X # 4 T ..a.l.l.h.l.k.k.x.k.x.x.l.x.x.x.x.x.x.",
"x.x.x.l.k.x.l.l.c.m.V.n.f.&.h 4.J.E.E.E.J.5.L J k j 3 +                       . # 0 Q *.a.a.l.l.l.l.x.l.l.x.l.x.x.x.x.x.x.x.x.x.",
"x.x.x.k.k.x.k.c.G.E.E.R.D.v.M.R.E.E.E.E.E.t.L J j a n $ X                   X 4 ! a.k.k.k.k.l.x.x.x.x.x.x.x.x.x.x.x.x.x.x.x.x.x.",
"x.x.x.x.l.l.l.F.E.E.E.E.E.R.E.E.E.E.E.E.Y.7.L J j q z ; X               . O 6 o.k.l.l.k.x.x.x.x.x.x.x.x.x.x.x.x.x.x.x.x.x.x.x.x.",
"x.x.x.x.k.k.k.Y.E.E.E.E.E.E.E.E.E.E.E.R.i.C G G d q d c o               @ 0 O.l.l.x.x.l.x.x.x.x.x.x.x.x.x.x.l.x.x.x.x.x.x.x.x.x.",
"x.x.l.l.l.k.k.R.E.E.E.E.E.E.E.E.E.E.R.r.l q j d q q q k * .         . X 6 O.l.k.l.x.x.x.x.x.x.x.x.x.x.x.x.k.k.l.k.x.x.x.x.x.x.x.",
"x.x.x.x.x.x.l.H.E.E.E.E.E.E.E.E.E.T.6.q q q q q q q q j , .         X 6 O.l.l.l.x.x.x.x.x.x.x.x.x.x.x.x.x.l.l.l.k.l.l.l.x.x.x.x.",
"x.x.x.x.x.x.x.m.Y.E.E.E.E.E.E.E.Y.B.` z a q q q q q q h 1 X       @ r O.l.l.l.l.x.x.x.x.x.x.x.x.x.x.x.x.l.k.l.k.k.l.l.l.h.k.x.l.",
"x.x.x.c.x.x.x.x.m.H.E.E.E.E.E.E.Y.m.z.0.K j q q q q q j w O   . - T s.x.x.x.x.x.x.x.x.x.x.x.x.x.x.x.x.x.l.l.l.l.k.l.l.l.h.l.k.x.",
"x.x.x.x.x.x.x.x.x.x.I.E.E.E.E.E.R.D.x.x.j.%.U N j d q G f $ # p O.k.x.x.x.x.x.x.x.x.x.x.x.x.x.x.x.x.x.x.x.x.x.k.x.k.k.x.k.k.l.k.",
"x.x.x.x.x.x.x.x.x.x.U.E.E.E.E.E.E.F.k.l.k.x.z.j.q.6.] [ / ..s.x.x.x.x.x.x.z.k.x.x.x.x.x.k.k.x.x.x.x.x.c.x.x.x.x.x.x.x.l.l.l.l.l.",
"x.x.x.x.x.x.x.x.x.l.G.E.E.E.E.E.E.Z.z.x.l.k.x.x.x.x.x.x.x.x.x.x.x.k.x.h.d.g.k.k.k.h.z.g.,.k.k.k.l.l.x.x.x.x.x.x.x.x.x.x.x.x.x.x.",
"x.x.x.x.x.x.x.l.k.l.m.R.E.E.E.E.I.c.k.k.k.x.x.x.x.x.x.x.x.x.x.x.k.k.g.g.g.g.k.g.g.>.g.3.,.p.p.g.k.g.h.x.l.x.x.x.x.x.x.x.x.x.x.x.",
"x.x.x.x.x.x.x.l.l.l.z.Z.Y.E.R.H.n.k.k.l.x.x.x.x.x.k.x.k.k.k.k.j.g.3.,.,.:.g.:.:.:.:.:.:.:.e.<.3.h.2.g.g.g.k.j.k.l.x.x.x.x.x.x.x.",
"x.x.x.x.x.x.x.x.x.l.x.x.c.m.n.x.x.l.x.z.k.k.k.x.z.g.g.3.h.h.k.g.,.3.,.-.-.p.,.:.:.g.3.<.1.,.:.1.2.2.p.:.g.g.1.h.h.l.l.x.x.x.x.x.",
"x.x.x.c.x.x.x.x.x.x.x.x.x.x.x.x.x.x.k.k.k.g.>.,.,.<.3.g.p.g.g.,.1.,.,.-.:.,.1.:.1.p.g.p.1.3.3.1.g.<.g.3.p.1.:.3.g.3.g.x.c.x.x.x.",
"x.x.x.x.x.x.n.x.x.k.x.x.x.x.x.x.x.x.k.g.g.-.+.#.>.,.3.g.g.1.:.-.1.,.-.-.<.p.p.g.g.a.k.g.p.p.p.:.3.<.1.:.p.1.:.3.3.g.l.g.x.x.x.x.",
"x.x.x.x.x.x.x.x.l.k.l.l.l.x.x.x.x.x.k.p.3.,.-.:.,.1.p.f.h.g.3.3.:.:.-.,.1.g.p.p.a.a.a.g.1.1.:.:.:.:.:.1.3.3.g.3.h.g.l.l.l.x.x.x.",
"c.x.x.x.x.x.x.l.k.k.l.k.l.l.l.x.x.x.p.g.3.3.1.p.g.a.h.p.g.g.3.3.3.3.1.1.3.h.f.g.a.1.3.g.g.1.p.k.a.h.g.1.g.h.h.3.g.g.h.3.x.x.x.x.",
"x.x.x.x.x.x.x.x.x.k.k.x.l.l.l.x.x.z.k.p.h.a.h.f.k.k.k.l.k.k.x.k.k.p.f.f.k.f.k.k.k.k.k.f.k.a.k.f.k.l.k.f.f.l.l.l.l.l.k.l.l.x.x.x.",
"x.x.x.x.x.x.x.x.k.z.k.f.k.k.k.x.x.x.f.k.k.l.k.z.k.z.l.x.x.x.x.x.l.x.x.x.x.x.x.x.x.l.l.l.k.l.k.l.x.k.x.f.l.l.x.x.l.l.l.x.x.x.x.x.",
"x.x.x.x.x.x.x.x.l.x.l.x.l.l.x.l.x.x.x.x.k.x.x.x.x.x.x.x.x.x.x.x.x.x.x.x.x.x.x.x.x.x.x.l.l.x.x.x.l.l.l.l.x.x.x.x.x.n.x.x.x.x.x.x.",
"x.x.x.x.x.x.x.x.x.x.x.x.l.x.x.x.x.x.x.x.x.x.x.x.x.x.x.x.x.x.x.x.x.x.x.x.x.x.x.x.x.x.x.x.x.x.x.x.x.x.l.x.x.x.x.x.x.x.x.x.x.x.x.x.",
"x.x.x.x.x.x.x.x.x.x.x.x.x.x.x.x.x.x.x.x.x.x.x.x.x.x.x.x.c.x.x.x.x.x.c.x.x.x.x.x.x.x.x.x.x.x.x.x.x.x.x.x.x.x.x.x.x.x.x.x.x.x.x.x.",
"x.x.x.n.x.x.x.x.x.x.x.x.x.x.x.x.x.x.x.x.x.x.x.x.x.x.x.x.x.x.x.x.x.x.x.x.x.x.x.x.x.x.x.x.x.x.x.x.x.x.x.x.x.x.x.x.x.x.x.x.x.x.x.x."
};
