/* XPM */
static char *result[] = {
/* columns rows colors chars-per-pixel */
"64 81 92 1 ",
"  c #883E23",
". c #8C4022",
"X c #914322",
"o c #954623",
"O c #9A4923",
"+ c #9D4B23",
"@ c #9E4E27",
"# c #9A4C28",
"$ c #9B4F2B",
"% c #9F4F28",
"& c #9C4F2C",
"* c #9E502B",
"= c #9A502F",
"- c #965134",
"; c #975135",
": c #995031",
"> c #A14D23",
", c #A34E22",
"< c #A34F23",
"1 c #A14F24",
"2 c #A04F27",
"3 c #A55025",
"4 c #A95128",
"5 c #AA552B",
"6 c #AF5830",
"7 c #B35E36",
"8 c #BD5B3A",
"9 c #B7633C",
"0 c #BC663F",
"q c #C2433D",
"w c #C35D3D",
"e c #A3664C",
"r c #BF6A43",
"t c #B87D5E",
"y c #C84942",
"u c #CA4E47",
"i c #D1524A",
"p c #C55551",
"a c #CE5855",
"s c #D85A50",
"d c #CC6145",
"f c #C46E49",
"g c #D7654F",
"h c #C8724D",
"j c #DE6155",
"k c #D96158",
"l c #DA655F",
"z c #CE7854",
"x c #D17B58",
"c c #D27C59",
"v c #E06757",
"b c #E56B5C",
"n c #DA6B62",
"m c #DC6D68",
"M c #DB736F",
"N c #DE716E",
"B c #D07B75",
"V c #EA6F60",
"C c #EB6F60",
"Z c #E27067",
"A c #E67065",
"S c #E87063",
"D c #E8786A",
"F c #BD886C",
"G c #EA8479",
"H c #DF908A",
"J c #CBAE9E",
"K c #E5A29C",
"L c #EBBEBA",
"P c #DDC6B8",
"I c #F4D1CD",
"U c #F0DCD5",
"Y c #F6E5E3",
"T c #F9EFED",
"R c #ECF8FD",
"E c #EFF9FD",
"W c #FAF7F5",
"Q c #F2FAFD",
"! c #F2FBFD",
"~ c #F1FBFF",
"^ c #F4FBFD",
"/ c #F6FCFD",
"( c #F5FCFE",
") c #F7FCFE",
"_ c #FAFDFD",
"` c #F8FDFE",
"' c #F9FDFE",
"] c #FCFEFD",
"[ c #FEFEFE",
"{ c #FEFFFF",
"} c white",
"| c None",
/* pixels */
"||||||||||||||||||||||||||||||||||||||||||||||||||||||||||||||||",
"||||||||||||||||||||||||||||||||||||||||||||||||||||||||||||||||",
"||||||||||||||||||||||||||||||||||||||||||||||||||||||||||||||||",
"||||||||||||||||||||||||||||||||||||||||||||||||||||||||||||||||",
"||||||||||||||||||||||||||||||||||||||||||||||||||||||||||||||||",
"||||||||||||||||||||||||||||||||||||||||||||||||||||||||||||||||",
"||||||||||||||||||||||||||||||||||||||||||||||||||||||||||||||||",
"||||||||||||||||||||||||||||||||||||||||||||||||||||||||||||||||",
"||||||||||||||||||||||||||||||||||||||||||||||||||||||||||||||||",
"||||||||||||||||||||||||||||||||||||||||||||||||||||||||||||||||",
"||||||||||||||||||||||||||||||||||||||||||||||||||||||||||||||||",
"||||||||||||||||||||||||||||||||||||||||||||||||||||||||||||||||",
"||||||||||||||||||||||||||||||||||||||||||||||||||||||||||||||||",
"||||||||||||||||||||||||||||||||||||||||||||||||||||||||||||||||",
"||||||||||||||||||||||||||||||||||||||||||||||||||||||EQ~|||||||",
"||||||||||||||||||||||||||||||||||||||||||||||||||||E_[[[]~|||||",
"|||||||||||||||||||||||||||||||||||||||||||||||||||R[}}}}}[|||||",
"|||||||||||||||||||||||||||||||||||||---|||||||||||)}}}}}}[(||||",
"||||||||||||||||||||||||||||||||-=*2456677*;|||||||_}}}}}}}`||||",
"||||||||||||||||||||||||||||||=@57rfhzxxh04<%:|||||'}}}}}}}`||||",
"||||||||||||||||||||||||||||=149zxccczf7560ff6*||||(}}}}}}}/||||",
"|||||||||||||||||||||||||||%,5fxcxzf9635fzccc0,@-||R[}}}}}{]Q|||",
"||||||||||||||||||||||||||2,5hccz067r6<fcxxcz6,,2||E[}}}}}}{[/||",
"|||||||||||||||||||||||||2,5hcxh6,5zch4rzzzf6<<<,%J]}}}}}}}}}[^|",
"||||||||||||||||||||||||*,4fcxf5,,4rhr336653,<<<,,9U}}}}}}}}}[]|",
"|||||||||||||||||||||||=<3rxxr4,<<<<33<<,,<<<<<<<1>FW{}}}}}}}}{R",
"||||||||||||||||||||||-130xcf4,<<<<<<<<<<<<<<<<<<<,5P}}}}}}}}}[|",
"||||||||||||||||||||||%<9xch5,<<<<<<<<<<<<<<<<<<<<<>tW{[}}}}}[_|",
"|||||||||||||||||||||*<9zch6,<<<<<<<<<<<<<<<<<<<<<<,5P~R'}}}}[Q|",
"||||||||||||||||||||*39zch6,<<<<<<<<<<<<<<<<<<<<<<<<,e|||^_[]!||",
"||||||||||||||||||=26fxxr5,<<<<<<<<<<<<<<<<<<<<<<<<<<$||||||||||",
"||||||||||||||||:@6rzxh73,<<<<<<<<<<<<<<<<<<<<<<<<<<<2||||||||||",
"||||||||||||||:@5rzxf73,<<<<<<<<<<<<<<<<<<<<<<<<<<<<<<;|||||||||",
"||||||||||||-%39zch73,,<<<<<<<<<<<<<<<<<<<<<<<<<<<<<<<=|||||||||",
"|||||||||||:130xz04,<<<<<<<<<<<<<<<<<<<<<<<<<<<<<<<<<<*|||||||||",
"||||||||||=<,9xf6<,<<<<<<<<<<<<<<<<<<<<<<<<<<<<<<<<<<<%|||||||||",
"|||||||||:,,5f93,<<<<<<<<<<<<<<<<<<<<<<<<<<<<<<<<<<<<<2|||||||||",
"|||||||||84,35<<<<<<<<<<<<<<<<<<<<<<<<<<<<<<<<<<<<<<<,1|||||||||",
"||||||||ZVvd5,<<<<<<<<<<<<<<<<<<<<<<<<<<<<<<<<<<<<<<1X+|||||||||",
"||||||||SCCCbd5,<<<<<<<<<<<<<<<<<<<<<<<<<<<<<<<<<<<<o @|||||||||",
"|||||||mVCVVCVv83,<<<<<<<<<<<<<<<<<<<<<<<<<<<<<<<<<O .#|||||||||",
"|||||||ZCVVVVVCVd4<<<<<<<<<<<<<<<<<<<<<<<<<<<<<<<,O. .&|||||||||",
"|||||||AVVVVVVVVVg4,<<<<<<<<<<<<<<<<<<<<<<<<<<>OoX.  X:|||||||||",
"|||||||SVVVVVVVVVCg5,<<<<<<<<<<<<<<<<<<<<<,+OX.      O||||||||||",
"|||||||SVVVVVVVVVVCg4,<<<<<<<<<<<<<<<<<>OoX         X=||||||||||",
"|||||||kvCVVVVVVVVCCd3<<<<<<<<<<<<<<<+o.           .#|||||||||||",
"|||||||kiVVVVVVVVVVVVw<<>+><<<<<<<<>o.            o2||||||||||||",
"|||||||lqsVVVVVVVVVVVb6,O X+<<<<<>OX            .O%|||||||||||||",
"|||||||myqjCVVVVVVVVVCg4>.  o<,<>X           .XO>&||||||||||||||",
"||||||||uqyjGLILHVVVVbj8,X   o,1X          XO>2&||||||||||||||||",
"||||||||aqqBY{}{TKVVCvug4O    oo         .O1%=||||||||||||||||||",
"|||||||||uHT{{}}{UDCCvqsw>.             X+*;||||||||||||||||||||",
"|R'[[_Q||LW}}}}{{TGCCvqug4o            X2:||||||||||||||||||||||",
"|_[}}[[)/{}}}}}}}TGVCjqqj6+           o@||||||||||||||||||||||||",
"!{{}}[}{{}}}}}{}{LbCCsqqid>.         o@|||||||||||||||||||||||||",
"`}}}}}}}}}}}}}{[Lpuvbuqqyg4o        o@||||||||||||||||||||||||||",
"`}}}}}}}}}}}{}WKuqqyyqqqqj6O       X2|||||||||||||||||||||||||||",
"Q{}}}}}}}}}}{THqqqqqqqqqqsw+      X2||||||||||||||||||||||||||||",
"|'}}}}}}}}}[!|liqqqqqqqqqid>.    X@|||||||||||||||||||||||||||||",
"||`[[[}}}}}]|||nsqqqqqqqqug3X   o*||||||||||||||||||||||||||||||",
"|||Q_}}}}}}{!|||Mliyqqqqqiv4o.X@:|||||||||||||||||||||||||||||||",
"||||/}}}}}}}'|||||NZksiyyjv41#:|||||||||||||||||||||||||||||||||",
"||||)}}}}}}}]|||||||||NmnZn;||||||||||||||||||||||||||||||||||||",
"||||(}}}}}}}]|||||||||||||||||||||||||||||||||||||||||||||||||||",
"||||E{}}}}}}/|||||||||||||||||||||||||||||||||||||||||||||||||||",
"|||||)[[}{['||||||||||||||||||||||||||||||||||||||||||||||||||||",
"||||||^_]'^|||||||||||||||||||||||||||||||||||||||||||||||||||||",
"||||||||||||||||||||||||||||||||||||||||||||||||||||||||||||||||",
"||||||||||||||||||||||||||||||||||||||||||||||||||||||||||||||||",
"||||||||||||||||||||||||||||||||||||||||||||||||||||||||||||||||",
"||||||||||||||||||||||||||||||||||||||||||||||||||||||||||||||||",
"||||||||||||||||||||||||||||||||||||||||||||||||||||||||||||||||",
"||||||||||||||||||||||||||||||||||||||||||||||||||||||||||||||||",
"||||||||||||||||||||||||||||||||||||||||||||||||||||||||||||||||",
"||||||||||||||||||||||||||||||||||||||||||||||||||||||||||||||||",
"||||||||||||||||||||||||||||||||||||||||||||||||||||||||||||||||",
"||||||||||||||||||||||||||||||||||||||||||||||||||||||||||||||||",
"||||||||||||||||||||||||||||||||||||||||||||||||||||||||||||||||",
"||||||||||||||||||||||||||||||||||||||||||||||||||||||||||||||||",
"||||||||||||||||||||||||||||||||||||||||||||||||||||||||||||||||",
"||||||||||||||||||||||||||||||||||||||||||||||||||||||||||||||||"
};
