/* XPM */
static char *_5d46512aa134771bccd283aee63d4f8[] = {
/* columns rows colors chars-per-pixel */
"64 64 123 2 ",
"   c #694729",
".  c gray50",
"X  c #883E23",
"o  c #8C4022",
"O  c #914322",
"+  c #954623",
"@  c #9A4923",
"#  c #9D4B23",
"$  c #984F2D",
"%  c #9D532E",
"&  c #A34E22",
"*  c #A14F24",
"=  c #A55025",
"-  c #A0512A",
";  c #A1552D",
":  c #A95128",
">  c #AA552B",
",  c #A35B36",
"<  c #AF5830",
"1  c #A25E39",
"2  c #B35E36",
"3  c #BD5B3A",
"4  c #A4613D",
"5  c #B7633C",
"6  c #BC663F",
"7  c #C2433D",
"8  c #C35D3D",
"9  c #8A695C",
"0  c #A56845",
"q  c #BF6A43",
"w  c #A9714F",
"e  c #AD7C5A",
"r  c #AE7F5F",
"t  c #B87D5E",
"y  c #876C63",
"u  c #817775",
"i  c #C84942",
"p  c #CA4E47",
"a  c #D1524A",
"s  c #C55551",
"d  c #D85A50",
"f  c #CC6145",
"g  c #C46E49",
"h  c #D7654F",
"j  c #C8724D",
"k  c #CD685E",
"l  c #DE6155",
"z  c #D8665B",
"x  c #CE7854",
"c  c #D17B58",
"v  c #D27C59",
"b  c #E06757",
"n  c #E56B5C",
"m  c #D87066",
"M  c #DE7E6F",
"N  c #D07B75",
"B  c #EB6F60",
"V  c #E87264",
"C  c #E47668",
"Z  c #E8786A",
"A  c #AF835F",
"S  c #B18B67",
"D  c #B38F6C",
"F  c #BD886C",
"G  c #B5906D",
"H  c #B79774",
"J  c #B99C77",
"K  c #BB9F7A",
"L  c #BEA57E",
"P  c #D6826F",
"I  c #D68876",
"U  c #CA947B",
"Y  c #D5947E",
"T  c #EA8479",
"R  c #DF908A",
"E  c #C0A983",
"W  c #C3AE86",
"Q  c #CFAD8B",
"!  c #D1A085",
"~  c #C5B28A",
"^  c #C6B58C",
"/  c #CCB68F",
"(  c #C9B88F",
")  c #CBBB90",
"_  c #CBBC91",
"`  c #CCBC90",
"'  c #CBBE95",
"]  c #CBB09C",
"[  c #E5A29C",
"{  c #D4B9A4",
"}  c #EABDB9",
"|  c #CDC098",
" . c #CEC29F",
".. c #D1C7A6",
"X. c #D3C9A9",
"o. c #D2CBAC",
"O. c #DDC6B7",
"+. c #D4CDB0",
"@. c #D7D1B6",
"#. c #D7D3BB",
"$. c #DCD9C6",
"%. c #DDDBC9",
"&. c #DFDEDB",
"*. c #F4D1CD",
"=. c #F0DCD5",
"-. c #E0E0CF",
";. c #E3E3D6",
":. c #E7E8DC",
">. c #E8EBE1",
",. c #EBECE3",
"<. c #EBECEA",
"1. c #E8ECEE",
"2. c #F6E5E3",
"3. c #F9EFED",
"4. c #EFF1EB",
"5. c #F2F4F0",
"6. c #F4F7F4",
"7. c #FAF7F5",
"8. c #F6F9F7",
"9. c #F5F8F8",
"0. c #F8FAF9",
"q. c #FBFDFB",
"w. c white",
/* pixels */
"` ` ` ` ` ` ` ` ` ` ` ` ` ` ` ` ` ` ` ` ` ` ` ` ` ` ` ` ` ` ` ` ` ` ` ` ` ` ` ` ` ` ` ` ` ` ` ` ` ` ` ` ` ` ` ` ` ` ` ` ` ` ` ` ",
"` ` ` ` ` ` ` ` ` ` ` ` ` ` ` ` ` ` ` ` ` ` ` ` ` ` ` ` ` ` ` ` ` `     ` ` ` ` ` ` ` ` ` ` ` ` ` ` ` ` ` ` ` ` ` ` ` ` ` ` ` ` ",
"` ` ` ` ` ` ` ` ` ` ` ` ` ` ` ` ` ` ` ` ` ` ` ` ` ` ` ` ` ` ` ` `           ` ` ` ` ` ` ` ` ` ` ` ` ` ` ` ` ` ` ` ` ` ` ` ` ` ` ",
"` ` ` ` ` ` ` ` ` ` ` ` ` ` ` ` ` ` ` ` ` ` ` ` ` ` ` ` ` ` ` `             ` ` ` ` ` ` ` ` ` ` ` ` ` ` ` ` ` ` ` ` ` ` ` ` ` ` ",
"` ` ` ` ` ` ` ` ` ` ` ` ` ` ` ` ` ` ` ` ` ` ` ` ` ` ` ` ` ` ` ` `           ` ` ` ` ` ` ` ` ` ` ` ` ` ` ` ` ` ` ` ` ` ` ` ` ` ` ",
"` ` ` ` ` ` ` ` ` ` ` ` ` ` ` ` ` ` ` ` ` ` ` ` ` ` ` ` ` ` ` ` ` ` ` ` ` ` ` ` ` ` ` ` ` ` ` ` ` ` ` ` ` ` ` _ ` ` ` ` ` ` ` ` ",
"` ` ` ` ` ` ` ` ` ` ` ` ` ` ` ` ` ` ` ` ` ` ` ` ` ` ` ` ` ` ` ` ` ` ` ` ` ` ` ` ` ` ` ` ` ` ` ` ` ` ` ` _ +.-.:.;.@.' ` ` ` ` ` ",
"` ` ` ` ` ` ` ` ` ` ` ` ` ` ` ` ` ` ` ` ` ` ` ` ` ` ` ` ` ` ` ` ` ` ` ` ` ` ` ` ` ` ` ` ` ` ` ` ` ` ` | -.0.w.w.w.q.;.| ` ` ` ` ",
"` ` ` ` ` ` ` ` ` ` ` ` ` ` ` ` ` ` ` ` ` ` ` ` ` ` ` ` ` ` ` ` ` ` ` ` ` ` ` ` ` ` ` ` ` ` ` ` ` ` _ %.w.w.w.w.w.w.w.$.` ` ` ` ",
"` ` ` ` ` ` `   ` ` ` ` ` ` ` . . ` ` ` ` ` ` ` ` ` ` ` ` ` ` ` ` ( W J S A A A S J W ) ` ` ` ` ` `  .5.w.w.w.w.w.w.w.4.| ` ` ` ",
"` ` ` `             ` ` ` ` . . . . . ` ` ` ` ` ` ` ` ` ` ` ^ K A 0 , - : > < < 2 2 , e K ( ` ` ` ` X.9.w.w.w.w.w.w.w.6. .` ` ` ",
"` ` `               ` ` ` . . . . . . ` ` ` ` ` ` ` ` ` ^ G 0 - > 2 q g j x c c j 6 : & ; w L ` ` ` ..8.w.w.w.w.w.w.w.<. .` ` ` ",
"` `                 ` ` ` ` . . . . . ` ` ` ` ` ` ` ` J 0 * : 5 x c v v v x g 2 > < 6 g g < , D ) ` | 4.w.w.w.w.w.w.w.&.| ` ` ` ",
"` ` `             ` ` ` ` ` ` ` ` ` ` ` ` ` ` ` ` ( S ; & > g c v c x g 5 < = > g x v v v 6 & - A ( ` %.w.w.w.w.w.w.w.0.:...` ` ",
"` ` ` ` ` ` ` ` ` ` ` ` ` ` ` ` ` ` ` ` ` ` ` ` ( S - & > j v v x 6 < 2 q < & g v c c v x < & & - S | -.w.w.w.w.w.w.w.w.w.4.X.` ",
"` ` ` ` ` ` ` ` ` ` ` ` ` ` ` ` ` ` ` ` ` ` ` ` D - & > j v c j < & > x v j : q x x x g < & & & & ; ] q.w.w.w.w.w.w.w.w.w.w.,.| ",
"` ` ` ` ` ` ` ` ` ` ` ` ` ` ` ` ` ` ` ` ` ` ` K , & : g v c g > & & : q j q = = < < > = & & & & & & 5 =.w.w.w.w.w.w.w.w.w.w.q.#.",
"` ` ` ` ` ` `     ` ` ` ` ` ` ` ` ` ` ` ` _ ~ 0 & = q c c q : & & & & & = = & & & & & & & & & & & * & F 7.w.w.w.w.w.w.w.w.w.w.%.",
"` ` ` ` ` `           ` ` ` ` ` ` ` ` ` ` _ A * = 6 c v g : & & & & & & & & & & & & & & = = & & & & & > O.w.w.w.w.w.w.w.w.w.w.$.",
"` ` ` ` `             ` ` ` ` ` ` ` ` ` ` H ; & 5 c v j > & & & & & & & & & & & & & & & & & & & & & & & t 7.w.w.w.w.w.w.w.w.0.+.",
"` ` ` ` ` `           ` ` ` ` ` ` ` ` ` K , & 5 x v j < & & & & & & & = & & & & & & & & & & & & & & & & > O.;.%.8.w.w.w.w.w.:.' ",
"` ` ` ` ` ` ` ` ` ` ` ` ` ` ` ` ` ` ^ D , = 5 x v j < & & & & & & & & = & & & & & & & & & & & & & & & & & r ' ` +.,.0.w.q.>. .` ",
"` ` ` ` ` ` ` ` ` ` ` ` ` ` ` ` ( J 0 - < g c c q > & & & & & & & & & & = = & & & & & & = & & & & & & & & 1 W ` ` | o.@.+.| ` ` ",
"` ` ` ` ` ` ` ` ` ` ` ` ` ` ( J w - < q x c j 2 = & & & & & & & & & & & & & & & & & & & = & & & & & & & & - H ` ` ` ` ` ` ` ` ` ",
"` ` ` ` ` ` ` ` ` ` ` ` _ K w - > q x c g 2 = & & & & & & & & & = & & & & & & & & & & & & & & & & & & & & * e ` ` ` ` ` ` ` ` ` ",
"` ` ` ` ` ` ` ` ` ` ` ^ A ; = 5 x v j 2 = & & & & & & & & & & & = & & & & & & & & & & & & & & & & & & & & & 0 ( ` ` ` ` ` ` ` ` ",
"` ` ` ` ` ` ` ` ` ` E w * = 6 c x 6 : & & & & & & & & & & & & & & & & & & & & = & & = = & & & & & & & & & & , W ` ` ` ` ` ` ` ` ",
"` ` ` ` ` ` ` ` ` E 0 & & 5 c g < & & & & & & & & & & & & & & & & & & & & & & & & & = & & & & = & & & & & & ; L ` ` ` ` ` ` ` ` ",
"` ` ` ` ` ` ` ` ^ w & & > g 5 = & & & & & & & & & & & & = & & & & & & & & & = = & & = & & & & & & & & & & & - J ` ` ` ` ` ` ` ` ",
"` ` ` ` ` ` ` ` U 3 : & = > & & & & & & & & & & & & & & & & & & & = & & & & & & & & & & & & & & & & & & & & * H ` ` ` ` ` ` ` ` ",
"` ` ` ` ` ` ` / M B b f > & & & & & & & & & & & & & = = & & & & & = & & & & & & & & & & & & & & & & & & * O # H ` ` ` ` ` ` ` ` ",
"` ` ` ` ` ` ` ! V B B B n f > & & & & & & = & & & & = & & & & & & & & & & & & & & & & & & & & & & & & & + X - K ` ` ` ` ` ` ` ` ",
"` ` ` ` ` ` _ I B B B B B B b 3 = & & & & & & & & & & & & = & & & & & & & & & & & & & & & & & & & & & @ X o % E ` ` ` ` ` ` ` ` ",
"` ` ` ` ` ` / M B B B B B B B B f : & & & & & & & & & & & * & & & & & & & & & & & & & & & & & & & & @ o X o 4 ~ ` ` ` ` ` ` ` ` ",
"` ` ` ` ` ` Q C B B B B B B B B B h : & & & & & & & & & & * & & & = & & & & & & & & & & & & & @ + O o X X O w ) ` ` ` ` ` ` ` ` ",
"` ` ` ` ` ` Q V B B B B B B B B B B h > & & & & & & & & & & & & & = & & & & & & & & & # @ O o X X X X X X @ H ` ` ` ` ` ` ` ` ` ",
"` ` ` ` ` ` Q V B B B B B B B B B B B h : & & & & & & & & & & & & & & & & & & & @ + O X X X X X X X X X O 0 ^ ` ` ` ` ` ` ` ` ` ",
"` ` ` ` ` ) Q z l B B B B B B B B B B B f = & & & & & & & & & & & & & & & # + o X X X X X X X X X X X o % J ` ` ` ` ` ` ` ` ` ` ",
"` ` ` ` ` ` Q z a B B B B B B B B B B B B 8 & & * # & & & & & & & & & & + o X X X X X X X X X X X X + - S _ ` ` ` ` ` ` ` ` ` ` ",
"` ` ` ` ` ` / m 7 d B B B B B B B B B B B n < & @ X O # & & & & & & @ O X X X X X X X X X X X X o @ ; S ( ` ` ` ` ` ` ` ` ` ` ` ",
"` ` ` ` ` ` _ I i 7 l B B B B B B B B B B B h : & o X X + & & & & O X X X X X X X X X X X o O @ & 4 H ) ` ` ` ` ` ` ` ` ` ` ` ` ",
"` ` ` ` ` ` ` ! p 7 i l T } *.} R B B B B n l 3 & O X X X + & * O X X X X X X X X X X O @ & - 4 S ~ ` ` ` ` ` ` ` ` ` ` ` ` ` ` ",
"` ` ` ` ` ` ` / k 7 7 N 2.w.w.w.3.[ B B B b p h : @ X X X X + + X X X X X X X X X o @ * ; 0 G ~ ` ` ` ` ` ` ` ` ` ` ` ` ` ` ` ` ",
"` _ X.#.#.o.' ` U p R 3.w.w.w.w.w.=.Z B B b 7 d 8 & o X X X X X X X X X X X X X O # , e K ( ` ` ` ` ` ` ` ` ` ` ` ` ` ` ` ` ` ` ",
"' %.8.w.w.0.:... .} 7.w.w.w.w.w.w.3.T B B b 7 p h : + X X X X X X X X X X X X O - w E ` ` ` ` `     ` ` ` ` ` ` ` ` ` ` ` ` ` ` ",
"#.0.w.w.w.w.w.1.4.w.w.w.w.w.w.w.w.3.T B B l 7 7 l < # X X X X X X X X X X X + - S ( ` ` ` ` `           ` ` ` ` ` ` ` ` ` ` ` ` ",
">.w.w.w.w.w.w.w.w.w.w.w.w.w.w.w.w.} n B B d 7 7 a f & o X X X X X X X X X + - S ) ` ` ` ` `             ` ` ` ` ` ` ` ` ` ` ` ` ",
"6.w.w.w.w.w.w.w.w.w.w.w.w.w.w.w.} s p b n p 7 7 i h : + X X X X X X X X + - S ) ` ` ` ` ` ` `           ` ` ` ` ` ` ` ` ` ` ` ` ",
"6.w.w.w.w.w.w.w.w.w.w.w.w.w.7.[ p 7 7 i i 7 7 7 7 l < @ X X X X X X X O - S ) ` ` ` ` ` ` ` ` ` ` ` ` ` ` ` ` ` ` ` ` ` ` ` ` ` ",
":.w.w.w.w.w.w.w.w.w.w.w.w.3.R 7 7 7 7 7 7 7 7 7 7 d 8 # X X X X X X O - 9 . ` ` ` ` ` ` ` ` ` ` ` ` ` ` ` ` ` ` ` ` ` ` ` ` ` ` ",
"+.8.w.w.w.w.w.w.w.w.w.w.>.{ m a 7 7 7 7 7 7 7 7 7 a f & o X X X X O - 9 . . . . ` ` ` ` ` ` ` ` ` ` ` ` ` ` ` ` ` ` ` ` ` ` ` ` ",
"_ #.6.w.w.w.w.w.w.w.w.q.#.` Q P d 7 7 7 7 7 7 7 7 p h = O X X X + , y . . . . . ` ` ` ` ` ` ` ` ` ` ` ` ` ` ` ` ` ` ` ` ` ` ` ` ",
"` ` o.:.0.w.w.w.w.w.w.w.>.' ` / Y m a i 7 7 7 7 7 a b : + o O - w L ` . . . . . ` ` ` ` ` ` ` ` ` ` ` ` ` ` ` ` ` ` ` ` ` ` ` ` ",
"` ` ` | 4.w.w.w.w.w.w.w.8...` ` ` Q Y M z d a i i l b : * $ w H ( ` ` ` ` ` ` ` ` ` ` ` ` ` ` ` ` ` ` ` ` ` ` ` ` ` ` ` ` ` ` ` ",
"` ` ` | 5.w.w.w.w.w.w.w.q.@.` ` ` ` ` / Q ! Y I P M P e y u . . ` ` ` ` ` ` ` ` ` ` ` ` ` ` ` ` ` ` ` ` ` ` ` ` ` ` ` ` ` ` ` ` ",
"` ` ` | 4.w.w.w.w.w.w.w.q.+.` ` ` ` ` ` ` ` ` _ _ ( ) . . . . . ` ` ` ` ` ` ` ` ` ` ` ` ` ` ` . . ` ` ` ` ` ` ` ` ` ` ` ` ` ` ` ",
"` ` ` ` -.w.w.w.w.w.w.w.4.| ` ` ` ` ` ` ` ` ` ` ` _ ` ` . . . . ` ` ` ` ` ` ` ` ` ` ` ` ` ` . . . . . ` ` ` ` ` ` ` ` ` ` ` ` ` ",
"` ` ` ` ..5.w.w.w.w.w.8.@.` ` ` ` ` ` ` ` ` ` ` ` ` ` ` ` ` ` ` ` ` ` ` ` ` ` ` ` ` ` ` ` . . . . . . ` ` ` ` ` ` ` ` ` ` ` ` ` ",
"` ` ` ` ` o.,.0.q.8.,.+._ ` ` ` ` ` ` ` ` ` ` ` ` ` ` ` ` ` ` ` ` ` ` ` ` ` ` ` ` ` ` ` ` ` . . . . . ` ` ` ` ` ` ` ` ` ` ` ` ` ",
"` ` ` ` ` ` | X.+.X.| ` ` ` ` ` ` ` ` ` ` ` ` `         ` ` ` ` ` ` ` ` ` ` ` ` ` ` ` ` ` ` ` ` ` ` ` ` ` ` ` ` ` ` ` ` ` ` ` ` ",
"` ` ` ` ` ` ` ` ` ` ` ` ` ` ` ` ` ` ` ` ` ` `               ` ` ` ` ` ` ` ` ` ` ` ` ` ` ` ` ` ` ` ` ` ` ` ` ` ` ` ` ` ` ` ` ` ` ",
"` ` ` ` ` ` ` ` ` ` ` ` ` ` ` ` ` ` ` ` ` `                 ` ` ` ` ` ` ` ` ` ` ` ` ` ` ` ` ` ` ` ` ` ` ` ` ` ` ` ` ` ` ` ` ` ` ",
"` ` ` ` ` ` ` ` ` ` ` ` ` ` ` ` ` ` ` ` ` ` `               ` ` ` ` ` ` ` ` ` ` ` ` ` ` ` ` ` ` ` ` ` ` ` ` ` ` ` ` ` ` ` ` ` ` ",
"` ` ` ` ` ` ` ` ` ` ` ` ` ` ` ` ` ` ` ` ` ` ` ` ` ` ` ` ` ` ` ` ` ` ` ` ` ` ` ` ` ` ` ` ` ` ` ` ` ` ` ` ` ` ` ` ` ` ` ` ` ` ` ` "
};
