/* XPM */
static char *_8e35f16447644b8dc099902d3331b68DRzjpHi1uOdP9NDm[] = {
/* columns rows colors chars-per-pixel */
"64 64 251 2 ",
"   c #191309",
".  c #1B120C",
"X  c #0D1518",
"o  c #141514",
"O  c #1B1413",
"+  c #151619",
"@  c #191718",
"#  c #13191A",
"$  c #1A1A1B",
"%  c #260D05",
"&  c #2B1A06",
"*  c #22140C",
"=  c #281608",
"-  c #341A09",
";  c #3D1D0C",
":  c #251A13",
">  c #231917",
",  c #3A1C11",
"<  c #2C231C",
"1  c #3F2A17",
"2  c #39251B",
"3  c #1B1C21",
"4  c #251A21",
"5  c #1C2731",
"6  c #262628",
"7  c #342E2F",
"8  c #3A3226",
"9  c #441C0D",
"0  c #4A1909",
"q  c #53180A",
"w  c #481C14",
"e  c #691C0C",
"r  c #6D1D12",
"t  c #661E18",
"y  c #751D16",
"u  c #44220C",
"i  c #552A08",
"p  c #5C340E",
"a  c #442212",
"s  c #4D2515",
"d  c #482A1A",
"f  c #572916",
"g  c #49321B",
"h  c #5A3719",
"j  c #7B230C",
"k  c #662618",
"l  c #7C2A15",
"z  c #772518",
"x  c #7C251B",
"c  c #673819",
"v  c #703013",
"b  c #482922",
"n  c #542D24",
"m  c #493528",
"M  c #563727",
"N  c #53342B",
"B  c #493936",
"V  c #553C31",
"C  c #6D2C20",
"Z  c #792722",
"A  c #673725",
"S  c #783725",
"D  c #5B401C",
"F  c #6F4918",
"G  c #74471B",
"H  c #574429",
"J  c #474336",
"K  c #5A4535",
"L  c #684528",
"P  c #764626",
"I  c #72492B",
"U  c #7A5027",
"Y  c #654434",
"T  c #694936",
"R  c #644C3B",
"E  c #764C34",
"W  c #6C543B",
"Q  c #795438",
"!  c #243342",
"~  c #394659",
"^  c #595449",
"/  c #524D52",
"(  c #695646",
")  c #68554E",
"_  c #775845",
"`  c #7A624D",
"'  c #796957",
"]  c #4E5A70",
"[  c #5F5F74",
"{  c #6F6B6C",
"}  c #777E7E",
"|  c #7F7F7F",
" . c #84320C",
".. c #852717",
"X. c #8C2A1B",
"o. c #952A1C",
"O. c #89361B",
"+. c #933619",
"@. c #882722",
"#. c #982C23",
"$. c #883924",
"%. c #973826",
"&. c #943D32",
"*. c #A12F26",
"=. c #A33A24",
"-. c #A73826",
";. c #AB3B2B",
":. c #B33829",
">. c #AB3A31",
",. c #8E4D1B",
"<. c #9C5E1D",
"1. c #A8531E",
"2. c #A6661F",
"3. c #854527",
"4. c #974828",
"5. c #88552A",
"6. c #9D5D25",
"7. c #955529",
"8. c #955C2B",
"9. c #9C5D2A",
"0. c #8C4B34",
"q. c #865836",
"w. c #965A32",
"e. c #AC4824",
"r. c #B44727",
"t. c #A25D26",
"y. c #AB4B37",
"u. c #A45837",
"i. c #B65931",
"p. c #8F622E",
"a. c #9C6125",
"s. c #99632C",
"d. c #8A673A",
"f. c #966436",
"g. c #A86729",
"h. c #B46B2D",
"j. c #AD712C",
"k. c #B6732C",
"l. c #AD6537",
"z. c #B86938",
"x. c #AA743D",
"c. c #B97937",
"v. c #C05E2A",
"b. c #CC7539",
"n. c #C57939",
"m. c #865C46",
"M. c #975C43",
"N. c #AE5841",
"B. c #8C664B",
"V. c #976347",
"C. c #866B57",
"Z. c #966953",
"A. c #8B735A",
"S. c #96765C",
"D. c #A96746",
"F. c #B76546",
"G. c #AA754C",
"H. c #B97748",
"J. c #AB7657",
"K. c #B67856",
"L. c #877964",
"P. c #947C64",
"I. c #89767C",
"U. c #AA7C61",
"Y. c #C05F42",
"T. c #CD7347",
"R. c #C6764B",
"E. c #C87A53",
"W. c #BC8539",
"Q. c #C7862F",
"!. c #C28435",
"~. c #C68934",
"^. c #CC8B34",
"/. c #C4843B",
"(. c #CA843B",
"). c #C48A3C",
"_. c #CC8B3A",
"`. c #D1883A",
"'. c #CC9235",
"]. c #D3973B",
"[. c #D9A13D",
"{. c #BA8747",
"}. c #A9835E",
"|. c #B3815E",
" X c #9A866C",
".X c #988B75",
"XX c #9D937A",
"oX c #A9876A",
"OX c #BA8969",
"+X c #A68A75",
"@X c #A69478",
"#X c #AB9679",
"$X c #AC9A7C",
"%X c #C88843",
"&X c #CC8946",
"*X c #D99948",
"=X c #C88359",
"-X c #D6885B",
";X c #D79859",
":X c #E2954E",
">X c #DBA14D",
",X c #E2A241",
"<X c #C88B65",
"1X c #D88B64",
"2X c #C79569",
"3X c #CD946C",
"4X c #DD9364",
"5X c #D8956A",
"6X c #C89775",
"7X c #D59975",
"8X c #DC9D73",
"9X c #E39765",
"0X c #E39C6D",
"qX c #E39D72",
"wX c #E69D76",
"eX c #DCA06F",
"rX c #CDA17C",
"tX c #DDA377",
"yX c #E3A169",
"uX c #E4A16C",
"iX c #E5A176",
"pX c #566984",
"aX c #74798A",
"sX c #788899",
"dX c #728BAF",
"fX c #89878F",
"gX c #A58B87",
"hX c #AC9784",
"jX c #B29E81",
"kX c #B4A285",
"lX c #B7A78A",
"zX c #BCAC8D",
"xX c #BFB092",
"cX c #929FBA",
"vX c #96A7B6",
"bX c #C59B81",
"nX c #CEAE8C",
"mX c #C5B493",
"MX c #CAB896",
"NX c #CDBC9A",
"BX c #DDBB96",
"VX c #D1BF9D",
"CX c #E4AD87",
"ZX c #D3C29F",
"AX c #D7C6A2",
"SX c #D7C0AB",
"DX c #F2D3B7",
"FX c #9DADC5",
"GX c #A3B4C9",
"HX c #EADDCF",
"JX c #F3E3D9",
/* pixels */
"AXAXAXAXAXAXAXAXAXAXAXAXAXAXAXAXAXAXAXAXAXAXAXAXAXAXAXAXAXAXAXAXAXAXAXAXAXAXAXAXAXAXAXAXAXAXAXAXAXAXAXAXAXAXAXAXAXAXAXAXAXAXAXAX",
"AXAXAXAXAXAXAXAXAXAXAXAXAXAXAXAXAXAXAXAXAXAXAXmX$X$X$X$X$X$X#X@X@X@X@X@X#X@X#X#X$XzXZXAXAXAXAXAXAXAXAXAXAXAXAXAXAXAXAXAXAXAXAXAX",
"AXAXAXAXAXAXAXAXAXAXAXAXAXAXAXAXAXAXAXAXAXVX$XW u u ; 9 9 0 9 9 u ; ; u a ; ; , - R @XNXAXAXAXAXAXAXAXAXAXAXAXAXAXAXAXAXAXAXAXAX",
"AXAXAXAXAXAXAXAXAXAXAXAXAXAXAXAXAXAXVXkX$XA.W d.d.p.p.p.p.8.5.5.5.5.5.5.5.5.P L L L T C. X$XNXAXAXAXAXAXAXAXAXAXAXAXAXAXAXAXAXAX",
"AXAXAXAXAXAXAXAXAXAXAXAXAXAXAXAXAXAX.XN g u G 2X;X;X>X>X*X_.W.W.W.).).).%XW.s.8.w.q.h u d K  XAXAXAXAXAXAXAXAXAXAXAXAXAXAXAXAXAX",
"AXAXAXAXAXAXAXAXAXAXAXAXAXAXAXAXAX$XY U U 5.j.>X*X,X[.].].'.^.~.^.^.^.^._._.k.j.a.s.3.c c c W  XAXAXAXAXAX| | | AXAXAXAXAXAXAXAX",
"AXAXAXAXAXAXAXAXAXAXAXAXAXAXAXAX$Xd q.H.&X>X*X,X,X,X[.'.^.^.^.^.^.^.^.^.^.^._./.g.<.a.s.f.f.I g  XZXAXAX| | | | | AXAXAXAXAXAXAX",
"AXAXAXAXAXAXAXAXAXAXAXAXAXAXAXAX X9 P z.%X*X*X*X*X*X].'.^.`.`._._._._._._._._.(.k.g.g.6.6.s.3.i Q @XZXAXAXAXAXAXAXAXAXAXAXAXAXAX",
"AXAXAXAXAXAXAXAXAXAXAXAXAXAXAXAX X0 l 1.b.:X:X(.(._.).)._.`.`._._._._._._._._._.(.%Xh.6.6.9.8.8.q.L +XAXAXAXAXAXAXAXAXAXAXAXAXAX",
"AXAXAXAXAXAXAXAXAXAXAXVXNXmXzXjX( t O.e.v.b.b.h.n.%X%X%X_.(._.^.^._._.^.^._._._.&X&Xc.h.g.t.9.8.5.u ` ZXAXAXAXAXAXAXAXAXAXAXAXAX",
"AXAXAXAXAXAXAXAXAXzX( V M M g f A $.%.;.e.e.e.e.e.b.&X(.`.`.^.^.~._._._._._._._.^.(././.j.<.6.9.5.0 ` VXAXAXAXAXAXAXAXAXAXAXAXAX",
"AXAXAXAXAXAXAXAXMXS.h i i i i p 3.4.%.>.>.-.-.r.e.T.T.T.b.`.Q.Q.^._._._.^.~.Q.!.~._.!.c.j.<.<.9.5.0 _ NXAXAXAXAXAXAXAXAXAXAXAXAX",
"AXAXAXAXAXAXAXjXW I G.H.c.W.W.%X*X*Xi.X.@.X.o.;.-.r.r.r.e.r.e.z.%X_._.(._.n.g.2.c./.g.6.9.9.9.9.5.u _ NXAXAXAXAXAXAXAXAXAXAXAXAX",
"AXAXAXAXAXAXNXP.d F G.c.W.!.'.*X*X*Xg.O.+.+.+.=.;.*.-.;.=.;.;.i.T.b.b.b.n.z.t.6.l.H.u.7.w.0.7.w.E 9 _ NXAXAXAXAXAXAXAXAXAXAXAXAX",
"AXAXAXAXAXAXVX Xd c f.g.W.W.!.!./._.c.c.z.v.i. .X.X.o.X...=.:.r.r.r.e.y.%.%.O.O.$.$.$.$.S Z Z S C 9 _ NXAXAXAXAXAXAXAXAXAXAXAXAX",
"AXAXAXAXAXAXAXkX` T Q q.G.x.c.c.!.!././.(.(.h. . .+.+.O.O.%.-.-.-.-.-.%...@.@.......x x y r z Z k w ( mXAXAXAXAXAXAXAXAXAXAXAXAX",
"AXAXAXAXAXAXAXZXmX Xb a s p 5.a.c.~.!.!.).%X!.c.n.n.T.H.H.4.X.X.X.X.@.@.x Z Z x x ..l y r r r y t 0 s ' $XZXAXAXAXAXAXAXAXAXAXAX",
"AXAXAXAXAXAXAXAXAXmX6 O * - E d.{.{.W.{.{.{.W.).!./.&X&X%X,.j ....j l l x x x z l l j e e k r r e q 0 ; K NXAXAXAXAXAXAXAXAXAXAX",
"AXAXAXAXAXAXAXAXAXAXNX.X> > 8 M D h D h h h G W.%X%X%X).).h.h.l.l.l.l.u.4.4.4.4.4.4.3.3.3.3.3.3.$.P P P L S.mXAXAXAXAXAXAXAXAXAX",
"AXAXAXAXAXAXAXAXAXAXAXMX^ @ > < * *   . * - p H.{.{.{.{.W.n.n.!.!././.n.t.t.t.t.t.9.9.7.7.7.5.5.5.8.s.p.p.p L mXAXAXAXAXAXAXAXAX",
"AXAXAXAXAXAXAXAXAXAXAXZX' o @ < K _ b * m _ Q I I T L L F g.h.c.!.!.W.!.k.k.k.k.k.k.c.h.g.6.7.8.6.a.a.a.p.G I A.$XNXAXAXAXAXAXAX",
"AXAXAXAXAXAXAXAXAXAXAXAXL.o . , S.OXL = W OXS.- O O > O & 5.f.x.{.{.{.c.%Xn.n.n.n.n.(.(.h.<.<.a.6.6.a.8.w.q.m.Y ` mXAXAXAXAXAXAX",
"AXAXAXAXAXAXAXAXAXAXAXAXmXL.2 , oX6XI * W 6XP.&   O O @ @ m M L L L I G f.8.6.g.c./././.k.j.g.6.6.9.8.c c M V P.zXZXAXAXAXAXAXAX",
"AXAXAXAXAXAXAXAXAXAXAXAXAXlXJ & oXrXE = _ bX+X%     * 6 6 > O       % & A L c F x.{.{.%X%X%XH.9.w.V.Q a % % > kXAXAXAXAXAXAXAXAX",
"AXAXAXAXAXAXAXAXAXAXAXAXAXzXK & oXtXV.M _ P.A.K H g g < 6 > $ @ o o O : m M h L Q d.d.d.d.d.d.I I T Y (  XXX$XZXAXAX| | AXAXAXAX",
"AXAXAXAXAXAXAXAXAXAXAXAXAXxXK - oXtX<X|.E - m mXnX}.Z.M : > @ o # # o . : = & & = & & & & & & & = * B $XZXAXAXAXAX| | | | AXAXAX",
"AXAXAXAXAXAXAXAXAXAXAXAXAXzXK a OXtX5X<XQ * B SXBX2XK.q.T N m < O o O : m N V V : . O O O O o o o   J zXAXAXAXAXAXAXAXAXAXAXAXAX",
"AXAXAXAXAXAXAXAXAXAXAXAXAXkXT h OXtX8X7Xm.: J HXDXnX7X3X3XJ.B.K O X O 2 Z.J.OX+X8   o O o o @ o + o ^ mXAXAXAXAXAXAXAXAXAXAXAXAX",
"AXAXAXAXAXAXAXAXAXAXAXAXMXA.L P <XiXiX8X_ : / HXDXBXtXiX0X=XJ.T * + O a K.E.5XOX8   O O o # # + $ + ^ mXAXAXAXAXAXAXAXAXAXAXAXAX",
"AXAXAXAXAXAXAXAXAXAXAXZXA.M J.7XiXuX0X8Xm.= B JXDXCX8XqXiXqX7Xm.* @ : h 3X4X5XOXg . O O o X $ 6 6 @ ) NXAXAXAXAXAXAXAXAXAXAXAXAX",
"AXAXAXAXAXAXAXAXAXAXAXVXR f U.7X0XyXuX8XV.g T DXDXCXwX0XuXiX7XB.d g g P 3X3XOXS.g . @ $ + # $ 6 7 ^ @XAXAXAXAXAXAXAXAXAXAXAXAXAX",
"AXAXAXAXAXAXAXAXAXAXAXVXR f J.<X0X9X9X0X3XOX2XCXCXiXwX0XyXyXeX6XOXOXK.K.3XJ.A 1 * O 4 6 3 + o + L.ZXAXAXAXAXAXAXAXAXAXAXAXAXAXAX",
"AXAXAXAXAXAXAXAXAXAXAXAXP.Y V.K.4X4X9X9X0XtXtX8XiXiXwX0XyXyXeX8X7X1X-X<XK.Z.2 . o + 3 6 3 o 7 ) mXAXAXAXAXAXAXAXAXAXAXAXAXAXAXAX",
"AXAXAXAXAXAXAXAXAXAXAXAXNX$XE c D.H.R.R.-X4XuXuXiXwXwXqX0XuXqX1X=XR.E.D.f d O o X X # # @   ' MXAXAXAXAXAXAXAXAXAXAXAXAXAXAXAXAX",
"AXAXAXAXAXAXAXAXAXAXAXAXAXVXA.f M.J.K.H.-X4XuXuX7XwX8X8X0XuXqX1XK.K.K.V.- * o X # X X # 6 J lXAXAXAXAXAXAXAXAXAXAXAXAXAXAXAXAXAX",
"AXAXAXAXAXAXAXAXAXAXAXAXAXAXZX$XY c M.<X4X0XuXeX8XtX7X-XE.E.E.u.O.3.3.3.s 2 @ o 7 ^ 7 7 XXAXAXAXAXAXAXAXAXAXAXAXAXAXAXAXAXAXAXAX",
"AXAXAXAXAXAXAXAXAXAXAXAXAXAXAXAXP.g m.6X3X5X3X3X6X3X<XE.R.F.R.4.j x y z f d * : L.lX.X^ xXAXAXAXAXAXAXAXAXAXAXAXAXAXAXAXAXAXAXAX",
"AXAXAXAXAXAXAXAXAXAXAXAXAXAXAXAXVX@X` _ Q q.Q Q q.3.5.u.F.4.%.+.X.@.@.@.z f - b jXAXVXNXAXAXAXAXAXAXAXAXAXAXAXAXAXAXAXAXAXAXAXAX",
"AXAXAXAXAXAXAXAXAXAXAXAXAXAXAXAXAXAX.Xm 2 9 ; ; 0 0 e %.y.x r ..%.*.*.#.z k u N zXAXAXAXAXAXAXAX| | AXAXAXAXAXAXAXAXAXAXAXAXAXAX",
"AXAXAXAXAXAXAX| AXAXAXAXAXAXAXAXAXAXVXkX XC.V , s P 3.%.%.y r &.F.i.Y.F.u.0.s V mXAXAXAXAXAXAX| | | | AXAXAXAXAXAXAXAXAXAXAXAXAX",
"AXAXAXAXAXAX| | | AXAXAXAXAXAXAXAXAXAXAXAXAXC., f D.F.+...y r u.1X;X-X1XR.D.f N lXAXAXAXAXAXAXAXAXAXAXAXAXAXAXAXAXAXAXAXAXAXAXAX",
"AXAXAXAXAXAXAXAXAXAXAXAXAXAXAXAXAXAXAXAXNX#Xm.k l N.N.=.o.z k u.4X;X1X1XR.D.f 9 ` lXAXAXAXAXAXAXAXAXAXAXAXAXAXAXAXAXAXAXAXAXAXAX",
"AXAXAXAXAXAXAXAXAXAXAXAXAXAXAXAXAXAXAXAXkXT k &.%.;.;.;.-.Z k u.4X4X4X-XR.D.v 0 a ( ZXAXAXAXAXAXAXAXAXAXAXAXAXAXAXAXAXAXAXAXAXAX",
"AXAXAXAXAXAXAXAXAXAXAXAXAXAXAXAXAXAXAXAXhXn t &.%.-.;.:.>.Z t u.-X-X9X1XR.F.v f w 2 NXAXAXAXAXAXAXAXAXAXAXAXAXAXAXAXAXAXAXAXAXAX",
"AXAXAXAXAXAXAXAXAXAXAXAXAXAXAXAXAXAXAXAXhXM t %.o.:.:.:.>.y r 4.R.=X9X9XR.F.S k w b NXAXAXAXAXAXAXAXAXAXAXAXAXAXAXAXAXAXAXAXAXAX",
"AXAXAXAXAXAXAXAXAXAXAXAXAXAXAXAXAXAXAXAXjXM t %.-.:.:.:.>.x z 4.E.-X9X4XR.F.$.k w N AXAXAXAXAXAXAXAXAXAXAXAXAX| AXAXAXAXAXAXAXAX",
"AXAXAXAXAXAXAXAXAXAXAXAXAXAXAXAXAXAXAXAXkXn t &.;.:.:.:.>...l l.4X0XqX5XK.F.S k q n AXAXAXAXAXAXAXAXAXAXAXAX| | | AXAXAXAXAXAXAX",
"AXAXAXAXAXAXAXAXAXAXAXAXAXAXAXAXAXAXAXAX{ b t 4.-.;.;.-.-.$.O.F.0XqXqX3XD.M.S C w d AXAXAXAXAXAXAXAXAXAXAXAXAXAXAXAXAXAXAXAXAXAX",
"AXAXAXAXAXAXAXAXAXAXAXAXAXAXAXAXAXAXAXAXhXN q l X.=.=.X.l F.E.-X0X0X8X<Xv S S S w V AXAXAXAXAXAXAXAXAXAXAXAXAXAXAXAXAXAXAXAXAXAX",
"AXAXAXAXAXAXAXAXAXAXAXAXAXAXAXAXAXAXAXAXlXV f O.,.4.4.O.l R.1X1X0X0X8X<Xc c A A T .XAXAXAXAXAXAXAXAXAXAXAXAXAXAXAXAXAXAXAXAXAXAX",
"AXAXAXAXAXAXAXAXAXAXAXAXAXAXAXAXAXAXAXAXZXR A G.H.x.l.S k K.1X4XqXqX8X<XA M d ( kXAXAXAXAXAXAXAXAXAXAXAXAXAXAXAXAXAXAXAXAXAXAXAX",
"AXAXAXAXAXAXAXAXAXAXAXAXAXAXAXAXAXAXAXAXAX XT }.}.J.Z.Y M G.<X3X3X7X7XOXT V 8 L.ZXAXAXAXAXAXAXAXAXAXAXAXAXAXAXAXAXAXAXAXAXAXAXAX",
"AXAXAXAXAXAXAXAXAXAXAXAXAXAXAXAXAXAXAXAXAXAXmXV H ^ ) / / Y P I I I E Y 2 7 6 .XAXAXAXAXAXAXAXAXAXAXAXAXAXAXAXAXAXAXAXAXAXAXAXAX",
"AXAXAXAXAXAXAXAXAXAXAXAXAXAXAXAXAXAXAXAXAXAXAX7 5 / ] pXpX/ N M N N N B 7 7 5 .XAXAXAXAXAXAXAXAXAXAXAXAXAXAXAXAXAXAXAXAXAXAXAXAX",
"AXAXAXAXAXAXAXAXAXAXAXAXAXAXAXAXAXAXAXAXAXAXAX/ ! pXdXdXdXfXfX} } aXaXaX] ~ ! .XAXAXAXAXAXAXAXAXAXAXAXAXAXAXAXAXAXAXAXAXAXAXAXAX",
"AXAXAXAXAXAXAXAXAXAXAXAXAXAXAXAXAXAXAXAXAXAXAX{ ! sXvXFXGXGXGXvXvXvXFXcXaXpX~ [ AXAXAXAXAXAXAXAXAXAXAXAXAXAXAXAXAXAXAXAXAXAXAXAX",
"AXAXAXAXAXAX| | AXAXAXAXAXAXAXAXAXAXAXAXAXAXAX.XB ) { { I.gXhXhXgX+XgXI./ / { } | AXAXAXAXAXAXAXAXAXAXAXAXAXAXAXAXAXAXAXAXAXAXAX",
"AXAXAXAXAX| | | | AXAXAXAXAXAXAXAXAXAXAXAXAXMXT n w w b M Z.J.K.H.D.D.m.n ` NXAXAXAXAXAXAXAXAXAXAXAXAXAXAXAX| AXAXAXAXAXAXAXAXAX",
"AXAXAXAXAXAXAXAXAXAXAXAXAXAXAXAXAXAXAXAXAXZXoXP S A A f f D.=X&XT.z.z.f.h P.AXAXAXAXAXAXAXAXAXAXAXAXAXAXAX| | | AXAXAXAXAXAXAXAX",
"AXAXAXAXAXAXAXAXAXAXAXAXAXAXAXAXAXAXAXAXAXP.E K.J.OXU.L p J.7X9X9X9X8XK.M P.AXAXAXAXAXAXAXAXAXAXAXAXAXAXAXAXAXAXAXAXAXAXAXAXAXAX",
"AXAXAXAXAXAXAXAXAXAXAXAX| | AXAXAXAXAXAXNXT c V.V.Z.B.M d B.J.J.K.J.J.B.n C.AXAXAXAXAXAXAXAXAXAXAXAXAXAXAXAXAXAXAXAXAXAXAXAXAXAX",
"AXAXAXAXAXAXAXAXAXAXAX| | | | AXAXAXAXAXVXR w s s s d ; ; d s s f f s d d L.AXAXAXAXAXAXAXAXAXAXAXAXAXAXAXAXAXAXAXAXAXAXAXAXAXAX",
"AXAXAXAXAXAXAXAXAXAXAXAXAXAXAXAXAXAXAXAXAXkXP.A.` ( R R R R R R Y Y W _  XmXAXAXAXAXAXAXAXAXAXAXAXAXAXAXAXAXAXAXAXAXAXAXAXAXAXAX",
"AXAXAXAXAXAXAXAXAXAXAXAXAXAXAXAXAXAXAXAXAXAXAXZXVXNXNXNXNXNXNXNXNXNXNXVXZXAXAXAXAXAXAXAXAXAXAXAXAXAXAXAXAXAXAXAXAXAXAXAXAXAXAXAX"
};
