/* XPM */
static char *f9032d83d6e1480f9f4985282bcb4d00cVcWB3S3DjBSVWKK[] = {
/* columns rows colors chars-per-pixel */
"64 64 251 2 ",
"   c #191309",
".  c #1B120C",
"X  c #0D1518",
"o  c #141514",
"O  c #1B1413",
"+  c #151619",
"@  c #191718",
"#  c #13191A",
"$  c #1A1A1B",
"%  c #260D05",
"&  c #2B1A06",
"*  c #22140C",
"=  c #281608",
"-  c #341A09",
";  c #3D1D0C",
":  c #251A13",
">  c #231917",
",  c #3A1C11",
"<  c #2C231C",
"1  c #39251B",
"2  c #1B1C21",
"3  c #251A21",
"4  c #1C2731",
"5  c #262628",
"6  c #342E2F",
"7  c #3A3226",
"8  c #441C0D",
"9  c #4A1909",
"0  c #53180A",
"q  c #481C14",
"w  c #691C0C",
"e  c #6D1D12",
"r  c #661E18",
"t  c #751D16",
"y  c #44220C",
"u  c #552A08",
"i  c #5C340E",
"p  c #442212",
"a  c #4D2515",
"s  c #482A1A",
"d  c #572916",
"f  c #49321B",
"g  c #5A3719",
"h  c #7B230C",
"j  c #662618",
"k  c #7C2A15",
"l  c #772518",
"z  c #7C251B",
"x  c #673819",
"c  c #703013",
"v  c #482922",
"b  c #542D24",
"n  c #493528",
"m  c #563727",
"M  c #53342B",
"N  c #493936",
"B  c #553C31",
"V  c #6D2C20",
"C  c #792722",
"Z  c #673725",
"A  c #783725",
"S  c #5B401C",
"D  c #6F4918",
"F  c #74471B",
"G  c #574429",
"H  c #474336",
"J  c #5A4535",
"K  c #684528",
"L  c #764626",
"P  c #72492B",
"I  c #7A5027",
"U  c #654434",
"Y  c #694936",
"T  c #644C3B",
"R  c #764C34",
"E  c #6C543B",
"W  c #795438",
"Q  c #243342",
"!  c #394659",
"~  c #595449",
"^  c #524D52",
"/  c #695646",
"(  c #68554E",
")  c #775845",
"_  c #7A624D",
"`  c #796957",
"'  c #4E5A70",
"]  c #5F5F74",
"[  c #6F6B6C",
"{  c #777E7E",
"}  c #7F7F7F",
"|  c #84320C",
" . c #852717",
".. c #8C2A1B",
"X. c #952A1C",
"o. c #89361B",
"O. c #933619",
"+. c #882722",
"@. c #982C23",
"#. c #883924",
"$. c #973826",
"%. c #943D32",
"&. c #A12F26",
"*. c #A33A24",
"=. c #A73826",
"-. c #AB3B2B",
";. c #B33829",
":. c #AB3A31",
">. c #8E4D1B",
",. c #9C5E1D",
"<. c #A8531E",
"1. c #A6661F",
"2. c #854527",
"3. c #974828",
"4. c #88552A",
"5. c #9D5D25",
"6. c #955529",
"7. c #955C2B",
"8. c #9C5D2A",
"9. c #8C4B34",
"0. c #865836",
"q. c #965A32",
"w. c #AC4824",
"e. c #B44727",
"r. c #A25D26",
"t. c #AB4B37",
"y. c #A45837",
"u. c #B65931",
"i. c #8F622E",
"p. c #9C6125",
"a. c #99632C",
"s. c #8A673A",
"d. c #966436",
"f. c #A86729",
"g. c #B46B2D",
"h. c #AD712C",
"j. c #B6732C",
"k. c #AD6537",
"l. c #B86938",
"z. c #AA743D",
"x. c #B97937",
"c. c #C05E2A",
"v. c #CC7539",
"b. c #C57939",
"n. c #865C46",
"m. c #975C43",
"M. c #AE5841",
"N. c #8C664B",
"B. c #976347",
"V. c #866B57",
"C. c #966953",
"Z. c #8B735A",
"A. c #96765C",
"S. c #A96746",
"D. c #B76546",
"F. c #AA754C",
"G. c #B97748",
"H. c #AB7657",
"J. c #B67856",
"K. c #877964",
"L. c #947C64",
"P. c #89767C",
"I. c #AA7C61",
"U. c #C05F42",
"Y. c #CD7347",
"T. c #C6764B",
"R. c #C87A53",
"E. c #BC8539",
"W. c #C7862F",
"Q. c #C28435",
"!. c #C68934",
"~. c #CC8B34",
"^. c #C4843B",
"/. c #CA843B",
"(. c #C48A3C",
"). c #CC8B3A",
"_. c #D1883A",
"`. c #CC9235",
"'. c #D3973B",
"]. c #D9A13D",
"[. c #BA8747",
"{. c #A9835E",
"}. c #B3815E",
"|. c #9A866C",
" X c #988B75",
".X c #9D937A",
"XX c #A9876A",
"oX c #BA8969",
"OX c #A68A75",
"+X c #A69478",
"@X c #AB9679",
"#X c #AC9A7C",
"$X c #B59878",
"%X c #C88843",
"&X c #CC8946",
"*X c #D99948",
"=X c #C88359",
"-X c #D6885B",
";X c #D79859",
":X c #E2954E",
">X c #DBA14D",
",X c #E2A241",
"<X c #C88B65",
"1X c #D88B64",
"2X c #C79569",
"3X c #CD946C",
"4X c #DD9364",
"5X c #D8956A",
"6X c #C89775",
"7X c #D59975",
"8X c #DC9D73",
"9X c #E39765",
"0X c #E39C6D",
"qX c #E39D72",
"wX c #E69D76",
"eX c #DCA06F",
"rX c #CDA17C",
"tX c #DDA377",
"yX c #E3A169",
"uX c #E4A16C",
"iX c #E5A176",
"pX c #566984",
"aX c #74798A",
"sX c #788899",
"dX c #728BAF",
"fX c #89878F",
"gX c #A58B87",
"hX c #AC9784",
"jX c #B29E81",
"kX c #B4A285",
"lX c #B7A78A",
"zX c #BCAC8D",
"xX c #BFB092",
"cX c #929FBA",
"vX c #96A7B6",
"bX c #C59B81",
"nX c #CEAE8C",
"mX c #C5B493",
"MX c #CAB896",
"NX c #CDBC9A",
"BX c #DDBB96",
"VX c #D1BF9D",
"CX c #E4AD87",
"ZX c #D3C29F",
"AX c #D7C6A2",
"SX c #D7C0AB",
"DX c #F2D3B7",
"FX c #9DADC5",
"GX c #A3B4C9",
"HX c #EADDCF",
"JX c #F3E3D9",
/* pixels */
"AXAXAXAXAXAXAXAXAXAXAXAXAXAXAXAXAXAXAXAXAXAXAXAXAXAXAXAXAXAXAXAXAXAXAXAXAXAXAXAXAXAXAXAXAXAXAXAXAXAXAXAXAXAXAXAXAXAXAXAXAXAXAXAX",
"AXAXAXAXAXAXAXAXAXAXAXAXAXAXAXAXAXAXAXAXAXZXzX#X#X@X@X@X+X+X+X+X+X@X@X@X#X#X#X#XmXAXAXAXAXAXAXAXAXAXAXAXAXAXAXAXAXAXAXAXAXAXAXAX",
"AXAXAXAXAXAXAXAXAXAXAXAXAXAXAXAXAXAXAXAXNX+XT , , ; ; p p ; ; ; y 8 9 8 8 ; y y E #XVXAXAXAXAXAXAXAXAXAXAXAXAXAXAXAXAXAXAXAXAXAX",
"AXAXAXAXAXAXAXAXAXAXAXAXAXAXAXAXAXNX#X|.V.Y K K K L 4.4.4.4.4.4.4.4.7.a.i.i.i.d.s.E Z.#XkXVXAXAXAXAXAXAXAXAXAXAXAXAXAXAXAXAXAXAX",
"AXAXAXAXAXAXAXAXAXAXAXAXAXAXAXAXAX|.J s y g 0.7.7.a.E.%X(.(.(.E.E.E.(.*X*X*X;X;X2XF y f M  XAXAXAXAXAXAXAXAXAXAXAXAXAXAXAXAXAXAX",
"AXAXAXAXAXAXAXAX} } } AXAXAXAXAX|.) x x x 2.a.p.h.j.!.).~.~.~.!.!.!.`.'.'.].*X*X>Xh.4.I I U #XAXAXAXAXAXAXAXAXAXAXAXAXAXAXAXAXAX",
"AXAXAXAXAXAXAX} } } } } AXAXZX|.f P d.d.a.p.,.f./.).~.~.~.~.~.~.~.~.~.~.`.].,X,X*X*X>X&XG.0.s #XAXAXAXAXAXAXAXAXAXAXAXAXAXAXAXAX",
"AXAXAXAXAXAXAXAXAXAXAXAXAXZX+XW u 2.a.5.5.f.f.j./.).).).).).~.~.)._._.~.`.'.*X*X*X*X*X%Xl.L 8 |.AXAXAXAXAXAXAXAXAXAXAXAXAXAXAXAX",
"AXAXAXAXAXAXAXAXAXAXAXAXAXOXK 0.7.7.8.5.r.g.%X/.).).).).).).).).)._._.).(.(.)././.*X:Xv.<.k 9 |.AXAXAXAXAXAXAXAXAXAXAXAXAXAXAXAX",
"AXAXAXAXAXAXAXAXAXAXAXAXZX_ y 4.7.8.r.f.g.x.&X&X).).!.!.!.).).!.~.~./.%X%X%X%Xb.g.v.v.c.w.o.r / jXzXMXNXVXAXAXAXAXAXAXAXAXAXAXAX",
"AXAXAXAXAXAXAXAXAXAXAXAXVX_ 9 4.a.5.,.h.^.^.^.!.).).).!.).).).!.~.~._._.%X&Xv.w.w.w.w.e.-.$.#.Z d f m m B / zXAXAXAXAXAXAXAXAXAX",
"AXAXAXAXAXAXAXAXAXAXAXAXNX) 9 4.8.,.1.j.x.Q.!.!.Q.Q.!.!.!.).).).W.W._.v.Y.Y.Y.w.w.*.=.:.:.$.3.2.i u u u u g A.MXAXAXAXAXAXAXAXAX",
"AXAXAXAXAXAXAXAXAXAXAXAXNX) y 4.8.8.8.8.5.f.x.x.1.h.b.!.!.).).&Xl.w.e.w.e.e.e.=.-.X...+...u.*X*X&XE.E.x.G.F.P E jXAXAXAXAXAXAXAX",
"AXAXAXAXAXAXAXAXAXAXAXAXNX) 8 R q.6.9.q.6.y.G.k.5.r.l.b.b.v.v.Y.u.-.-.*.-.-.=.-.*.O.O.O.o.f.*X*X*X).Q.E.x.F.D s L.NXAXAXAXAXAXAX",
"AXAXAXAXAXAXAXAXAXAXAXAXNX) 8 V A C C A #.#.#.#.o.o.$.$.t.e.e.e.;.;.*. ...X.....| u.c.l.x.x.).^.Q.Q.E.E.f.d.x s |.VXAXAXAXAXAXAX",
"AXAXAXAXAXAXAXAXAXAXAXAXmX/ q j C l e t z z  .z  .+.+. .$.=.=.=.=.=.$.o.o.O.O.| | g.b././.!.W.Q.x.x.z.F.0.W Y _ kXAXAXAXAXAXAXAX",
"AXAXAXAXAXAXAXAXAXAXZX#X` a 9 r e e e e t z  .z z C C C +.+.........3.G.G.b.b.b.x.^.%X(.^.Q.!.E.p.4.i a q v |.MXZXAXAXAXAXAXAXAX",
"AXAXAXAXAXAXAXAXAXAXNXJ ; 9 0 w e e e e w h k k l z z z k k h  . .h >.%X&X&X/.Q.(.E.[.[.[.E.[.[.s.R - * O 5 MXAXAXAXAXAXAXAXAXAX",
"AXAXAXAXAXAXAXAXAXmXA.K L F L #.2.#.2.2.2.2.3.3.3.3.3.3.y.k.k.k.k.g.g.(.(.%X%X%XE.F g g g S i S m n > >  XNXAXAXAXAXAXAXAXAXAXAX",
"AXAXAXAXAXAXAXAXmXK i d.a.a.7.4.4.4.6.6.6.8.8.r.r.r.r.r.b.^.^.Q.^.^.^.E.E.[.[.[.G.i = * .   * * < > @ ~ MXAXAXAXAXAXAXAXAXAXAXAX",
"AXAXAXAXAXAXNX#XZ.P F a.p.p.p.5.7.6.5.f.g.x.j.j.j.j.j.j.Q.E.Q.Q.x.g.f.D K K K K P W ) n * v ) J < @ o ` ZXAXAXAXAXAXAXAXAXAXAXAX",
"AXAXAXAXAXAXmX_ U n.0.q.7.p.p.p.5.,.,.g././.b.b.b.b.b.%XG.[.[.[.z.d.W & . @ O . - A.oXE = K oXA., . o K.AXAXAXAXAXAXAXAXAXAXAXAX",
"AXAXAXAXAXAXZXzXL.B m x x 7.8.5.5.f.h.j.^.^.^.x.f.5.7.d.F P K K K m n @ # @ O   & I.6XE * Y 6XXX, 1 ` MXAXAXAXAXAXAXAXAXAXAXAXAX",
"AXAXAXAXAXAXAXAXkX: % % p W B.q.8.G.%X%X%X[.[.z.D x D K & %       O > 5 5 *     = OXbX) % R rXXX& H lXAXAXAXAXAXAXAXAXAXAXAXAXAX",
"AXAXAXAX} } AXAXZX#X.X|./ U Y P P s.s.s.s.s.s.W m g m n : O o o # $ 3 5 < f f G J Z.L.) m B.tXXX& H xXAXAXAXAXAXAXAXAXAXAXAXAXAX",
"AXAXAX} } } } AXAXAXAXZX#XN * = = & & & & & & = = = = : . o + # o > 3 : m C.{.nXmXn , R }.<XtXXX- J xXAXAXAXAXAXAXAXAXAXAXAXAXAX",
"AXAXAXAXAXAXAXAXAXAXAXAXzXH o o o o O O O O   : B B M n : O o O < n M Y 0.J.2XBXSXN * W <X5XtXoXp J xXAXAXAXAXAXAXAXAXAXAXAXAXAX",
"AXAXAXAXAXAXAXAXAXAXAXAXmX~ o + o # o o O o . 7 OXoXH.C.1 O o O J N.H.3X3X7XCXDXHXH * n.7X8XtXoXg Y kXAXAXAXAXAXAXAXAXAXAXAXAXAX",
"AXAXAXAXAXAXAXAXAXAXAXAXMX~ + $ + + + o O O   7 $X5XR.J.p O + * Y F.=X8XiXtXBXDXJX^ : ) 7XiXiX<XL K Z.MXAXAXAXAXAXAXAXAXAXAXAXAX",
"AXAXAXAXAXAXAXAXAXAXAXAXNX( @ 5 5 $ X o O @   f oX5X5X3Xg : @ * ) 7XqXiXiX8XCXDXJXN = n.8XqXuXiX7XH.m Z.ZXAXAXAXAXAXAXAXAXAXAXAX",
"AXAXAXAXAXAXAXAXAXAXAXAXAX+X~ 6 5 $ + + $ @ . v A.oX3X<XL f f s N.7XiXuX0XwXCXDXDXY f B.8XuXuX0X7XH.d T VXAXAXAXAXAXAXAXAXAXAXAX",
"AXAXAXAXAXAXAXAXAXAXAXAXAXAXZXK.+ o + 2 5 3 O * s Z H.3XJ.J.}.oX6XeXyXyXuXwXiXiXCX2XoX3X0X0X0X0X<XH.d T VXAXAXAXAXAXAXAXAXAXAXAX",
"AXAXAXAXAXAXAXAXAXAXAXAXAXAXAXmX( 6 o 2 5 2 + o . 1 C.J.<X-X1X8X8X8XyXyX0XwXiXiX8XtXtX0X9X9X4X5XJ.B.U L.AXAXAXAXAXAXAXAXAXAXAXAX",
"AXAXAXAXAXAXAXAXAXAXAXAXAXAXAXAXMX` o # # # X X o @ p d S.R.R.=X1XqXuX0XqXwXwXiX0XuX4X-XR.T.G.F.x R @XNXAXAXAXAXAXAXAXAXAXAXAXAX",
"AXAXAXAXAXAXAXAXAXAXAXAXAXAXAXAXAXlXH 5 # X X # X o * - B.J.J.J.<X0XuX0X0X8XwX8XuXuX4X-XG.J.F.m.d Z.VXAXAXAXAXAXAXAXAXAXAXAXAXAX",
"AXAXAXAXAXAXAXAXAXAXAXAXAXAXAXAXAXAXAX.X6 6 ~ 6 o @ 1 a #.2.2.o.y.R.R.R.-X7XtXtXeXuX0X5X<Xm.x U #XZXAXAXAXAXAXAXAXAXAXAXAXAXAXAX",
"AXAXAXAXAXAXAXAXAXAXAXAXAXAXAXAXAXAXAXxX~  XlXK.: : s d l t z h 3.T.D.T.R.<X3X6X2X3X5X3X6Xn.f L.AXAXAXAXAXAXAXAXAXAXAXAXAXAXAXAX",
"AXAXAXAXAXAXAXAXAXAXAXAXAXAXAXAXAXAXAXAXMXVXAXjX7 - d l +.@.+...O.$.3.D.y.4.4.0.W 0.9.W ) _ +XVXAXAXAXAXAXAXAXAXAXAXAXAXAXAXAXAX",
"AXAXAXAXAXAXAXAXAXAXAXAXAXAX} } AXAXAXAXAXAXAXzXM y j l @.&.@.$. .e z t.$.w 9 9 ; ; 8 1 n  XAXAXAXAXAXAXAXAXAXAXAXAXAXAXAXAXAXAX",
"AXAXAXAXAXAXAXAXAXAXAXAXAX} } } } AXAXAXAXAXAXmXB a 9.y.D.U.l.D.%.e t $.$.2.L a , B V.|.kXVXAXAXAXAXAXAXAXAXAXAX} AXAXAXAXAXAXAX",
"AXAXAXAXAXAXAXAXAXAXAXAXAXAXAXAXAXAXAXAXAXAXAXlXM d S.R.1X-X-X1Xy.e t  .O.D.S.d , V.AXAXAXAXAXAXAXAXAXAXAXAXAX} } } AXAXAXAXAXAX",
"AXAXAXAXAXAXAXAXAXAXAXAXAXAXAXAXAXAXAXAXAXAXlX_ 8 d S.R.1X1X;X5Xy.j l X.*.M.M.k j n.@XNXAXAXAXAXAXAXAXAXAXAXAXAXAXAXAXAXAXAXAXAX",
"AXAXAXAXAXAXAXAXAXAXAXAXAXAXAXAXAXAXAXAXAXZX/ p 9 c S.T.-X4X4X4Xy.j C =.=.-.-.$.%.j U kXAXAXAXAXAXAXAXAXAXAXAXAXAXAXAXAXAXAXAXAX",
"AXAXAXAXAXAXAXAXAXAXAXAXAXAXAXAXAXAXAXAXAXMX1 q d c D.T.1X9X-X-Xy.r C :.;.;.=.$.%.r m hXAXAXAXAXAXAXAXAXAXAXAXAXAXAXAXAXAXAXAXAX",
"AXAXAXAXAXAXAXAXAXAXAXAXAXAXAXAXAXAXAXAXAXVXv q j A D.T.9X9XR.T.3.e t :.;.;.;.X.$.r m hXAXAXAXAXAXAXAXAXAXAXAXAXAXAXAXAXAXAXAXAX",
"AXAXAXAXAXAXAXAX} AXAXAXAXAXAXAXAXAXAXAXAXAXM q j #.D.R.4X9X-XR.3.l z :.;.;.;.*.$.r m jXAXAXAXAXAXAXAXAXAXAXAXAXAXAXAXAXAXAXAXAX",
"AXAXAXAXAXAXAX} } } AXAXAXAXAXAXAXAXAXAXAXAXb 0 j A D.J.5XqX0X4Xk.k  .:.;.;.;.-.%.r b kXAXAXAXAXAXAXAXAXAXAXAXAXAXAXAXAXAXAXAXAX",
"AXAXAXAXAXAXAXAXAXAXAXAXAXAXAXAXAXAXAXAXAXAXs q j A m.S.3X8XqX0XD.o.#.=.=.-.=.*.%.r v [ AXAXAXAXAXAXAXAXAXAXAXAXAXAXAXAXAXAXAXAX",
"AXAXAXAXAXAXAXAXAXAXAXAXAXAXAXAXAXAXAXAXAXAXB q V A V c <X8X0X0X-XR.D. ...*.*...k 0 M hXAXAXAXAXAXAXAXAXAXAXAXAXAXAXAXAXAXAXAXAX",
"AXAXAXAXAXAXAXAXAXAXAXAXAXAXAXAXAXAXAXAXAXAX XY Z Z x x <X8X0X0X1X1XT.k  .w.w.O.o.d B lXAXAXAXAXAXAXAXAXAXAXAXAXAXAXAXAXAXAXAXAX",
"AXAXAXAXAXAXAXAXAXAXAXAXAXAXAXAXAXAXAXAXAXAXAXkX/ s m Z <X8XqXqX5X1XJ.j A k.z.G.F.Z T ZXAXAXAXAXAXAXAXAXAXAXAXAXAXAXAXAXAXAXAXAX",
"AXAXAXAXAXAXAXAXAXAXAXAXAXAXAXAXAXAXAXAXAXAXAXZXK.7 B Y oX7X7X3X3X<XF.m U C.H.{.{.Y |.AXAXAXAXAXAXAXAXAXAXAXAXAXAXAXAXAXAXAXAXAX",
"AXAXAXAXAXAXAXAXAXAXAXAXAXAXAXAXAXAXAXAXAXAXAXAX X5 6 1 U R P P P L U ^ ^ ( ~ G B mXAXAXAXAXAXAXAXAXAXAXAXAXAXAXAXAXAXAXAXAXAXAX",
"AXAXAXAXAXAXAXAXAXAXAXAXAXAXAXAXAXAXAXAXAXAXAXAX X4 6 6 N M M m M M ^ ] pX' ^ 4 6 AXAXAXAXAXAXAXAXAXAXAXAXAXAXAXAXAXAXAXAXAXAXAX",
"AXAXAXAXAXAXAXAXAXAXAXAXAXAXAXAXAXAXAXAXAXAXAXAX XQ ! ' aXaXaX{ { fXsXdXdXdXpXQ ^ AXAXAXAXAXAXAXAXAXAXAXAXAXAXAXAXAXAXAXAXAXAXAX",
"AXAXAXAXAXAXAXAXAXAXAXAXAXAXAXAXAXAXAXAXAXAXAXAX] ! pXaXcXFXvXvXvXGXGXGXFXvXsXQ [ AXAXAXAXAXAXAXAXAXAXAXAXAXAXAXAXAXAXAXAXAXAXAX",
"AXAXAXAXAXAXAXAXAXAXAXAXAXAXAXAXAXAXAXAXAXAXAX} { [ ^ ^ P.gXOXhXhXgXgXP.[ [ ( N  XAXAXAXAXAXAXAXAXAXAXAXAXAXAXAX} } AXAXAXAXAXAX",
"AXAXAXAXAXAXAXAXAX} AXAXAXAXAXAXAXAXAXAXAXAXAXAXAXNX_ b n.S.k.G.J.H.C.b v q q b Y MXAXAXAXAXAXAXAXAXAXAXAXAXAX} } } } AXAXAXAXAX",
"AXAXAXAXAXAXAXAX} } } AXAXAXAXAXAXAXAXAXAXAXAXAXAXAXL.g d.l.l.Y.&X=XS.d d Z Z A L XXAXAXAXAXAXAXAXAXAXAXAXAXAXAXAXAXAXAXAXAXAXAX",
"AXAXAXAXAXAXAXAXAXAXAXAXAXAXAXAXAXAXAXAXAXAXAXAXAXAXL.m J.8X0X9X9X8XH.i K I.oXH.J.R L.AXAXAXAXAXAXAXAXAXAXAXAXAXAXAXAXAXAXAXAXAX",
"AXAXAXAXAXAXAXAXAXAXAXAXAXAXAXAXAXAXAXAXAXAXAXAXAXAXV.M N.H.H.J.H.H.N.s m N.C.B.B.x Y NXAXAXAXAXAXAX} } AXAXAXAXAXAXAXAXAXAXAXAX",
"AXAXAXAXAXAXAXAXAXAXAXAXAXAXAXAXAXAXAXAXAXAXAXAXAXAXK.s s a d d a a s ; ; s a a a q T VXAXAXAXAXAX} } } } AXAXAXAXAXAXAXAXAXAXAX",
"AXAXAXAXAXAXAXAXAXAXAXAXAXAXAXAXAXAXAXAXAXAXAXAXAXAXmX|.) E U U T T T T T T / _ Z.L.kXAXAXAXAXAXAXAXAXAXAXAXAXAXAXAXAXAXAXAXAXAX",
"AXAXAXAXAXAXAXAXAXAXAXAXAXAXAXAXAXAXAXAXAXAXAXAXAXAXAXZXVXNXNXNXNXNXNXNXNXNXNXVXZXAXAXAXAXAXAXAXAXAXAXAXAXAXAXAXAXAXAXAXAXAXAXAX"
};
