/* XPM */
static char *_5030ec0d68c4848ff57d276f82ba0cadWydVnSQtvoaoLWi[] = {
/* columns rows colors chars-per-pixel */
"64 64 228 2 ",
"   c #1B0E0B",
".  c #17140C",
"X  c #1A110C",
"o  c #170E11",
"O  c #0E1716",
"+  c #131313",
"@  c #1C1313",
"#  c #18191A",
"$  c #250E0F",
"%  c #25130D",
"&  c #3A1907",
"*  c #3C1C0C",
"=  c #291A15",
"-  c #231C1A",
";  c #351915",
":  c #3B1D12",
">  c #341B1A",
",  c #362210",
"<  c #3B2416",
"1  c #3B231B",
"2  c #1C1E21",
"3  c #291D22",
"4  c #1A2A3A",
"5  c #2C282C",
"6  c #392724",
"7  c #282B35",
"8  c #471908",
"9  c #421C0C",
"0  c #551A0B",
"q  c #411D14",
"w  c #4A1B17",
"e  c #561B16",
"r  c #5C1A14",
"t  c #6E1C0F",
"y  c #6D1D14",
"u  c #671D18",
"i  c #751E17",
"p  c #482308",
"a  c #55290A",
"s  c #57310D",
"d  c #472718",
"f  c #572919",
"g  c #4D371D",
"h  c #543217",
"j  c #5A321B",
"k  c #6D290C",
"l  c #6A2418",
"z  c #772616",
"x  c #7C2A15",
"c  c #74231C",
"v  c #7C241D",
"b  c #7C2B1B",
"n  c #6A391C",
"m  c #7C3919",
"M  c #4E1E22",
"N  c #462B25",
"B  c #552A23",
"V  c #4B3428",
"C  c #553728",
"Z  c #4A3836",
"A  c #533D33",
"S  c #6C2925",
"D  c #782622",
"F  c #683A26",
"G  c #763722",
"H  c #703833",
"J  c #6C421B",
"K  c #7A461B",
"L  c #544331",
"P  c #594537",
"I  c #6A4528",
"U  c #784826",
"Y  c #79512C",
"T  c #6A4836",
"R  c #764834",
"E  c #765439",
"W  c #1C2F46",
"Q  c #26364B",
"!  c #353749",
"~  c #273C56",
"^  c #563C4B",
"/  c #28425C",
"(  c #37455A",
")  c #2D4A69",
"_  c #344B6A",
"`  c #39506C",
"'  c #39577A",
"]  c #564C4C",
"[  c #685748",
"{  c #725947",
"}  c #716250",
"|  c #7A6957",
" . c #465771",
".. c #644F67",
"X. c #655366",
"o. c #5F6578",
"O. c #786B6D",
"+. c #707171",
"@. c #7F7F7F",
"#. c #83251C",
"$. c #88281A",
"%. c #96271D",
"&. c #922A1D",
"*. c #87351B",
"=. c #913815",
"-. c #832522",
";. c #862720",
":. c #982D23",
">. c #883A23",
",. c #963525",
"<. c #A93C27",
"1. c #AC3B2C",
"2. c #B3392B",
"3. c #B43829",
"4. c #AB3B31",
"5. c #B13A31",
"6. c #88461A",
"7. c #94451C",
"8. c #995B1D",
"9. c #9D6419",
"0. c #844B2B",
"q. c #884A29",
"w. c #924523",
"e. c #944A27",
"r. c #895629",
"t. c #985827",
"y. c #9C5D24",
"u. c #94522A",
"i. c #9C5C2B",
"p. c #8B4B32",
"a. c #885835",
"s. c #985A35",
"d. c #A44726",
"f. c #A45A29",
"g. c #B55526",
"h. c #A25835",
"j. c #9A6129",
"k. c #996636",
"l. c #A96726",
"z. c #A5642A",
"x. c #AB6C2B",
"c. c #B16D2F",
"v. c #B6762A",
"b. c #B3722C",
"n. c #A86A34",
"m. c #AB7235",
"M. c #B87937",
"N. c #C37B39",
"B. c #8D4243",
"V. c #914342",
"C. c #8A5544",
"Z. c #975E44",
"A. c #976447",
"S. c #96674F",
"D. c #826C58",
"F. c #86745D",
"G. c #A56545",
"H. c #B06D4D",
"J. c #AC7746",
"K. c #B87647",
"L. c #AA7859",
"P. c #B77556",
"I. c #877764",
"U. c #8B7A63",
"Y. c #927E67",
"T. c #B07B65",
"R. c #C77D47",
"E. c #C77C55",
"W. c #BB8138",
"Q. c #CA872F",
"!. c #C28335",
"~. c #C88936",
"^. c #CC8C34",
"/. c #C4843B",
"(. c #C68A3B",
"). c #CB8B3B",
"_. c #D18A39",
"`. c #CB9136",
"'. c #CC923A",
"]. c #CF983B",
"[. c #D69A3C",
"{. c #B98546",
"}. c #BC8259",
"|. c #96846C",
" X c #9B8B74",
".X c #9F937A",
"XX c #A7977C",
"oX c #C38342",
"OX c #C88743",
"+X c #CB8A43",
"@X c #D28443",
"#X c #D89D44",
"$X c #D48D59",
"%X c #D6A444",
"&X c #DBA445",
"*X c #DEA945",
"=X c #DDA54A",
"-X c #DDA94B",
";X c #E1A848",
":X c #E2A94B",
">X c #CC8966",
",X c #D68D66",
"<X c #D5926C",
"1X c #E09369",
"2X c #395C87",
"3X c #3C5E93",
"4X c #475785",
"5X c #5C738F",
"6X c #6A788F",
"7X c #6D819C",
"8X c #6581A1",
"9X c #998D87",
"0X c #AE9D82",
"qX c #A59596",
"wX c #B4A386",
"eX c #B4A589",
"rX c #BCAB8D",
"tX c #9BA5BC",
"yX c #C1AE8F",
"uX c #C3B393",
"iX c #C9B797",
"pX c #CDBC9A",
"aX c #D0BF9D",
"sX c #D2C19F",
"dX c #D6C5A1",
"fX c #D7C6A2",
"gX c #9DADC2",
"hX c #A3B0C6",
/* pixels */
"fXfXfXfXfXfXfXfXfXfXfXfXfXfXfXfXfXfXfXfXfXsXpXiXuXuXeX0X0XXXXXXXXXwXrXrXuXuXuXiXpXpXfXfXfXfXfXfXfXfXfXfXfXfXfXfXfXfXfXfXfXfXfXfX",
"fXfXfXfXfXfXfXfXfXfXfXfXfXfXfXfXfXfXfXfXiXI.P A V V N 6 6 1 1 1 < 1 1 N V V A L P [ 0XfXfXfXfXfXfXfXfXfXfXfXfXfXfXfXfXfXfXfXfXfX",
"fXfXfXfXfXfXfXfXfXfXfXfXfXfXfXfXfXfXfXrX| N 1 q q q q p p p p p p p p p p * 9 9 * 1 [ XXuXsXfXfXfXfXfXfXfXfXfXfXfXfXfXfXfXfXfXfX",
"fXfXfXfXfXfXfXfXfXfXfXfXfXfXfXfXfXfXwX{ h I Y Y Y K 0.k.k.k.n.n.n.n.n.k.J n n n F F g C L [ .XfXfXfXfXfXfXfXfXfXfXfXfXfXfXfXfXfX",
"fXfXfXfXfXfXfXfXfXfXfXfXfXfXfXfXfXuXD.p a k.j.y.8.8.9.W.(.(.).(.(.OXOXM.6.6.6.K U U a 8 * * V 0XfXfXfXfXfXfXfXfXfXfXfXfXfXfXfXfX",
"fXfXfXfXfXfXfXfX@.@.@.fXfXfXfXfXyXD.T I K i.z.c.v.M.v.!.).^.^.^.^.^.).~.b.x.x.m.t.q.K n n j f C F.fXfXfXfXfXfXfXfXfXfXfXfXfXfXfX",
"fXfXfXfXfXfXfX@.@.@.@.@.fXfXfXuXD.h F s.i.z.x./.).).^.^.^.^.^.^.^.^.^.^.).).+X+Xl.y.t.i.r.U F 9 d XXaXfXfXfXfXfXfXfXfXfXfXfXfXfX",
"fXfXfXfXfXfXfXfXfXfXfXfXfXfXrX| T I q.i.z.M.N.~._.^.^.[.#X#X#X#X[.[.[.[.^.^.).).M.M.z.y.t.u.0.n B A U.pXfXfXfXfXfXfXfXfXfXfXfXfX",
"fXfXfXfXfXfXfXfXfXfXfXfXfXfXD., I k.t.8.x.+X).^.^.^.`.%X-X-X-X-X-X;X:X%X`.~.~.~.).~.x.8.y.i.u.0.F : L rXfXfXfXfXfXfXfXfXfXfXfXfX",
"fXfXfXfXfXfXfXfXfXfXfXfXfXpX[ & J j.x.b.v.).^.^.^.].].%X-X-X-X-X*X&X-X%X#X].`.^.^.~.v.b.z.y.t.u.U 9 A wXfXfXfXfXfXfXfXfXfXfXfXfX",
"fXfXfXfXfXfXfXfXfXfXfXfXfXXXC 8 K j.b.).(.^.^.^.`.&X*X-X-X-X*X*X*X-X-X-X=X#X`.^.^.^.(.+Xb.8.y.s.0.8 N  XfXfXfXfXfXfXfXfXfXfXfXfX",
"fXfXfXfXfXfXfXfXfXfXfXfXuXD.B 0 K j.b.~.(.^.^.^.^.:X:X-X-X*X*X*X*X&X=X-X:X&X^.^.^.).(.+Xc.y.y.i.0.8 d [  XaXfXfXfXfXfXfXfXfXfXfX",
"fXfXfXfXfXfXfXfXfXfXfXpX| N f l q.y.b.).^.~.^.^.^.:X:X-X:X:X;X;X;X;X:X:X=X#X`.^.^.~.(.+Xc.8.j.j.0.8 * 1 V XXfXfXfXfXfXfXfXfXfXfX",
"fXfXfXfXfXfXfXfXfXfXuXI.C f l l 6.f.b.(.(.(.^.`.'.=X=X:X:X:X;X;X;X*X&X:X:X#X'.^.Q.^.).+Xm.y.y.i.q.0 8 8 d E |.sXfXfXfXfXfXfXfXfX",
"fXfXfXfXfXfXfXfXfXrX{ T R 0.S l 7.z.c.OX~.^.^.^.~.^.'.#X:X:X;X*X*X*X:X&X'.~.^.^.^.^.(.+Xm.y.i.s.p.t l Y E h < U.fXfXfXfXfXfXfXfX",
"fXfXfXfXfXfXfXfXfXwXV p Y 0.c y >.u.n.N.N.).^.^.^.~.`.#X=X%X%X%X%X&X=X#X(.^.^.^.^.^.!.W.x.j.t.u.q.l l 0.a.h , | fXfXfXfXfXfXfXfX",
"fXfXfXfXfXfXfXfXfX0XV p 0.u.b y z b w.z.b.).^.~.^.^.^.`.`.`.`.`.`.`.'.'.^.^.).^.^.~.b.l.j.y.e.m b y z p.a.s : } fXfXfXfXfXfXfXfX",
"fXfXfXfXfXfXfXfXfX0Xd p 0.u.b y c b >.t.l./.~.~.^.^.^.^.^.^.^.^.^.^.~.^.).).)._.~.!.b.f.y.f.e.b c y z e.s.j : } fXfXfXfXfXfXfXfX",
"fXfXfXfXfXfXfXfXfX0Xd p q.u.x i v v >.i.y.l.x.!.).).^.^.^.^.^.^.^.^.^.).~.(.)./.b.x.z.y.f.i.w.b D i z e.u.s d | fXfXfXfXfXfXfXfX",
"fXfXfXfXfXfXfXfXfXwXd p 0.u.x i c v >.s.t.t.z.oXOX~.~.).).~.~.^.(.~.^.).~././.OXl.y.y.i.s.u.e.b c z x e.s.s : | fXfXfXfXfXfXfXfX",
"fXfXfXfXfXfXfXfXfXrXd p r.i.w.>.#.b b *.>.w.e.n.c.x.b.!.(.).(.(.(.).).!.b.x.x.x.j.t.i.s.q.m G z b >.w.t.s.s : D.fXfXfXfXfXfXfXfX",
"fXfXfXfXfXfXfXfXfXrXd p r.i.i.f.*.b x z *.>.>.d.f.f.f.N.@X@X@X@X@X_.@XN.f.f.f.f.i.s.h.s.>.z c y b h.f.y.r.s < F.fXfXfXfXfXfXfXfX",
"fXfXfXfXfXfXfXfXfXuXN p r.k.c.c.e.>.>.x #.#.$.*.,.d.d.g.g.g.g.g.g.g.g.g.d.d.=.*.*.*.*.>.x k c G *.f.y.y.r.s , U.fXfXfXfXfXfXfXfX",
"fXfXfXfXfXfXfXfXfXaXV d Y k.W.+Xn.f.w.x v z i i $.<.1.<.<.3.3.3.<.<.<.d.<.<.&.$.$.#.#.x z t b e.e.f.y.t.a.h d  XfXfXfXfXfXfXfXfX",
"fXfXfXfX@.@.fXfXfXfXXXT F U M.~.M.c.t.w.>.z v v #.,.,.:.:.%.:.<.:.:.:.:.:.:.$.#.v v v z b >.w.h.f.8.t.K I T Y.uXfXfXfXfXfXfXfXfX",
"fXfXfX@.@.@.@.fXfXfXfXXXB a m.(.+X/.b.f.e.x b v v v #.#.#.#.#.$.#.;.#.#.;.;.-.-.i y y k >.s.n.M.M.j.r.a B |.fXfXfXfXfXfXfXfXfXfX",
"fXfXfXfXfXfXfXfXfXfXfXiXP : Y r.M.OXN.c.z.e.w.e.p.#.#.-.;.#.#.#.#.$.;.-.-.-.D D v b x k e.m.b.M.m.K I { U.iXfXfXfXfXfXfXfXfXfXfX",
"fXfXfXfXfXfXfXfXfXfXfXpX] % & & s.OX/.+XOXN.N.K.G.*.$.#.#.b #.$.$.$.$.#.-.D v t b >.6.6.z.oX/.oXk.& C XXfXfXfXfXfXfXfXfXfXfXfXfX",
"fXfXfXfXfXfXfXfXfXfXfXpX} @ = , E J.J.M.M.M.M.M.M.7.7.7.7.w.w.7.7.7.7.7.7.6.*.6.7.e.7.8.z.m.n.k.Y & T rXfXfXfXfXfXfXfXfXfXfXfXfX",
"fXfXfXfXfXfXfXfXfXfXfXfXI.+ @ % , p J r.x./.(.(.+X!.N.N.N.N.R.R.R.R.R././././.N.oXoXoXK.m.t.K a p % | pXfXfXfXfXfXfXfXfXfXfXfXfX",
"fXfXfXfXfXfXfXfXfXfXfXfXrXU.} P = = C Y j.J.M.W.!.~.Q._._.).(.^.(.(.).(.(.~.!.!.M.M.M.J.k.Y I < ; [ 0XfXfXfXfXfXfXfXfXfXfXfXfXfX",
"fXfXfXfXfXfXfXfXfXfXfXfXfXfXsXuX[ + @ = = d h J K j.l.M.).~.~.^.^._.^.).).N.x.j.J a p , , = % % [ pXfXfXfXfXfXfXfXfXfXfXfXfXfXfX",
"fXfXfXfXfXfXfXfXfXfXfXfXfXfXfXfXXX7 # # # # > d j a.s.J.}.{.{.{.{.{.{.{.{.J.a.a.h * = + O # - Z 0XfXfXfXfXfXfXfXfXfXfXfXfXfXfXfX",
"fXfXfXfXfXfXfXfXfXfXfXfXfXfXfXfXsXeX| 2 # # - = : d d V V V g g g g g g C V < 1 ; $ = # # - I.sXfXfXfXfXfXfXfXfXfXfXfXfXfXfXfXfX",
"fXfXfXfXfXfXfXfXfXfXfXfXfXfXfXfXfXfX.XZ # # - % X X X     X X X % X . . X X . . X X @ # @ L XXfXfXfXfXfXfXfXfXfXfXfXfXfXfXfXfXfX",
"fXfXfXfXfXfXfXfXfXfXfXfXfXfXfXfXfXfXpXXX] @ - = > @ + + @ @   = - # O O + + O + - - @ . ] XXpXfXfXfXfXfXfXfXfXfXfXfXfXfXfXfXfXfX",
"fXfXfXfXfXfXfXfXfXfXfXfXfXfXfXfXfXfXfXfX[   % > > $ @ + + o o # 3 2 O O @ o o   > > @ + | fXfXfXfXfXfXfXfXfXfXfXfXfXfXfXfXfXfXfX",
"fXfXfXfXfXfXfXfXfXfXfXfXfXfXfXfXfXfXrX| 6 % ; w e 8 ; ; > > > - 3 # O @ > ; ; ; M M > = Z I.rXfXfXfXfXfXfXfXfXfXfXfXfXfXfXfXfXfX",
"fXfXfXfXfXfXfXfXfXfXfXfXfXfX@.@.fXpXI.6 , * w S D y u l e B B : $ @ . % w e r r l S e : : N } uXfXfXfXfXfXfXfXfXfXfXfXfXfXfXfXfX",
"fXfXfXfXfXfXfXfXfXfXfXfXfX@.@.@.@.|.{ T F 8 e D -.i i c c c l r e w w e u y c i v c e 8 j R { U.wXfXfXfXfXfXfXfX@.fXfXfXfXfXfXfX",
"fXfXfXfXfXfXfXfXfXfXfXfXfXfXfXfXXXd R L.s.0 r D -.#.#.#.#.#.#.v v -.v v #.#.-.#.#.D r 8 U H.C.d { sXfXfXfXfXfX@.@.@.fXfXfXfXfXfX",
"fXfXfXfXfXfXfXfXfXfXfXfXfXfXfXfXU.* R P.G.0 r D #.:.:.&.&.&.%.&.&.&.&.&.&.&.:.:.#.v r 8 p.P.Z.p P uXfXfXfXfXfXfXfXfXfXfXfXfXfXfX",
"fXfXfXfXfXfXfXfXfXfXfXfXfXfXfXfX| 8 a.>XH.r u D $.1.4.1.1.3.3.2.2.1.1.1.1.1.4.4.%.v r 8 s.<XG.p L eXfXfXfXfXfXfXfXfXfXfXfXfXfXfX",
"fXfXfXfXfXfXfXfXfXfXfXfXfXfXfX0XT n A.<XP.r u v %.5.2.2.2.3.3.3.3.3.2.2.3.2.4.5.%.#.u 0 s.<XH.G I |.rXfXfXfXfXfXfXfXfXfXfXfXfXfX",
"fXfXfXfXfXfXfXfXfXfXfXfXfXfXrXC C.>X>X<XP.l c -.%.3.2.2.2.2.3.3.3.3.3.3.3.3.1.1.%.#.l r s.<X$X>XA.g } uXfXfXfXfXfXfXfXfXfXfXfXfX",
"fXfXfXfXfXfXfXfX@.fXfXfXfXfXU.* A.<X,X<XH.l l v %.2.2.2.3.3.<.1.<.3.2.2.3.1.1.1.&.v l r s.,X,X>XH.* L eXfXfXfXfXfXfXfXfXfXfXfXfX",
"fXfXfXfXfXfXfX@.@.@.fXfXfXfXF.9 A.<X$XE.G.8 r >.,.4.5.2.2.2.3.1.2.2.2.3.1.<.&.$.#.c r 8 q.E.E.,XG.8 P rXfXfXfXfXfXfXfXfXfXfXfXfX",
"fXfXfXfXfXfXfXfXfXfXfXfXfXfXF.9 Z.>XE.E.n.8 w H H V.V.V.V.V.V.B.V.V.B.B.V.B.H S S S w 8 q.K.E.>XG.9 P rXfXfXfXfXfXfXfXfXfXfXfXfX",
"fXfXfXfXfXfXfXfXfXfXfXfXfXfXI.* F 0.h.E.G.8 : N Z ] ] ..................X...^ ^ Z V N q 0.P.G.p.F 9 P uXfXfXfXfXfXfXfXfXfXfXfXfX",
"fXfXfXfXfXfXfXfXfXfXfXfXfXfX0Xd d f p.P.Z.: 3 7 ! ( _  .4X4X4X4X4X4X4X4X4X ._ ! 7 7 5 ; R P.Z.n f d { uXfXfXfXfXfXfXfXfXfXfXfXfX",
"fXfXfXfXfXfXfXfXfXfXfXfXfXfXfXaXY.d j G F > 7 Q ~ ' 2X2X3X3X3X3X3X3X3X3X3X3X2X` ~ Q 7 3 h I j d V  XrXfXfXfXfXfXfXfXfXfXfXfXfXfX",
"fXfXfXfXfXfXfXfXfXfXfXfXfXfXfXfXyXP d d d 3 4 ~ / ' 2X2X2X2X2X2X' ' 2X2X2X2X2X2X_ Q 4 5 < p d d { uXfXfXfXfXfXfXfXfXfXfXfXfXfXfX",
"fXfXfXfXfXfXfXfXfXfXfXfXfXfXfXfXsXrXXX X} 7 4 ~ / _ ) ) ) ) ) / ~ / ) ) ) ) _ ) ) ~ 4 4 ] | F.|.0XfXfXfXfXfXfXfXfXfXfXfXfXfXfXfX",
"fXfXfXfXfXfXfXfXfXfXfXfXfXfXfXfXfXfXfXsXeX] 4 Q ~ ~ / ~ ~ ~ W W 4 4 W Q ~ ~ ~ ~ ~ Q 4 4 O.uXpXsXfXfXfXfXfXfXfXfXfXfXfXfXfXfXfXfX",
"fXfXfXfXfXfXfXfXfXfXfXfXfXfXfXfXfXfXfXfXuX+. .5X7X8X8X5X5X .` / 4 Q `  .5X5X5X5X5X5X .( 9XfXfXfXfXfXfXfXfXfXfXfXfXfXfXfXfXfXfXfX",
"fXfXfXfXfXfXfXfXfXfXfXfXfXfXfXfXfXfXfXfXsXo.6XtXhXhXhXtXtX7X5X .4 ( 5X6XtXhXgXhXhXhX6Xo.9XpXfXfXfXfXfXfXfXfXfXfXfXfXfXfXfXfXfXfX",
"fXfXfXfXfXfXfXfXfXfXfXfXfXfXfXfXfXfXfXfXuX] X.qXqXqXqXqXqXO.] ] 7 ! X.X.qXqXqXqX9X9XO.]  XfXfXfXfXfXfXfXfXfXfXfX@.@.fXfXfXfXfXfX",
"fXfXfXfXfXfXfXfXfX@.fXfXfXfXfXfXfXfXfXfX0XV F S.S.L.L.T.T.T N P I.] V T T.T.L.L.A.C.H V I.fXfXfXfXfXfXfXfXfXfX@.@.@.@.fXfXfXfXfX",
"fXfXfXfXfXfXfXfX@.@.@.fXfXfXfXfXfXfXfXfXuXC G G.K.R.R.R.E.0.d P rX} B G P.E.R.R.c.h.G f Y.fXfXfXfXfXfXfXfXfXfXfXfXfXfXfXfXfXfXfX",
"fXfXfXfXfXfXfXfXfXfXfXfXfXfXfXfXfXfXfXfXfXF n E.$X1X1X1X1X0.d P eX} d G >X1X,X$XE.H.G 9  XfXfXfXfXfXfXfXfXfXfXfXfXfXfXfXfXfXfXfX",
"fXfXfXfXfXfXfXfXfXfXfXfXfXfXfXfXfXfXfXfXfXA F H.P.}.}.>X}.R d P rX| N F L.}.}.}.H.Z.F q XXfXfXfXfXfX@.@.fXfXfXfXfXfXfXfXfXfXfXfX",
"fXfXfXfXfXfXfXfXfXfXfXfXfXfXfXfXfXfXfXfXfXA q f j j j j C d : [ uX| 1 q B j j j f f q > XXfXfXfXfX@.@.@.@.fXfXfXfXfXfXfXfXfXfXfX",
"fXfXfXfXfXfXfXfXfXfXfXfXfXfXfXfXfXfXfXfXfX} V 1 1 ; ; < d N V | pXI.V 1 1 : , , ; 1 N A eXfXfXfXfXfXfXfXfXfXfXfXfXfXfXfXfXfXfXfX",
"fXfXfXfXfXfXfXfXfXfXfXfXfXfXfXfXfXfXfXfXfXpX0X|.D.[ [ | I.U.Y.eXfXuXU.| D.| | | I.|. XwXfXfXfXfXfXfXfXfXfXfXfXfXfXfXfXfXfXfXfXfX"
};
