/* XPM */
static char *result[] = {
/* columns rows colors chars-per-pixel */
"64 64 249 2 ",
"   c #191309",
".  c #1B120C",
"X  c #0D1518",
"o  c #141514",
"O  c #1B1413",
"+  c #151619",
"@  c #191718",
"#  c #13191A",
"$  c #1A1A1B",
"%  c #270D05",
"&  c #2B1A06",
"*  c #22140C",
"=  c #281608",
"-  c #341A09",
";  c #3D1D0C",
":  c #241915",
">  c #381C12",
",  c #28231A",
"<  c #3F2A17",
"1  c #3A251A",
"2  c #1B1C21",
"3  c #251A21",
"4  c #1C2731",
"5  c #272528",
"6  c #372925",
"7  c #39332B",
"8  c #282B34",
"9  c #441C0D",
"0  c #4A1909",
"q  c #53180A",
"w  c #481C14",
"e  c #691C0C",
"r  c #6D1D12",
"t  c #661E18",
"y  c #751D16",
"u  c #45230C",
"i  c #552A08",
"p  c #5D350D",
"a  c #4D2515",
"s  c #472718",
"d  c #572915",
"f  c #49321C",
"g  c #593719",
"h  c #7B230C",
"j  c #662618",
"k  c #7C2A15",
"l  c #792519",
"z  c #673819",
"x  c #703013",
"c  c #492A22",
"v  c #493627",
"b  c #573727",
"n  c #56362B",
"m  c #483A36",
"M  c #6D2C20",
"N  c #792722",
"B  c #653726",
"V  c #783725",
"C  c #5B401C",
"Z  c #6A451A",
"A  c #74471B",
"S  c #7D5216",
"D  c #58462B",
"F  c #554737",
"G  c #684528",
"H  c #764626",
"J  c #734A2B",
"K  c #7A5127",
"L  c #684735",
"P  c #6C4B34",
"I  c #764C34",
"U  c #6D5238",
"Y  c #795639",
"T  c #243342",
"R  c #3D4B60",
"E  c #514C4D",
"W  c #665943",
"Q  c #7A5844",
"!  c #665A59",
"~  c #73664C",
"^  c #565C72",
"/  c #79777B",
"(  c #84320C",
")  c #852717",
"_  c #8C2A1B",
"`  c #952A1C",
"'  c #89361B",
"]  c #933619",
"[  c #882722",
"{  c #883924",
"}  c #973826",
"|  c #96352B",
" . c #A12F26",
".. c #A33A24",
"X. c #A73826",
"o. c #AB3B2B",
"O. c #B33829",
"+. c #AB3A31",
"@. c #8E4D1B",
"#. c #9C5E1D",
"$. c #A8531E",
"%. c #A6661F",
"&. c #854527",
"*. c #974828",
"=. c #88552A",
"-. c #9D5D25",
";. c #95582A",
":. c #9C5D2A",
">. c #8C4B34",
",. c #855937",
"<. c #965A32",
"1. c #AC4824",
"2. c #B44727",
"3. c #A25D26",
"4. c #A45837",
"5. c #B25334",
"6. c #8F622E",
"7. c #9C6125",
"8. c #99632C",
"9. c #8A673A",
"0. c #966436",
"q. c #A86729",
"w. c #B46B2D",
"e. c #AD712C",
"r. c #B6732C",
"t. c #AD6537",
"y. c #B86938",
"u. c #AA743D",
"i. c #B97937",
"p. c #C05E2A",
"a. c #CC7539",
"s. c #C57939",
"d. c #875B44",
"f. c #975C43",
"g. c #AE5841",
"h. c #886648",
"j. c #976347",
"k. c #99754D",
"l. c #8B6E54",
"z. c #966953",
"x. c #977957",
"c. c #A96746",
"v. c #B76546",
"b. c #A77A48",
"n. c #B97748",
"m. c #A86F54",
"M. c #AA7757",
"N. c #B67856",
"B. c #8F7774",
"V. c #AA7C61",
"C. c #C05F42",
"Z. c #CD7347",
"A. c #C6764B",
"S. c #C87A53",
"D. c #BC8539",
"F. c #C7862F",
"G. c #C28435",
"H. c #C68934",
"J. c #CC8B34",
"K. c #C4843B",
"L. c #CA843B",
"P. c #C48A3C",
"I. c #CC8B3A",
"U. c #D1883A",
"Y. c #CC9235",
"T. c #D3973B",
"R. c #D9A13D",
"E. c #97825E",
"W. c #BA8747",
"Q. c #A6845B",
"!. c #B28A5E",
"~. c #A98A66",
"^. c #B98968",
"/. c #AD9167",
"(. c #B29468",
"). c #BC9C6C",
"_. c #B08F73",
"`. c #BCA271",
"'. c #C88843",
"]. c #CB8C4A",
"[. c #D99948",
"{. c #C88359",
"}. c #D6885B",
"|. c #D79859",
" X c #E2954E",
".X c #DBA14D",
"XX c #E2A241",
"oX c #C88B65",
"OX c #D88B64",
"+X c #CD946C",
"@X c #C59A6A",
"#X c #DD9364",
"$X c #D8956A",
"%X c #C89775",
"&X c #D59975",
"*X c #DC9D73",
"=X c #E39765",
"-X c #E39C6D",
";X c #E39D72",
":X c #E69D76",
">X c #DAA16D",
",X c #C3A472",
"<X c #C7A670",
"1X c #CAA776",
"2X c #CBAA76",
"3X c #DBA377",
"4X c #D4B27B",
"5X c #DBB67B",
"6X c #E3A169",
"7X c #E4A16C",
"8X c #E7B16E",
"9X c #F1B66C",
"0X c #E5A176",
"qX c #E5B877",
"wX c #EEBE7B",
"eX c #F2B670",
"rX c #F1BC75",
"tX c #F1BE7B",
"yX c #EEC27D",
"uX c #F3C077",
"iX c #F1C17D",
"pX c #576984",
"aX c #74798A",
"sX c #788899",
"dX c #728BAF",
"fX c #89878F",
"gX c #A99188",
"hX c #929FBA",
"jX c #96A7B6",
"kX c #C59B81",
"lX c #D2AE8C",
"zX c #D8B984",
"xX c #E4B185",
"cX c #DEC086",
"vX c #E6C487",
"bX c #EDC484",
"nX c #ECCB8D",
"mX c #F2C582",
"MX c #F3C986",
"NX c #F4CD8C",
"BX c #F5D08F",
"VX c #EECF90",
"CX c #F4CF90",
"ZX c #F6D593",
"AX c #D7C0AB",
"SX c #F2D3B7",
"DX c #9DADC5",
"FX c #A3B4C9",
"GX c #F3E3D9",
/* pixels */
"ZXZXZXZXZXZXZXZXSXZXZXZXZXZXZXZXZXZXZXZXZXZXZXZXZXZXZXZXBXBXBXZXZXZXZXZXZXBXZXZXZXZXZXZXZXZXZXZXZXZXZXZXZXZXZXZXZXZXZXZXZXZXZXZX",
"ZXZXZXZXZXZXZXZXZXZXZXZXZXZXZXZXZXZXZXZXZXZXcX2X2X,X,X,X,X,X).).).).).).`.<X,X`.zXVXZXZXZXZXZXZXZXZXZXZXZXZXZXZXZXZXZXZXZXZXZXZX",
"ZXZXZXZXZXZXZXZXZXZXZXZXZXZXZXZXZXZXZXZXVX`.Y u u ; ; u u 0 ; ; ; ; < < ; 1 ; > L `.nXZXZXZXZXZXZXZXZXZXZXZXZXZXZXZXZXZXZXZXZXZX",
"ZXZXZXZXZXZXZXZXZXZXZXZXZXZXZXZXZXnX4X`.E.Y 9.9.6.6.6.8.6.=.=.6.=.K =.=.=.A Z G G L k./.1XVXZXZXZXZXZXZXZXZXNXZXBXZXZXZXZXZXZXZX",
"ZXZXZXZXZXZXZXZXZXZXZXZXZXZXZXZXVX(.b d u K @X|..X.X.X[.P.D.D.D.P.P.P.'.i.8.6.6.,.g u i G (.BXZXZXZXZXZXZXNXNXBXNXBXBXBXZXZXZXZX",
"ZXZXZXZXZXZXZXZXZXZXZXZXZXZXZXZX%XL K K @.e..XXXR.R.R.T.Y.Y.H.Y.J.J.J.J.P.r.e.7.8.&.z A z Y /.ZXZXZXZXZXZXNXNXNXBXBXBXBXZXZXZXZX",
"ZXZXZXZXZXZXZXZXZXZXZXZXZXZXZX4Xs >.n.]..X.X[.XXXXR.Y.H.J.J.J.J.J.J.J.U.J.I.P.%.#.7.8.0.0.J f !.ZXZXZXZXNXNXNXNXNXBXZXZXZXZXZXZX",
"ZXZXZXZXZXZXZXZXZXZXZXZXZXZXBX(.9 H i.L.|..XXX[.[.T.Y.H.J.J.U.U.J.J.J.I.U.U.L.r.q.q.-.-.0.K d Y `.VXZXZXZXZXNXNXBXBXZXZXZXZXZXZX",
"ZXZXZXZXZXZXBXZXZXZXZXZXZXZXNX!.0 k 1.a. X XU.I.I.P.T.U.U.U.U.J.J.I.I.U.U.I.I.L.'.w.-.-.:.;.=.Y G ).ZXZXZXZXBXZXBXZXBXZXZXZXZXZX",
"ZXZXZXZXZXMXyXBXBXZXnXvXvX4X@X,.j { 1.w.a.a.p.p.L.].'.'.U.U.J.J.I.Y.I.J.J.P.I.].'.s.w.q.q.7.:.=.u h.ZXZXZXZXZXZXZXBXCXBXBXBXZXZX",
"ZXZXZXZXBXuXyXMX>XY D g g d d V V | +.1.2.1.1.$.Z.'.U.U.J.J.J.J.P.Y.I.H.J.J.J.L.P.P.K.e.#.7.:.>.0 9.bXNXBXZXZXZXZXBXBXBXBXCXBXZX",
"ZXZXZXBXiXMXyX8Xk.g i i i i p H *.} +.+.X...o.1.Z.Z.Z.U.a.F.F.U.I.I.I.P.H.F.G.U.L.G.s.e.#.#.;.=.u Y qXrXtXyXNXNXZXBXBXBXNXBXZXZX",
"ZXZXZXZXuXuX@XK J k.n.i.D.D.].].}.5._ _ _ ` X.O.2.2.1.o.1.$.p.'.I.I.G.L.G.%.q.r.K.q.7.:.:.:.;.=.u 9.8XeX9X9XrXrXmXNXMXNXBXZXZXZX",
"ZXZXZXZXBXyXk.u Z D.i.D.G.Y.[.[.[.w.] ] ] ] ..X.O.O.X...X.1.p.Z.a.a.Z.s.y.3.3.t.n.4.*.<.>.<.<.I 0 Y qXrXrXrX9XeXiXmXtXNXZXZXZXZX",
"ZXZXZXBXMXvXQ.f Z 6.q.D.D.G.D.H.I.i.y.s.p.w.( _ _ ` _ ) ..O.O.2.2.1.5.} } { _ { { { [ N N M V M 9 ,.qXyXrXrXrXrXmXmXmXNXNXBXZXZX",
"ZXZXZXBXBXNX<Xh.U Y ,.b.e.D.i.D.G.P.L.L.L.w.( ( ] ] ( ]  .X.O. .X.o.| N ) l ) l ) ) l l t l N M w I 5XiXtXmXiXmXNXNXNXNXNXNXNXNX",
"ZXZXZXZXZXZXZXvX/.v 1 a p =.7.D.H.F.P.P.'.D.D.D.s.Z.i.n.} ` _ _ ` [ [ l N [ l l ) y h y r r t t q w h.(.bXMXMXMXMXMXMXMXNXBXNXNX",
"ZXZXZXZXZXZXZXZXcX5 O % - P 9.W.D.D.W.W.W.D.H.D.L.].].A.@.h ( ) h k k k N l l k h h e r r r r e q 0 ; G yXMXMXMXMXNXNXBXBXBXBXZX",
"ZXZXZXZXZXZXZXZXZXVX/., , v C C C Z p C g S D.].'.P.P.Y.w.w.w.t.t.t.4.*.*.*.*.*.*.&.{ &.{ &.{ &.A H H G Q.5XMXMXNXBXBXBXBXBXZXBX",
"ZXZXZXZXZXZXZXZXZXZXvXW @ $ $ . *     = = p W.W.W.W.W.D.a.F.s.i.L.s.s.3.3.7.3.3.3.:.:.;.>.=.=.=.;.:.8.6.p Z zXNXBXBXVXZXBXZXZXZX",
"ZXZXZXZXZXZXZXZXZXZXVX~ + $ > E Q c * v Y ,.J P P G J Z 8.w.i.G.G.i.G.r.r.r.r.i.w.i.t.q.-.;.;.#.7.7.:.6.H J x.2XVXZXZXZXZXZXZXZX",
"ZXZXZXZXZXZXZXZXZXZXZXE.O O > z.^.G % L _.x.& . O :   & =.0.u.W.W.D.n.'.D.s.s.s.s.L.K.w.#.#.#.#.-.7.:.<.,.Q D h.cXZXZXZXZXZXZXZX",
"ZXZXZXZXZXZXZXZXZXZXZXcXx.6 > ~.%XL * Q %XV.&   O @ $ @ v b D G G A A 0.-.-.q.i.P.D.G.r.e.e.-.8.8.;.z z b n ~.4XnXBXZXZXZXZXZXZX",
"ZXZXZXZXZXZXZXZXZXZXVXVXlXD - ~.1XP * W kX~.%     * 5 5 $ *       % & B Z z A b.W.W.].'.'.n.8.<.j.,.a % % > ,XZXNXNXZXZXZXZXZXZX",
"ZXZXZXZXZXZXZXNXBXNXNXBXzXD - /.lXj.g Q x.l.F m f f , 5 3 @ + o o   : v b g B Y 9.9.h.9.9.9.J J P F Y ~.(.`.NXNXZXBXZXZXZXZXZXZX",
"ZXZXZXZXZXZXBXNXNXNXMXNXzXD - ~.:XoXQ.U - v lXlX~.z.b : 3 3 + + @ o O * = = & & = % & & & & = & = D `.nXNXCXNXBXZXBXZXZXZXZXZXZX",
"ZXZXZXZXZXBXBXBXMXNXNXMX4XL a V.3X$XoXY * m AXlXoX!.,.P n c 1 O o o : v n n n : . . O O o o o o o F 5XZXCXZXBXZXZXZXZXZXZXZXZXZX",
"ZXZXZXZXZXBXNXZXMXMXNXNX2XL z ^.3X*X&Xd.@ F GXSXlX&X+X+XM.h.F O X O s z.M.^.~.7 . o O O X o o @ # F zXCXZXZXZXZXZXZXZXZXZXZXZXZX",
"ZXZXZXZXZXZXZXZXBXBXBXvXk.G H oX:X0X*XQ : E GXSXxX3X0X>X{.N.P * + O a N.{.*X_.f . O . + # # # # # U cXZXZXZXZXZXZXZXZXZXZXZXZXZX",
"ZXZXZXZXZXZXZXZXBXZXVXx.b M.&X:X-X;X*Xh.= m GXSXxX*X-X0X;X&XY * O : b +X$X$X_.c . O O X X $ 5 5 @ ~ VXZXBXBXZXBXZXZXZXZXZXZXZXZX",
"ZXZXZXZXZXZXZXZXZXZXnXU d V.&X-X7X7X-Xj.f P SXSXxX:X;X7X;X&Xh.s f f H oX+X!.x.c O @ : + # # 5 7 W `.ZXZXNXNXBXNXZXBXZXZXZXZXZXZX",
"ZXZXZXZXZXZXZXZXZXZXBXU d m.+X-X-X6X7X+X^.@XxXxX:X:X-X7X6X>X+X^.!.N.N.+XN.G <   + 3 5 2 # o # E.VXZXZXBXZXNXNXBXBXBXZXZXZXZXZXZX",
"ZXZXZXZXZXZXZXZXZXZXCXQ.J j.N.$X#X=X=X6X3X3X&X0X0X:X7X6X=X*X*X&XOX}.oXN.z.1 . o # 2 4 2 @ 7 ~ cXZXZXBXNXBXMXMXBXBXBXBXBXZXZXZXZX",
"ZXZXZXZXZXZXZXBXNXZXNXvX@XI z c.W.A.S.}.#X7X7X0X:X:X-X-X7X;X+X{.A.S.g.j c O o X X # # #   l.5XVXZXZXZXBXBXNXZXBXBXZXZXZXZXZXZXZX",
"ZXZXZXZXZXZXNXmXMXmXiXNXbXk.d 9.M.n.v.}.=X6X0X*X:X:X*X-X7X-XOXA.N.A.f.- . o X X # # # , v <XuXyXNXBXBXBXBXZXZXZXBXZXZXZXZXZXZXZX",
"ZXZXZXZXZXZXMXmXtXrXiXuXtXbX@XJ j f.oX$X-X6X>X*X3X&X}.{.S.S.4.{ &.&.&.a 1 o o 7 F 7 8 !.yXyX9XuXyXiXyXMXZXBXZXBXMXZXBXZXZXZXZXZX",
"ZXZXZXZXNXiXuXuXeX9XeXeXeXmXrXk.f d.%X+X$X+X@X%X+XoX{.A.v.A.*.h ) y l d s * , E.1X~.W 5XMXiXuXrXuXuXuXMXZXMXZXNXMXZXBXZXZXZXZXZX",
"ZXZXZXZXNXMXiXuXtXtXmXuXmXmXuXwX^.Q Q ,.>.Y Y =.=.>.4.g.*.} } _ [ [ [ l d - < `.NXbXzXmXiXrXuXuXiXNXiXuXBXBXMXBXNXBXZXZXZXZXZXZX",
"ZXZXZXZXBXNXNXMXMXMXmXmXMXMXMXmXiX/.c > 9 ; ; 0 0 e *.5.l r ) |  . .` y j u D 2XNXnXMXmXmXiXxXiXNXuXiXiXiXMXBXBXBXBXZXZXZXZXZXZX",
"ZXZXZXZXZXZXBXBXZXBXNXNXmXNXNXMXMXMX2X~.z.n > u H &.| | l y { v.y.C.v.4.=.a D 5XMXmXmXiXmXMXNXCXBXMXBXNXBXBXBXBXZXBXZXZXZXZXZXZX",
"ZXZXZXZXNXZXZXBXBXZXBXBXBXBXBXNXBXBXBXBXVXk.> j m.v.` ) y r 4.OXOX}.OXS.t.d v 2XNXmXmXmXNXmXCXZXBXNXZXNXZXZXZXZXZXZXZXZXZXZXZXZX",
"ZXZXZXNXNXBXNXBXNXNXBXBXNXZXNXNXBXBXBXbX).h.j k 5.v...` l j <.OXOXOXOXA.c.j u h.2XNXNXNXNXCXCXZXZXZXZXZXZXZXZXZXZXZXZXZXZXZXZXZX",
"ZXZXZXZXNXBXBXCXNXNXNXNXNXNXNXNXBXBXNX2XL j >.| o.+.O.X.N t 4.OX#X#XOXZ.c.j w w U nXNXNXZXZXZXZXZXZXZXZXZXZXZXZXZXZXZXZXZXZXZXZX",
"ZXZXZXBXCXNXNXNXNXNXMXMXNXmXNXMXNXNXNX@Xn t | } X.O.O.+.y t g.OX}.=XOXA.v.x t w c vXBXZXZXZXZXZXZXZXZXZXZXZXZXBXZXZXZXZXZXZXZXZX",
"ZXZXBXBXCXNXCXNXNXBXNXNXMXmXMXNXNXNXZX@XB t | ` O.O.O.+.y t | Z.S.=X#XS.g.[ j w c nXZXZXZXZXZXZXZXZXZXZXZXNXNXZXBXBXZXZXZXZXZXZX",
"ZXZXBXZXBXZXBXBXNXNXNXNXMXMXNXBXNXZXNX1XB t |  .O.O.O.+.[ y <.S.}.=XOXA.v.V t w n ZXZXZXZXZXZXZXZXZXZXZXZXBXBXNXBXBXBXBXZXZXZXZX",
"ZXZXZXZXZXZXZXZXBXNXNXNXNXNXNXnXZXCXZX1Xn t +.X.O.O.+.+.) k y.=X=X-X#XS.v.V j q b ZXZXZXZXZXZXZXZXZXZXZXBXNXBXNXMXBXBXBXMXNXBXBX",
"ZXZXZXZXZXZXZXZXZXBXZXBXBXBXNXNXZXZXZX1Xb t *.X.o.o.X.X.{ ' C.=X:X;X$Xc.j.{ M w a ZXZXZXZXZXZXZXZXZXZXZXBXBXBXBXNXBXBXNXNXNXBXZX",
"ZXZXZXZXZXZXZXZXZXZXZXCXBXZXZXCXNXBXBX,Xb q k ) ....) ) C.S.S.:X:X*XoXx V V V w b ZXZXZXZXZXZXZXZXZXZXZXZXZXZXCXCXCXNXCXNXBXNXNX",
"ZXZXZXZXZXZXZXZXZXZXZXZXZXZXZXNXNXNXBX4Xn d ' @.$.*.) h S.S.:X:X;X*XoXz B B B L (.ZXZXZXMXBXZXZXZXZXZXZXZXZXZXZXZXZXZXZXBXBXBXBX",
"ZXZXZXZXZXZXZXZXBXBXNXBXNXZXZXNXNXBXZXbXP B b.n.u.t.H i N.OX#X0X;X*XoXB b w Q 1XNXNXNXmXiXNXNXNXBXBXZXZXZXZXZXZXZXZXZXZXZXZXZXZX",
"ZXZXZXZXZXZXZXZXNXBXBXNXBXZXNXNXBXNXNXBXQ.P ~.Q.x.z.L n m.oX+X+X&X&X^.L n 6 x.wXyXeXmXiXrXmXyXMXNXmXNXZXNXZXZXZXZXZXZXZXZXZXZXZX",
"ZXZXZXZXZXZXZXZXBXBXNXZXZXZXNXBXBXBXBXBXZXcXv D W ! E E L P K J J I B 6 5 5 E.wXwXwXiXwXtXxXuXiXmXiXmXmXmXZXMXNXZXZXZXZXZXZXZXZX",
"ZXZXZXZXZXZXZXZXZXBXZXZXBXZXBXZXBXBXBXBXNXnXF 8 R ^ pXpXE v v C n m m 8 8 4 Q.yXyXiXiXyXyXrXiXiXtXtXiXwXmXbXyXMXMXNXBXZXZXZXZXZX",
"ZXZXZXZXZXZXZXZXZXZXZXZXZXZXZXZXZXZXBXNXNXbXE T pXdXdXdXfXaX/ / aXaXaX^ R T ~.iXyXbXmXmXyXiXbXyXiXtXmXtXbXiXwXyXMXtXMXZXZXZXZXZX",
"ZXZXZXZXZXZXZXZXZXBXZXZXZXZXZXZXZXZXBXiXbXrXl.T sXjXDXFXDXFXDXjXjXhXhXaXpXE (.bXmXMXMXmXbXmXiXiXiXtXyXyXiXiXwXiXtXmXBXMXZXZXZXZX",
"ZXZXZXZXZXZXZXZXBXNXZXNXNXZXZXZXZXZXMXbXiXrXM.7 ! ^ / B.gXgXgXgXV.gXB.! ! _.yXbXMXyXMXyXyXiXwXwXwXwXwXwXiXuXxXmXMXmXNXBXBXZXZXZX",
"ZXZXZXZXZXZXZXZXNXNXZXNXNXZXNXZXZXBXbXMXiXqXP n w w c B z.N.n.A.c.c.>.b d.xXnXnXMXyXMXmXyXbXMXbXmXMXmXiXNXMXMXmXiXMXMXiXZXZXZXZX",
"ZXZXZXZXZXZXZXBXZXNXNXNXNXBXZXZXZXZXNXMXbX!.H H B B d d z.{.Z.Z.v.y.j.g M.NXNXNXNXVXnXMXNXMXNXNXNXBXNXnXMXNXZXBXNXNXNXBXZXZXZXZX",
"ZXZXZXZXZXZXZXZXNXCXNXNXBXNXNXZXZXZXNXbXQ.K N.M.^.V.G p M.&X=X=X-X*XN.B E.ZXZXBXBXZXBXZXNXBXNXBXNXZXZXNXBXBXZXZXZXZXBXZXZXZXZXZX",
"ZXZXZXZXZXZXZXZXZXBXBXZXBXNXZXBXZXZXZXnXI z j.j.z.z.b s h.V.m.m.M.M.h.n x.ZXZXZXZXZXZXBXBXBXZXZXZXNXBXBXZXZXZXZXZXZXZXZXZXZXZXZX",
"ZXZXZXZXZXZXZXZXZXZXZXZXZXZXZXZXZXZXZXnXU w a a a s > - s a d d d a c < x.ZXZXZXZXZXZXZXZXZXZXZXZXZXZXZXZXZXZXZXZXZXZXZXZXZXZXZX",
"ZXZXZXZXZXZXZXZXZXZXZXZXZXZXZXZXZXZXZXZX2X~.x.h.Q U P U U U P L L Y h./.cXZXZXZXZXZXZXZXZXZXZXZXZXZXZXZXZXZXZXZXZXZXZXZXZXZXZXZX",
"ZXZXZXZXZXZXZXZXZXZXZXZXZXZXZXZXZXZXZXZXZXZXVXVXnXnXnXnXnXnXnXnXnXnXVXZXZXZXZXZXZXZXZXZXZXZXZXZXZXZXZXZXZXZXZXZXZXZXZXZXZXZXZXZX"
};
