/* XPM */
static char *result[] = {
/* columns rows colors chars-per-pixel */
"64 64 228 2 ",
"   c #202120",
".  c #202220",
"X  c #222220",
"o  c #222320",
"O  c #232321",
"+  c #272321",
"@  c #232420",
"#  c #222421",
"$  c #242420",
"%  c #242521",
"&  c #262421",
"*  c #272620",
"=  c #252523",
"-  c #242624",
";  c #262624",
":  c #292823",
">  c #2F2A22",
",  c #2E2B22",
"<  c #2E2A23",
"1  c #262B2D",
"2  c #2F2E28",
"3  c #302522",
"4  c #382722",
"5  c #3D2923",
"6  c #382C20",
"7  c #3B3022",
"8  c #383025",
"9  c #37342C",
"0  c #333331",
"q  c #363635",
"w  c #3F3931",
"e  c #32393D",
"r  c #353A3D",
"t  c #402821",
"y  c #422A23",
"u  c #482924",
"i  c #4B2A24",
"p  c #552B24",
"a  c #4C3325",
"s  c #483C24",
"d  c #4D3F26",
"f  c #403628",
"g  c #433A2B",
"h  c #40382E",
"j  c #5D3127",
"k  c #583C26",
"l  c #563529",
"z  c #423A30",
"x  c #433C34",
"c  c #493F33",
"v  c #483F35",
"b  c #5E3D30",
"n  c #642F27",
"m  c #702F26",
"M  c #6B3027",
"N  c #6F3329",
"B  c #673829",
"V  c #763128",
"C  c #7D3429",
"Z  c #723B2A",
"A  c #4E422D",
"S  c #5C4727",
"D  c #50402A",
"F  c #58412B",
"G  c #5A482E",
"H  c #464036",
"J  c #5D4535",
"K  c #53483B",
"L  c #5B4E3F",
"P  c #654021",
"I  c #644D29",
"U  c #654E28",
"Y  c #764926",
"T  c #70432B",
"R  c #685129",
"E  c #6A5029",
"W  c #6F552B",
"Q  c #745527",
"!  c #7B5729",
"~  c #7B5D2C",
"^  c #6A4F3B",
"/  c #6F4E3C",
"(  c #2F404F",
")  c #33475A",
"_  c #374F67",
"`  c #3A4E61",
"'  c #385673",
"]  c #3D5E7F",
"[  c #464A49",
"{  c #5E5244",
"}  c #625546",
"|  c #645545",
" . c #675849",
".. c #745943",
"X. c #715E4C",
"o. c #7A634D",
"O. c #63625F",
"+. c #776450",
"@. c #7A6752",
"#. c #43596D",
"$. c #43627F",
"%. c #6C6B69",
"&. c #757677",
"*. c #813127",
"=. c #87372B",
"-. c #8D3328",
";. c #8C392C",
":. c #993629",
">. c #933A2C",
",. c #993B2D",
"<. c #A0382A",
"1. c #A53C2D",
"2. c #AD3F2E",
"3. c #8B5C24",
"4. c #825E29",
"5. c #9A4930",
"6. c #8C5E39",
"7. c #B2402F",
"8. c #B85F2E",
"9. c #B64130",
"0. c #B74230",
"q. c #B94330",
"w. c #BA4230",
"e. c #BB4730",
"r. c #BE4C31",
"t. c #8E6126",
"y. c #83622E",
"u. c #85632D",
"i. c #8B672E",
"p. c #8C682E",
"a. c #8F692E",
"s. c #9A6728",
"d. c #9B702E",
"f. c #946D30",
"g. c #9E7330",
"h. c #AD762B",
"j. c #B97A29",
"k. c #A37632",
"l. c #AF7D32",
"z. c #C45C32",
"x. c #C47B2F",
"c. c #C76133",
"v. c #CC6C34",
"b. c #D27935",
"n. c #805F46",
"m. c #83644B",
"M. c #87674E",
"N. c #94674C",
"B. c #816C56",
"V. c #8B7057",
"C. c #9A7254",
"Z. c #97795E",
"A. c #A97653",
"S. c #8C7660",
"D. c #977C61",
"F. c #9A7F64",
"G. c #B68032",
"H. c #BB8534",
"J. c #BD8735",
"K. c #BF8835",
"L. c #CA852D",
"P. c #C48A35",
"I. c #CA8E36",
"U. c #D68137",
"Y. c #DA8B35",
"T. c #DD8F38",
"R. c #CF9137",
"E. c #D39437",
"W. c #D79638",
"Q. c #DC9939",
"!. c #E09536",
"~. c #E19C3A",
"^. c #E39D3A",
"/. c #E69D38",
"(. c #E49E3A",
"). c #E59E3A",
"_. c #E59F3B",
"`. c #E69F3A",
"'. c #E9A13B",
"]. c #AE805C",
"[. c #B5805B",
"{. c #9E8165",
"}. c #A78163",
"|. c #A38568",
" X c #A5866A",
".X c #A8896C",
"XX c #AF8D6D",
"oX c #B98561",
"OX c #BE906C",
"+X c #B49272",
"@X c #BA9574",
"#X c #BF9A77",
"$X c #C8926A",
"%X c #D29265",
"&X c #D99A6E",
"*X c #C69D79",
"=X c #D99C71",
"-X c #C9A07C",
";X c #DAA075",
":X c #DFA478",
">X c #D8A47D",
",X c #456A8E",
"<X c #4B7196",
"1X c #4E779E",
"2X c #537DA7",
"3X c #5680AB",
"4X c #858482",
"5X c #8A8B8C",
"6X c #9C9B9A",
"7X c #A2A1A0",
"8X c #ADACAA",
"9X c #B0AFAF",
"0X c #BBB0A7",
"qX c #B5B3B0",
"wX c #CFA680",
"eX c #D5AB85",
"rX c #DBAE86",
"tX c #E4AF84",
"yX c #E0B289",
"uX c #E4B58B",
"iX c #E6B68C",
"pX c #E7B78D",
"aX c #E8B88E",
"sX c #EABA8F",
"dX c #E4CAB3",
"fX c #D1CFCF",
"gX c #E0DBD9",
"hX c None",
/* pixels */
"hXhXhXhXhXhXhXhXhXhXhXhXhXhXhXhXhXhXhXhXhXhXhXhXhXhXhXhXhXhXhXhXhXhXhXhXhXhXhXhXhXhXhXhXhXhXhXhXhXhXhXhXhXhXhXhXhXhXhXhXhXhXhXhX",
"hXhXhXhXhXhXhXhXhXhXhXhXhXhXhXhXhXhXhXhXhXhXhXhXhXhXhXhXhXhXhXhXhXhXhXhXhXhXhXhXhXhXhXhXhXhXhXhXhXhXhXhXhXhXhXhXhXhXhXhXhXhXhXhX",
"hXhXhXhXhXhXhXhXhXhXhXhXhXhXhXhXhXhXhXhXhXhXhXhXhXhXhXhXhXhX, , , , , , , , , * hXhXhXhXhXhXhXhXhXhXhXhXhXhXhXhXhXhXhXhXhXhXhXhX",
"hXhXhXhXhXhXhXhXhXhXhXhXhXhXhXhXhXhXhXhXhXhXhXhXhXhXhXhX7 u.J.H.H.H.H.H.H.H.H.i.7 7 hXhXhXhXhXhXhXhXhXhXhXhXhXhXhXhXhXhXhXhXhXhX",
"hXhXhXhXhXhXhXhXhXhXhXhXhXhXhXhXhXhXhXhXhXhXhXhXhXhXc i.P.W.`.).).).).`._.).`.W.P.P.W g hXhXhXhXhXhXhXhXhXhXhXhXhXhXhXhXhXhXhXhX",
"hXhXhXhXhXhXhXhXhXhXhXhXhXhXhXhXhXhXhXhXhXhXhXhXhXi.W.Q.).(.^.^.^.^.^.^.^.^.^.^.).).Q.I.R hXhXhXhXhXhXhXhXhXhXhXhXhXhXhXhXhXhXhX",
"hXhXhXhXhXhXhXhXhXhXhXhXhXhXhXhXhXhXhXhXhXhXhXhXu.Q.(.(.^.^.^.^.^.^.^.^.(.^.^.^.^.(.(._.I.R hXhXhXhXhXhXhXhXhXhXhXhXhXhXhXhXhXhX",
"hXhXhXhXhXhXhXhXhXhXhXhXhXhXhXhXhXhXhXhXhXhXhXg R.^.^.^.(.(.(.^.^.^.^.(.^.^.^.(.(.(.(.^._.P.R hXhXhXhXhXhXhXhXhXhXhXhXhXhXhXhXhX",
"hXhXhXhXhXhXhXhXhXhXhXhXhXhXhXhXhXhXhXhXhXhX* g.~.(.^.(.(.(.^.^.^.^.^.(.^.^.^.(.(.(.(.^.(.`.d.$ hXhXhXhXhXhXhXhXhXhXhXhXhXhXhXhX",
"hXhXhXhXhXhXhXhXhXhXhXhXhXhXhXhXhXhXhXhXhXhX7 x.T.!.(.(.(.(.^.^.^.^.^.(.(.^.(.(.(.(.(.^.(.(.I.R hXhXhXhXhXhXhXhXhXhXhXhXhXhXhXhX",
"hXhXhXhXhXhXhXhXhXhXhXhXhXhXhXhXhXhXhXhXhXX ;.e.e.z.Y.T.Y.!._.(.(.(.(.(.(.(.(.(.(.(.(.^.(.(.'.p.hXhXhXhXhXhXhXhXhXhXhXhXhXhXhXhX",
"hXhXhXhXhXhXhXhXhXhXhXhXhXhXhXhXhXhXhXhXhX+ >.w.9.q.e.e.e.v.Y.Y.Y.T._._._._.(.(.(.(.(.(.(.(._.k.h hXhXhXhXhXhXhXhXhXhXhXhXhXhXhX",
"hXhXhXhXhXhXhXhXhXhXhXhXhXs U U U U U U U I Z =.9.q.w.w.0.q.e.e.q.z.U.U.U.U.^._._._.(.(.(.(.(.^.~ hXhXhXhXhXhXhXhXhXhXhXhXhXhXhX",
"hXhXhXhXhXhXhXhXhXhXhXhXhXR f.R.(.^.~.~.~.Q.p.E C C C ,.q.w.w.0.0.0.q.q.0.r.b.b.b.T._.(.(.(.(.`.~ hXhXhXhXhXhXhXhXhXhXhXhXhXhXhX",
"hXhXhXhXhXhXhXhXhXhXhXhXhXhX* W ! d.~.^.(.^.(.E.p.y.y.Y n n M 2.0.0.0.0.0.0.0.0.0.z.v.v.b.~.(._.~ hXhXhXhXhXhXhXhXhXhXhXhXhXhXhX",
"hXhXhXhXhXhXhXhXhXhXhXhXhXO - ;   8 E E E G.~.~.^.`.'.H.p.p.y.B j j ;.9.7.7.9.0.0.9.9.9.e.c.c.U.~ hXhXhXhXhXhXhXhXhXhXhXhXhXhXhX",
"hXhXhXhXhXhXhXhXhXhXhXhXhX& @ @ @ @       s S S ! R.W.W.(.'.~.G.l.l.! l l l B 2.2.2.0.q.w.0.9.r.Z hXhXhXhXhXhXhXhXhXhXhXhXhXhXhX",
"hXhXhXhXhXhXhXhXhXhXhXhXhXhXO = ; % @ @ @ : @   : D s s k.R.I.E.'.'.E.H.H.J.d.a a a =.1.1.2.q.w.M hXhXhXhXhXhXhXhXhXhXhXhXhXhXhX",
"hXhXhXhXhXhXhXhXhXhXhXhXhXhXhXhXhX# @ @ @ n.z @ J m.@   < 8 8 S H.K.K.Q.'.'.Q.K.J.J.Q k k B ,.,.p hXhXhXhXhXhXhXhXhXhXhXhXhXhXhX",
"hXhXhXhXhXhXhXhXhXhXhXhXhXhXhXhX= @ @ @ @ C.o.z $XOXv   z 2   % < < < ~ k.k.G._.'.'.Q.E.W.G.S S S 9 hXhXhXhXhXhXhXhXhXhXhXhXhXhX",
"hXhXhXhXhXhXhXhXhXhXhXhXhXhXhX= @ = + @ @ }.wX{ *X{.B.v Z.m.< @ @ @ @ @ % @ f f.f.f.I.'.`._.~.Q.Q.a.U * hXhXhXhXhXhXhXhXhXhXhXhX",
"hXhXhXhXhXhXhXhXhXhXhXhXhXhXo # . hXhX@ @ |.yXF. .v +XV. X>Xz   @ @ @ @ @ @ @ @ @ % S y.y.y.k.~.~.^.Q.f.W $ * hXhXhXhXhXhXhXhXhX",
"hXhXhXhXhXhXhXhXhXhXhXhXhXhXhXhXhXhXhX% % |.rXo.z XXaX*XwXuXF.2 % @ @ % @.V.2 @ @ @ @       8 I I l.~.^.R.p.p.A hXhXhXhXhXhXhXhX",
"hXhXhXhXhXhXhXhXhXhXhXhXhXhXhXhXhXhX. . - F.V.n.z  .D.uXsXsXwXK ..% : : K o.B.: @ @ @ @ @ @ @ & hXA G G G G G 4 hXhXhXhXhXhXhXhX",
"hXhXhXhXhXhXhXhXhXhXhXhXhXhXhXhXhXhXO hXhXZ.-XOX{ qX4XD.sXsX-XX.Z.@ X.{ m.OXXX: @ @ @ @ @ @ % o hXhXhXhXhXhXhXhXhXhXhXhXhXhXhXhX",
"hXhXhXhXhXhXhXhXhXhXhXhXhXhXhXhXhXhXhXhXhXx #X-X .gX7XZ.sXaXuXeX|.< D.B.V.;XXX: @ @ @ @ @ # X hXhXhXhXhXhXhXhXhXhXhXhXhXhXhXhXhX",
"hXhXhXhXhXhXhXhXhXhXhXhXhXhXhXhXhXhXhXhXhXO +XwXS.gXdXyXaXaXaXsX+XM.>XrX{ OX+X: @ @ @ @ @ o hXhXhXhXhXhXhXhXhXhXhXhXhXhXhXhXhXhX",
"hXhXhXhXhXhXhXhXhXhXhXhXhXhXhXhXhXhXhXhXhX} -XaXeX0XdXaXaXaXaXpXuXyXpX@XB.*XV.: @ @ @ # & - hXhXhXhXhXhXhXhXhXhXhXhXhXhXhXhXhXhX",
"hXhXhXhXhXhXhXhXhXhXhXhXhXhXhXhXhXhXhXhX} *XsXaXwX.XpXaXaXaXaXaXpXpXpX.X#XS.< @ @ @ % X hXhXhXhXhXhXhXhXhXhXhXhXhXhXhXhXhXhXhXhX",
"hXhXhXhXhXhXhXhXhXhXhXhXhXhXhXhXhXhXhXhXV.yXuXpXaXaXaXaXpXaXpXpXpXiXuXD.{ 8 n p @ i V y O O hXhXhXhXhXhXhXhXhXhXhXhXhXhXhXhXhXhX",
"hXhXhXhXhXhXhXhXhXhX. , , , & hXhXhXhXhXh K #XpXeXeXeXyXaXpXpXpXpXaXF.M.N.a -.-.=.*.<.,.;.;.N + + + & hXhXhXhXhXhXhXhXhXhXhXhXhX",
"hXhXhXhXhXhXhXhXhXh {.+X.X+XXXg hXhXhXhXhX- .X#X{ K K S.yXaXpXaXyXeX#X$XoXl -.7.1.:.7.w.w.q.2.>.>.>.;.y hXhXhXhXhXhXhXhXhXhXhXhX",
"hXhXhXhXhXhXhXhX. Z.-X#XB.aX-X{ + hXhXhXhXhXh H F.-X-XD.@XsXsXrXD.V.:X=X/ >.7.0.<.<.0.0.0.0.0.7.<.2.0.>.& hXhXhXhXhXhXhXhXhXhXhX",
"hXhXhXhXhXhXhXhX- |.@. XX.pXX.F.w hXhXhXhXhXhX4 J #XsXuXuXiX@XB.v ].=XoX5.2.0.0.1.:.7.w.w.w.9.:.<.9.0.1.3 hXhXhXhXhXhXhXhXhXhXhX",
"hXhXhXhXhXhXhXhX- |.X.}.K D.@.#X .0 | | | | 8 p *./ D.D.D.S.k i 5 / &X/ ;.w.0.0.9.:.*.=.=.=.V *.w.w.w.1.3 hXhXhXhXhXhXhXhXhXhXhX",
"hXhXhXhXhXhXhXhXhX+.o.n.....XXXX@X|.iXiXiXyXn.5 1.,.n n n p M :.Z C.].! Z 2.0.0.0.1.V n i 5 n M V V C ,.3 hXhXhXhXhXhXhXhXhXhXhX",
"hXhXhXhXhXhXhXhXhXhX^ o.C.;XC.M.*X>X>XyXyXtXoXl 1.0.w.7.1.-.p C J %X..t.k ,.0.0.0.0.0.9.:.n M T m.M.m.b hXhXhXhXhXhXhXhXhXhXhXhX",
"hXhXhXhXhXhXhXhXhXhXhXc 0 L m.| G G G L L C.A.l 1.2.1.:.-.-.M p n 6.G.H.P >.0.0.0.0.0.9.,.p M N.tXtX*Xw hXhXhXhXhXhXhXhXhXhXhXhX",
"hXhXhXhXhXhXhXhXhXhXhXhXhXhXh hXhXhXhXhXhXq a C -.i t t t t 4 4 n 5 d.!.5.n 2.0.0.0.9.1.l z oX>XiXyX .3 hXhXhXhXhXhXhXhXhXhXhXhX",
"hXhXhXhXhXhXhXhXhXhXhXhXhXhXhXhXhXhXhXhXhXhX- V m O hXhXhXhXhXhXu M ! L.8.P >.9.9.0.7.B {.{ V.uXiX*Xx hXhXhXhXhXhXhXhXhXhXhXhXhX",
"hXhXhXhXhXhXhXhXhXhXhXhXhXhXhXhXhXhXhXhXhXhXhXO X hXhXhXhXhXhXhXu <.n Y x.j.T ,.0.9.,.J  XrXrXiXiXX.u hXhXhXhXhXhXhXhXhXhXhXhXhX",
"hXhXhXhXhXhXhXhXhXhXhXhXhXhXhXhXhXhXhXhXhXhXhXhXhXhXhXhXhXhXhXhXu -.n B s.Y.j.T >.9.j N.B..XuXiX#X/ n = hXhXhXhXhXhXhXhXhXhXhXhX",
"hXhXhXhXhXhXhXhXhXhXhXhXhXhXhXhXhXhXhXhXhXhXhXhXhXhXhXhXhXhXhXhXu =.M Y Q ! ! ! Y M Y n.@X{.yXiX@.V u $ hXhXhXhXhXhXhXhXhXhXhXhX",
"hXhXhXhXhXhXhXhXhXhXhXhXhXhXhXhXhXhXhXhXhXhXhXhXhXhXhXhXX X X & < p 5 d.h.s.s.4.s S Q 8 X.rXiX.Xz u hXhXhXhXhXhXhXhXhXhXhXhXhXhX",
"hXhXhXhXhXhXhXhXhXhXhXhXhXhXhXhXhXhXhXhXhXhXhXhXhXhXhXhXhXhX= #.$.$.( D E j.L.h.3.Q 4.3.!  . .v & hXhXhXhXhXhXhXhXhXhXhXhXhXhXhX",
"hXhXhXhXhXhXhXhXhXhXhXhXhXhXhXhXhXhXhXhXhXhXhXhXhXhXO hXhXhXhX` 3X3X<X$.r f D D D f f.Y.j.s.h.Q > & hXhXhXhXhXhXhXhXhXhXhXhXhXhX",
"hXhXhXhXhXhXhXhXhXhXhXhXhXhXhXhXhXhXhXhXhXhXhXhXhX> x g hXhXhXe 1X3X3X3X<X_ ' _ ,X<X[ G.L.4.R.E.H.G.g hXhXhXhXhXhXhXhXhXhXhXhXhX",
"hXhXhXhXhXhXhXhXhXhXhXhXhXhXhXhXhXhXhXhXhXhXhXhXhXL -X-X+.hXhXhX) 2X2X1X1X<X' _ 1X3X_ f.W.l.~ I./.K.d hXhXhXhXhXhXhXhXhXhXhXhXhX",
"hXhXhXhXhXhXhXhXhXhXhXhXhXhXhXhXhXhXhXhXhXhXhXhXhX| uXuXwXc hXhX( <X,X] ] ' ' ] <X1X1X[ P./.f.4.K.F hXhXhXhXhXhXhXhXhXhXhXhXhXhX",
"hXhXhXhXhXhXhXhXhXhXhXhXhXhXhXhXhXhXhXhXhXhXhXhXhXA @XiXrXo.hXhX0 ] _ ( ( ( _ ' ] 1X2X#.f.I.E D @.r * hXhXhXhXhXhXhXhXhXhXhXhXhX",
"hXhXhXhXhXhXhXhXhXhXhXhXhXhXhXhXhXhXhXhXhXhXhXhXhXhXo.pXuX-Xc hX; ( q hXhXhXhX- _ ,X1X1Xr S [ 5X&.X.0 O $ hXhXhXhXhXhXhXhXhXhXhX",
"hXhXhXhXhXhXhXhXhXhXhXhXhXhXhXhXhXhXhXhXhXhXhXhXhXhXh |.aXeXH O hXhXhXhXhXhXhXhX1 ) <X1X) [ 8XfX%.M.}.V.D.+.hXhXhXhXhXhXhXhXhXhX",
"hXhXhXhXhXhXhXhXhXhXhXhXhXhXhXhXhXhXhXhXhXhXhXhXhXhXhXB.sXeXx hXhXhXhXhXhXhXhXhXhX1 _ ) [ 9XgX5X .[.tXtXsX{.1 hXhXhXhXhXhXhXhXhX",
"hXhXhXhXhXhXhXhXhXhXhXhXhXhXhXhXhXhXhXhXhXhXhXhXhXhXhXB.sXeXc hXhXhXhXhXhXhXhXhXhXhXO _ 7XfX6Xe 6 c XXiXaXrX+.. hXhXhXhXhXhXhXhX",
"hXhXhXhXhXhXhXhXhXhXhXhXhXhXhXhXhXhXhXhXhXhXhXhXhXhX. B.sXeXc hXhXhXhXhXhXhXhXhXhXhXhXq 5X4X9 hXhXhXq  X#XiXD.< hXhXhXhXhXhXhXhX",
"hXhXhXhXhXhXhXhXhXhXhXhXhXhXhXhXhXhXhXhXhXhXhXhXhXhX0 B.sXrX+.hXhXhXhXhXhXhXhXhXhXhXhXhX- 1 hXhXhXhXhX= z +X$XF hXhXhXhXhXhXhXhX",
"hXhXhXhXhXhXhXhXhXhXhXhXhXhXhXhXhXhXhXhXhXhXhXhXt K O..XpXpX-Xg hXhXhXhXhXhXhXhXhXhXhXhXhXhXhXhXhXhXhX; D ..C.F hXhXhXhXhXhXhXhX",
"hXhXhXhXhXhXhXhXhXhXhXhXhXhXhXhXhXhXhXhXhXhXhX^ 6.k ..@XpXaX-Xg hXhXhXhXhXhXhXhXhXhXhXhXhXhXhXhXhXhXb v A./ 6.F hXhXhXhXhXhXhXhX",
"hXhXhXhXhXhXhXhXhXhXhXhXhXhXhXhXhXhXhXhXhXhX- J J 8 f v X.X. .; hXhXhXhXhXhXhXhXhXhXhXhXhXhXhXhXhX= D f K f J h hXhXhXhXhXhXhXhX",
"hXhXhXhXhXhXhXhXhXhXhXhXhXhXhXhXhXhXhXhXhXhXO k P P P P P P P k & hXhXhXhXhXhXhXhXhXhXhXhXhXhXhX. a P P P P a hXhXhXhXhXhXhXhXhX",
"hXhXhXhXhXhXhXhXhXhXhXhXhXhXhXhXhXhXhXhXhXhXhXy 6 6 6 6 6 6 6 > $ hXhXhXhXhXhXhXhXhXhXhXhXhXhXhXhX> 6 6 6 6 $ hXhXhXhXhXhXhXhXhX",
"hXhXhXhXhXhXhXhXhXhXhXhXhXhXhXhXhXhXhXhXhXhXhXhXhXhXhXhXhXhXhXhXhXhXhXhXhXhXhXhXhXhXhXhXhXhXhXhXhXhXhXhXhXhXhXhXhXhXhXhXhXhXhXhX",
"hXhXhXhXhXhXhXhXhXhXhXhXhXhXhXhXhXhXhXhXhXhXhXhXhXhXhXhXhXhXhXhXhXhXhXhXhXhXhXhXhXhXhXhXhXhXhXhXhXhXhXhXhXhXhXhXhXhXhXhXhXhXhXhX",
"hXhXhXhXhXhXhXhXhXhXhXhXhXhXhXhXhXhXhXhXhXhXhXhXhXhXhXhXhXhXhXhXhXhXhXhXhXhXhXhXhXhXhXhXhXhXhXhXhXhXhXhXhXhXhXhXhXhXhXhXhXhXhXhX"
};
