/* XPM */
static char *result[] = {
/* columns rows colors chars-per-pixel */
"64 64 250 2 ",
"   c #191309",
".  c #1B120C",
"X  c #0D1518",
"o  c #141514",
"O  c #1B1413",
"+  c #151619",
"@  c #191718",
"#  c #13191A",
"$  c #1A1A1B",
"%  c #270D05",
"&  c #2B1A06",
"*  c #22140C",
"=  c #281608",
"-  c #341A09",
";  c #3D1D0C",
":  c #241915",
">  c #381C12",
",  c #28231A",
"<  c #3F2A17",
"1  c #3A251A",
"2  c #1B1C21",
"3  c #251A21",
"4  c #1C2731",
"5  c #272528",
"6  c #372925",
"7  c #39332B",
"8  c #282B34",
"9  c #441C0D",
"0  c #4A1909",
"q  c #53180A",
"w  c #481C14",
"e  c #691C0C",
"r  c #6D1D12",
"t  c #661E18",
"y  c #751D16",
"u  c #45230C",
"i  c #552A08",
"p  c #5D350D",
"a  c #4D2515",
"s  c #472718",
"d  c #572915",
"f  c #49321C",
"g  c #593719",
"h  c #7B230C",
"j  c #662618",
"k  c #7C2A15",
"l  c #792519",
"z  c #673819",
"x  c #703013",
"c  c #492A22",
"v  c #493627",
"b  c #573727",
"n  c #56362B",
"m  c #483A36",
"M  c #6D2C20",
"N  c #792722",
"B  c #653726",
"V  c #783725",
"C  c #5B401C",
"Z  c #6A451A",
"A  c #74471B",
"S  c #7D5216",
"D  c #58462B",
"F  c #554737",
"G  c #684528",
"H  c #764626",
"J  c #734A2B",
"K  c #7A5127",
"L  c #684735",
"P  c #6C4B34",
"I  c #764C34",
"U  c #6D5238",
"Y  c #795639",
"T  c #243342",
"R  c #3D4B60",
"E  c #514C4D",
"W  c #665943",
"Q  c #7A5844",
"!  c #665A59",
"~  c #73664C",
"^  c #565C72",
"/  c #79777B",
"(  c #84320C",
")  c #852717",
"_  c #8C2A1B",
"`  c #952A1C",
"'  c #89361B",
"]  c #933619",
"[  c #882722",
"{  c #883924",
"}  c #973826",
"|  c #96352B",
" . c #A12F26",
".. c #A33A24",
"X. c #A73826",
"o. c #AB3B2B",
"O. c #B33829",
"+. c #AB3A31",
"@. c #8E4D1B",
"#. c #9C5E1D",
"$. c #A8531E",
"%. c #A6661F",
"&. c #854527",
"*. c #974828",
"=. c #88552A",
"-. c #9D5D25",
";. c #95582A",
":. c #9C5D2A",
">. c #8C4B34",
",. c #855937",
"<. c #965A32",
"1. c #AC4824",
"2. c #B44727",
"3. c #A25D26",
"4. c #A45837",
"5. c #B25334",
"6. c #8F622E",
"7. c #9C6125",
"8. c #99632C",
"9. c #8A673A",
"0. c #966436",
"q. c #A86729",
"w. c #B46B2D",
"e. c #AD712C",
"r. c #B6732C",
"t. c #AD6537",
"y. c #B86938",
"u. c #AA743D",
"i. c #B97937",
"p. c #C05E2A",
"a. c #CC7539",
"s. c #C57939",
"d. c #875B44",
"f. c #975C43",
"g. c #AE5841",
"h. c #886648",
"j. c #976347",
"k. c #99754D",
"l. c #8B6E54",
"z. c #966953",
"x. c #977957",
"c. c #A96746",
"v. c #B76546",
"b. c #A77A48",
"n. c #B97748",
"m. c #A86F54",
"M. c #AA7757",
"N. c #B67856",
"B. c #8F7774",
"V. c #AA7C61",
"C. c #C05F42",
"Z. c #CD7347",
"A. c #C6764B",
"S. c #C87A53",
"D. c #BC8539",
"F. c #C7862F",
"G. c #C28435",
"H. c #C68934",
"J. c #CC8B34",
"K. c #C4843B",
"L. c #CA843B",
"P. c #C48A3C",
"I. c #CC8B3A",
"U. c #D1883A",
"Y. c #CC9235",
"T. c #D3973B",
"R. c #D9A13D",
"E. c #97825E",
"W. c #BA8747",
"Q. c #A6845B",
"!. c #B28A5E",
"~. c #A98A66",
"^. c #B98968",
"/. c #AD9167",
"(. c #B29468",
"). c #BC9C6C",
"_. c #B08F73",
"`. c #BCA271",
"'. c #C88843",
"]. c #CB8C4A",
"[. c #D99948",
"{. c #C88359",
"}. c #D6885B",
"|. c #D79859",
" X c #E2954E",
".X c #DBA14D",
"XX c #E2A241",
"oX c #C88B65",
"OX c #D88B64",
"+X c #CD946C",
"@X c #C59A6A",
"#X c #DD9364",
"$X c #D8956A",
"%X c #C89775",
"&X c #D59975",
"*X c #DC9D73",
"=X c #E39765",
"-X c #E39C6D",
";X c #E39D72",
":X c #E69D76",
">X c #DAA16D",
",X c #C3A472",
"<X c #C7A670",
"1X c #CAA776",
"2X c #CBAA76",
"3X c #DBA377",
"4X c #D4B27B",
"5X c #DBB67B",
"6X c #E3A169",
"7X c #E4A16C",
"8X c #E7B16E",
"9X c #F1B66C",
"0X c #E5A176",
"qX c #E5B877",
"wX c #EEBE7B",
"eX c #F2B670",
"rX c #F1BC75",
"tX c #F1BE7B",
"yX c #EEC27D",
"uX c #F3C077",
"iX c #F1C17D",
"pX c #576984",
"aX c #74798A",
"sX c #788899",
"dX c #728BAF",
"fX c #89878F",
"gX c #A99188",
"hX c #929FBA",
"jX c #96A7B6",
"kX c #C59B81",
"lX c #D2AE8C",
"zX c #D8B984",
"xX c #E4B185",
"cX c #DEC086",
"vX c #E6C487",
"bX c #EDC484",
"nX c #ECCB8D",
"mX c #F2C582",
"MX c #F3C986",
"NX c #F4CD8C",
"BX c #F5D08F",
"VX c #EECF90",
"CX c #F4CF90",
"ZX c #F6D593",
"AX c #D7C0AB",
"SX c #F2D3B7",
"DX c #9DADC5",
"FX c #A3B4C9",
"GX c #EADDCF",
"HX c #F3E3D9",
/* pixels */
"ZXZXZXZXZXZXZXZXZXZXZXZXZXZXZXZXZXZXZXZXZXZXZXZXZXZXZXZXBXZXZXZXBXZXBXZXZXZXZXZXZXZXZXZXZXZXZXZXZXZXZXZXZXZXZXZXZXZXZXZXZXZXZXZX",
"ZXZXZXZXZXZXZXZXZXZXZXZXZXZXZXZXZXZXZXZXZXZXVXzX`.,X,X).`.`.`.).).).).<X,X,X,X<X<XvXZXZXZXZXZXZXZXZXZXZXZXZXZXZXZXZXZXZXZXZXZXZX",
"ZXZXZXZXZXZXZXZXZXZXZXZXZXZXZXZXZXZXZXZXZXnX`.U > ; > u < ; ; ; ; ; u 0 u u ; u u Y <XMXZXZXZXZXZXZXZXZXZXZXZXZXZXZXZXZXZXZXZXZX",
"ZXZXZXZXZXZXZXBXZXZXBXZXZXZXZXZXZXZXVX`.(.x.L G G G H K =.=.=.=.=.=.=.6.6.6.6.6.9.9.U E.`.4XVXZXZXZXZXZXZXZXZXZXZXZXZXZXZXZXZXZX",
"ZXZXZXZXZXZXBXNXBXBXNXNXZXZXZXZXZXZX/.G d u z ,.=.;.8.D.'.D.I.H.D.D.K.I.[..X.X.X|.@XA u d b (.CXZXZXZXZXZXZXZXZXZXZXZXZXZXZXZXZX",
"ZXZXZXZXNXNXZXNXNXNXCXCXZXZXZXZXZX!.Y Z z z K 8.8.e.r.I.T.Y.J.J.Y.Y.H.T.Y.T.[.XXXX|.e.=.K J L @XZXZXZXZXZXZXZXZXZXZXZXZXZXZXZXZX",
"ZXZXZXZXCXBXBXNXNXNXNXCXZXZXZXZX!.f J 0.8.7.7.#.%.K.I.J.U.F.J.J.H.Y.Y.J.H.Y.R.R.XXXX.X.X].n.,.s 2XZXZXZXZXZXZXZXZXZXZXZXZXZXZXZX",
"ZXZXZXZXZXZXBXBXNXNXZXCXZXZXZX@XY d K 8.-.-.q.q.r.I.U.I.I.U.U.J.I.I.I.J.H.Y.T.XX[..X[. X'.y.V w (.NXZXZXZXZXZXZXZXZXZXZXZXZXSXZX",
"ZXZXZXZXZXZXZXZXZXZXZXZXZXZX).G Y <.;.-.3.-.w.'.'.I.I.I.I.I.I.I.I.I.U.U.'.I.P.I.U.a. X Xa.$.k 0 !.NXZXZXZXZXZXBXZXZXZXZXZXZXZXZX",
"ZXZXZXBXNXNXBXZXZXZXZXZXZXCXh.u =.;.:.7.q.w.i.'.'.I.I.I.I.H.Y.I.H.J.I.I.U.L.'.'.s.w.a.a.p.1.' j ,.@XzXzXvXnXBXNXZXZXiXZXZXZXZXZX",
"ZXBXBXBXBXBXBXZXZXZXZXZXNXyX9.0 =.8.3.#.e.P.K.L.I.U.I.Y.I.P.I.I.Y.F.U.U. XU.Z.a.$.1.1.1.o.o.| V V d p g b D Y $XiXyXiXBXZXZXZXZX",
"ZXBXNXBXBXBXBXZXMXNXiXtXuXqX,.u &.-.#.#.e.s.K.P.H.F.F.H.I.H.I.L.Y.F.a.U.a.'.Z.Z.1.2.X.X.+.+.} *.&.p i i i i g k.uXuXyXNXZXZXZXZX",
"ZXZXZXBXNXMXNXMXrXrX9X9X9X8X,.u Y :.-.-.7.-.q.K.i.%.%.s.I.I.I.I.U.w.$.2.1.2.2.2.O.X.` ` [ _ 5. X].'.W.D.e.W.b.K K ].uXuXZXZXZXZX",
"ZXZXZXZXNXiXmXiXrX9XrXrXwXqXY u >.>.>.<.<.;.4.v.t.-.3.w.i.A.a.a.Z.p.1.O...X.X. .X...] ] ] @.w.[.[.T.Y.D.D.D.b.Z < E.yXNXZXZXZXZX",
"ZXZXBXMXNXmXmXbXrXrXeXuXxXqX,.9 B V M N [ V { } { [ ] } } 1.1.2.2.O.O.X.( _ ` _ _ ( 5.p.y.i.n.I.H.G.G.D.D.q.6.C f Q.yXNXBXZXZXZX",
"NXBXNXNXNXNXNXMXmXiXmXiXiXqXI w j N N y y N l ) l ) [ l [ | o.X.O. .O.} ] ( ` ] ( ( r.L.L.L.H.G.G.D.i.u.b.6.Y U 9.<XBXBXZXZXZXZX",
"MXZXBXNXMXMXMXMXMXMXiXbX).h.a 0 e y r r r y ) h ) l N [ N [ _ _ _ ` ) 1.n.A.A.s.i.D.P.W.D.H.F.H.i.8.=.p a u c /.zXZXZXZXZXZXZXZX",
"BXZXBXBXNXNXNXNXMXMXBXbXG ; 0 q q r r r r e h k k x l N l ) ) h ) ( h ] s.'.'.K.G.P.D.W.W.W.D.W.W.6.U - * o 5 vXZXZXZXZXZXZXZXZX",
"NXZXZXNXZXNXNXNXMXMX5XQ.G G A H { { { &.&.{ { *.*.*.*.*.*.4.t.t.3.5.w.w.I.P.P.P.Y.W.S g C C z p C D f , 2 /.nXZXZXZXZXZXZXZXZXZX",
"ZXZXZXBXZXVXZXCXNX5XZ p 6.8.8.:.=.;.>.;.<.;.:.-.-.3.-.3.3.i.s.L.G.K.G.s.D.W.W.W.W.W.p - &   . O   , $ @ W vXZXZXZXZXZXZXZXZXZXZX",
"ZXZXZXZXZXZXZXvX<Xk.J H 8.8.7.7.#.-.;.-.3.t.i.r.r.r.r.r.r.G.G.D.K.i.e.q.A G G U L J Y Y v * c Q F 1 o + ~ ZXZXZXZXZXZXZXZXZXZXZX",
"ZXZXZXZXZXZXZXzX~ L d.,.<.:.7.-.-.#.#.#.w.L.L.s.G.s.A.K.'.n.D.W.W.u.<.I &   , o . & V.^.U % G ^.x.>   X E.VXZXZXZXZXZXZXZXZXZXZX",
"ZXZXZXZXZXZXBXNXzXE.B b g z ;.<.;.#.e.e.r.K.K.P.i.%.-.-.6.H H Z J D b v @ $ @ .   = x.kXU * P %XV.> 1 E.cXZXZXZXZXZXZXZXZXZXZXZX",
"ZXZXZXZXZXZXNXNXZX1X> % % a Y 0.<.8.W.W.'.].W.W.u.A z G z & %     . * : 5 5 *     % _.kXQ * P %X_.* F 4XZXZXZXZXZXZXZXZXZXZXZXZX",
"ZXZXZXZXZXZXZXZXNXMX).(.Q.~ P P P J ,.9.9.9.9.h.Y C g b v : . o X # 2 3 3 1 f v D F l.x.Q b j.4X_.- D 4XNXNXNXNXZXZXZXZXZXZXZXZX",
"ZXZXZXZXZXZXBXZXBXBXZXNXVX`.D   & = & - * % & & & & & = : O O + o o @ 3 : b z.Q.lXlX7 - I ~.oX3X/.- D 5XNXNXNXNXBXZXZXZXZXZXZXZX",
"ZXZXZXZXZXZXZXZXZXZXZXNXBX4XF o o o @ o O . . . : m n n c : o o o 1 v n P ,.N.).lXAXm * Q oX$X*X^.u P 4XMXNXNXNXNXNXBXZXZXZXZXZX",
"ZXZXZXZXZXZXZXZXZXZXZXZXZXcXF o # o @ # o . o o 7 _.^.M.z.1 O +   D z.M.+X+X$XlXSXGXF : d.&X>X3XoXg P 2XNXNXMXMXNXNXBXZXZXZXZXZX",
"ZXZXZXZXZXZXZXZXZXZXZXZXZXvXW o $ @ # # o O O . f (.$X{.N.s . # * L m.{.>X0X3XxXSXHXm : d.*X:X0XoXH G k.vXCXCXNXZXZXZXZXZXZXZXZX",
"ZXZXZXZXZXZXZXZXNXZXBXBXZXnX~ @ 2 5 # X o O O . f _.$X$X+Xg : O * d.&X:X0X;X:XlXSXHXm : d.:X:X-X0X%XV.b x.CXZXZXZXZXZXZXZXZXZXZX",
"ZXZXZXZXZXZXZXBXNXCXZXNXCXZX`.W 7 5 $ # + 3 O . c x.^.$X+XV f f s h.&X7X7X;X0XxXSXSXU d z.*X-X7X;X&XV.d U nXZXZXZXZXZXZXZXZXZXZX",
"ZXZXZXZXZXZXZXZXCXNXNXNXZXZXZXCXE.# # o 2 5 3 + . s b N.+XN.N.!.^.%X7X6X7X-X:X:XxXxX).(.+X-X-X-X$XOXm.d U CXZXZXZXZXZXZXZXZXZXZX",
"ZXZXZXZXZXBXBXBXNXMXNXBXBXBXZXZXcX~ 7 o 2 4 2 @ o . 1 z.N.}.}.OX$X3X7X6X6X7X;X0X0X*X3X0X7X-X=X#X$X!.f.J Q.CXZXZXZXZXZXZXZXZXZXZX",
"ZXZXZXZXZXBXZXBXBXBXBXBXBXBXZXBXZX5Xl.  # # # X X X O s j c.S.S.{.oX:X7X-X-X:X:X0X>X7X$X|.A.S.n.c.z I @XbXNXZXMXZXZXZXZXZXZXZXZX",
"ZXZXZXZXZXBXBXBXZXBXZXBXBXBXBXNXyXyX<Xf , # # X # X o . - f.N.N.S.OX;X7X-X;X:X:X*X7X-X=X}.v.N.m.,.p b.xXNXmXmXNXmXNXZXZXZXZXZXZX",
"ZXZXZXZXZXBXZXNXBXZXBXZXMXmXiXmXuXuXyXyX!.8 7 E 7 o @ 6 a { &.{ ' 4.S.S.S.oX&X*X&X>X7X=XOXoXf.z J @XbXiXuXuXrXrXmXMXCXZXZXZXZXZX",
"ZXZXZXZXZXBXZXNXNXZXMXBXmXuXuXuX9XuXyXyX4XW /.1Xx., & s d l y [ l 1.A.C.A.S.oX&X+X+X+X+XoX%Xd.d k.iXiXrXrXrX9XeXtXrXmXBXZXZXZXZX",
"ZXZXZXZXBXBXBXNXBXNXBXNXuXmXMXMXuXuXuXyXyXvXbXMX`.< & d N [ [ [ _ { | *.v.4.=.K ,.I ,.,.I Q h.!.wXuXmXmXrXiXuXuXrXmXmXCXZXZXZXZX",
"ZXZXZXZXZXBXBXBXBXMXMXmXtXiXtXmXmXyXyXyXmXMXNXNX2Xb ; z h `  . .} k r y 5.*.e 0 0 ; 9 9 > n /.uXmXmXMXMXmXmXMXNXMXBXZXZXZXZXZXZX",
"ZXZXZXZXBXBXBXBXZXBXZXNXNXNXNXNXBXNXMXbXiXiXbXMX5XD a >.4.C.C.v.v.{ r y | } &.H a > n l./.1XvXMXMXNXNXMXNXNXBXBXBXZXZXZXZXZXZXZX",
"ZXZXZXZXZXZXZXZXZXZXZXZXCXZXBXZXZXBXmXNXiXiXiXBX2Xb d t.S.OX}.|.OX4.r y ) ] v.m.j > x.nXZXNXZXZXNXBXBXBXNXBXBXZXZXBXCXCXZXZXZXZX",
"ZXZXZXZXZXZXZXZXZXZXZXCXZXZXZXZXZXNXnXNXBXNXNX2Xh.9 d c.A.OXOX}.#X<.t N ` X.5.g.) j d.).vXZXMXZXNXBXBXBXZXBXBXNXBXNXBXNXNXZXZXZX",
"ZXZXZXZXZXZXZXZXZXZXZXZXZXZXZXZXZXZXZXBXNXVXMXU w w j c.A.OXOX=XOX4.j N o.o.+.o.| | M P 2XBXNXCXMXNXBXNXNXNXNXNXBXNXBXBXBXZXZXZX",
"ZXZXZXZXZXZXZXZXZXBXZXZXZXZXZXZXZXZXZXZXZXZXvXc w d k c.A.OX=X}.S.4.t N +.O.O.X.} | t b @XMXNXNXMXNXmXNXMXmXNXNXNXNXNXNXNXNXZXZX",
"ZXZXZXZXZXZXZXZXBXNXNXZXZXZXZXZXZXZXZXZXZXZXnXc w j k v.Z.=X=XS.S.*.r y +.O.O.O.} | t B %XnXNXMXMXNXmXmXNXNXNXCXCXNXNXNXBXBXZXZX",
"ZXBXZXZXZXZXZXZXCXNXZXBXZXZXZXZXZXZXZXZXZXZXZXn w j { v.A.OX=X}.S.4.l N +.O.O.O. .| t B <XNXZXNXBXNXmXNXNXNXNXNXBXBXZXZXZXZXZXZX",
"BXBXNXmXNXBXZXNXNXCXZXZXZXZXZXZXZXZXZXZXZXZXZXb q M N v.N.OX;X-XOXt.k ) +.+.O.O.X.+.t B 1XZXZXVXNXNXNXNXNXNXNXCXZXZXZXZXZXZXZXZX",
"BXBXBXNXNXBXBXBXZXBXZXZXZXZXZXZXZXZXZXZXZXZXZXa w N V f.v.&X*X;X;Xv.' ] +.X.X.o.X.*.d b 1XZXZXZXBXBXBXBXNXZXZXZXZXZXZXZXZXZXZXZX",
"BXBXBXNXBXBXNXBXCXZXZXZXZXZXZXZXZXZXZXZXZXZXZXn a V V M x oX*X-X:XS.S.v.l ' ..] _ k q b ,XBXBXNXBXBXZXBXZXZXBXZXZXZXZXZXZXZXZXZX",
"BXBXBXBXZXZXZXBXZXZXZXZXZXZXZXZXZXZXCXMXZXZXZX/.I B B B z oX*X;X:X:XS.A.k k 1.1.@.' d D 4XNXBXNXNXZXZXZXZXZXnXZXZXZXZXZXZXZXZXZX",
"ZXZXZXZXZXZXZXZXZXZXZXZXZXBXBXBXNXMXMXiXmXCXMXbX1XQ c B B oX*X;X:X=XOXn.e V 0.u.n.m.B P vXZXBXNXBXBXZXNXBXNXBXNXZXZXZXZXZXZXZXZX",
"ZXZXZXZXZXZXZXZXZXZXZXBXCXmXmXBXMXbXMXrXiXMXeXmXxXx.6 n L ^.&X&X&XOX+Xm.v L k.E.Q.Q.P Q.BXNXNXNXBXNXZXBXMXZXBXNXNXBXZXZXZXZXZXZX",
"ZXZXZXZXZXZXZXBXMXMXBXMXmXmXtXMXbXtXtXtXyXyXyXyXwXQ.5 7 1 B L J V J H B E R ! W b D cXVXBXNXBXBXNXBXZXZXBXBXBXBXZXZXZXZXZXZXZXZX",
"ZXZXZXZXZXZXBXNXMXiXmXmXtXmXwXtXyXuXrXwXtXuXyXyXyXQ.4 8 8 m n n n n n E pXpX^ R 8 m BXVXNXZXBXZXZXZXZXBXZXZXBXZXZXZXZXZXZXZXZXZX",
"ZXZXZXZXZXmXtXmXbXwXyXbXwXiXtXtXyXbXmXiXmXiXMXyXwX~.T R ^ aXaXaX/ / sXfXdXdXdXaXT F yXNXNXBXZXZXZXZXZXZXZXZXZXZXZXZXZXZXZXZXZXZX",
"ZXZXZXZXmXNXmXuXiXwXiXiXyXiXwXbXuXiXbXbXbXMXMXmXbX(.R ^ aXhXDXhXjXjXFXDXFXDXjXsXT l.yXyXiXNXZXZXZXZXZXZXZXZXNXZXZXZXZXZXZXZXZXZX",
"ZXZXZXNXZXNXmXMXmXxXyXiXyXyXwXtXwXwXiXwXmXmXMXbXMXqX(.! E B.gX_.gXgXgXfXB.B.! ! m m.rXtXiXMXZXZXZXZXBXNXBXBXBXBXZXZXZXZXZXZXZXZX",
"ZXZXZXZXiXMXmXbXiXMXMXbXiXmXMXbXMXbXbXmXmXmXiXiXnXMXxXh.n d.j.v.n.W.N.z.n c w w n P 5XiXMXMXZXZXZXNXZXBXNXBXBXBXZXZXZXZXZXZXZXZX",
"ZXZXZXBXZXNXZXNXBXNXNXMXNXNXBXNXNXNXMXnXNXVXNXVXNXNXZXx.M f.y.y.Z.].S.m.d c n B J J !.bXMXNXCXZXZXBXBXBXBXNXBXBXZXZXZXZXZXZXZXZX",
"ZXZXZXZXZXBXZXZXBXBXBXBXNXCXBXBXNXBXNXNXBXBXBXZXZXZXZXM.b N.&X-X=X=X$XM.j B V.%XM.N.K Q.MXnXZXZXZXBXNXNXBXMXBXBXZXZXZXZXZXZXZXZX",
"ZXZXZXZXZXZXZXZXZXZXZXZXZXNXZXZXZXZXZXBXZXZXZXZXZXZXZXx.v z.m.N.N.M.M.h.f f h.z.j.j.z I MXZXZXZXZXBXBXBXZXZXZXZXZXZXZXZXZXZXZXZX",
"ZXZXZXZXZXZXZXZXZXZXZXZXZXBXZXZXZXZXZXZXZXZXZXZXZXZXZXx.s s a a d a s s ; ; s d a a 9 P VXZXZXZXZXZXZXZXZXZXZXZXZXZXZXZXZXZXZXZX",
"ZXZXZXZXZXZXZXZXZXZXZXZXZXZXZXZXZXZXZXZXZXZXZXZXZXZXZXcX/.h.Y L L P U U U U U Q h.E.Q.4XZXZXZXZXZXZXZXZXZXZXZXZXZXZXZXZXZXZXZXZX",
"ZXZXZXZXZXZXZXZXZXZXZXZXZXZXZXZXZXZXZXZXZXZXZXZXZXZXZXZXZXVXnXnXnXnXnXnXnXnXnXnXVXVXZXZXZXZXZXZXZXZXZXZXZXSXZXZXZXZXZXZXZXZXZXZX"
};
