/* XPM */
static char *result[] = {
/* columns rows colors chars-per-pixel */
"64 64 250 2 ",
"   c #170F0E",
".  c #18140A",
"X  c #1B140C",
"o  c #0D1716",
"O  c #141514",
"+  c #1B1513",
"@  c #131914",
"#  c #1A1817",
"$  c #14161A",
"%  c #131A1A",
"&  c #1C1A1B",
"*  c #250F0A",
"=  c #281609",
"-  c #35180A",
";  c #261916",
":  c #361D14",
">  c #1A211D",
",  c #2F220F",
"<  c #3C240D",
"1  c #28221A",
"2  c #3D2413",
"3  c #3A2718",
"4  c #1C1B23",
"5  c #241D26",
"6  c #1B2125",
"7  c #1B2838",
"8  c #262425",
"9  c #392A24",
"0  c #352E2E",
"q  c #262D37",
"w  c #393536",
"e  c #461D08",
"r  c #551A0C",
"t  c #441B13",
"y  c #551D12",
"u  c #6A1D0E",
"i  c #751D14",
"p  c #45230D",
"a  c #4A240D",
"s  c #49290B",
"d  c #57280D",
"f  c #52330E",
"g  c #432314",
"h  c #482918",
"j  c #562718",
"k  c #4B3218",
"l  c #59341B",
"z  c #6A251B",
"x  c #7A2617",
"c  c #673718",
"v  c #753112",
"b  c #771E21",
"n  c #482C24",
"m  c #4B362A",
"M  c #563828",
"N  c #4A3C38",
"B  c #593B35",
"V  c #7A2922",
"C  c #653A26",
"Z  c #6A332B",
"A  c #783724",
"S  c #76421B",
"D  c #5A432D",
"F  c #47433A",
"G  c #574533",
"H  c #5B4433",
"J  c #664429",
"K  c #784929",
"L  c #7D5224",
"P  c #7B532B",
"I  c #684B36",
"U  c #794936",
"Y  c #6B533B",
"T  c #78573A",
"R  c #7F623F",
"E  c #283748",
"W  c #3A3947",
"Q  c #243551",
"!  c #2F3C54",
"~  c #483849",
"^  c #793D43",
"/  c #314556",
"(  c #344967",
")  c #4D4447",
"_  c #514E4E",
"`  c #695642",
"'  c #6B554D",
"]  c #775944",
"[  c #7C6247",
"{  c #786654",
"}  c #575E6C",
"|  c #746D6A",
" . c #82270D",
".. c #832612",
"X. c #842A1C",
"o. c #882A19",
"O. c #952C1C",
"+. c #893A18",
"@. c #97321E",
"#. c #A0331E",
"$. c #892922",
"%. c #952E22",
"&. c #863926",
"*. c #963426",
"=. c #9B3323",
"-. c #943834",
";. c #AA3A29",
":. c #B1352E",
">. c #B4392A",
",. c #A83A33",
"<. c #864B19",
"1. c #96471A",
"2. c #85511C",
"3. c #96521B",
"4. c #884A26",
"5. c #984728",
"6. c #845628",
"7. c #995727",
"8. c #864934",
"9. c #9C4933",
"0. c #885838",
"q. c #96593B",
"w. c #A6462B",
"e. c #B24327",
"r. c #A6562D",
"t. c #AE4B35",
"y. c #A95639",
"u. c #B55A35",
"i. c #936731",
"p. c #946531",
"a. c #9B6737",
"s. c #A46B2C",
"d. c #A8682B",
"f. c #A66B36",
"g. c #B56E33",
"h. c #AA7437",
"j. c #B9793A",
"k. c #C35E2F",
"l. c #C96A37",
"z. c #C9753B",
"x. c #843E40",
"c. c #865B46",
"v. c #985945",
"b. c #8C5951",
"n. c #B05A42",
"m. c #866848",
"M. c #986948",
"N. c #88744F",
"B. c #99754B",
"V. c #896A56",
"C. c #976A55",
"Z. c #887456",
"A. c #987957",
"S. c #A76947",
"D. c #B66848",
"F. c #AC724D",
"G. c #B97945",
"H. c #A66D54",
"J. c #A87756",
"K. c #B87755",
"L. c #907B72",
"P. c #AD7A69",
"I. c #C47C43",
"U. c #C7714D",
"Y. c #C5784A",
"T. c #C87B53",
"R. c #CB7D60",
"E. c #BC8539",
"W. c #C5833A",
"Q. c #D28E3B",
"!. c #9B845C",
"~. c #B28455",
"^. c #9A8467",
"/. c #A88865",
"(. c #B68866",
"). c #AE926A",
"_. c #B7996A",
"`. c #B59276",
"'. c #BBA274",
"]. c #C98848",
"[. c #D18E45",
"{. c #D89848",
"}. c #C98458",
"|. c #D1895B",
" X c #DC9958",
".X c #E39A4C",
"XX c #D8A34A",
"oX c #D6A351",
"OX c #E1A050",
"+X c #C48967",
"@X c #D68967",
"#X c #C99669",
"$X c #DA9768",
"%X c #C28B75",
"&X c #C79576",
"*X c #D69B75",
"=X c #DC9C73",
"-X c #E28F65",
";X c #E29C69",
":X c #E49D73",
">X c #D1A66D",
",X c #CAAA75",
"<X c #DBA478",
"1X c #D8B47C",
"2X c #E3A367",
"3X c #E3A26C",
"4X c #EBB36D",
"5X c #E3A377",
"6X c #E8B876",
"7X c #EDBD7A",
"8X c #F2BC75",
"9X c #F1BE7A",
"0X c #EEC27D",
"qX c #F3C077",
"wX c #F1C17C",
"eX c #425E84",
"rX c #526F87",
"tX c #667B95",
"yX c #9D7F81",
"uX c #6F849B",
"iX c #8B8881",
"pX c #B19783",
"aX c #B4AC9A",
"sX c #879DB6",
"dX c #96A7BC",
"fX c #ACA9B0",
"gX c #CC9C82",
"hX c #DAA985",
"jX c #D8B886",
"kX c #DCBD84",
"lX c #D4B596",
"zX c #E0AD8D",
"xX c #DFBFA6",
"cX c #DFC187",
"vX c #EBC585",
"bX c #E4C58A",
"nX c #ECCB8D",
"mX c #F2C582",
"MX c #F3C885",
"NX c #F4CD8C",
"BX c #F5D08F",
"VX c #EECF90",
"CX c #F3CF90",
"ZX c #F6D493",
"AX c #EECCB3",
"SX c #93AAC2",
"DX c #A5B0C2",
"FX c #DFCAC0",
"GX c #E8D7C8",
"HX c #F1E5D3",
/* pixels */
"ZXZXZXZXZXZXZXZXZXZXZXZXZXZXZXZXZXZXZXZXZXZXnXnXbXcXcXcXbXbXbXcXbXbXbXcXcXcXbXbXVXZXZXZXZXZXZXZXZXZXZXZXZXZXZXZXZXZXZXZXZXZXZXZX",
"ZXZXZXZXZXZXZXZXZXZXZXZXZXZXZXZXZXZXZXZX1XN.Y D D G G G G G D D M G G H H H I T [ /.cXZXZXZXZXZXZXZXZXZXZXZXZXZXZXZXZXZXZXZXZXZX",
"ZXZXZXZXZXZXZXZXZXZXZXZXZXZXZXZXZXZXVX,X{ k < f p s p p p p s s p s p p a g 2 h g m !.kXcXnXZXZXZXZXZXZXZXZXZXZXZXZXZXZXZXZXZXZX",
"ZXZXZXZXZXZXZXBXZXZXBXZXZXZXZXZXZXVX_.D D P P 6.2.i.i.i.i.p.p.i.i.i.i.p.a.p.6.6.0.U J J [ !.1XZXZXZXZXZXZXZXZXZXZXZXZXZXZXZXZXZX",
"ZXZXZXZXZXZXBXNXBXBXNXBXZXZXZXZXVX'.P f S ~.E.E.Q.{.{.oXoXoXXXXXXXXXXXXXoX{.W.].}.F.S e a j m.,XZXZXZXZXZXZXZXZXZXZXZXAXZXZXZXZX",
"ZXZXZXZXNXBXBXNXNXNXNXBXZXZXZXZX,XT J 6.i.s.h.z.W.Q.[..XOXXXXXXXXXXXXXQ.Q.Q.Q.{.W.W.s.6.L S J R ,XZXZXZXZXZXZXZXZXZXZXZXZXZXZXZX",
"ZXZXZXZXCXBXBXNXNXMXNXCXBXZXZXZXA.h 8.~.G.7.d.g.z.W.Q.[.OXOX.XXXXXXX.X.XQ.Q.{..XQ.z.W.~.f.p.S h { nXZXZXZXZXZXZXZXZXZXZXZXZXZXZX",
"ZXZXZXZXZXZXBXBXBXBXZXZXZXZXZXZX] g A v.7.5.w.u.u.k.k.l.l.z.l.l.z.l.l.k.k.k.l.z.k.l.u.y.9.5.A t I bXZXZXZXZXZXZXZXZXZXZXZXZXZXZX",
"ZXZXZXBXZXBXZXZXBXZXZXZXZXZXZXjXD t u V x X.@.;.>.e.e.e.e.e.e.e.e.e.e.e.>.>.>.e.>.e.*.$.x V z t M 1XZXZXZXZXZXZXZXZXZXZXZXZXZXZX",
"ZXZXZXBXBXVXBXZXZXZXZXZXZXZX_.] n j z b V X.%.@.@.@.@.@.@.@.@.%.@.=.*.*.%.#.@.@.=.@.o.x x i z d a T ).ZXBXBXBXMXZXZXNXZXZXZXZXZX",
"ZXBXBXBXBXBXBXZXZXZXCXZXnX1XJ - d z u u u x i  . . . . .v  .x ....x X...o...........X.v i u u d a e l ,X0XMX0XqXBXwXwXZXZXZXZXZX",
"ZXBXBXBXBXBXBXZXMXNX6X#X~.0.c l c A +.<.1.5.+.1.1.3.1.3.3.3.7.7.7.3.3.3.3.3.3.1.1.+.1.1.+.+.<.+.v c l i.#X1X0XqXqXqXMXwXBXZXZXZX",
"ZXZXBXZXBXMXMXMX8X#XT l f d 6.0.7.7.g.z.].I.I.].z. X X X X X X X X X X X X X X$X].Y.I.z.G.z.G.G.G.p.6.d l M T #X8XqXqXqXBXZXZXZX",
"ZXZXZXZXBXwXmX7XoXB.J k f f q.f.a.s.j.E.z.z.I.j.j.[.[.[.[.[.[.[.[.[.[.[.[.[.[.[.W.z.E.j.E.E.z.W.j.f.7.c f f J B.>X0X0XNXZXZXZXZX",
"ZXZXBXNXBXwX0X#XT P 0.B.f.i.~.j.E.E.E.E.E.~.~.s.s.s.f.s.s.s.d.d.d.s.s.s.s.d.s.f.s.s.s.s.h.E.E.W.j.j.~.h.B.S.M.T i.,XnXMXBXZXZXZX",
"NXBXBXMXBX1X_.N.l K j.~.h.h.j.j.h.i.E.s.s.s.a.P P P L P 6.6.L L 6.L 6.L 2.6.P P L L L S p.a.s.d.h.h.h.h.j.j.j.2.l !.6XBXZXZXZXZX",
"NXBXBXBX0XA.I P 0.f.].j.3.<.L P S s s k f k s 2 s < < p g 2 2 3 2 t 3 t p < < 3 2 2 g 2 3 k f s l L L 2.3.d.W.h.0.T A.kXZXZXZXZX",
"BXBXVXBXbXY 2 C f.j.G.f.<.c c M , . + + + # & . X ; , , , ; + @ O 4 + ; 3 , . @ @ O 4 4 @ O . X , M l S <.d.j.g.S.J k _.VXZXZXZX",
"BXBXZXBXbXT < c a.3.3.1.S C 2 1 @ o % $ & 8 6 % 1 ] M.C.V.n O & 5 & 4 n b.{ ; . @ o 4 5 ; $ o % @ 1 3 C S 1.3.7.p.c g ).ZXZXZXZX",
"ZXZXZXBXnXN.k J 0.<.S S C M ; % @ % % # ; 8 6 @ 3 A.}.}.K.Z * : 8 ; $ m P.J.p = ; O 6 8 5 $ o o o % ; m C S S 4.0.S T '.ZXZXZXZX",
"ZXZXZXZXZXbX_.R f c c l 2 ; & $ O % & > 5 > # O 3 (.-X-X@XP.m.m X + . M &X@XF.C.n . O + & > > @ @ $ $ ; 2 l C c k [ ,XZXZXZXZXZX",
"ZXZXZXZXZXZXnX!.n k D M ;   # O + @ > 8 & + . . h (.5X5X*X&X/.D X @ . D #X$XhXgXM * X O 1 8 > @ O @ o O ; n B h n !.nXZXZXZXZXZX",
"ZXZXZXZXZXZXNXbX_.[ n 1 + @ @ O + + $ 6 4 * g I ` ` ] ` ] /.).D . @ . D &X#XU I ` ` 9 O # % % + ; $ o % & 5 n ` ^.1XZXZXZXZXZXZX",
"ZXZXZXZXZXZXBXMXZX,XY 1 @ % % @ +   @ $ $ * Z C.V.h 1 8 3 J.&XI = = . l %X(.: * b.C.J = X O O + + O o $ o & N /.bXZXZXZXZXZXZXZX",
"ZXZXZXZXZXZXZXZXNXNX1X!.` q > o & X . + 8 M v.%XpXL.| 9 : A.#XM.P D C U C.V.= = Z.`.q.Z t + + + # # % 6 F ` !.1XNXBXZXZXZXZXZXZX",
"ZXZXZXZXZXZXBXZXBXBXNXMX1X' > o + X . = B V.%XxXFXFXxX~ - C.*X#X<X(.K.q.c z . 1 ^.jX+XH.Z *   X X O $ w '.1XnXNXMXBXZXZXZXZXZXZX",
"ZXZXZXZXZXZXZXZXZXZXZXNX'._ & X n m 3 = B J.hXAXGXGXFX~ - C.*X=X5X$X+XK.a.0.= 1 `.AX*X(.U - 1 N 9 ; # 8 Z.1XNXMXNXNXBXZXZXZXZXZX",
"ZXZXZXZXZXZXZXZXZXZXZXZXZ.8 . = Y V.J = B `.hXAXHXHXGX~ : J.:X5X3X;X=X*X*X(.= 1 aXGXxX`.U - m V.I = + > F ,XNXMXNXNXBXZXZXZXZXZX",
"ZXZXZXZXZXZXZXZXZXZXZXZX,X{ X = T /.U - B (.zXAXHXHXHX~ ; J.5X<X3X3X5X5X<X(., 1 aXHXcX`.P = B ^.c.= ; 0 Z.bXBXNXZXZXZXZXZXZXZXZX",
"ZXZXZXZXZXZXZXZXNXZXNXZXZXbX9 = Z.pX] = C (.zXGXHXHXHXN , J.5X:X3X3X:X:XhX`., = aXGXxX'.T - H pXA.* ; !.bXZXZXZXZXZXZXZXZXZXZXZX",
"ZXZXZXZXZXZXZXBXBXZXNXNXZXZX).G { L.I e I (.5XCXGXAXxX' J ~.5X:X:X3X3X:X:X%XH H lXAXzXgXc.- D Z.' 3 ` bXZXZXZXZXZXZXZXZXZXZXZXZX",
"ZXZXZXZXZXZXZXZXNXNXNXNXZXBXZXcX{ : n n ] +X$X$X-XD.T.+X>X;X3X5X5X5X5X3X:XzX#X*X*X5XhXgXC.n 1 , F !.nXZXZXZXZXZXZXZXZXZXZXZXZXZX",
"ZXZXZXZXBXBXBXBXNXNXMXNXBXBXZXZXcXm.m M c.P.@X XR.U.l.$X3X$X:X5XhX:X3X2X;X2X:X:X;X:X@X%Xc.n 1 m !.nXBXBXZXZXZXZXZXZXZXZXZXZXZXZX",
"ZXZXZXZXZXZXBXBXBXBXBXBXBXBXBXBXZXvX!.h t c 8.F.T.:X$X$X2X2X3X=X:XhX5X3X2X2X3X=XT.K.v.Z n ; G /.bXBXmXNXNXNXBXNXBXZXZXZXZXZXZXZX",
"ZXZXZXZXZXBXBXBXZXBXZXZXZXZXBXBX0X7X>Xm.m a c c.H.R.@X*X$X$X$X$X:X=X$X-X$X|.}.(.H.v.Z y : 9 N.1XMXBXmXMXBXwXMXMXmXNXZXZXZXZXZXZX",
"ZXZXZXZXZXZXZXNXBXZXZXZXMXqXMXwX8X8XqX1XB.3 = : g Z 8.F.K.].Y.Y.T.T.T.T.~.S.K K l j y t n m.>X8X0XmXMX0XqXqX8X8XwXNXBXZXZXZXZXZX",
"ZXZXZXZXZXBXZXNXNXZXMXBXwXqXwXqX8X8X0X1XB.m = = : j z v.S.D.z.U.U.D.U.D.D.q.z j y r r y M B.4X8X8X8XwX8X8X8X4X8X8X8XmXBXZXZXZXZX",
"ZXZXZXZXBXBXBXNXBXNXBXNXwXwXMXMX8X8X>XM.U 0.K j z z z V A 7.f.u.u.y.t.9.&.x V z z z &.8.C M J.6X0XwXmXmX8XwXqXqX8XmXmXBXZXZXZXZX",
"ZXZXZXZXZXBXNXBXNXNXMXwXwXwX0XMXwX6X~.c U H.q.V b V $.i u *.u.t.u.r.9.*.u i V $.$.X.9.S.A j J (.0XmXMXMXmXmXMXNXMXZXZXZXZXZXZXZX",
"ZXZXZXZXBXZXBXBXZXNXZXBXNXMXNXBXvXA.c.M.H.}.n.V z %.,.$.X.y.U.T.T.U.n.9.i i -.*.o.o.u.}.D.q.U I ).mXNXMXNXNXNXBXBXBXZXZXZXZXZXZX",
"ZXZXZXZXZXZXZXZXZXZXZXBXBXBXBXVX).h U R.R.@XD.x i ,.,.$.$.n.R.@X-XR.U.t.u x ,.,.$.O.D.|.}.K.8.h ` nXZXNXCXBXBXZXZXBXBXBXBXZXZXZX",
"ZXZXZXZXZXZXZXZXZXZXZXZXZXZXZXVXA.e 6.@XT.R.n.i i :.:.%.*.9.y.U.@XU.r.*.O.%.,.,.o.o.y.T.].|.q.r M vXNXNXBXBXBXBXBXNXBXBXBXBXZXZX",
"ZXZXZXZXZXZXZXZXZXZXZXZXZXZXZXnXI t q.=X@XT.n.z i :.>.>.;.o.v D.R.y...O.>.e.;.,.O.@.y.Y.|.$Xv.a n ,XCXNXBXNXNXMXBXNXBXNXBXBXZXZX",
"ZXZXZXZXZXZXZXZXZXBXZXZXZXZX,XR D 0.F.<X}.f.&.i  .#.>.>.>.O.o.9.n.,.O.#.:.>.:.:.$.$.9.u.}.$XK.0.C I ~.NXNXmXNXNXNXNXNXBXCXBXZXZX",
"ZXZXZXZXZXZXZXZXBXNXNXZXZXZX0.- M.#X*X=XK.5.X.u i :.:.>.;.O...x o.O.;.>.:.:.>.:.$.$.%.t.U.$X}.~.q.a C MXNXNXNXNXNXCXCXBXBXBXZXZX",
"ZXBXZXZXZXZXZXZXBXBXBXZXZXZXY e M.#X$X;XK.&.x x X.,.:.>.;.O.X.*.;.>.>.>.>.:.>.;.$.$.o.o.D.$X@X}.S.e l NXNXNXNXNXBXBXZXZXZXBXZXZX",
"BXBXNXMXNXZXZXNXNXBXnXBXZXZXJ p S.=X;X$XS.d y V %.:.>.>.>.O.o.y.U.u.;.;.e.;.;.;.o...u r q.*X=X$XJ.e M vXNXNXNXCXZXZXZXZXZXZXZXZX",
"ZXNXNXNXNXNXBXNXBXBXBXBXZXZXI e C.*X$X$XM.a y z $.:.:.>.>.O.o.9.n.t.,.;.;.=.#.@.X.V y r 0.#X$X*XJ.e B NXNXZXZXZXZXZXZXZXZXZXZXZX",
"NXBXNXNXBXNXBXBXBXZXZXZXZXZXm.: C.hX*X&XM.a t z V -.,.:.,.%...X.@.@.,.;.O.o...o.b b j p T #X$X*XJ.2 I ZXZXBXZXZXZXZXZXZXZXZXZXZX",
"BXBXBXBXZXZXZXBXZXZXZXZXZXZX,XT b.A.C.C.U h t M ~ c.^ x.x.&.&.*.r.w.r.r.5.1.+.A B B n 3 I M.H.J.c.] /.ZXZXVXBXBXZXZXZXZXZXZXZXZX",
"ZXZXZXZXZXZXZXZXZXZXZXZXZXBXnX,Xc.h n n g : 9 w W ~ ~ ~ B U v.F.}.].}.K.Y.D.3.8.~ ~ 0 8 9 h f h T ,XnXBXBXNXBXBXZXZXZXZXZXZXZXZX",
"ZXZXZXZXZXZXZXZXZXZXZXBXBXMXwXNX,XM.] M 9 : 0 Q ! ( ( ! w ' m.N./.J.A.A.J.H.q.0.~ W q 8 8 n D m.,XnXZXNXNXBXBXBXBXBXZXZXZXZXZXZX",
"ZXZXZXZXZXZXZXZXnXMXBXmXmXmX0XmX0X6X6X>Xm.w q / ( eXeX( Q q 9 3 3 3 w F N ] H.A._ E q W ' _.kXbXNXBXZXBXZXBXBXBXZXZXZXZXZXZXZXZX",
"ZXZXZXZXZXZXBXMXMX0XmXmXwXwX9X9XqX0X7X7X,X_ E ( ( eXrX( ( ! E q 7 q E E ! _ /.P.} ! Q ) `.nXZXZXBXZXZXZXBXZXBXZXZXZXZXZXZXZXZXZX",
"ZXZXZXZXZXMXqXMX0X7XwXmX0X0X0XwX0XwXvX0X1X| } sXSXsXSXSXsXuX} ! 7 / } uXSXfXlXaXdXdXtXiXkXNXZXZXZXZXZXZXZXZXZXBXZXZXZXZXZXZXZXZX",
"ZXZXZXZXwXBXMXqXwX7XwXwX0XmX7XwXwXwXvXvXjX| rXsXDXDXDXDXdXuX} ( 7 ( rXuXdXfXfXfXfXdXtXiXjXNXZXZXZXZXZXZXZXZXVXZXZXZXZXZXZXZXZXZX",
"ZXZXZXBXBXNXmXNXmXmX0XmX7X7X7X9XwX7XwX6X)._ _ } | L.P.iXL.} ) w q / ) } ^.L.yXyX| | ' { `.vXZXZXZXZXZXNXBXZXNXBXZXZXZXZXZXZXZXZX",
"ZXZXZXZXwXMXmXmXmXmXMXvX9XmXnXMXvXmXvX>X[ M M l V v.v.v.v.Z n G ` G n C c.v.n.v.C c M C B.1XCXZXZXNXZXBXNXBXNXZXZXZXZXZXZXZXZXZX",
"ZXZXZXBXZXNXZXCXNXnXNXMXNXNXNXNXNXNX,X[ I m.H.S.q.5.+.F.R.U j I _.0.j c n.D.-.A q.q.v.v.0.B.,XCXZXBXBXNXNXNXZXZXZXZXZXZXZXZXZXZX",
"ZXZXZXZXZXBXZXZXZXNXNXCXNXCXCXBXZXnX~.h U ).*X&X(.v u (.%XT h T ,Xm.l Z P.K.z d H.P.K.K.8.l A.nXZXBXNXNXNXNXZXZXZXZXZXZXZXZXZXZX",
"ZXZXZXZXZXZXZXZXZXZXZXZXZXNXZXBXCXnXA.g M ] c.c.6.d e T ] M h [ jXA.M j A U d a J 0.8.A C h m.bXBXBXBXBXZXZXZXZXZXZXZXZXZXZXZXZX",
"ZXZXZXZXZXZXZXZXZXZXZXZXZXBXZXZXZXnX/.9 : 2 2 g g g - t 3 ; n V.cX!.n : t : : : : g t t : 3 { cXZXZXZXZXZXZXZXZXZXZXZXZXZXZXZXZX",
"ZXZXZXZXZXZXZXZXZXZXZXZXZXZXZXZXZXZXjX{ G N m B m M I I Y ` { ).nX'.{ ' ] [ ] H ` ` ] m.N.A.,XVXZXZXZXZXZXZXZXZXZXZXZXZXZXZXZXZX",
"ZXZXZXZXZXZXZXZXZXZXZXZXZXZXZXZXZXZXCXVXVXVXVXVXVXVXVXVXVXVXVXZXZXVXVXVXVXVXZXnXVXVXZXVXZXVXZXZXZXZXZXZXZXZXZXZXZXZXZXZXZXZXZXZX"
};
