/* XPM */
static char *e73643f1ad5b47d0f1d75887eec90382a1KXA4Oxpg1u69RN[] = {
/* columns rows colors chars-per-pixel */
"64 64 248 2 ",
"   c #170F0E",
".  c #18140A",
"X  c #1B140C",
"o  c #0D1716",
"O  c #141514",
"+  c #1B1413",
"@  c #1B1717",
"#  c #141A14",
"$  c #14161A",
"%  c #131A1A",
"&  c #1C1A1B",
"*  c #250F0A",
"=  c #281609",
"-  c #35180A",
";  c #261916",
":  c #361D14",
">  c #1A211D",
",  c #2F220F",
"<  c #3C240D",
"1  c #28221A",
"2  c #3D2413",
"3  c #392718",
"4  c #1C1B23",
"5  c #241D26",
"6  c #1B2125",
"7  c #1B2838",
"8  c #262526",
"9  c #382924",
"0  c #372D2F",
"q  c #262D37",
"w  c #373537",
"e  c #461D08",
"r  c #551A0C",
"t  c #441B13",
"y  c #551D12",
"u  c #6A1D0E",
"i  c #751D14",
"p  c #45230D",
"a  c #4A240D",
"s  c #4A2A0C",
"d  c #57280D",
"f  c #432314",
"g  c #472818",
"h  c #4B2B1B",
"j  c #562718",
"k  c #4C3114",
"l  c #5A341A",
"z  c #73290D",
"x  c #6A251B",
"c  c #7A2617",
"v  c #673719",
"b  c #783C19",
"n  c #771E21",
"m  c #482C24",
"M  c #4A3629",
"N  c #553829",
"B  c #493B37",
"V  c #523D33",
"C  c #5A3A36",
"Z  c #7A2922",
"A  c #653A26",
"S  c #6A332B",
"D  c #783724",
"F  c #76421B",
"G  c #5B432D",
"H  c #484139",
"J  c #594535",
"K  c #5F503F",
"L  c #674228",
"P  c #784929",
"I  c #7D5224",
"U  c #7E532A",
"Y  c #664938",
"T  c #794836",
"R  c #6C5239",
"E  c #77553A",
"W  c #283748",
"Q  c #3A3947",
"!  c #243551",
"~  c #2F3C54",
"^  c #483849",
"/  c #793D43",
"(  c #314556",
")  c #344967",
"_  c #4D4547",
"`  c #56514D",
"'  c #734845",
"]  c #695546",
"[  c #775B47",
"{  c #685A55",
"}  c #7A624B",
"|  c #786855",
" . c #736A5A",
".. c #4F5F72",
"X. c #685C60",
"o. c #6F6B68",
"O. c #786C65",
"+. c #757A7B",
"@. c gray50",
"#. c #82270D",
"$. c #832612",
"%. c #842A1C",
"&. c #882A19",
"*. c #952C1C",
"=. c #893A18",
"-. c #97321E",
";. c #A0331E",
":. c #892922",
">. c #952E22",
",. c #863926",
"<. c #963426",
"1. c #9B3323",
"2. c #943834",
"3. c #AC3D25",
"4. c #AA392B",
"5. c #B1352E",
"6. c #B4392A",
"7. c #A83A33",
"8. c #864B19",
"9. c #96471A",
"0. c #85511C",
"q. c #96521B",
"w. c #884A26",
"e. c #984728",
"r. c #845628",
"t. c #995727",
"y. c #864934",
"u. c #9C4933",
"i. c #885838",
"p. c #96593B",
"a. c #A6462B",
"s. c #B24327",
"d. c #A6562D",
"f. c #AE4B35",
"g. c #A95639",
"h. c #B55A35",
"j. c #97692E",
"k. c #946531",
"l. c #9B6737",
"z. c #A46B2C",
"x. c #A8682B",
"c. c #A66B36",
"v. c #B56E33",
"b. c #AA7437",
"n. c #B9793A",
"m. c #C35E2F",
"M. c #C96A37",
"N. c #C9753B",
"B. c #843E40",
"V. c #855B46",
"C. c #985945",
"Z. c #8C5951",
"A. c #B05A42",
"S. c #8D6346",
"D. c #986848",
"F. c #876A57",
"G. c #976A55",
"H. c #89745C",
"J. c #9A7559",
"K. c #A76947",
"L. c #B66848",
"P. c #AC724D",
"I. c #B97945",
"U. c #A66D54",
"Y. c #A87757",
"T. c #B87755",
"R. c #897A64",
"E. c #917D67",
"W. c #917B78",
"Q. c #AD7A69",
"!. c #C47C43",
"~. c #C7714D",
"^. c #C5784A",
"/. c #C87B53",
"(. c #CB7D60",
"). c #BC8539",
"_. c #C5833A",
"`. c #D28E3B",
"'. c #B98351",
"]. c #98856C",
"[. c #9A8B74",
"{. c #9A8C76",
"}. c #A88467",
"|. c #B68866",
" X c #A18E73",
".X c #A8977B",
"XX c #B79376",
"oX c #C98848",
"OX c #D18E45",
"+X c #D89848",
"@X c #C98458",
"#X c #D4875B",
"$X c #DC9958",
"%X c #E39A4C",
"&X c #D8A34A",
"*X c #D6A351",
"=X c #E1A050",
"-X c #C48967",
";X c #D68967",
":X c #CA936D",
">X c #DA9768",
",X c #C28B75",
"<X c #C79576",
"1X c #D69B75",
"2X c #DC9C73",
"3X c #E28F65",
"4X c #E29C69",
"5X c #E49D73",
"6X c #DEA16B",
"7X c #DAA075",
"8X c #DEA27B",
"9X c #E3A367",
"0X c #E3A26C",
"qX c #E3A273",
"wX c #E3A37A",
"eX c #425E84",
"rX c #526F87",
"tX c #667B95",
"yX c #9D7F81",
"uX c #718498",
"iX c #928E88",
"pX c #A99C82",
"aX c #B69584",
"sX c #B5A385",
"dX c #B6A789",
"fX c #BCAB8C",
"gX c #B5AD99",
"hX c #879DB6",
"jX c #8DA4BD",
"kX c #9BA8BB",
"lX c #ACA9B0",
"zX c #CC9C82",
"xX c #DAA985",
"cX c #C4B493",
"vX c #C7B798",
"bX c #CCBC9A",
"nX c #DCB799",
"mX c #D0BF9D",
"MX c #DFBFA6",
"NX c #D2C19E",
"BX c #D7C6A2",
"VX c #D3C2BD",
"CX c #EECCB3",
"ZX c #93AAC2",
"AX c #A5B0C2",
"SX c #DFCAC0",
"DX c #E8D7C8",
"FX c #F1E5D3",
/* pixels */
"BXBXBXBXBXBXBXBXBXBXBXBXBXBXBXBXBXBXBXBXBXNXNXbXvXcXcXcXvXvXvXvXvXvXvXcXcXcXcXvXNXBXBXBXBXBXBXBXBXBXBXBXBXBXBXBXBXBXBXBXBXBXBXBX",
"BXBXBXBXBXBXBXBXBXBXBXBXBXBXBXBXBXBXBXBXdX| K G G V V V V V G G G H J J J J J ] | ].cXBXBXBXBXBXBXBXBXBXBXBXBXBXBXBXBXBXBXBXBXBX",
"BXBXBXBXBXBXBXBXBXBXBXBXBXBXBXBXBXBXmXsX| g < s p p a a p p a a a a p p a p p g f m R.fXcXbXBXBXBXBXBXBXBXBXBXBXBXBXBXBXBXBXBXBX",
"BXBXBXBXBXBXBXBXBXBXBXBXBXBXBXBXBXNX XG G U r.r.r.j.j.k.k.k.k.k.k.j.j.k.l.k.r.i.i.E L Y [ E.dXNXBXBXBXBXBXBXBXBXBXBXBXBXBXBXBXBX",
"BXBXBXBXBXBXBXBXBXBXBXBXBXBXBXBXNX.XR d F P.'.)._.+X+X*X*X*X*X*X&X&X&X&X&X+XoXoXoXP.F e e h } sXBXBXBXBXBXBXBXBXBXBXBXBXBXBXBXBX",
"BXBXBXBXBXBXBXBX@.@.@.BXBXBXBXBXsXR L r.k.c.v.n._.`.+X+X&X&X&X&X&X&X&X`.`.`.`.OX_.'.z.r.I F L [ sXBXBXBXBXBXBXBXBXBXBXBXBXBXBXBX",
"BXBXBXBXBXBXBX@.@.@.@.@.BXBXBXNXR.h P '.P.d.x.N.N.N.`.+X=X=X+X+X&X&X=X+X_.`.%X%X`._.oXoXc.k.P h | NXBXBXBXBXBXBXBXBXBXBXBXBXBXBX",
"BXBXBXBXBXBXBXBXBXBXBXBXBXBXBXmX] t D g.u.e.a.h.h.m.m.M.M.M.M.M.M.M.M.M.m.m.M.M.M.M.h.g.u.e.D t J bXBXBXBXBXBXBXBXBXBXBXBXBXBXBX",
"BXBXBXBXBXBXBXBXBXBXBXBXBXBXBXfXC t u Z %.$.-.3.s.3.3.s.s.s.s.s.s.s.s.s.3.3.6.s.3.4.<.:.:.Z x t N fXBXBXBXBXBXBXBXBXBXBXBXBXBXBX",
"BXBXBXBXBXBXBXBXBXBXBXBXBXBX X] m j x Z c %.:.<.-.-.-.-.1.1.1.1.<.<.<.<.1.1.1.1.1.>.%.c c c u y f [ [.BXBXBXBXBXBXBXBXBXBXBXBXBX",
"BXBXBXBXBXBXBXBXBXBXBXBXBXdXY - j x x u i c c $.#.#.z #.z c c c c c c $.$.$.$.#.$.$.c c z u u d a e N sXBXBXBXBXBXBXBXBXBXBXBXBX",
"BXBXBXBXBXBXBXBXBXBXvXsX X} A l v b =.=.9.9.9.9.9.q.q.q.q.q.t.t.t.q.q.q.q.q.q.e.9.9.9.9.=.=.=.b b v l } .XcXbXNXBXBXBXBXBXBXBXBX",
"BXBXBXBXBXBXBXBXBXsX} N h s r.p.t.t.v.!.!.!.!.!.!.$X$X$X$X$X$X$X$X$X$X$X$X$X$X$XoX!.!.!.!.!.!.I.I.k.r.d l N ] pXBXBXBXBXBXBXBXBX",
"BXBXBXBXBXBXBXmXsXR.G k d d k.c.z.x.v._._._.!.I.n.oXOXOXOXOXOXOXOXOXOXOXOXOXOXoXn.n.n.n.n._._._.n.z.t.v d l G E.fXNXBXBXBXBXBXBX",
"BXBXBXBXBXBXNX.X[ E S.D.l.l.'.'.!.n.).)._.oXI.c.c.c.c.z.z.z.x.x.x.z.z.z.x.x.c.c.z.z.z.z.b.)._._.n.n.I.b.K.P.D.E } sXBXBXBXBXBXBX",
"BXBXBXBXBXcX.XF.l P I.I.b.b.n.b.b.c.j.j.c.l.k.r.U U I I r.r.I I I I I r.0.r.U U r.I r.I k.l.z.c.b.b.b.b.n.n.I.r.v E.cXBXBXBXBXBX",
"BXBXBXBXbXR.Y R i.c.!.n.q.8.r.I v s k k k k k 2 < < < < p 2 2 2 2 2 f f p p 3 3 2 2 f 2 g k s s l I I 0.q.v.!.c.i.E H.cXBXBXBXBX",
"BXBXBXBXvX] f A c.b.n.v.8.F l N 3 . X + ; ; + . X ; : : : ; + + O @ + ; : 3 . o # O @ @ O O X X , N A F 8.x.n.b.K.L M  XNXBXBXBX",
"BXBXBXBXvX] p v k.t.q.0.F A 2 1 # # $ $ & 8 6 % 1 } S.G.F.M   @ 8 & & 0 F.V.; . O $ 4 5 4 $ % # # 1 3 A b 8.q.t.l.v f ].NXBXBXBX",
"BXBXBXBXbX| m L i.0.F F A N ; O o % % @ ; 8 6 % 3 Y.@X@XT.A = ; 1 ; + M Q.Y.< = ; O 6 8 5 & o % o $ ; N A F F w.i.L R .XNXBXBXBX",
"BXBXBXBXBXvX.XE k v v l 2 ; @ O O # & 1 ; & % O 3 |.3X3X;XQ.F.M = + . M :X>XY.J.m X O @ @ > > # % % O ; 2 l A v l } sXNXBXBXBXBX",
"BXBXBXBXBXBXbXE.m h A N ;   % % + @ > 8 1 +   X 2 |.wXwX1X<X}.G . # . N :X>XxXzXN * . + 1 8 % O O % o O ; m C h g H.vXBXBXBXBXBX",
"BXBXBXBXBXBXBXvX.X[ m 1 @ % % O + + % 6 4 * f Y R R ] R [ }.XXG . # X N <X:XR Y T Y 9 . % > % + ; # o % @ 8 9 ] R.fXBXBXBXBXBXBX",
"BXBXBXBXBXBXBXBXBXdX` 1 % % % % +   # $ O * A G.H.m 1 1 3 J.XXR = = * N <X|., = Z.G.G = X O % + + O o % o @ B [.bXBXBXBXBXBXBXBX",
"BXBXBXBX@.@.BXBXBXBXdXR.` q % O @ + . . 9 N C.XXaXR.O.0 3 J.:XD.P L A P U.G.; = H.XXp.A g * + + + $ $ 6 H ` R.fXBXBXBXBXBXBXBXBX",
"BXBXBX@.@.@.@.BXBXBXBXNXcX{ 6   + X X X V G.,XCXCXSXVX^ - D.:X1X1X-XT.p.v l . 1  XnX-XU.S = X X . + $ w pXcXNXBXBXBXBXBXBXBXBXBX",
"BXBXBXBXBXBXBXBXBXBXBXBXpX_ & . 9 M 3 * G E.zXCXDXDXSXB - U.1X2XwX>X-XT.C.i.= 1 pXBX1XQ.T - 1 M 9 ; @ 8 O.cXBXBXBXBXBXBXBXBXBXBX",
"BXBXBXBXBXBXBXBXBXBXBXBX .8   = R F.Y = Y |.xXCXFXFXDX_ - Y.8XwXqX4X2X1X1X|.= 1 gXDXnX,XT - M F.R = + & H dXBXBXBXBXBXBXBXBXBXBX",
"BXBXBXBXBXBXBXBXBXBXBXBXpX .X = E }.' - A |.xXCXFXFXFXH - Y.8X7X0X0XqXqX8X|., 1 gXFXnXXXE = V }.V.= ; w O.bXBXBXBXBXBXBXBXBXBXBX",
"BXBXBXBXBXBXBXBXBXBXBXBXBXcX9 = F.aX[ - L |.xXCXFXFXFXB - Y.qX5X0X0X4X5XxXXX- ; gXFXMX<XE = J .XH.= ; R.vXBXBXBXBXBXBXBXBXBXBXBX",
"BXBXBXBXBXBXBXBXBXBXBXBXBXBX{.J | E.Y < Y |.8XCXCXCXMX] L '.qXqX5X0X0X5X5X,XG J cXCXnX<XV.- N R.{ 3 ] cXBXBXBXBXBXBXBXBXBXBXBXBX",
"BXBXBXBXBXBXBXBXBXBXBXBXBXBXBXcX[ : m N V.-X>X>X;XL.T.:X1X6XqX2X8XwXqX0XqXwX:X7X7XwX8XzXG.m 3 ; H R.bXBXBXBXBXBXBXBXBXBXBXBXBXBX",
"BXBXBXBXBXBXBXBXBXBXBXBXBXBXBXBXcX| M N [ T.#X;X#X~.~.>X0X4X0X8X8X2X7X9X4X4X5X5X4X2X>X,XZ.m 8 M H.NXBXBXBXBXBXBXBXBXBXBXBXBXBXBX",
"BXBXBXBXBXBXBXBXBXBXBXBXBXBXBXBXBXbX].9 f A y.T.@X5X3X>X>X9X0X2XwXwXqX9X9X9X0X2X@XT.p.S h ; H [.bXBXBXBXBXBXBXBXBXBXBXBXBXBXBXBX",
"BXBXBXBXBXBXBXBXBXBXBXBXBXBXBXBXBXBXcX| M g N V.D.-X;X>X>X>X>X2X2X>X>X>X>X>X-X-XK.C.D j 2 9 O.vXBXBXBXBXBXBXBXBXBXBXBXBXBXBXBXBX",
"BXBXBXBXBXBXBXBXBXBXBXBXBXBXBXBXBXBXBXcXR.3 = : f S y.P.T.@X^././././././.K.P A l j y t m | fXBXBXBXBXBXBXBXBXBXBXBXBXBXBXBXBXBX",
"BXBXBXBXBXBXBXBXBXBXBXBXBXBXBXBXBXBXBXcXR.M - = - j x C.K.L.I.~.~.L.L.L.L.p.x j y r r j N E.bXBXBXBXBXBXBXBXBXBXBXBXBXBXBXBXBXBX",
"BXBXBXBXBXBXBXBXBXBXBXBXBXBXBXBXBXBXcXH.R E P j j x x D D t.h.h.h.g.g.u.,.Z Z x x x ,.y.A N E.bXBXBXBXBXBXBXBXBXBXBXBXBXBXBXBXBX",
"BXBXBXBXBXBXBXBXBXBXBXBXBXBX@.@.BXmX].A P U.p.D x :.%.i u e.d.d.h.d.u.,.u i :.:.:.%.u.K.D j Y .XNXBXBXBXBXBXBXBXBXBXBXBXBXBXBXBX",
"BXBXBXBXBXBXBXBXBXBXBXBXBX@.@.@.+.H.V.C.P.@XA.c i <.4.:.c g.~./.(.~.L.u.c i <.<.&.*.g./.K.C.T Y  XBXBXBXBXBXBXBX@.BXBXBXBXBXBXBX",
"BXBXBXBXBXBXBXBXBXBXBXBXBXBXBXBX[.h T (.(.;XL.c n 7.7.:.%.A.(.;X3X#X~.g.i i 7.7.:.*.h.#X@XT.y.g ] NXBXBXBXBXBX@.@.@.BXBXBXBXBXBX",
"BXBXBXBXBXBXBXBXBXBXBXBXBXBXBXNXH.e y.;X#X/.A.c i 7.5.1.<.u.g.~.;X~.a.e.*.>.7.7.:.&.g.@X@X#Xp.a V bXBXBXBXBXBXBXBXBXBXBXBXBXBXBX",
"BXBXBXBXBXBXBXBXBXBXBXBXBXBXBXvXJ p p.2X>X/.g.c i 5.6.6.3.&.%.L.;Xg.$.*.4.6.5.4.*.>.g.^.#X>Xp.a g dXBXBXBXBXBXBXBXBXBXBXBXBXBXBX",
"BXBXBXBXBXBXBXBXBXBXBXBXBXBXsX[ L i.P.2X@Xg.w.u i 4.6.6.3.*.%.u.g.a.*.;.6.6.6.5.:.:.u.h./.2XT.i.A Y ].BXBXBXBXBXBXBXBXBXBXBXBXBX",
"BXBXBXBXBXBXBXBXBXBXBXBXBXBX[ e S.:X1X2XT.u.%.i i 4.6.6.3.*.$.%.$.*.5.5.5.5.5.4.:.:.<.a.~.>X@X'.p.a C BXBXBXBXBXBXBXBXBXBXBXBXBX",
"BXBXBXBXBXBXBXBX@.BXBXBXBXBXY e D.>X>X2XT.,.c c &.4.6.6.3.*.&.<.a.3.6.5.5.5.6.4.:.%.&.=.L.>X;X@XK.e m NXBXBXBXBXBXBXBXBXBXBXBXBX",
"BXBXBXBXBXBXBX@.@.@.BXBXBXBXG e D.2X4X>XK.d r Z :.4.5.6.6.*.&.g.~.h.s.3.3.3.3.3.*.$.u r p.1X2X>XY.a N NXBXBXBXBXBXBXBXBXBXBXBXBX",
"BXBXBXBXBXBXBXBXBXBXBXBXBXBXY e D.8X>X>XD.d y x :.4.5.6.5.*.&.u.A.f.4.4.1.1.;.1.&.Z y e i.:X>X1XY.e V BXBXBXBXBXBXBXBXBXBXBXBXBX",
"BXBXBXBXBXBXBXBXBXBXBXBXBXBX[ : G.xX1X:XD.a e x D u.7.7.7.>.$.%.&.-.4.4.&.&.$.%.Z S j f [ :X>X1XY.f ] BXBXBXBXBXBXBXBXBXBXBXBXBX",
"BXBXBXBXBXBXBXBXBXBXBXBXBXBX.XR [ J.U.G.T f 2 N C ' / B.2.,.,.e.d.d.h.d.e.e.=.,.S C m 3 Y D.K.Y.V.] ].BXBXBXBXBXBXBXBXBXBXBXBXBX",
"BXBXBXBXBXBXBXBXBXBXBXBXBXBXNXfX[ h m m g : 9 w Q ^ ^ ^ C T C.P.@X@X^.T.T.L.q.y.C ^ 0 1 3 h a h [ sXbXBXBXBXBXBXBXBXBXBXBXBXBXBX",
"BXBXBXBXBXBXBXBXBXBXBXBXBXBXBXBXdXH.[ V 9 : 0 W ~ ) ) ~ Q ] [ G.}.Y.J.J.Q.U.t.i.^ Q q 8 8 9 J } .XNXBXBXBXBXBXBXBXBXBXBXBXBXBXBX",
"BXBXBXBXBXBXBXBXBXBXBXBXBXBXBXBXBXNXbXdXO.w q ~ ) eXeX) W w 9 3 3 9 w B B ' Y.J.` W q w { {.cXmXBXBXBXBXBXBXBXBXBXBXBXBXBXBXBXBX",
"BXBXBXBXBXBXBXBXBXBXBXBXBXBXBXBXBXBXBXBXdX` W ) ) rXrX) ( ( W q 8 q W W ~ ` }.]...~ ! _ iXbXBXBXBXBXBXBXBXBXBXBXBXBXBXBXBXBXBXBX",
"BXBXBXBXBXBXBXBXBXBXBXBXBXBXBXBXBXBXBXBXvX+.rXhXjXjXZXjXhXuX..~ 7 ( ..uXZXlXgXgXkXjXtXuXvXBXBXBXBXBXBXBXBXBXBXBXBXBXBXBXBXBXBXBX",
"BXBXBXBXBXBXBXBXBXBXBXBXBXBXBXBXBXBXBXBXgX+.rXhXkXAXAXAXkXuX..( 7 ) rXuXkXlXgXlXkXkXuXiXvXBXBXBXBXBXBXBXBXBXBXBXBXBXBXBXBXBXBXBX",
"BXBXBXBXBXBXBXBXBXBXBXBXBXBXBXBXBXBXBXNX.X` ` X.O.W.W.yXW.X._ Q w Q _ X.W.W.W.W.O.o.{ X.pXNXBXBXBXBXBXBXBXBXBXBX@.@.BXBXBXBXBXBX",
"BXBXBXBXBXBXBXBXBX@.BXBXBXBXBXBXBXBXBXdX} M l l v p.u.C.C.S m V { ^ h N p.C.C.C.A l N A F.cXBXBXBXBXBXBXBXBXBX@.@.@.@.BXBXBXBXBX",
"BXBXBXBXBXBXBXBX@.@.@.BXBXBXBXBXBXBXdX[ Y S.D.K.c.w.=.T.T.P h Y  X[ j v K.L.,.,.i.D.p.p.V.F.sXNXBXBXBXBXBXBXBXBXBXBXBXBXBXBXBXBX",
"BXBXBXBXBXBXBXBXBXBXBXBXBXBXBXBXBXNX].h R XXzX1X-Xb d |.<XE h R .X| j D T.T.v d K.-X(.U.y.l H.bXBXBXBXBXBXBXBXBXBXBXBXBXBXBXBXBX",
"BXBXBXBXBXBXBXBXBXBXBXBXBXBXBXBXBXbXE.2 N [ V.V.T d e E [ N g [ dXH.m j T T a s L i.y.T S f | vXBXBX@.@.BXBXBXBXBXBXBXBXBXBXBXBX",
"BXBXBXBXBXBXBXBXBXBXBXBXBXBXBXBXBXbXE.9 3 2 2 f f f - f f : 9 | cXR.m : : t - 2 2 f t t : 3 | cXBX@.@.@.@.BXBXBXBXBXBXBXBXBXBXBX",
"BXBXBXBXBXBXBXBXBXBXBXBXBXBXBXBXBXBXdX| H M M M M N J Y ] ` { {.BX.X| ] ] { ] J ] ] [ } | R.pXmXBXBXBXBXBXBXBXBXBXBXBXBXBXBXBXBX",
"BXBXBXBXBXBXBXBXBXBXBXBXBXBXBXBXBXBXBXNXNXmXmXmXNXmXmXNXNXNXNXBXBXBXBXBXNXNXNXNXNXNXNXNXNXNXBXBXBXBXBXBXBXBXBXBXBXBXBXBXBXBXBXBX"
};
