/* XPM */
static char *result[] = {
/* columns rows colors chars-per-pixel */
"64 64 231 2 ",
"   c #1B0E0B",
".  c #17140C",
"X  c #1A110C",
"o  c #170E11",
"O  c #0E1716",
"+  c #131313",
"@  c #1C1313",
"#  c #18191A",
"$  c #250E0F",
"%  c #25130D",
"&  c #3A1907",
"*  c #3C1C0D",
"=  c #291A15",
"-  c #231C1A",
";  c #361B15",
":  c #37220F",
">  c #3B2316",
",  c #3B231A",
"<  c #291D22",
"1  c #1A2A3B",
"2  c #322828",
"3  c #272B35",
"4  c #471908",
"5  c #421C0C",
"6  c #551A0B",
"7  c #411D14",
"8  c #4A1B17",
"9  c #561B16",
"0  c #5C1A14",
"q  c #6E1C0F",
"w  c #6A1D16",
"e  c #751E17",
"r  c #482308",
"t  c #55290A",
"y  c #57310D",
"u  c #442314",
"i  c #482919",
"p  c #562919",
"a  c #4E381D",
"s  c #573219",
"d  c #6D290C",
"f  c #6A2418",
"g  c #792716",
"h  c #74231C",
"j  c #7C241D",
"k  c #7C2B1B",
"l  c #6A391C",
"z  c #7C3919",
"x  c #4E1E22",
"c  c #482B25",
"v  c #562922",
"b  c #4C3526",
"n  c #563827",
"m  c #513534",
"M  c #6C2925",
"N  c #782622",
"B  c #683926",
"V  c #763722",
"C  c #703833",
"Z  c #6C421B",
"A  c #7A461B",
"S  c #57442E",
"D  c #594636",
"F  c #684429",
"G  c #784826",
"H  c #79512C",
"J  c #664935",
"K  c #754934",
"L  c #6A533C",
"P  c #7A5637",
"I  c #1C2F46",
"U  c #26364B",
"Y  c #353749",
"T  c #273C56",
"R  c #563C4B",
"E  c #28425C",
"W  c #37455A",
"Q  c #2D4A69",
"!  c #344B6A",
"~  c #39577A",
"^  c #544A51",
"/  c #765B43",
"(  c #685352",
")  c #6E614A",
"_  c #7C6549",
"`  c #475770",
"'  c #644F67",
"]  c #655366",
"[  c #5F6578",
"{  c #78696B",
"}  c #83251C",
"|  c #88281A",
" . c #96271D",
".. c #922A1D",
"X. c #87351B",
"o. c #913815",
"O. c #832522",
"+. c #862720",
"@. c #982D23",
"#. c #883A23",
"$. c #963525",
"%. c #A93C27",
"&. c #AC3B2C",
"*. c #B3392B",
"=. c #B43829",
"-. c #AB3B31",
";. c #B13A31",
":. c #88461A",
">. c #94451C",
",. c #995B1D",
"<. c #A2531E",
"1. c #9D6419",
"2. c #844B2B",
"3. c #884A29",
"4. c #924523",
"5. c #944A27",
"6. c #895629",
"7. c #9C5D24",
"8. c #965628",
"9. c #9C5C2B",
"0. c #8B4B32",
"q. c #885835",
"w. c #985A35",
"e. c #A44726",
"r. c #A45A29",
"t. c #B55526",
"y. c #A25835",
"u. c #9A6129",
"i. c #996636",
"p. c #A96726",
"a. c #A5642A",
"s. c #AB6C2B",
"d. c #B16D2F",
"f. c #B6762A",
"g. c #B3722C",
"h. c #A86A34",
"j. c #AB7235",
"k. c #B87937",
"l. c #C37B39",
"z. c #8D4243",
"x. c #914342",
"c. c #8A5644",
"v. c #975E44",
"b. c #86684A",
"n. c #966548",
"m. c #94734C",
"M. c #8D6D51",
"N. c #8A7355",
"B. c #977A57",
"V. c #A56545",
"C. c #B06D4D",
"Z. c #AC7746",
"A. c #B87647",
"S. c #AA7859",
"D. c #B77556",
"F. c #B07B65",
"G. c #C77D47",
"H. c #C77C55",
"J. c #BB8138",
"K. c #CA872F",
"L. c #C58636",
"P. c #CC8C34",
"I. c #C4843B",
"U. c #C68A3B",
"Y. c #CB8B3B",
"T. c #D18A39",
"R. c #CB9136",
"E. c #CD933A",
"W. c #D69A3C",
"Q. c #9A815D",
"!. c #B98546",
"~. c #A6865C",
"^. c #BC8358",
"/. c #B5925F",
"(. c #9E8562",
"). c #A88C67",
"_. c #B49368",
"`. c #B99868",
"'. c #BDA373",
"]. c #C68543",
"[. c #CB8A43",
"{. c #D28443",
"}. c #D89D44",
"|. c #D48D59",
" X c #DBA445",
".X c #DEA945",
"XX c #DAA448",
"oX c #DDA94B",
"OX c #E1A848",
"+X c #E2A94B",
"@X c #CC8966",
"#X c #D68D66",
"$X c #D5926C",
"%X c #E09369",
"&X c #C7A977",
"*X c #D2A870",
"=X c #CDB17D",
"-X c #D8B47B",
";X c #ECB46E",
":X c #E5B978",
">X c #EEBE7B",
",X c #F2BC75",
"<X c #F1BE7A",
"1X c #EEC17D",
"2X c #F3C077",
"3X c #F1C17C",
"4X c #395C87",
"5X c #3C5E93",
"6X c #475785",
"7X c #5C738F",
"8X c #6A788F",
"9X c #6581A1",
"0X c #9A868A",
"qX c #A18D91",
"wX c #A59596",
"eX c #ADA19E",
"rX c #9BA5BC",
"tX c #D5B781",
"yX c #DBBC84",
"uX c #DFC188",
"iX c #E8C587",
"pX c #ECCB8C",
"aX c #F2C582",
"sX c #F3C885",
"dX c #F4CD8C",
"fX c #F5D08F",
"gX c #EFCF91",
"hX c #F4CF90",
"jX c #F6D593",
"kX c #9DADC2",
"lX c #A3B0C6",
/* pixels */
"jXjXjXjXjXjXjXjXjXjXjXjXjXjXjXjXjXjXjXjXjXjXpXiXyXyXtX&X&X'.'.'.'.=X=XuXuXuXiXpXiXpXjXjXjXjXjXjXjXjXjXjXjXjXjXjXjXjXjXjXjXjXjXjX",
"jXjXjXjXjXjXjXjXjXjXjXjXjXjXjXjXjXjXjXjXiXB.L m b b c 2 , , , , > , , a b b S D D _ &XjXjXjXjXjXjXjXjXjXjXjXjXjXjXjXjXjXjXjXjXjX",
"jXjXjXjXjXjXjXjXjXjXjXjXjXjXjXjXjXjXjX-X_ , , 7 u u 7 u u u u r : : r : r & * * * > L &XiXgXjXjXjXjXjXjXjXjXjXjXjXjXjXjXjXjXjXjX",
"jXjXjXjXjXjXjXjXjXjXjXjXjXjXjXjXjXjX=X_ a K H H H A G i.j.i.i.j.j.j.j.i.Z l l B F B i n S / _.jXjXjXjXjXjXhXdXjXjXjXjXjXjXjXjXjX",
"jXjXjXjXjXjXjXjXjXjXjXjXjXjXjXjXfXuXm.r t i.u.u.,.1.1.J.P.U.T.Y.U.[.].k.:.:.:.A G G t 4 * : n &XjXjXjXjXdXdXdXjXdXfXfXfXjXjXjXjX",
"jXjXjXjXjXjXjXjXjXjXjXjXjXjXjXjX-Xb.K Z A u.u.g.f.f.f.L.P.T.T.P.Y.Y.[.P.f.p.s.g.7.3.A l l s v n Q.jXjXjXjXdXdXdXfXfXfXfXjXjXjXjX",
"jXjXjXjXjXjXjXjXjXjXjXjXjXjXjXgXm.p F w.u.u.p.I.T.Y.P.Y.P.T.P.T.P.P.R.T.Y.Y.E.[.p.7.9.w.6.G B 5 i &XgXhXdXdXsXsXdXfXjXfXjXjXjXjX",
"jXjXjXjXjXjXjXjXjXjXjXjXjXjXyXN.J G 3.r.p.k.l.Y.T.P.R.}. X}.}.W.W.W.W.W.R.P.Y.[.l.f.p.u.8.6.2.l n n Q.pXjXjXhXjXfXfXjXjXjXjXjXjX",
"jXjXjXjXjXjXfXjXjXjXjXjXjXjXm.: F i.8.,.s.{.T.P.K.R.R. XoXoXoXOXOXOXOX.XR.K.L.P.Y.Y.p.,.7.9.8.3.B 7 S tXjXjXjXjXfXjXjXjXjXfXjXjX",
"jXjXjXjXjXsXaXfXjXjXjXhXjXiXP & Z i.h.s.f.Y.T.P.P.E.E.XXoXoXoX.XOX.X.X X}.R.R.P.Y.L.f.g.p.7.8.3.G 5 n &XjXjXfXjXjXfXhXfXdXjXjXjX",
"jXjXjXjXfX<X3XsX3XsXsXaX3X`.n 4 z u.g.U.Y.P.P.P.R. XoX.XoXoXOX.X.XoXoXoXoX}.R.P.T.T.T.[.g.,.a.y.2.5 c _.fXjXjXjXjXdXfXfXhXdXfXjX",
"jXjXfXdXsXaX2X2X3XsX3X3X:XM.v 6 A a.g.U.R.P.P.P.R..XoXoXoXoX.X.X.X.X.XoXOXOXR.K.Y.Y.Y.].j.,.7.u.H 4 u L ~.>XfXsXjXjXfXfXdXjXfXjX",
"jXjXjXjX<X,X,X,X,X3X,X:Xb.i v f :.7.g.I.E.L.P.P.P.+X+X+XoX+XOXOXOXOXOX+XoX}.R.P.T.Y.U.[.j.1.,.u.2.4 5 > b ^.,X2XaXdXdXdXfXjXjXjX",
"jXjXjXfXdXaX3X<X2X<X-Xm.B 9 9 f :.r.g.U.U.R.K.R.R. XXX+X+X+XOXOXOX.X X.XOX}.R.P.P.K.E.[.j.u.u.9.3.6 6 4 i P m.;X<XaX<XdXjXjXjXjX",
"jXjXjXfXdXdXsXsXsX-X/ K K 2.M f >.r.d.I.U.R.P.P.P.R.E.}.oXoX.X.X.X.X.X XT.P.P.P.K.P.P.U.j.,.u.w.0.d d H P y > m.aXaXaXdXdXdXjXjX",
"jXjXjXfXfXfXfXfXfX&Xb 7 P 2.h e #.y.h.l.L.U.P.P.P.U.Y.}.XXXXXX X X X X}.E.U.P.P.R.R.J.J.s.u.9.8.3.f f 0.q.s * b.sXdXdXdXdXdXdXdX",
"jXjXjXjXjXjXjXjXjX&Xb r 6.6.k w g z 4.a.g.P.Y.P.P.P.R.R.E.E.R.R.R.R.R.E.Y.Y.Y.Y.Y.P.f.p.7.9.5.z k q k 3.q.y ; / aXsXsXsXdXdXdXdX",
"jXjXjXjXjXjXjXjXjX&Xi r 6.5.k q h g $.8.p.l.L.L.P.P.P.P.P.P.P.P.P.P.Y.Y.Y.T.T.Y.L.K.p.,.7.r.8.k j w g 0.8.l > b.sXdXdXdXjXdXjXjX",
"jXjXjXjXjXjXjXjXjX&Xu r 3.8.g e j N #.9.7.p.s.L.U.P.P.P.P.T.P.T.T.R.Y.Y.Y.[.Y.U.g.p.p.7.9.9.4.k j w g 5.0.y ; b.dXdXdXfXdXjXjXdX",
"jXjXjXjXjXjXjXjXfX=Xu r 6.5.g d e j #.w.8.8.a.G.].I.I.K.U.P.P.Y.P.P.Y.Y.I.I.].].p.,.8.a.w.8.4.k h g g 5.w.s * b.fXjXjXjXjXjXjXjX",
"jXjXjXjXjXjXjXjXjXtXi r 6.9.4.#.k k } X.X.4.8.a.d.d.d.l.T.T.T.T.U.U.Y.I.f.p.g.p.a.8.9.u.3.z k h k $.4.8.w.y u m.jXjXjXjXjXjXjXjX",
"jXjXjXjXjXjXjXjXjXtXc r 2.9.r.y.X.k g g X.#.4.e.r.r.t.l.{.{.l.{.{.T.{.l.<.t.<.r.9.y.y.w.3.g k f k y.9.7.8.y : N.jXjXjXjXjXjXjXjX",
"jXjXjXjXjXjXjXjXjXuXi r 6.i.j.k.5.#.X.g | | | $.$.e.e.t.t.t.t.t.t.t.t.t.<.>.o.| X.X.#.#.k q N N X.r.7.u.6.y : Q.jXdXjXjXjXjXjXjX",
"jXjXjXjXjXjXjXjXjXgXn i H i.J.U.h.r.>.| g e e q | &.e.=.e.=.e.=.=.e.*.e.%.e.| | | } } j g d k 5.8.7.8.8.q.a i `.dXdXjXjXjXjXjXjX",
"jXjXjXjXjXjXfXdXdXdX_.K B G k.R.k.d.e.4.X.g } e O.@.@.$.@.@.@.@.@.@.@.@.@.@...O.} e j g j X.4.y.7.,.7.G F J S.yXjXjXjXjXjXjXjXjX",
"jXjXjXjXjXfXjXdXdXdXdX`.n t j.J.[.].k.r.5.g g j } O.O.O.} } | ..|  .} } +.+.O.O.e w q f #.w.h.k.k.u.6.t p ).dXfXjXdXjXjXjXjXjXjX",
"jXjXjXjXjXjXfXfXsXdXdX:XD : H 6.A.].l.d.t.5.4.5.5.j O.O.} } } } | } } } N O.N O.} z g d 3.j.k.k.j.A F P Q.iXjXjXjXjXjXjXjXjXjXjX",
"jXjXjXjXjXjXhXjXsXpXdXiXL . & & q.].I.T.G.l.k.A.V.X.| } | } g | | | | } O.O.e w g :.:.:.a.J.l.].i.& n '.jXjXjXjXjXjXjXjXjXjXjXjX",
"jXjXjXjXjXjXjXjXdXfXdXiX_ @ = * P Z.!.J.J.j.J.J.k.>.>.>.>.>.4.>.o.>.>.>.4.:.X.:.4.8.>.,.u.j.h.u.H & L -XjXjXjXjXjXjXjXjXjXjXjXjX",
"jXjXjXjXjXjXjXjXjXjXjXgXB.# . % : r Z ,.s.J.U.J.[.L.l.I.G.l.I.G.{.l.G.].].l.].l.I.[.I.A.j.u.A t r % N.pXfXfXjXfXjXjXjXjXjXjXjXjX",
"jXjXjXjXjXjXjXjXjXjXjXjXyX(.) ^ - = S H i.J.J.J.J.P.K.T.T.Y.Y.U.U.[.E.U.U.L.J.I.f.k.k.!.i.H F * & ) =XfXdXfXfXfXfXfXjXjXjXjXjXjX",
"jXjXjXjXjXjXjXjXjXjXjXjXjXjXgXuX) . . = = > a Z A 1.p.k.Y.P.K.P.Y.T.T.T.Y.J.s.u.Z y : : = : % % ) pXfXfXfXdXdXfXfXfXjXjXjXjXjXjX",
"jXjXjXjXjXjXjXjXjXjXjXjXjXdXjXjX'.3 # # # - ; i s q.q.Z.^.!.!.!.J.].!.!.!.Z.q.q.p * = + O + - S '.jXjXdXdXdXdXdXfXfXfXjXjXjXjXjX",
"jXjXjXjXjXjXjXfXdXjXsXdXdXsXdXdXiXtX_ # # # - ; > > i a b a b a a a a b s n i , ; % @ # # - B.pXjXjXjXfXfXfXdXfXdXjXfXjXjXjXjXjX",
"jXjXjXjXjXjXdX3XsXsX3XdXsXsXfXsX3XaX/.b # # - @ X $ .   . . $   % @ . + . . O . . @ @ # # S _.1XdXdXfXjXjXfXjXfXfXfXfXjXjXjXjXjX",
"jXjXjXjXjXjXdX3X<X<X3X<X<XsX3X3X>X,X;X/.^ # - - = @ . . # X o @ - # O O + . O O - - @ + L /.;X;X3X3XaXaXjXfXjXfXfXjXjXjXjXjXjXjX",
"jXjXjXjXdX3X,X2X;X;X,X,X,X3X>X<X<X,X,X,X(   $ ; , $ o o o o o < 3 < # O @ o . o < ; o o b.>X<X,X3X3X2XaXfXsXjXdXdXjXfXjXjXjXjXjX",
"jXjXjXjXdXsXsX,X<X2X3X,XaXsX<X>X1X,X*Xb., % & 8 x 8 ; = ; < < < - # O @ ; ; $ & x x ; = m m.*X<XsXsXaX2XdXfXdXfXdXfXfXjXjXjXjXjX",
"jXjXjXjXfXfXfXsXdXaXaXaXsXsXsXaX3X:Xm., ; ; 8 M N w w w x w x ; $ o + % x 9 0 w h M 9 * ; i / -XsX3X3X3XaXsXdXfXfXdXjXjXjXjXjXjX",
"jXjXjXjXjXfXfXfXfXdXfXdXsXdXsXsXiX)./ K B 4 0 N O.e e e h h h w 9 8 8 9 w w e w j h 9 4 n K K B.*XsXdXdXdXfXfXfXjXfXjXjXjXjXjXjX",
"jXjXjXjXdXjXjXfXjXfXfXfXfXfXjXdX`.i K S.w.6 9 h O.} O.O.} } } e N O.N k e O.O.O.O.N 0 4 G C.c.p / dXdXjXjXjXjXjXjXjXjXjXjXjXjXjX",
"jXjXjXdXdXfXdXfXdXdXfXfXdXjXhXsX~.u K F.V.6 0 N O. . .+. . . .@. . ..... . .+.@.} j w 4 0.F.v.u J yXjXjXjXjXjXjXjXjXjXjXjXjXjXjX",
"jXjXjXfXdXfXhXhXdXdXdXfXdXdXdXsXb.& q.@XC.0 w N O.-.;.;.&.=.=.=.*.;.&.&.&.-.-.-.+.} 0 8 v.$XV.r F -XjXjXjXjXjXjXjXjXjXjXjXjXjXjX",
"jXjXjXjXfXdXdXdXdXdXsXsXsXsXsX&XH l w.$XD.w w j  .;.;.;.=.=.=.=.=.*.;.*.=.=.;.*. .e w 6 w.$XA.l F Q.tXjXjXjXdXjXjXjXjXjXjXjXjXjX",
"jXjXfXfXhXhXdXhXjXdXsXdXsXaX-Xs b.@X#X$XD.f N }  .;.;.=.=.=.*.*.*.*.=.*.*.*.-.-. .} f 0 w.#XH.@Xn.a _ uXjXdXdXfXdXjXjXjXjXjXjXjX",
"jXjXjXjXfXjXfXfXfXsXdXdXdXaXB.5 n.$X#X%XC.f f j @.;.=.=.=.=.%.&.&.=.*.&.%.%.&.-. .e f 0 y.#X#X|.Z.* S =XfXjXjXdXdXdXjXfXjXjXjXjX",
"jXjXjXjXjXjXjXfXfXdXdXdXdXsXB.5 n.$XH.H.v.6 0 #.$.-.;.;.=.=.*.;.*.*.*.*.*.&...+.} h 9 6 #.H.H.#XV.4 S -XdXdXdXdXdXdXfXdXaXdXjXdX",
"jXjXjXjXjXjXjXjXjXfXjXjXfXfXB.* v.@XH.D.h.4 8 C #.x.x.x.x.0.x.x.x.x.x.x.0.z.C M M M u 8 0.C.H.@Xn.5 J yXfXdXjXhXdXjXfXdXdXjXfXfX",
"jXjXjXjXjXjXjXjXjXjXjXhXfXjXB.7 B 3.y.H.v.4 7 m m ^ ( ' ' ' ' ' ' ' ' ' ' ' R R m m , ; 2.D.V.3.C * D uXjXjXjXhXhXhXdXhXdXfXfXdX",
"jXjXjXjXjXjXjXjXjXjXjXjXjXjX&Xi u t 0.D.v.; < 3 Y T ! ` 6X` 6X6X4X6X4X6X` 6X! W Y 3 2 ; H D.w.l p i _ iXjXjXjXjXjXjXjXfXfXfXfXfX",
"jXjXjXjXjXjXjXjXfXfXdXfXdXjXjXiX~.u s Z M = 3 U T ! 4X4X5X5X5X5X5X5X5X5X6X5X4X! T Y 3 2 p F s i n ).=XjXjXjXjXjXjXjXjXjXjXjXjXjX",
"jXjXjXjXjXjXjXfXdXfXfXdXfXjXdXdX-XJ s i u < I T E ` 4X4X4X4X~ 4X~ 4X4X4X4X5X4X4X! U 1 < > r u i P -XsXdXhXjXjXjXjXjXjXjXjXjXjXjX",
"jXjXjXjXjXjXjXjXfXdXdXfXjXjXfXdXdX-X`./._ 3 1 U T ! 4XQ Q Q E T T T Q Q Q Q Q Q Q U 3 1 D b.m.~.&X<XaXaXaXfXsXdXfXjXjXjXjXjXjXjX",
"jXjXjXjXjXjXjXjXjXjXjXjXfXjXjXjXjXfXjXpX&XD 1 U T T Q Q E I I I 1 1 I I T T E E T U I 3 N.-X:X:X,X<X3X1XaXaX1XsXsXdXfXjXjXjXjXjX",
"jXjXjXjXjXjXjXjXjXjXjXjXjXjXjXjXjXjXfXsX-X{ ` 7X8X8X9X7X7X6X~ T 1 U ! ~ 7X7X7X8X7X7X` W _.iXaXaX1X<XaX<XiX3X1X3XsX>XsXjXjXjXjXjX",
"jXjXjXjXjXjXjXjXjXdXjXjXjXjXjXjXjXjXdX1X1X[ 8XrXlXlXlXlXrX8X7X` 1 W 8X8XkXlXkXkXlXlX8X[ (.:XaX<X1X1X1X1X3X1X>X3X3XaXfXsXjXjXjXjX",
"jXjXjXjXjXjXjXjXfXdXjXfXdXjXjXjXjXjXsXaX-X^ ] wXwXeXeXwXeX{ ^ ^ 1 3 ^ ] wXwXqXwX0X0X{ ^ B.aX>X>X>X>X>X>XaX3XaXaXsXaXdXfXfXjXjXjX",
"jXjXjXjXjXjXjXfXjXdXfXdXdXjXdXjXjXjXaXaX`.c C n.m.F.^.F.F.K 2 D Q.L m J F.F.S.F.v.x.C m N.iXsXsXaXsXaXaXaXiXaXaXaXaXsX3XjXjXjXjX",
"jXjXjXjXjXjXjXjXdXhXdXdXdXfXjXfXjXhXdXaX-Xn V V.A.G.].H.H.0.u F =X_ n V D.H.].H.d.y.V v S.pXsXdXpXjXdXdXsXpXjXdXdXdXdXjXjXjXjXjX",
"jXjXjXjXjXjXjXjXdXhXdXdXfXdXfXjXjXjXgXhXdXB k H.|.%X%X%X%XC u D &X_ i V #X%X#X|.H.C.V 5 ).hXhXhXjXdXhXdXhXhXjXjXjXjXfXfXjXjXjXjX",
"jXjXjXjXjXjXjXjXfXjXfXjXfXfXjXfXjXjXjXhXjXB B S.D.@XD.@X@XC u L tXN.c B D.^.^.D.C.n.B 7 `.fXjXjXfXdXjXdXjXjXjXjXjXjXjXjXjXjXjXjX",
"jXjXjXjXjXjXjXjXjXjXjXjXfXjXjXjXjXjXjXjXjXn ; i s s s s v c , / uXN., 7 v p s n i v 8 ; '.jXjXjXjXjXjXjXjXjXjXjXjXjXjXjXjXjXjXjX",
"jXjXjXjXjXjXjXjXjXjXjXjXjXjXjXjXjXjXjXjXjX_ c , , * ; * , b b _ pXQ.b , , ; > ; , , c D tXjXjXjXjXjXjXjXjXjXjXjXjXjXjXjXjXjXjXjX",
"jXjXjXjXjXjXjXjXjXjXjXjXjXjXjXjXjXjXjXjXjXpX&X).N.) ) _ B.Q.(.tXjXyXQ.N.N.N.N.N.B.(._.&XjXjXjXjXjXjXjXjXjXjXjXjXjXjXjXjXjXjXjXjX"
};
