/* XPM */
static char *_3b6963b3c704fcd82f18b8dd7881cf1[] = {
/* columns rows colors chars-per-pixel */
"64 64 185 2 ",
"   c #232420",
".  c #2B2923",
"X  c #2F2E28",
"o  c #372E23",
"O  c #3C2A23",
"+  c #3C3123",
"@  c #32312C",
"#  c #3B3A31",
"$  c #373938",
"%  c #4C2B25",
"&  c #4D2E29",
"*  c #552B24",
"=  c #4C3325",
"-  c #42352A",
";  c #4A3928",
":  c #593527",
">  c #583C26",
",  c #563529",
"<  c #433B30",
"1  c #483F35",
"2  c #642F27",
"3  c #6B3027",
"4  c #673829",
"5  c #763128",
"6  c #793729",
"7  c #763E31",
"8  c #5C4627",
"9  c #50402A",
"0  c #5A432C",
"q  c #424036",
"w  c #4F4334",
"e  c #4C453A",
"r  c #4F483D",
"t  c #5E4C32",
"y  c #5B4836",
"u  c #544B3C",
"i  c #594E3E",
"p  c #5D533F",
"a  c #654021",
"s  c #634328",
"d  c #694729",
"f  c #654F2A",
"g  c #744728",
"h  c #66502C",
"j  c #6A512A",
"k  c #7B5729",
"l  c #785A2A",
"z  c #644537",
"x  c #6F4E3C",
"c  c #66503F",
"v  c #775E33",
"b  c #78623A",
"n  c #30414F",
"m  c #324556",
"M  c #374F67",
"N  c #3B5A79",
"B  c #474A49",
"V  c #5C5243",
"C  c #5C5848",
"Z  c #575857",
"A  c #675746",
"S  c #645B4A",
"D  c #685F4D",
"F  c #745943",
"G  c #715E4C",
"H  c #68644F",
"J  c #78654C",
"K  c #666253",
"L  c #6D6651",
"P  c #63625F",
"I  c #756C55",
"U  c #7B6954",
"Y  c #7F775E",
"T  c #43576A",
"R  c #43627F",
"E  c #666766",
"W  c #676869",
"Q  c #737474",
"!  c gray50",
"~  c #87372B",
"^  c #8D3328",
"/  c #88362A",
"(  c #993629",
")  c #933A2C",
"_  c #993B2D",
"`  c #A33B2C",
"'  c #AD3F2E",
"]  c #855E28",
"[  c #9A4A31",
"{  c #8C5E39",
"}  c #B2402F",
"|  c #B74230",
" . c #BA4330",
".. c #BE4C31",
"X. c #85622D",
"o. c #8C682E",
"O. c #98682A",
"+. c #9B702E",
"@. c #8C6B34",
"#. c #946D30",
"$. c #B0712D",
"%. c #B97B2A",
"&. c #A87932",
"*. c #C45C32",
"=. c #C47B2F",
"-. c #CA6834",
";. c #D27935",
":. c #805F46",
">. c #85664D",
",. c #94684D",
"<. c #816C56",
"1. c #8B7057",
"2. c #85795F",
"3. c #9A7254",
"4. c #977A5F",
"5. c #AB7956",
"6. c #8C7761",
"7. c #877F64",
"8. c #897E62",
"9. c #977C61",
"0. c #9A7F64",
"q. c #B68032",
"w. c #BB8534",
"e. c #BF8835",
"r. c #CA852E",
"t. c #C48A35",
"y. c #CA8E36",
"u. c #DA8936",
"i. c #CF9137",
"p. c #D29337",
"a. c #D69538",
"s. c #DC9939",
"d. c #E09536",
"f. c #E49E3A",
"g. c #E9A13B",
"h. c #B2805C",
"j. c #8F8466",
"k. c #9E8166",
"l. c #908668",
"z. c #968C6D",
"x. c #988E6E",
"c. c #9F9574",
"v. c #A78163",
"b. c #A48569",
"n. c #AC8B6D",
"m. c #BA8764",
"M. c #BE906D",
"N. c #A39776",
"B. c #A79C79",
"V. c #B49272",
"C. c #BA9575",
"Z. c #BF9A77",
"A. c #AEA27D",
"S. c #B1A57F",
"D. c #D1966C",
"F. c #C69D79",
"G. c #C9A07C",
"H. c #DAA075",
"J. c #D9A47C",
"K. c #456A8E",
"L. c #4B7196",
"P. c #4E779E",
"I. c #537DA7",
"U. c #5680AB",
"Y. c #888888",
"T. c #9F9D9A",
"R. c #B5A780",
"E. c #BAAC85",
"W. c #BFB088",
"Q. c #A6A5A3",
"!. c #B5B1AD",
"~. c #CFA680",
"^. c #D5AB85",
"/. c #DBAE86",
"(. c #C3B58A",
"). c #C6B88D",
"_. c #CABA8F",
"`. c #CCBC90",
"'. c #E4AF84",
"]. c #E5B58C",
"[. c #E8B78E",
"{. c #E9B98E",
"}. c #E4CAB3",
"|. c #D1CFCF",
" X c #E0DBD9",
/* pixels */
"`.`.`.`.`.`.`.`.`.`.`.`.`.`.`.`.`.`.`.`.`.`.`.`.`.`.`.`.`.`.`.`.`.`.`.`.`.`.`.`.`.`.`.`.`.`.`.`.`.`.`.`.`.`.`.`.`.`.`.`.`.`.`.`.",
"`.`.`.`.`.`.`.`.`.`.`.`.`.`.`.`.`.`.`.`.`.`.`.`.`.`.`.`.`._.(.(.(.(.s s (.(.(.).`.`.`.`.`.`.`.`.`.`.`.`.`.`.`.`.`.`.`.`.`.`.`.`.",
"`.`.`.`.`.`.`.`.`.`.`.`.`.`.`.`.`.`.`.`.`.`.`.`.`.`.`.).(.2.u u u + + + + + u I W.W._.`.`.`.`.`.`.`.`.`.`.`.`.`.`.`.`.`.`.`.`.`.",
"`.`.`.`.`.`.`.`.`.`.`.`.`.`.`.`.`.`.`.`.`.`.`.`.`.).E.2.u @.e.w.w.w.w.w.w.w.w.@.u u l.E._.`.`.`.`.`.`.`.`.`.`.`.`.`.`.`.`.`.`.`.",
"`.`.`.`.`.`.`.`.`.`.`.`.`.`.`.`.`.`.`.`.`.`.`.`.(.8.i @.t.a.f.f.f.f.f.f.f.f.f.a.t.t.v p c.`.`.`.`.`.`.`.`.`.`.`.`.`.`.`.`.`.`.`.",
"`.`.`.`.`.`.`.`.`.`.`.`.`.`.`.`.`.`.`.`.`.`.`.).2.@.a.s.f.f.f.f.f.f.f.f.f.f.f.f.f.f.s.y.b x.`.`.`.`.`.`.`.`.`.`.`.`.`.`.`.`.`.`.",
"`.`.`.`.`.`.`.`.`.`.`.`.`.`.`.`.`.`.`.`.`.`._.j.@.s.f.f.f.f.f.f.f.f.f.f.f.f.f.f.f.f.f.f.y.b c.`.`.`.`.`.`.`.`.`.`.`.`.`.`.`.`.`.",
"`.`.`.`.`.`.`.`.`.`.`.`.`.`.`.`.`.`.`.`.`.`.E.p i.f.f.f.f.f.f.f.f.f.f.f.f.f.f.f.f.f.f.f.f.t.b c.`.`.`.`.`.`.`.`.`.`.`.`.`.`.`.`.",
"`.`.`.`.`.`.`.`.`.`.`.`.`.`.`.`.`.`.`.`.`._.I &.f.f.f.f.f.f.f.f.f.f.f.f.f.f.f.f.f.f.f.f.f.f.+.L `.`.`.`.`.! ! ! `.`.`.`.`.`.`.`.",
"`.`.`.`.`.`.`.d `.`.`.`.`.`.`.! ! `.`.`.`.R.u =.u.d.f.f.f.f.f.f.f.f.f.f.f.f.f.f.f.f.f.f.f.f.y.b z.`.`.`.! ! ! ! ! ! `.`.`.`.`.`.",
"`.`.`.`.d d d d d d `.`.`.`.! ! ! ! ! `.`.D ~  . .*.u.u.u.d.g.f.f.f.f.f.f.f.f.f.f.f.f.f.f.f.g.o.I `.`.! ! ! ! ! d d `.`.`.`.`.`.",
"`.`.`.d d d d d d d `.`.E.E W W W W W N.c.r )  .|  . . . .-.u.u.u.u.f.f.f.f.f.f.f.f.f.f.f.f.f.&.I E.`.`.! ! ! d d d d d `.`.`.`.",
"`.`.d d d d d d d d `.`.I ; h h h h h j j f 6 ~ |  . . .|  . . . .*.u.u.u.u.f.f.f.f.f.f.f.f.f.f.l 7.`.`.`.`.d d d d d d `.`.`.`.",
"`.`.`.d d d d d d `.`.`.x.b #.i.f.f.f.f.f.s.o.j 6 6 6 _  . . .| | |  . .| ..;.;.;.u.f.f.f.f.f.f.l 7.`.`.`.`.`.d d d d d `.`.`.`.",
"`.`.`.`.`.`.`.`.`.`.`.`.`.x.I v k +.f.f.f.f.f.p.o.X.X.g 2 2 3 } | | | | | | | | | *.-.-.;.f.f.f.l 7.`.`.`.`.`.`.`.`.`.`.`.`.`.`.",
"`.`.`.`.`.`.`.`.`.`.`.`.x.S C @   + j j j q.f.f.f.f.g.w.o.o.X.4 : : ~ | } } | | | | | |  .-.-.u.l 7.`.`.`.`.`.`.`.`.`.`.`.`.`.`.",
"`.`.`.`.`.`.`.`.`.`.`.`.S.V               ; 8 8 k i.a.a.f.g.f.q.&.&.k , , , 4 ' ' ' |  . .| | ..6 7.`.`.`.`.`.`.`.`.`.`.`.`.`.`.",
"`.`.`.`.`.`.`.d d `.`.`.`.E.S # @         .     . 9 ; ; &.i.y.p.g.g.p.e.e.e.+.= = = ~ ` ` '  . .3 7.`.`.`.`.`.`.`.`.`.`.`.`.`.`.",
"`.`.`.`.`.`.d d d d d `.`.`.W.R.Y .       :.<   y >.    . + + 8 w.e.e.s.g.g.s.e.e.e.l > > 4 _ _ * 7.`.`.`.`.`.`.`.`.`.`.`.`.`.`.",
"`.`.`.`.`.d d d d d d `.`.`.`.x.#         3.J < D.M.1   < X     . . . l &.&.q.f.g.g.s.p.a.q.8 8 8 I c.(.`.`.`.`.`.`.`.`.`.`.`.`.",
"`.`.`.`.`.`.d d d d d `.`.`.c.#   # r     v.~.V F.k.<.1 4.>..               - #.#.#.y.g.f.f.f.s.s.o.j I z._.`.`.`.`.`.`.`.`.`.`.",
"`.`.`.`.`.`.`.`.`.`.`.`.`.x.# . H z.7.    b.].0.A 1 V.1.b.J.<                       8 X.X.X.&.f.f.f.s.#.v L I A.`.`.`.`.`.`.`.`.",
"`.`.`.`.`.`.`.`.`.`.`.`.`.N.8.l.(.`.8.    b./.J < n.{.F.~.].0.X         U 1.X               + f f &.f.f.i.o.o.J E.`.`.`.`.`.`.`.",
"`.`.`.`.`.`.`.`.`.`.`.`.`.`.`.`.`.B.q H C 0.1.:.< A 9.].{.{.~.u F   . . u J <..               V x.J t t t t t - A.`.`.`.`.`.`.`.",
"`.`.`.`.`.`.`.`.`.`.`.`.`.`.`.`.`.x.S E.I 4.F.M.V !.Y.9.{.{.G.G 4.  G V >.M.n..               # x.R.c.c.c.c.c.N.(.`.`.`.`.`.`.`.",
"`.`.`.`.`.`.`.`.`.`.`.`.`.`.`.`.`.W.E.`.E.D Z.G.A  XQ.4.{.{.].^.b.. 9.<.1.H.n..           . D B.E.`.`.`.`.`.`.`.`.`.`.`.`.`.`.`.",
"`.`.`.`.`.`.`.`.`.`.`.`.`.`.`.`.`.`.`.`.`.S V.~.6. X}.].{.{.{.{.V.>.J./.V M.V..           # N.`.`.`.`.`.`.`.`.`.`.`.`.`.`.`.`.`.",
"`.`.`.`.`.`.`.`.`.`.`.`.`.`.`.`.`.`.`.`.N.U G.[.^.!.}.{.{.{.{.[.]./.[.C.<.F.1..       . V C 8._.`.`.`.`.`.`.`.`.`.`.`.`.`.`.`.`.",
"`.`.`.`.`.`.`.`.`.`.`.`.`.`.`.`.`.`.`.c.U F.{.{.~.n.[.{.{.{.{.{.[.[.[.n.Z.6..         D E._._.`.`.`.`.`.`.`.`.`.`.`.`.`.`.`.`.`.",
"`.`.`.`.`.`.`.`.`.`.).(.(.(.(._.`.`.`.I 1.].].[.[.{.{.{.[.{.[.[.[.[.].9.V + 2 *   % 5 c S S Y (.(.(.)._.`.`.`.`.`.`.`.`.`.`.`.`.",
"`.`.`.`.`.`.`.`.`.W.H u u u V N.`.`.`.E.I u Z.[.^.^.^.].{.[.[.[.[.{.0.>.,.= ^ ^ ~ / ` _ ~ ~ 7 r r r V A.`.`.`.`.`.`.`.`.`.`.`.`.",
"`.`.`.`.`.`.`.`.E.I k.V.n.V.n.p B._.`.`.E.C n.Z.V r u 6.].{.[.[.].^.Z.D.m., ^ } ` ( }  . . .' ) ) ) ~ c A.`.`.`.`.`.`.`.`.`.`.`.",
"`.`.`.`.`.`.`._.H 4.G.Z.<.{.G.V r W.`.`.`.E.I e 0.G.G.9.C.{.{./.9.1.J.H.x ) } | ` ` | | | | | } ` ' | ) V (.`.`.`.`.`.`.`.`.`.`.",
"`.`.`.`.`.`.`._.C b.U b.G [.G 0.r l.x.x.x.x.7.- y Z.{.].].[.C.<.1 5.H.m.[ ' | | ` ( }  . . .| ( ` | | ` w W.`.`.`.`.`.`.`.`.`.`.",
"`.`.`.`.`.`.`._.C b.G v.u 9.U Z.A $ A A A A + * / x 9.9.9.6.> % O x H.x ~  .| | | ( / ~ ~ ~ 5 /  . . .` w W.`.`.`.`.`.`.`.`.`.`.",
"`.`.`.`.`.`.`._.8.U J :.F F n.n.C.b.[.[.[.].:.O ` _ 2 2 2 * 3 ( 6 3.h.k 6 ' | | | ` 5 2 % O 2 3 5 5 6 _ w W.`.`.`.`.`.`.`.`.`.`.",
"`.`.`.`.`.`.`.`._.l.F J 3.H.3.>.F.J.J.].].'.m., ` |  .} ` ^ * 6 y D.F o.> _ | } | | | | ( 2 3 g >.>.>.z 8.).`.`.`.`.`.`.`.`.`.`.",
"`.`.`.`.`.`.`.`.`._.l.i $ V >.A t t t V V 3.5., ` ' ` ( ^ ^ 3 * 2 { q.w.a ) | | | | | | _ * 3 ,.'.'.F.r E.`.`.`.`.`.`.`.`.`.`.`.",
"`.`.`.`.`.`.`.`.`.`.).N.c.c.I 8.c.c.c.c.c.K = 6 ^ % ; ; ; ; - - 2 O +.d.[ 2 ' | | | | ` , < m.J.[.].A w E.`.`.`.`.`.`.`.`.`.`.`.",
"`.`.`.`.`.`.`.`.`.`.`.`.`.`.E.).`.`.`.`.`.R.C 5 5 S A.S.A.A.S.l.& 3 k r.$.a ) | | | } 4 k.V 1.].[.F.r c._.`.`.`.`.`.`.`.`.`.`.`.",
"`.`.`.`.`.`.`.`.`.`.`.`.! `.`.`.`.`.`.`.`.`.E.S D E.`.`.`.`.`.N.& ` 2 g =.%.g _ | | _ y b././.[.[.G & j.).`.`.`.`.`.`.`.`.`.`.`.",
"`.`.`.`.`.`.`.`.`.`.`.! ! ! ! `.`.`.`.`.`.`.`.).).`.`.`.`.`.`.c.& ^ 2 4 O.u.%.g ) | : ,.<.n.].[.Z.x 2 # E.`.`.`.`.`.`.`.`.`.`.`.",
"`.`.`.`.`.`.`.`.`.`.! ! ! ! ! `.`.`.`.`.`.`.`.`.`.`.`.`.`.`.`.c.& ~ 3 g l k k k g 3 g :.C.k.].[.U 5 & L (.`.`.`.`.`.`.`.`.`.`.`.",
"`.`.`.`.`.`.`.`.`.`.`.! ! ! ! `.`.`.`.`.`.`.`.`.`.`.`.x.D D D V . * O +.$.O.O.] ; 8 l + G /.[.n.< & 2.(.`.`.`.`.`.`.`.`.`.`.`.`.",
"`.`.`.`.`.`.`.`.`.`.`.`.`.`.`.`.`.`.`.`.`.`.`.`.`.`.x.I l.8.# T R R n 9 j %.r.$.] l ] ] k A A 1 O ; W.`.`.`.`.`.`.`.`.`.`.`.`.`.",
"`.`.`.`.`.! ! ! `.`.`.`.`.`.`.`.`.`.`.`.`.`.`.`._.z.S N.`.`.l.T U.U.L.R $ - 9 9 9 - #.u.%.O.$.l o O > d `.`.`.`.`.`.`.`.`.`.`.`.",
"`.`.`.`.! ! ! ! `.d `.`.`.`.`.`.`.`.`.`.`.`.`.`.B.< r p 8._.R.B P.U.U.U.L.M N M K.L.B q.r.] i.p.w.q.; 8 `.`.`.`.`.`.`.`.`.`.`.`.",
"`.`.`.! ! ! ! d d d d d `.`.`.`.`.`.`.`.`.`.`.`.c.V G.G.U l.(.x.m I.I.P.P.L.N M P.U.M #.a.&.l y.f.e.9 8 `.`.`.`.`.`.`.`.`.`.`.`.",
"`.`.`.`.! ! d d d d d d `.`.`.`.`.`.`.`.`.`.`.`.c.A ].].~.i S.N.n L.K.N N N N N L.P.P.B t.f.#.] e.0 c.`.`.`.`.`.`.`.`.`.`.`.`.`.",
"`.`.`.`.`.d d d d d d d `.`.`.`.`.`.`.`.`.`.`.`.S.J C.[./.J 2.x.$ N M n n n M N N P.I.T #.y.j 9 U $ I (.`.`.`.`.`.`.`.`.`.`.`.`.",
"`.`.`.`.`.`.d d d d d `.`.`.`.`.`.`.`.`.`.`.`.`.`.l.J [.].G.i 7.@ n K Z Z Z Z B M K.P.P.$ 8 B Y.Q G $ S L l._.`.`.`.`.`.`.`.`.`.",
"`.`.`.`.`.`.`.`.`.`.`.`.`.`.`.`.`.`.`.`.`.`.`.`.`.E.I b.{.^.e S 7.j.Q ! ! ! ! Q K m L.P.m B !.|.W >.v.1.9.U l.`.`.`.`.`.`.`.`.`.",
"`.`.`.`.`.`.`.`.`.`.`.`.`.`.`.`.`.`.`.`.`.`.`.`.`.`.Y <.{.^.r z.`.`.`.! ! ! ! ! E.K M m B !. XY.A h.'.'.{.k.K W.).`.`.`.`.`.`.`.",
"`.`.`.`.`.`.`.`.`.`.`.`.`.`.`.`.`.`.`.`.`.`.`.`.`.`.Y <.{.^.i E.`.`.`.`._._._._._.E.S M Q.|.T.B w i n.[.{./.U q N.`.`.`.`.`.`.`.",
"`.`.`.`.`.`.`.`.`.`.`.`.`.`.`.`.`.`.`.`.`.`.`.`.`.W.H <.{.^.r Q `.`.`.`.`.`._._.`.`.R.K Y.Y.I E.E.R.K b.Z.[.9.. x.`.`.`.`.`.`.`.",
"`.`.`.`.`.`.`.`.`.`.`.`.`.`.`.`.`.`.`.`.`.`.`.).B.2.$ <.{./.U E _.`.`.`.`.`.`.`.`.`.`.R.C K W.! ! `.S.# < V.D.0 x.`.`.`.`.`.`.`.",
"`.`.`.`.`.`.`.`.`.`.`.`.`.`.`.`.`.`.`.`.`.`._.8.; u P n.[.[.G.r (.`.`.`.`.`.`.`.`.`.`._.(.).! ! ! ! Z @ 9 F 3.0 x.`.`.`.`.`.`.`.",
"`.`.`.`.`.`.`.`.`.`.`.`.`.`.`.`.`.`.`.`.`._.l.F { > F C.[.{.G.p (.`.`.`.`.`.`.`.`.`.`.`.`.! ! ! ! Z z 1 5.x { 0 x.`.`.`.`.`.`.`.",
"`.`.`.`.`.`.`.`.`.`.`.`.`.`.`.`.`.`.`.`.`._.C y y + - 1 G G A @ Y _.`.`.`.`.`.`.`.`.`.`.`.`.! ! Z @ 9 - u - y I E.`.`.`.`.`.`.`.",
"`.`.`.`.`.`.`.`.`.`.`.`.`.`.`.`.`.`.`.`.`._.S > a a a a a a a > V _.`.`.`.`.`.`.`.`.`.`.`.`.`.`.H = a a a a = j.`.`.`.`.`.`.`.`.",
"`.`.`.`.`.`.`.`.`.`.`.`.`.`.`.`.`.`.`.`.`.`.B.= + + + + + + w < L _.`.`.`.`.`.`.`.`.`.`.`.`.`.`.Y < w w w w L E.`.`.`.`.`.`.`.`.",
"`.`.`.`.`.`.`.`.`.`.`.`.`.`.`.`.`.`.`.`.`.`.d s s s s s s s E.E.(.`.`.`.`.`.`.`.`.`.`.`.`.`.`.`.(.E.E.E.E.E.(.`.`.`.`.`.`.`.`.`.",
"`.`.`.`.`.`.`.`.`.`.`.`.`.`.`.`.`.`.`.`.`.`.`.d d d d d d d `.`.`.`.`.`.`.`.`.`.`.`.`.`.`.`.`.`.`.`.`.`.`.`.`.`.`.`.`.`.`.`.`.`.",
"`.`.`.`.`.`.`.`.`.`.`.`.`.`.`.`.`.`.`.`.`.`.`.`.`.`.`.`.`.`.`.`.`.`.`.`.`.`.`.`.`.`.`.`.`.`.`.`.`.`.`.`.`.`.`.`.`.`.`.`.`.`.`.`."
};
