/* XPM */
static char *result[] = {
/* columns rows colors chars-per-pixel */
"64 64 171 2 ",
"   c #EFB269",
".  c #EFB76F",
"X  c #F1B369",
"o  c #F0B36A",
"O  c #F0B36C",
"+  c #F2B56C",
"@  c #F0B76C",
"#  c #F0B46E",
"$  c #F1B56F",
"%  c #F2B86C",
"&  c #EFB571",
"*  c #EFB871",
"=  c #EFB973",
"-  c #EFBC73",
";  c #EEB974",
":  c #EEBC74",
">  c #EEBD78",
",  c #EFBC79",
"<  c #EFBE79",
"1  c #EFBD7B",
"2  c #EEBE7A",
"3  c #EFBF7B",
"4  c #EEBF7C",
"5  c #F0B570",
"6  c #F1B671",
"7  c #F2B670",
"8  c #F2B772",
"9  c #F0B870",
"0  c #F1B971",
"q  c #F0B972",
"w  c #F1BA73",
"e  c #F2BA72",
"r  c #F1BC71",
"t  c #F0BC72",
"y  c #F1BD73",
"u  c #F0BA74",
"i  c #F1BB75",
"p  c #F2BB74",
"a  c #F0BB76",
"s  c #F0BD74",
"d  c #F3BC75",
"f  c #F1BE75",
"g  c #F2BE74",
"h  c #F1BC77",
"j  c #F3BD77",
"k  c #F0BE76",
"l  c #F1BF77",
"z  c #F2BD78",
"x  c #F0BD7A",
"c  c #F0BF7A",
"v  c #F2BE7A",
"b  c #F0BE7C",
"n  c #F1BF7D",
"m  c #F0BE7E",
"M  c #F1BF7F",
"N  c #EEC078",
"B  c #EFC179",
"V  c #EFC27B",
"C  c #EFC07D",
"Z  c #EEC27C",
"A  c #EFC37D",
"S  c #EFC47F",
"D  c #EFC67F",
"F  c #F1C175",
"G  c #F3C077",
"H  c #F2C078",
"J  c #F2C17A",
"K  c #F4C27A",
"L  c #F0C07C",
"P  c #F1C17D",
"I  c #F0C37C",
"U  c #F3C27D",
"Y  c #F0C17E",
"T  c #F1C27F",
"R  c #F4C07C",
"E  c #F4C37C",
"W  c #F4C37E",
"Q  c #F1C47D",
"!  c #F0C47E",
"~  c #F1C57F",
"^  c #EFC481",
"/  c #EFC583",
"(  c #EFC883",
")  c #EFC885",
"_  c #EFC889",
"`  c #EFCA89",
"'  c #EFCB8B",
"]  c #F1C081",
"[  c #F0C280",
"{  c #F1C381",
"}  c #F2C380",
"|  c #F2C182",
" . c #F0C580",
".. c #F0C780",
"X. c #F1C681",
"o. c #F2C680",
"O. c #F0C582",
"+. c #F1C483",
"@. c #F2C482",
"#. c #F1C683",
"$. c #F2C782",
"%. c #F4C480",
"&. c #F4C780",
"*. c #F4C582",
"=. c #F1C585",
"-. c #F2C584",
";. c #F1C785",
":. c #F2C784",
">. c #F3C685",
",. c #F0C786",
"<. c #F4C684",
"1. c #F4C786",
"2. c #F1C881",
"3. c #F1C983",
"4. c #F4C882",
"5. c #F3C885",
"6. c #F1CA85",
"7. c #F0C986",
"8. c #F1C887",
"9. c #F3C987",
"0. c #F1CA87",
"q. c #F4C986",
"w. c #F3CC87",
"e. c #F3C789",
"r. c #F1C989",
"t. c #F2C988",
"y. c #F1CB89",
"u. c #F2CB88",
"i. c #F3CA89",
"p. c #F2CA8A",
"a. c #F3CB8B",
"s. c #F4CA88",
"d. c #F5CB89",
"f. c #F4CB8A",
"g. c #F1CD89",
"h. c #F3CC89",
"j. c #F1CC8B",
"k. c #F2CC8A",
"l. c #F3CD8B",
"z. c #F2CF8A",
"x. c #F4CD88",
"c. c #F4CD8A",
"v. c #F5CC8B",
"b. c #F5CE8B",
"n. c #F2CA8C",
"m. c #F3CB8D",
"M. c #F2CB8E",
"N. c #F1CC8D",
"B. c #F2CD8C",
"V. c #F3CE8D",
"C. c #F2CD8E",
"Z. c #F3CC8F",
"A. c #F3CE8F",
"S. c #F4CC8C",
"D. c #F4CE8C",
"F. c #F4CC8E",
"G. c #F4CF8E",
"H. c #F2D08E",
"J. c #F3D18F",
"K. c #F5D08F",
"L. c #F5D28F",
"P. c #F3CF91",
"I. c #F4CD90",
"U. c #F4CF90",
"Y. c #F3D191",
"T. c #F0D092",
"R. c #F3D293",
"E. c #F4D290",
"W. c #F5D391",
"Q. c #F5D493",
"!. c #F6D594",
/* pixels */
"!.!.!.!.!.!.!.!.!.!.!.!.!.!.!.!.!.!.!.!.!.!.!.!.!.!.!.!.!.!.!.!.!.!.!.!.!.!.!.!.!.!.!.!.!.!.!.!.!.!.!.!.!.!.!.!.!.!.!.!.!.!.!.!.",
"!.!.!.!.!.!.!.!.!.!.!.!.!.!.!.!.!.!.!.!.!.!.!.!.!.!.!.!.!.!.!.!.!.!.!.!.!.!.!.!.!.!.!.!.!.!.!.!.!.!.!.!.!.!.!.!.!.!.!.!.!.!.!.!.",
"!.!.!.!.!.!.!.!.!.Q.Q.!.!.!.!.!.!.!.!.!.!.!.!.!.!.!.!.!.!.!.!.!.!.!.!.!.!.!.!.!.!.!.!.!.!.!.!.!.!.!.!.!.!.!.!.!.!.!.!.!.!.!.!.!.",
"!.!.!.!.!.!.W.K.W.K.U.Q.!.!.!.!.!.!.!.!.!.Q.W.!.Q.Q.Q.W.W.!.!.!.!.!.!.!.!.!.!.!.!.!.!.!.!.!.!.!.!.!.!.!.!.!.!.!.!.!.!.!.!.!.!.!.",
"!.!.!.Q.K.K.K.D.K.K.S.K.Q.!.!.!.!.!.Q.W.W.K.G.W.G.G.K.K.G.W.K.K.E.U.E.Q.W.Q.W.W.!.!.!.Q.K.W.!.G.!.!.!.!.!.!.!.!.!.!.!.!.!.!.!.!.",
"!.!.!.W.S.G.K.G.S.b.G.K.W.!.!.!.!.G.K.h.v.K.G.G.D.i.D.D.b.D.c.a.U.s.S.K.S.K.K.U.L.U.G.K.G.S.Q.S.D.!.!.!.!.!.!.!.!.!.!.!.!.!.!.!.",
"!.!.!.W.U.K.K.D.f.f.G.G.K.!.!.!.v.K.U.G.b.K.S.b.h.S.G.a.b.f.4.5.c.u.q.S.f.D.G.b.S.b.v.G.G.G.G.b.K.W.!.!.!.!.!.!.!.!.!.!.!.!.!.!.",
"!.!.!.Q.W.W.K.K.K.G.W.W.W.!.!.!.G.G.G.K.G.K.G.F.S.G.F.S.U.G.t.9.l.s.q.t.v.b.c.v.v.b.G.G.G.v.h.S.G.S.!.!.!.!.!.!.!.!.!.!.!.!.!.!.",
"!.!.!.Q.W.W.Q.W.W.W.Q.Q.Q.!.!.!.W.!.K.U.G.U.K.L.K.K.E.E.I.S.G.U.S.V.G.a.U.U.D.G.G.G.G.G.U.K.G.U.v.S.!.!.!.!.!.Q.!.K.!.!.!.!.!.!.",
"!.!.W.K.K.A.W.Q.Q.Q.!.!.!.!.Q.E.U.A.A.B.I.U.E.k.V.E.A.h.B.,.7.h.k.V.A.G.K.W.K.W.W.K.K.E.U.V.@.9.X.#.U.W.K.E.E.c.E.U s.W.!.!.!.!.",
"!.K.G.K.L.K.L.!.!.!.R.E.B.u.B.8.;.$.8.:.} @.:.T T X.~ T h J ;.Y { ;.0.*.G.W.W.Q.W.W.E.a.c.J 0 n @.p } <.%.5.:.w 1.P R G.Q.!.!.!.",
"!.K.G.G.K.K.E.W.s.D.U n f J E v P h j z w 6 w 0 9 9 # q q o z w j ;.-.J W 5.E q.K.!.W 4.c.P j R U p R P P } 4.G J v @.4.c.W.!.!.",
"!.W.W.L.G.q.s.5.p i O @ q w n c ~ n c H q 9 q 6 9   r H f = 6 % p p w X f e $.} 8.K.T 4.s.%.W } U J E P H j } e y d j J G.W.!.!.",
"!.Q.Q.Q.A.n @.P q @ u - z J T P { T X.X.Y J 3 P L < s s c w w 9 0 O 0 0 5 H H H n G.$.u.G.i.1.5.<.i.s.8.:.} K J H P *.B.E.Q.!.!.",
"!.Q.K.c.V.$.$.@.a h 0 z L P n P L $.X.{ :.{ P @.>.@.#.P L P b ~ ! F 0 0 l $ w J E $.*.h.5.W.U.E.E.U.E.U.V.A.a.5.9.5.p.u.G.Q.!.!.",
"S.G.S.v.l.a.c.0.#.P T P T +.9.9.9.;.0.+.:.8.8.0.h.8.a.m.0.#.! h.B.;.Y t a } J i.>.*.i.s.q.!.!.!.!.!.!.Q.W.E.E.U.U.G.E.L.W.!.!.!.",
"S.G.K.v.i.1.w.t.>.;.#.8.#.8.C.T.Y.U.V.s.h.i.m.i.a.a.a.V.J.a.V.V.9.{ :.| I i.e.l.D.G.K.K.K.!.!.!.!.!.!.!.!.Q.Q.Q.W.W.Q.Q.Q.!.!.!.",
"W.W.G.K.G.k.k.u.5.w.i.l.f.a.U.G.E.K.U.G.G.S.G.G.G.K.K.K.E.E.E.9.9.h.i.9.m.V.Y.E.Q.Q.E.U.U.W.K.W.!.!.!.!.!.!.!.!.!.!.!.!.!.!.!.!.",
"K.W.W.K.W.U.G.a.s.s.i.9.c.c.K.K.E.Q.W.W.W.L.K.L.W.W.Q.W.R.E.E.G.B.6.5.8.u.h.E.!.W.K.U.S.G.K.G.U.W.K.W.!.!.!.!.!.!.!.!.!.!.!.!.!.",
"Q.Q.Q.W.W.E.E.A.V.V.a.c.a.c.G.U.W.Q.Q.Q.Q.Q.Q.Q.!.!.!.!.!.!.Q.W.Y.J.a.D.G.E.Q.!.K.S.D.b.b.c.h.G.K.K.L.!.!.!.!.!.!.!.!.!.!.!.!.!.",
"!.!.!.!.!.Q.Q.W.W.W.K.K.W.K.K.K.K.Q.!.!.!.!.!.!.!.!.!.!.!.!.!.!.Q.R.E.E.R.Q.Q.!.W.K.U.G.S.q.5.a.U.K.L.!.!.!.!.!.!.!.!.!.!.!.!.!.",
"!.!.!.!.!.!.Q.Q.R.a.Q.Q.Q.R.U.E.R.K.!.!.!.!.!.!.!.!.!.!.!.!.!.!.!.!.!.!.!.!.!.!.W.W.L.K.K.V.f.G.G.K.K.W.!.!.!.!.!.!.!.!.!.!.!.!.",
"!.!.!.!.!.!.b.G.G.U.U.U.G.K.S.U.K.G.W.!.!.!.Q.Q.K.K.!.!.!.!.!.!.!.!.!.!.!.!.!.!.Q.W.Q.W.W.E.E.E.K.K.L.W.!.!.!.!.!.!.!.!.!.!.!.!.",
"!.!.!.!.!.!.S.S.W.v.f.s.v.G.c.c.G.G.G.U.!.!.K.K.K.b.U.K.U.W.!.!.!.!.!.!.!.!.!.!.!.Q.Q.Q.Q.R.R.U.R.E.U.!.!.W.W.W.K.W.!.!.!.!.!.!.",
"!.!.!.!.!.!.W.Q.S.b.G.f.G.G.S.S.b.G.G.b.!.W.W.K.b.b.G.K.K.W.!.!.!.!.!.!.!.!.!.!.!.!.W.W.W.G.W.b.G.K.S.U.G.c.V.G.S.L.!.!.!.!.!.!.",
"!.!.!.!.!.!.K.W.L.G.K.G.G.G.G.K.G.K.W.K.!.Q.K.G.c.f.f.G.U.W.!.!.!.!.!.!.!.!.!.!.!.W.U.K.K.G.K.h.c.D.f.b.b.i.c.S.h.G.!.!.!.!.!.!.",
"!.!.!.!.!.!.!.Q.Q.W.W.U.K.K.K.W.W.W.Q.W.!.Q.W.K.G.U.G.G.U.K.Q.!.!.!.!.!.!.!.!.!.!.K.G.U.K.G.G.v.S.b.v.b.u.c.c.d.s.S.E.!.!.!.!.!.",
"!.!.!.!.!.!.!.!.!.Q.Q.Q.W.Q.Q.W.Q.Q.Q.Q.!.Q.Q.W.W.W.W.K.W.W.!.!.!.!.!.!.!.!.!.!.!.W.K.K.U.G.S.G.G.S.K.K.l.a.i.s.c.l.E.!.!.!.!.!.",
"!.!.!.!.!.!.!.!.!.!.!.!.!.!.!.!.!.!.!.!.!.!.!.!.Q.Q.Q.Q.Q.!.!.!.!.!.!.!.!.!.!.!.!.Q.Q.W.K.K.K.K.K.W.L.W.U.G.V.A.G.A.L.!.!.!.!.!.",
"!.!.!.!.!.!.!.W.K.Q.K.K.!.!.!.!.!.!.!.!.!.!.!.!.!.!.!.!.!.!.!.!.!.!.!.!.!.!.!.!.!.!.Q.Q.Q.W.Q.Q.Q.Q.Q.Q.R.Q.W.W.W.W.Q.!.!.!.!.!.",
"!.!.!.!.Q.K.K.K.G.K.K.S.K.!.!.!.!.!.!.!.!.!.!.Q.W.W.Q.U.W.W.l.Q.K.a.!.!.!.!.!.!.!.!.!.!.!.!.!.!.!.!.!.!.!.Q.Q.Q.Q.Q.Q.!.!.!.!.!.",
"!.!.!.!.W.S.G.K.G.D.S.G.L.W.!.!.!.!.!.!.!.W.K.U.B.y.W.j.j.B.y.g.C.B.A.!.K.!.Q.K.Q.E.U.W.Q.W.W.!.!.!.!.!.!.!.!.!.!.!.!.!.!.!.!.!.",
"!.!.!.!.W.U.K.K.D.f.c.G.G.K.!.!.!.!.Q.E.9.5.c  ._ 8.y._ 8.j.:.} =.;.8.p.;.Z.I.0.F.f.8.k.K.F.i.E.Q.W.G.Q.W.W.!.!.!.!.!.!.!.!.!.!.",
"!.!.!.!.Q.W.W.K.K.U.G.K.K.W.W.E.E.0.' ; H ! f H ,.P ~ X.+.] P J Y { < Y Y } r.v P $.n 2.8.9.>.h.V.K.9.S.F.l.W.a.K.!.!.!.!.!.!.!.",
"!.!.!.!.Q.E.W.E.W.W.W.W.W.E.S.c.L < k . 0 < I N ! b 1 < z t 2 c , s a a < 8 :.h 0 n p 0 v n :.~ >.G.>.5.k.T >.i.} l.!.!.!.!.!.!.",
"!.!.!.!.!.W.Q.b.E.Q.E.R.5.%.%.} w w c T 3 P P ! { L < 1 < < c a * q t 5 z c < T M V L J z c i l L @.;.n H J j v } s.U.!.!.!.!.!.",
"!.!.!.!.Q.G.Q.S.S.Q.s.K.%.G R K p < Y :.;.9.p.p.n.V.;.T S > < , 1 L C J ;.L n , x n L f h d w l f l ~ w 0 e + 7 j g } b.!.!.!.!.",
"!.!.!.!.L.W.K.S.K.S.G.b.K o.4.4.l l a c +.k.a.V.V.8.h.2.@.L Y v ~ X.{ :.9.8.9.T { Y A f z h w 3 3 J *.@.j } G G j 4.5.D.!.!.!.!.",
"!.!.!.!.W.G.G.G.G.h.s.*.W %.P 5.} T P @.| 8.j.p.B.j.;.5.8.B.C.;.r.5.@.k.B.h.V.5.9.o.$.$.P ~ *.Q #.:.;.5.*.*.5.x.5.G.U.K.!.!.!.!.",
"!.!.!.!.W.W.K.W.W.G.U.c.f.f.s.b.G.a.8.:.P ~ @.p.h.k.8.f.S.E.R.E.U.W.K.U.W.K.K.b.b.b.c.G.V.c.V.s.q.f.f.i.b.V.V.E.U.E.W.W.!.!.!.!.",
"!.!.!.!.!.Q.Q.Q.Q.R.W.W.K.L.K.L.W.G.>.s.&.*.@.b.i.V.S.V.G.Q.R.U.U.!.!.Q.!.Q.E.U.G.E.E.E.W.A.E.E.V.E.E.G.E.E.E.W.W.R.R.V.W.!.!.!.",
"!.!.!.!.!.!.!.!.!.!.Q.Q.Q.Q.Q.!.!.U.l.h.c.h.h.V.A.A.E.W.G.G.G.U.K.W.!.!.W.K.K.G.G.K.U.G.W.G.S.W.f.G.U.D.K.K.G.K.K.S.K.G.D.W.!.!.",
"!.!.!.!.!.!.!.!.!.!.!.!.!.!.!.!.!.Q.R.E.G.A.A.K.W.E.E.A.A.f.G.K.S.v.U.!.K.S.U.G.c.b.G.S.G.b.b.U.i.v.G.c.b.b.v.S.G.G.U.G.K.W.Q.!.",
"!.!.!.!.!.!.Q.Q.W.G.!.!.!.!.!.!.!.!.Q.Q.W.W.Q.E.U.K.b.S.U.K.G.U.K.K.K.!.W.K.K.G.S.b.D.D.f.f.S.c.i.a.5.a.s.1.v.f.D.S.S.G.G.D.W.!.",
"!.!.!.!.!.!.W.G.W.S.D.!.!.!.!.!.!.!.!.!.!.!.!.K.S.U.b.v.v.G.G.L.W.W.W.!.W.W.W.K.K.K.G.G.G.G.S.h.t.h.$.q.c.h.G.U.G.G.G.U.K.K.Q.!.",
"Q.K.K.!.K.K.G.G.G.G.W.W.!.!.!.!.!.!.!.!.!.!.!.W.K.K.G.G.b.G.U.K.W.W.Q.!.Q.W.Q.W.L.W.L.W.K.K.E.G.G.c.5.h.V.c.f.G.K.K.W.W.W.W.Q.!.",
"K.K.b.q.G.K.K.f.S.G.S.G.!.!.!.!.!.!.!.!.!.!.!.W.W.W.K.L.K.K.W.W.!.!.!.!.!.Q.Q.Q.Q.Q.Q.Q.Q.Q.R.E.V.l.c.c.c.U.V.U.Q.Q.Q.Q.!.Q.!.!.",
"L.G.U.l.V.G.U.G.U.L.K.W.!.!.!.!.!.!.!.!.!.!.!.Q.W.Q.W.W.W.W.Q.!.!.!.!.!.!.!.!.!.!.!.!.!.!.!.Q.W.K.G.G.U.U.W.W.W.!.!.!.!.!.!.!.!.",
"D.G.G.c.U.K.U.U.U.W.Q.Q.!.!.!.!.!.!.!.!.!.!.!.!.Q.Q.Q.Q.Q.Q.!.!.!.!.!.!.!.!.!.!.!.!.!.Q.Q.W.W.V.E.W.W.W.W.W.W.Q.!.!.!.!.!.!.!.!.",
"L.K.L.L.E.Q.W.W.Q.!.!.!.!.!.!.!.Q.R.U.s.W.!.!.U.W.G.U.W.W.!.!.!.!.!.!.!.!.!.!.!.!.!.Q.K.K.D.G.S.D.W.Q.Q.Q.R.V.E.!.!.!.!.!.!.!.!.",
"Q.Q.Q.Q.Q.!.!.!.!.!.!.!.!.K.K.K.l.9.a.J *.U.s.p.U.V.5.i.s.L.b.!.!.!.!.!.!.!.!.!.!.!.K.G.G.K.G.b.K.W.Q.G.G.G.K.K.Q.!.!.!.!.!.!.!.",
"!.!.!.!.!.!.!.!.!.Q.Q.K.G.;.@.c.;. .#.p P -.q T X.8.-.} T q.1.K.!.!.!.!.!.!.!.!.!.!.K.G.G.S.b.b.G.D.W.G.S.W.G.S.c.W.!.!.!.!.!.!.",
"!.!.!.!.!.!.Q.E.a.8.K.#.#.{ Y $.[ 3 m b 3 Y 3 3 , 3 { , s v P 5.s.c.A.h.i.Q.G.W.!.!.Q.Q.K.G.G.G.U.K.Q.W.W.U.K.K.G.W.!.!.!.!.!.!.",
"!.!.!.!.!.G.V.9.0.L #.+.3 [ c c 3 < a 3 c I Y Z 3 a V a & = l f Y y.9.0.~ { 5.G.J.S.K.V.U.W.L.W.W.W.Q.L.W.Q.L.Q.W.Q.!.!.!.!.!.!.",
"!.!.!.!.W.5.v >.Y 2 ! / L Y L Y C  .T D X.{ #.C L C c 3 a t p c h { { O.~  .l p e 6 $.9.h.K.!.Q.!.Q.!.!.Q.Q.Q.W.W.Q.!.!.!.!.!.!.",
"!.!.!.Q.*.l.@.J P < L ! B A 4 Y c [ / ^ #.8.7.+.=.S  .Y : : h V , L Y { #.n w $ % # , X.} c.!.!.!.!.!.!.Q.Q.K.!.!.!.!.!.!.!.!.!.",
"!.!.!.G.W.h.$.9.| | A Y 3 3 , b 3 1 I b { #.#.#./ +.{ < k s < < P L { 8.y.T L z b q y J ..8.!.!.!.Q.Q.D.K.W.D.K.!.!.!.!.!.!.!.!.",
"!.!.!.W.%.5.$.@.[ ;.8.#.Y X.8.( 8.:.^  .#.3.X.#.8._ 8.T J L ! L T P $.-.8.8.7.-.{ n P } #.;.W.!.!.G.W.G.c.K.D.U.W.!.!.!.!.!.!.!.",
"!.!.!.K.W.a.V.B.B.` j.y.B.V.K.B.m.p.y.r.h.B.C.z.B.M.A.B.C.y.8.8.i.B.C.V.J.N.p.k.y.t.8.8.) h.U.!.W.W.K.b.G.D.G.U.K.!.!.!.!.!.!.!.",
"!.!.!.!.W.W.W.Q.W.K.U.A.A.U.U.K.U.G.V.S.U.E.E.E.W.W.Q.!.Q.Y.Y.Y.E.E.E.W.R.E.P.H.T.B.V.B.p.A.W.!.Q.G.G.G.S.l.U.G.K.!.!.!.!.!.!.!.",
"!.!.!.!.!.!.!.!.!.Q.Q.W.K.K.K.W.W.W.W.E.E.E.E.E.Q.!.!.!.!.!.!.!.!.!.!.!.!.!.Q.K.W.E.E.E.U.Q.!.!.W.W.K.K.K.K.W.W.W.!.!.!.!.!.!.!.",
"!.!.!.!.!.!.!.!.!.!.Q.Q.W.W.!.Q.Q.Q.Q.Q.!.!.!.!.!.!.!.!.!.!.!.!.!.!.!.!.!.!.!.Q.Q.Q.W.W.W.!.!.!.!.Q.Q.W.Q.W.Q.Q.Q.!.!.!.!.!.!.!.",
"!.!.!.!.!.!.!.!.!.!.!.!.!.!.!.!.!.!.!.!.!.!.!.!.!.!.!.!.!.!.!.!.!.!.!.!.!.!.!.!.!.!.!.!.!.!.!.!.!.!.!.!.!.!.!.!.!.!.!.!.!.!.!.!.",
"!.!.!.!.!.!.!.!.!.!.!.!.!.!.!.!.!.!.!.!.!.!.!.!.!.!.!.!.!.!.!.!.!.!.!.!.!.!.!.!.!.!.!.!.!.!.!.!.!.!.!.!.!.!.!.!.!.!.!.!.!.!.!.!."
};
